<?xml version="1.0" encoding="UTF-8"?>
<svg id="a" data-name="Layer 1" xmlns="http://www.w3.org/2000/svg" xmlns:xlink="http://www.w3.org/1999/xlink" viewBox="0 0 354.36 750">
  <defs>
    <clipPath id="b">
      <path d="M13.7,309.33s-21.41,6.32-10.69,29.65c-.8,23.23,9.61,132.98,19.23,145,9.61,12.02,31.24,39.25,31.24,39.25l35.44,193.85c1.05,6.19,4.94,11.58,10.55,14.42,49.73,25.17,97.89,24.12,144.65.15,5.7-2.92,9.56-8.5,10.47-14.84l38.6-204.8s25.68-24.02,33.69-41.65,19.32-114.56,19.32-114.56c11.69-7.89,14.04-38.92-14.73-43.26-22.97-3.46-317.76-3.21-317.76-3.21Z" fill="#e5dca5"/>
    </clipPath>
    <clipPath id="c">
      <path d="M219.65,401.8s89.32,1.55,142.91-62.82l-35.68,131.38s-12.67,26.45-152.19,29.58c-100.01,2.24-120.8-21.69-120.8-21.69,15.36,7.49,196.53,4.53,200.78-32.87,4.01-35.26-35.01-43.59-35.01-43.59Z" fill="#23253a" opacity=".1"/>
    </clipPath>
    <clipPath id="d">
      <path d="M293.18,512.01c-34.13,20.68-112.27,34.54-200.71,16.75,0,0,144.4,125.94,53.96,231.76l61.79,18.99,63.02-8.14,21.95-259.37Z" fill="#23253a" opacity=".1"/>
    </clipPath>
    <clipPath id="e">
      <path d="M195.86,209.32c56.44,29.27,158.87,35.54,148.42,106.61-10.45,71.07-152.6,74.21-201.72,65.85-49.12-8.36-137.73-30.56-138.23-105.88-.26-38.92,23.25-22.68,33.71-31.04,10.45-8.36-11.5-50.17,15.68-60.62,27.18-10.45,94.07,0,94.07,0l48.08,25.08Z" fill="#73a820"/>
    </clipPath>
    <clipPath id="f">
      <path d="M73.87,136.82c-1.43-49.09,86.3-71.57,81.39-106.65-4.91-35.08-37.89-21.05-35.08-2.81,0,0-7.72-27.36,23.86-27.36s79.28,25.26,79.28,72.27-22.45,77.88,36.48,99.63c58.94,21.75,44.51,92.44,31.57,99.63-37.89,21.05-213.29,9.82-217.5-134.71Z" fill="#73a820"/>
    </clipPath>
  </defs>
  <g>
    <path d="M13.7,309.33s-21.41,6.32-10.69,29.65c-.8,23.23,9.61,132.98,19.23,145,9.61,12.02,31.24,39.25,31.24,39.25l35.44,193.85c1.05,6.19,4.94,11.58,10.55,14.42,49.73,25.17,97.89,24.12,144.65.15,5.7-2.92,9.56-8.5,10.47-14.84l38.6-204.8s25.68-24.02,33.69-41.65,19.32-114.56,19.32-114.56c11.69-7.89,14.04-38.92-14.73-43.26-22.97-3.46-317.76-3.21-317.76-3.21Z" fill="#e5dca5"/>
    <g clip-path="url(#b)">
      <path d="M3,338.98s37.3,57.1,134.47,62.82c0,0-72.88,2.86-111.47-22.15-38.58-25.01-35.73,30.01-35.73,30.01l-10.72-38.58,23.44-32.09Z" fill="#23253a" opacity=".18"/>
      <g>
        <path d="M219.65,401.8s89.32,1.55,142.91-62.82l-35.68,131.38s-12.67,26.45-152.19,29.58c-100.01,2.24-120.8-21.69-120.8-21.69,15.36,7.49,196.53,4.53,200.78-32.87,4.01-35.26-35.01-43.59-35.01-43.59Z" fill="#23253a" opacity=".1"/>
        <g clip-path="url(#c)">
          <path d="M234.78,401s41.77,3.28,75.67-4.96c31.67-7.7,26.33,47.39,26.33,47.39l44.32-118.9-146.32,76.47Z" fill="#23253a" opacity=".1"/>
        </g>
      </g>
      <g>
        <path d="M293.18,512.01c-34.13,20.68-112.27,34.54-200.71,16.75,0,0,144.4,125.94,53.96,231.76l61.79,18.99,63.02-8.14,21.95-259.37Z" fill="#23253a" opacity=".1"/>
        <g clip-path="url(#d)">
          <path d="M162.62,526.03s103.5,139.51,77.5,232.51l74.5-182.51-6.35-79.64-145.66,29.64Z" fill="#23253a" opacity=".1"/>
        </g>
      </g>
      <path d="M12.67,322.47c7.03.03,13.61,3.35,19.61,7.02-3.8-7.81-7.61-15.62-11.41-23.42-1.4-2.87-3.04-5.98-6-7.19-2.9-1.18-6.2-.16-9.1,1.01-4.59,1.87-9.09,4.19-12.64,7.65-3.55,3.46-6.08,8.19-6.04,13.15.04,5.28,3.66,12.22,9.67,9.55s8.27-7.8,15.91-7.77Z" fill="#23253a" opacity=".1"/>
      <path d="M339.96,336.25c4.39-1.61,9.73-1.44,13.26,1.63,3.41,2.97,4.36,7.85,4.61,12.36,4.66-7.51,5.74-17.14,2.85-25.5-2.89-8.36-9.69-15.27-18-18.29-2.45-.89-5.26-1.44-7.6-.27-1.81.9-3.01,2.67-3.98,4.44-3.86,7-5.44,15.19-4.66,23.13,1.23,12.62,5.68,5.37,13.52,2.5Z" fill="#23253a" opacity=".1"/>
      <path d="M217.91,505.31c-.28,6.18-59.17,9.39-82.99,7.61-23.82-1.77-47.24-7.01-70.39-12.92-5.93-1.51-12.03-3.08-18.1-2.3-6.07.78-12.19,4.51-13.87,10.4-18.5-15.52-27.5-41.56-22.54-65.2-2.06,9.83,14.08,25.88,20.75,31.05,10.8,8.36,22.25,12.79,35.35,16.76,28.75,8.72,52.24,14.99,82.19,15.54,50.47.94,69.8-5.59,69.59-.94Z" fill="#fff" opacity=".66"/>
      <path d="M22.26,350.16c41.67,30.51,145.18,50.53,145.18,45.6s-24.58-5.63-34.88-8.62c-11.71-3.4-23.28-7.28-34.68-11.63-22.99-8.77-45.26-19.43-66.5-31.85-2.8-1.64-12.22-9.58-15.54-7.32-5.44,3.71,3.77,11.89,6.42,13.82Z" fill="#fff" opacity=".66"/>
      <path d="M304.55,372.94c3.93,5.28-28.2,14.7-41.51,17.69-10.88,2.45-21.85,4.63-32.94,5.89-6.54.74-25.01,3.01-24.73-.04s26.34-4.18,35.65-5.39c9.69-1.26,20.98-5.74,30.39-8.36,6.32-1.75,29.21-15.08,33.13-9.79Z" fill="#fff" opacity=".66"/>
    </g>
  </g>
  <g>
    <path d="M195.86,209.32c56.44,29.27,158.87,35.54,148.42,106.61-10.45,71.07-152.6,74.21-201.72,65.85-49.12-8.36-137.73-30.56-138.23-105.88-.26-38.92,23.25-22.68,33.71-31.04,10.45-8.36-11.5-50.17,15.68-60.62,27.18-10.45,94.07,0,94.07,0l48.08,25.08Z" fill="#73a820"/>
    <g clip-path="url(#e)">
      <path d="M11.37,241.44c4.81,42.51,33.15,81.6,72.06,99.39,18.73,8.56,39.21,12.34,59.39,16.46,4.68.96,9.68,2.18,13.91,4.34,3.89,2,2.39,7.92-1.98,7.72-28.17-1.32-56.04-8.87-80.99-22.03-5.75-3.03-11.59-6.43-18.08-6.92-6.48-.49-13.83,3.03-15.2,9.39-.45,2.08-.86,4.96-2.99,5.07-.87.04-1.65-.48-2.35-.99-25.96-18.78-47.34-56.33-38.74-88.8,2.58-9.74,5.45-18.53,14.99-23.64Z" fill="#23253a" opacity=".18"/>
      <path d="M115.27,336.38c-5.5.88-10.88-1.95-15.48-5.09-28.52-19.5-43.69-52.76-64.59-80.28-3.93-5.18-8.22-10.46-9.49-16.84-1.38-6.93,1.12-13.65,3.82-19.92,2.28-5.31,4.21-14.91,7.58-19.03,3.17,9.81,3.26,21.37,5.96,31.56,2.78,10.53,6.42,20.83,10.83,30.78,8.78,19.78,20.64,38.21,35.09,54.33,4.05,4.52,8.3,8.85,12.73,12.98,1.98,1.84,11,11.92,13.55,11.51Z" fill="#23253a" opacity=".18"/>
      <path d="M71.53,198.34c1.49,8.08.91,16.38,1.36,24.58,1.62,29.02,16.2,55.9,34.17,78.74,13.62,17.32,29.82,33.27,49.87,42.42,20.04,9.15,44.46,10.64,63.69-.11-34.91-2.84-69.6-16.85-93.57-42.38-23.98-25.54-35.88-63.16-26.77-96.98,1.75-6.5,4.25-13.11,3.23-19.76-1.34-8.74-8.54-15.52-16.4-19.57-5.96-3.08-13.05-4.99-19.36-2.71-5.68,2.05-11.24,9.87-7.8,15.85,1.72,2.99,5.39,5.01,7.29,8.15,2.17,3.59,3.53,7.68,4.29,11.79Z" fill="#23253a" opacity=".18"/>
      <path d="M145.12,291.23c13.53,17.48,35.29,28.29,57.39,28.51,15.28.16,30.15-4.42,44.85-8.6,14.7-4.18,29.9-8.03,45.09-6.39,15.19,1.65,30.55,9.9,36.58,23.94-1.06-11.53-11.11-20.27-21.63-25.1-17.61-8.08-37.66-8.61-57.03-8.07-19.37.54-39.05,1.98-57.87-2.6-5.87-1.43-12.61-4.61-13.22-10.62-.48-4.68,3.35-8.94,7.79-10.5,4.43-1.56,9.3-1.04,13.95-.36,20.53,2.99,40.71,8.57,61.42,9.94,20.71,1.37,42.74-2.01,58.95-14.97,2.88-2.31,5.61-4.98,7.11-8.35,3.96-8.92-1.96-19.31-9.5-25.51-9.19-7.57-20.78-11.69-32.46-14.01s-23.61-2.98-35.43-4.44c-15.89-1.96-31.64-5.37-47.64-5.8-20.02-.54-40.13,3.76-58.25,12.27-7.28,3.42-14.56,5.6-14.96,14.2-.43,9.27-.66,18.31,1.38,27.44,2.34,10.49,6.91,20.51,13.5,29.01Z" fill="#23253a" opacity=".18"/>
      <path d="M212.97,387.94c18.7-9.32,37.4-18.64,56.11-27.96,3.54-1.77,7.27-3.7,9.35-7.07,3.45-5.61.88-13.35-4.02-17.76-4.9-4.41-11.5-6.3-17.85-8.06,16.42-7.33,36.37-6.16,51.83,3.04,5.46,3.25,10.42,7.44,16.36,9.68,5.94,2.24,13.47,2,17.69-2.73,4.61-5.18,3.44-13.19,1.41-19.82-2.6-8.47-6.16-16.66-10.59-24.34-1.38-2.4-2.89-5.28-1.68-7.77,1.17-2.42,4.29-3.09,6.97-3.11,12.01-.1,23.42,7.3,29.57,17.62,6.15,10.32,7.37,23.12,4.84,34.86-2.53,11.74-8.58,22.5-16.05,31.91-16.56,20.87-40.57,35.7-66.64,41.17-26.07,5.47-54.01,1.53-77.56-10.92-.79-2.73-.52-5.99.26-8.72Z" fill="#23253a" opacity=".18"/>
      <path d="M53.83,163.22c13.42,6.98,21.95,20.9,26.82,35.22,4.87,14.32,6.71,29.48,10.63,44.09,3.91,14.61,10.65,32.16,22.43,41.64-4.13-7.41-6.94-18.62-7.6-27.07-.18-2.28-.14-4.82,1.4-6.51,2.28-2.51,6.44-1.72,9.45-.14,13,6.8,18.14,22.52,27.9,33.49,9.59,10.78,23.81,16.79,38.16,18.25,14.36,1.46,28.88-1.31,42.55-5.92-2.72-.14-5.57-.33-7.85-1.81-2.28-1.48-3.65-4.74-2.16-7.01.92-1.41,2.62-2.06,4.21-2.63,7.25-2.58,14.5-5.17,21.76-7.75-10.97-11.68-27.42-16.18-40.75-25.06-14.83-9.89-25.35-24.88-38-37.44-21.41-21.24-48.72-35.31-75.57-49.05-7.41-3.79-17.08-7.36-23.34-1.88-3.54-.45-6.47.04-10.01-.41Z" fill="#23253a" opacity=".18"/>
      <path d="M109.35,319.22c-17.97-9.38-30.17-27.12-38.44-45.62-8.27-18.5-13.31-38.3-21.27-56.94-3.3-7.72-7.81-15.91-15.72-18.73-2.18-.78-4.68-1.2-6.15-2.98-1.59-1.92-1.36-4.88-.08-7.03,1.28-2.15,3.39-3.65,5.49-5,7.65-4.92,19.45-14.04,20.94-.38,1.28,11.76,1.19,23.39,3.37,35.11,4.51,24.2,13.51,47.56,26.39,68.54,7.29,11.87,15.82,22.97,25.47,33.02Z" fill="#fff" opacity=".26"/>
      <path d="M170.51,357.11c.65,5.05,4.55,9.21,9.09,11.49,4.55,2.28,9.71,2.96,14.77,3.49,19.4,2.01,40.43,1.68,56.48-9.41,3.89-2.69,7.53-6.19,8.87-10.73s-.39-10.22-4.74-12.08c-4-1.71-9.93-.53-11.7-4.5-1.54-3.46,2.09-7,5.53-8.59s7.65-3.12,8.6-6.79c-23.44,7.73-48.74,9.73-73.1,5.77,3.94,5.73,11.33,8,18.26,8.55,6.93.55,13.99-.22,20.79,1.21,4.49.95,9.41,3.65,9.88,8.22.52,5.01-4.5,8.69-9.06,10.83-10.75,5.05-22.5,7.96-34.37,8.49-6.9-.9-13.22-2.56-19.3-5.93Z" fill="#fff" opacity=".26"/>
    </g>
  </g>
  <g>
    <path d="M73.87,136.82c-1.43-49.09,86.3-71.57,81.39-106.65-4.91-35.08-37.89-21.05-35.08-2.81,0,0-7.72-27.36,23.86-27.36s79.28,25.26,79.28,72.27-22.45,77.88,36.48,99.63c58.94,21.75,44.51,92.44,31.57,99.63-37.89,21.05-213.29,9.82-217.5-134.71Z" fill="#73a820"/>
    <g clip-path="url(#f)">
      <path d="M133.32,119.7c-2.65,13.06-.96,26.71,2.93,39.45,3.8,12.46,9.87,24.5,19.28,33.51,16.58,15.88,40.76,20.21,63.43,23.82-19.26-7.28-36.67-19.4-50.19-34.93-6.21-7.14-11.78-15.43-12.78-24.84-.4-3.83.39-8.4,3.81-10.16,4.91-2.53,10.11,2.5,13.83,6.58,13.42,14.74,33.09,23.04,52.96,24.53s39.89-3.47,57.86-12.11c-13.42,6.57-30,3.97-42.87-3.64-12.86-7.61-22.55-19.59-30.76-32.08-7.65-11.63-14.41-24.37-15.75-38.23-1.82-18.79.75-29.08-2.6-47.65-4.9-27.2-45.44-39-54.73-35.39,41.24,5.05,42.4,30.42,41.77,36.34-.92,8.63-42.01,54.25-46.18,74.8Z" fill="#23253a" opacity=".18"/>
      <path d="M141.97,54.09c-20.46,22.54-31.34,53.49-29.5,83.87,1.85,30.38,16.4,59.79,39.44,79.68,23.04,19.89,54.25,30.01,84.58,27.4,3.21-.28,12.26-1.02,9.52.67-22.69,13.99-91.18-4.52-117.63-39.2-10.55-13.83-18.42-29.67-30.06-42.6-4.02-4.47-9.25-8.84-15.24-8.36-4.84.39-8.94,4.02-11.23,8.3-2.29,4.28-3.09,9.18-3.86,13.97-8.2-20.95-11.43-44.28-6.19-66.16,5.24-21.88,19.61-42.02,40-51.53,5.36-2.5,11.24-4.28,17.13-3.78,5.89.5,11.8,3.62,14.47,8.89l8.57-11.16Z" fill="#fff" opacity=".26"/>
      <path d="M202.43,141.6c-35.55-41.39-11.84-66.46-14.03-78.97-26.22,42.75-5,77.54,11.1,91.06,13.81,11.6,32.88,17.32,50.73,14.08,2.41-.44,11.01-1.43,10.75-4.85-.21-2.82-9.48-5.86-11.81-6.78-6.11-2.42-11.9-2.18-18.33-2.6-10.85-.71-21.23-3.57-28.42-11.94Z" fill="#23253a" opacity=".18"/>
      <path d="M141.71,252.94s118.33,24.51,142.73-10.5c24.4-35.01,8.63-57.96,8.63-57.96l33.7,18.64v70.98l-34.32,30.65-150.74-34.23v-17.58Z" fill="#23253a" opacity=".18"/>
      <path d="M141.71,252.94s151.76,64.21,164.84-28.1l1.97,41.28c-11.43,27.64-53,26.64-94.55,25.67l-72.26-38.85Z" fill="#23253a" opacity=".18"/>
      <path d="M114.72,19.72c2.84-6.45,9.24-10.69,15.88-13.01,16.64-5.81,35.36-1.37,50.84,7.06,6.01,3.27,11.81,7.24,15.88,12.74,6.15,8.31,7.65,19.09,8.45,29.39.8,10.3,1.19,20.96,5.63,30.29-1.08-5.53-1.15-11.26-.21-16.81.36-2.12.96-4.38,2.65-5.71,2.23-1.76,5.62-1.18,7.94.47s3.86,4.14,5.53,6.44,3.67,4.57,6.39,5.43c-4.94-22.93-14.08-45.53-30.16-62.61-16.08-17.08-39.87-27.9-63.08-24.52-6.58.96-13.19,3.12-18.21,7.49-5.02,4.37-8.18,11.24-6.88,17.77.36,1.81-.43,3.76-.65,5.6Z" fill="#fff" opacity=".26"/>
    </g>
  </g>
  <path d="M174.76,169.52c-1.09,2.9-.02,6.26,1.93,8.67s4.67,4.05,7.34,5.63c11.5,6.78,23.23,13.18,35.15,19.18,3.7,1.86,7.53,3.76,10.28,6.86s4.23,7.73,2.45,11.48c-1.78,3.75-7.51,5.33-10.28,2.25,6.2,7.11,22.01,8.49,30.96-3.12,2.88-3.74-.4-9.1-3.95-12.22-3.55-3.11-7.96-6.55-7.67-11.26.57-9.3,12.65-7.56,18.09-10.66-4.01-3.97-12.17-1.03-17.15-.7-7.89.52-15.84.23-23.67-.86-3.97-.55-45.12-10.84-43.46-15.25Z" fill="#fff" opacity=".26"/>
</svg>