<?xml version="1.0" encoding="UTF-8"?>
<svg id="a" data-name="Layer 1" xmlns="http://www.w3.org/2000/svg" xmlns:xlink="http://www.w3.org/1999/xlink" viewBox="0 0 559.01 750">
  <defs>
    <clipPath id="b">
      <path d="M279.51,0C125.14,0,0,32.93,0,73.55v470.98c0,14.6,16.17,28.19,44.03,39.63,12.37,5.08,20.53,17.05,20.53,30.42v98.64c0,20.31,96.24,36.78,214.95,36.78s214.95-16.46,214.95-36.78v-98.64c0-13.37,8.16-25.34,20.53-30.42,27.87-11.44,44.03-25.04,44.03-39.63V73.55C559.01,32.93,433.88,0,279.51,0Z" fill="#fff"/>
    </clipPath>
    <clipPath id="c">
      <path d="M279.51,700.45c-94.21,0-158.6-9.93-188.3-19.34-10.98-3.48-18.39-13.69-18.39-25.21v-41.32c0-16.72-10.07-31.66-25.65-38.06-24.73-10.15-38.91-21.81-38.91-31.99V73.55c0-11.65,19.89-29.33,75.71-44.02,52.12-13.72,121.57-21.27,195.54-21.27s143.42,7.55,195.54,21.27c55.82,14.69,75.71,32.37,75.71,44.02v470.98c0,10.18-14.18,21.84-38.91,31.99-15.58,6.39-25.65,21.33-25.65,38.06v41.32c0,11.52-7.41,21.73-18.39,25.21-29.7,9.42-94.09,19.34-188.3,19.34Z" fill="#d2d2d2"/>
    </clipPath>
    <clipPath id="d">
      <path d="M595.12,293.28l-13.33,2.63v-129.45s-52.22-23.93-89.2-37.83c-36.99-13.9-120.75,4.11-149.9,2.6-29.15-1.5-47.27,5.84-70.84-9.37-23.56-15.21-61.95-8.34-92.56,0-30.61,8.34-67.45,25.02-107.17,14.67-39.73-10.35-77.22,29.94-77.22,29.94l-48.41,130.54,1.58,409.43,362.99,23.77,278.72-1.08,35.41-409.61-30.08-26.24Z" fill="#f2f4e4"/>
    </clipPath>
    <clipPath id="e">
      <path d="M31.05,252.04c10.89,10.1,29.59,17.95,39.1,6.54,6-7.21,4.71-19.02,11.81-25.15,11.54-9.97,29.73,5.32,36.93,16.18,4.17,6.28,10.6,10.89,18.09,11.72,25.12,2.78,17.51-31.95,37.87-32.27,6.77-.1,12.88,4,16.19,9.91,11.78,21.01,32.15,36.68,55.12,43.57,8.42,2.53,17.09-3.72,17.27-12.51.3-14.35,2.89-28.43,13.52-39.51,7.38-7.69,18.6-11.07,28.56-7.27,15.94,6.08,17.49,24.72,23.56,39.29,5.07,12.16,14.78,22.86,27.39,26.69,12.6,3.83,27.91-.55,34.74-11.81,5.92-9.76,4.89-22.6,13.3-31.43,3.32-3.49,8.17-5.46,12.83-4.26,13.28,3.44,7.82,24.79,19.26,28.15,9.51,2.8,16.32-11.28,17.74-19.32,1.1-6.23,5.71-11.59,11.99-12.36,8.86-1.09,12.47,8.19,16.31,15.15,3.47,6.28,12.49,11.82,17.07,6.29,3.41-12.85,7.14-26.3,18.62-34.49,6.01-4.29,13.85-5.76,20.67-2.93,13.99,5.83,13.82,24.08,21.52,36.32,5.81,9.24,16.2,14.96,21.69,24.39,10.92,18.74-1.53,41.99-13.67,59.97-6.03-15.49-30.38-15.19-41.59-2.92-11.21,12.27-12.54,30.43-12.33,47.05.73,56.07,8.68,164.7-7.03,166.92-15.73,2.23.39-145.56-20.35-215.27-1.79-6.02-6.91-10.74-13.17-11.35-11.28-1.11-15.75,11.42-17.6,21.5-14.74,80.42-10.16,241.86-26.65,243.6-16.5,1.74-3.29-256.51-30.18-250.05-26.89,6.46-5.65,260.94-20.13,258.3-14.48-2.64-11.01-132.53-16.52-198.8-1.23-14.78-2.79-30.51-15.07-40.77-5.83-4.87-13.91-6.72-20.98-3.93-11.99,4.75-13.53,18.34-14.09,30.03-3.41,71.64,4,214.92-10.23,214.92s-22.04-77.47-19.91-118.01c2.13-40.53-.91-117.24-12.1-119.82-11.19-2.58-2.24,157.32-14.44,156.57-12.2-.75-3.96-107.8-5.83-126.84s-15.04,11.41-17.02,20.56c-1.98,9.14-.71,18.63.22,27.94,4.99,49.55-5.39,145.91-13.9,147.81-8.52,1.9-12.14-129.04-7.28-193.56,2.35-31.14,6.17-63.82-8.22-92.08-2.12-4.16-6.77-6.75-11.3-5.65-6.3,1.53-6.89,8.25-6.87,13.8.3,79.11,12.08,241.64.91,237.33s-31.84-239.47-31.84-239.47c-.61-4.6-4.25-8.52-8.89-8.73-6.54-.3-8.69,6.48-9.4,12.06-3.51,27.47,1.46,55.2,3.81,82.8,2.35,27.59-2.62,79.25-11.75,80.98s-.33-174.01-16.96-173.57c-16.62.44-24.35,66.47-25.51,102.21-1.63,50.01,1.94,148.39-4.9,150.03-6.83,1.64-30.66-229.58-30.66-229.58-.43-3.23-1.9-6.35-4.5-8.32-9.25-7.03-18.34,5.77-21.46,15.9-12.97,42.06-29.33,124.59-38.92,126.17-9.58,1.59-9.42-27.04-11.15-33.67-2.98-11.45-5.23-23.09-6.74-34.82-3.13-24.26-3.14-48.92-.05-73.18,3.09-24.26,9.31-48.1,18.56-70.74,3.88-9.49,4.71-16.31,15.87-15.58,10.94.71,21.22,12.49,28.65,19.38Z" fill="#774f2f"/>
    </clipPath>
    <clipPath id="f">
      <path d="M271.85,168.11s77.92-109.6,106.43-102c28.51,7.6,125.44,102,125.44,102,0,0-24.71,29.78-61.45,22.17-36.74-7.6-60.82-37.38-90.59-28.51-29.78,8.87-72.22,12.04-79.82,6.34Z" fill="#fff"/>
    </clipPath>
    <clipPath id="g">
      <path d="M56.45,152.9s39.91,25.34,65.89,19.01c25.97-6.34,79.82-24.07,113.4-17.74,0,0-32.94-63.99-57.02-64.62-24.07-.63-74.76,22.17-85.53,28.51-10.77,6.34-36.74,34.84-36.74,34.84Z" fill="#fff"/>
    </clipPath>
    <clipPath id="h">
      <path d="M213.45,756.6s177.42-40.45-40.28-138.79c0,0,294.99-126.07,132.52-465.18,0,0,224.26-14.36,245.07-79.08l.58,447.87s-5.62,260.11-15.49,263.66-322.39-28.48-322.39-28.48Z" fill="#23253a" opacity=".09"/>
    </clipPath>
  </defs>
  <g>
    <path d="M279.51,0C125.14,0,0,32.93,0,73.55v470.98c0,14.6,16.17,28.19,44.03,39.63,12.37,5.08,20.53,17.05,20.53,30.42v98.64c0,20.31,96.24,36.78,214.95,36.78s214.95-16.46,214.95-36.78v-98.64c0-13.37,8.16-25.34,20.53-30.42,27.87-11.44,44.03-25.04,44.03-39.63V73.55C559.01,32.93,433.88,0,279.51,0Z" fill="#fff"/>
    <g clip-path="url(#b)">
      <g>
        <path d="M279.51,700.45c-94.21,0-158.6-9.93-188.3-19.34-10.98-3.48-18.39-13.69-18.39-25.21v-41.32c0-16.72-10.07-31.66-25.65-38.06-24.73-10.15-38.91-21.81-38.91-31.99V73.55c0-11.65,19.89-29.33,75.71-44.02,52.12-13.72,121.57-21.27,195.54-21.27s143.42,7.55,195.54,21.27c55.82,14.69,75.71,32.37,75.71,44.02v470.98c0,10.18-14.18,21.84-38.91,31.99-15.58,6.39-25.65,21.33-25.65,38.06v41.32c0,11.52-7.41,21.73-18.39,25.21-29.7,9.42-94.09,19.34-188.3,19.34Z" fill="#d2d2d2"/>
        <g clip-path="url(#c)">
          <path d="M263.76,128.78s-5.14-84.55,48.99-93.35c54.13-8.8,31.83-17.85-8.12-17.91-73.53-.1-240.81,9.23-281.22,56.96,0,0,117.63,54.1,240.34,54.29Z" fill="#23253a" opacity=".1"/>
          <g>
            <path d="M595.12,293.28l-13.33,2.63v-129.45s-52.22-23.93-89.2-37.83c-36.99-13.9-120.75,4.11-149.9,2.6-29.15-1.5-47.27,5.84-70.84-9.37-23.56-15.21-61.95-8.34-92.56,0-30.61,8.34-67.45,25.02-107.17,14.67-39.73-10.35-77.22,29.94-77.22,29.94l-48.41,130.54,1.58,409.43,362.99,23.77,278.72-1.08,35.41-409.61-30.08-26.24Z" fill="#f2f4e4"/>
            <g clip-path="url(#d)">
              <path d="M256.58,773.97c-27.09,0-54.38-2.27-81.1-6.74-70.18-11.75-122.83-37.62-160.95-79.11-31.91-34.72-73.34-110.86-48.68-167.33,10.62-24.33,32.57-38.29,60.22-38.29s57.82,13.83,74.05,34.42c6.37,8.09,10.98,17.5,15.04,25.81,6.12,12.52,10.23,20.26,15.71,22.21.8.28,1.6.42,2.46.42,8.98,0,22.91-14.55,28.15-20.02,12.64-13.21,32.02-30.76,54.34-30.76,6,0,11.86,1.26,17.41,3.75,7.86,3.52,13.9,9.06,18.75,13.51,3,2.76,5.84,5.36,7.93,6.37,1,.48,2.11.72,3.4.72,4.97,0,11.64-3.51,17.41-9.17,4.78-4.69,9.32-10.56,14.13-16.77,5.42-7.01,11.02-14.25,17.8-20.97,13.59-13.47,29.31-20.88,44.28-20.88,6.42,0,12.62,1.36,18.43,4.05,18.18,8.41,27.43,26.73,34.86,41.45,4.53,8.97,8.81,17.44,13.67,21.1,2.68,2.02,5.83,2.96,9.9,2.96,10.41,0,23.4-6.09,35.8-12.32,17.71-8.9,32.98-13.22,46.68-13.22,15.73,0,29.48,6.02,39.77,17.4,14.45,15.99,20.37,41.67,15.44,67.01-4.33,22.32-15.79,39.97-24.02,51.3-40.82,56.15-103.28,93.74-185.67,111.73-34.53,7.54-69.92,11.36-105.19,11.36Z" fill="#73a820" opacity=".26"/>
              <path d="M124.9,615.91c18.23,5.5,36.07-8.36,50.3-21.01,14.23-12.65,32.89-25.9,50.68-19.12,9.7,3.7,16.55,12.74,26.15,16.7,14,5.78,30.28-.72,41.91-10.42,11.63-9.7,20.44-22.41,32.01-32.18,11.57-9.76,27.75-16.44,41.84-10.89,21.52,8.47,25.48,38.91,44.95,51.39,19.12,12.26,44.07,2.57,64.95-6.36,20.88-8.92,47.65-15.97,64.18-.4,9.8,9.22,12.47,24.26,9.47,37.38-3,13.12-10.86,24.6-19.59,34.83-43.02,50.36-108.62,76.07-173.74,88.16-59.13,10.98-120.06,12.27-179.6,3.79-54.35-7.74-109.55-24.71-149.84-62.01-25.99-24.06-63.42-80.61-44.34-117.78,17.82-34.74,79.34-21.8,100.75,1.31,13.59,14.67,18.76,40.19,39.93,46.59Z" fill="#73a820"/>
              <path d="M299.7,617.57c-3.41.75-3.57,1.67-7.04-3.68-18.57-28.62-17.28-86.07-16.08-117.62,1.28-33.72,2.43-62.32-2.25-91.69-.64-4.02-6.5-3.8-6.74.27-1.03,17.57-1.15,39-1.25,42.97-.42,16.65,2.15,86.76-12.17,85.85-17.51-1.12-10.06-79.92-9.75-94.91.04-2,.47-11.11.64-19.71.09-4.18-5.8-5.33-7.21-1.39-.78,2.18-1.41,4.3-1.81,6.2-1.88,8.89-.78,16.43-.18,24.86.04.61.12,2.55.19,3,3.16,20.03-.95,77.94-2.06,89.23-2.35,24-.83,53.17-15.73,63.98-1.56,1.13.19.77-1.39-.25-1.57-1.02-1.88,3.83-3.89-2.37-19-58.4-9.45-138.61-5.86-200.95.11-1.92.39-5.05.5-6.92,1.98-32.35,8.83-28.14-5.3-57.63-5.36-11.2-10.26.91-10,7.37.91,23.11-1.06,50.94-.49,67.31,1.55,43.94,10.31,117.74-2.48,150.88-2.14,5.53-2.58.47-3.87,2.14-.97,1.26-.12.23-.14.22-1.66-.93-.28,1.4-2.22-.37-12.34-11.26-19.45-112.24-21.59-134.47-1.04-10.77-10.48-106.09-10.75-110.12-1.23-18.15-8.96-12.59-9.46-8.36-2.64,22.48-1.25,45.01.94,67.83.7,7.28,1.51,12.46,1.91,20.69,1.16,23.8,5.67,69.62-15.17,86.77-.34.28-.7.25-.87.13-.17-.12-.02.36-.04.35-11.96-9.35-8.54-53.29-9.03-76.08-.22-9.98,2.71-53.35-1.3-80.57-1.16-7.9-11.94-9.2-15.23-1.92-11.92,26.34-11.77,63.51-12.74,90.24-.39,10.86.92,49.83,1.03,54.6.44,18.41,5.91,82.87-5.12,92.35-.54.46-.73-.07-1.01.02-.28.1-.09.26-.22.2-11.22-5.36-22.76-96.3-24.95-115.39-1.06-9.25-15.7-88.34-16.55-91.84-3.34-13.84-2.47-5.35-4.32-8.19-1.86-2.84-1.92-1.26-3.3-1.36-6.32-.46-9.63,7.02-11.47,12.31-3.54,10.17-10.75,37.76-12.36,44.51-5.27,22.1-7.31,65.22-26.45,76.75-1.18.71-.97-.12-1.42.12-.45.24-.09.03-.09.03-12.34-2.23-13-17.81-14.53-27.76-.37-2.4-.87-5.61-1.27-7.07-3.46-12.68-6.27-22.09-8.15-35.24-3.88-27.13-4.64-55.43-.53-83.03,4.11-27.6,13.29-52.05,26.05-76.54.69-1.32,1.03-1.9,1.68-3.11,4.11-7.69,7.96-11.8,17.19-11.52.48.01,1.1.07,1.74.28,10.82,3.44,17.22,11.93,23.62,20.71,1.07,1.46,2.48,2.91,3.08,4.02,3.85,7.1,15.87,11.87,20.73,11.62,3.63-.19.83-.03.83-.03,4.7-1.15,6.99-2.31,9.31-6.24,2.33-3.93,2.72-7.06,3.51-12.19.8-5.13,1.83-12.19,5.75-16.76,2.68-3.13,6.15-5.6,10.41-6.16,12.7-1.68,24.97,5.14,33.76,12.94,5.8,5.15,9.39,6.09,16.31,5.98.95-.01,1.57-.11,2.28-.42,8.01-3.48,11.69-9.19,13.76-18.31,2.07-9.11,13.17-19.35,19.45-20.36,4.7-.75,1.05-.21,1.06-.21,10.48-.08,15.73,2.92,21.2,11.27,14.57,22.24,32.15,40.63,55.16,54.31.89.53,1.82.99,2.74,1.06,5.21.4,9.01-1.52,9.61-7.39,1.55-15.13,4.54-27.08,16.09-38.59,5.7-5.68,14.81-9.34,23.29-9.28,3.48.03,7.11.64,10.2,2.15,13.48,6.61,17.93,18.84,22.09,32.02,1.31,4.13,2.26,7.92,3.63,10.9,4.96,10.74,11.46,19.51,23.73,19.64,3.01.03,4.69.18,7.85-2.09,10.53-7.58,16.08-17.13,19.7-30.74,1.91-7.2,3.11-19.78,4.19-27.03,1.62-10.81,3.26-25.5,12.33-31.17,5.82-3.64,9.24-2.96,15.1-1.72,1.63.34,2.76,1.14,4.07,1.86,9.64,5.28,10.16,17.45,11.21,26.16s1.09,14.89,6.12,20.7c.72.83.93.93,1.61.97,8.37.5,12.64-8.55,16.35-15.51,4.73-8.87,13.02-10.04,22.59-6.88.8.26,1.75.62,2.44,1.01,10.53,5.91,15.21,13.7,19.57,24.49.56,1.39.83,2.2,1.34,3.31,2.18,4.71,5.68,8.92,10.18,11.02.77.36,1.29.58,1.5.19,7.42-13.51,16.44-21.88,31.5-26.67,5.6-1.78,12.64-1.47,18.46-.32,3.36.66,6.87,2.11,9.59,4.11,10.37,7.64,13.44,18.58,16.67,30.29,1.69,6.12,2.85,10.87,5.4,16.53,2.55,5.66,6.24,9.72,9.93,15.11,3.69,5.39,8.91,10.75,10.86,17.62,7.64,26.98-3.23,47.86-19.59,68.89-1.07,1.38-2.85,1.16-3.64,1.15-.79,0-.43-.04-.6-.11-1.73-.75-2.4-1.37-2.96-3.25-2.26-7.59-8.46-10.47-15.49-13.48-7.03-3.01-17.41-5.24-23.89-2.11-15.46,7.47-16.83,23.76-18.63,37.31-1.38,10.4-2.82,34-3.16,38.64-1.95,26.39-1.33,114.45-23.55,127.12-.3.17-.53.51-.85.18-.32-.32,0,0,0,0-17.57-17.69-6.86-47.6-4.2-81.37,2.19-27.7,9.41-102.94-4.87-140.07-1.81-4.7-5.92-11.33-11.58-12.27-.43-.07-.74-.17-1.17-.24-10.15-1.58-12.49,10.24-15.56,17.1-13.13,29.35-17.02,106.35-18.28,126.32-2.28,36.09-1.15,98.03-20.18,115.73-.24.22-.35-.08-.58-.23-16.22-10.32-12.82-85.09-13.26-108.54-.17-9.22-1.94-77.11-3-85.64-1.65-13.31,1.44-51.17-9.85-48.59-11.29,2.58-9.36,36.94-11.07,57.18-1.09,12.9-2.81,85.06-2.64,102.73.32,33.7,7.14,77.6-6.59,103.75-2.68,5.1-2.61.59-4.05,2.03-1.08,1.08-.19.16-.19.15-.57-.24-.68.48-1.07.1-18.6-18.12-14.13-99.48-14.63-130.57-.17-10.44-.82-57.96-2.45-76.03-.99-11.01-2.32-24.17-13.43-30.24-3.22-1.76-7.43-3.13-11.41-2.85-1.9.13-3.65.45-5.56,1.29-9.73,4.26-11.17,10.31-12.08,21.72-1.57,19.76-1.78,62.6-1.77,78.6.02,41.96,8.54,96.73-9.14,129.63-3.73,6.95-1.8,1.93-5.21,2.67Z" fill="#774f2f" opacity=".25"/>
              <g>
                <path d="M31.05,252.04c10.89,10.1,29.59,17.95,39.1,6.54,6-7.21,4.71-19.02,11.81-25.15,11.54-9.97,29.73,5.32,36.93,16.18,4.17,6.28,10.6,10.89,18.09,11.72,25.12,2.78,17.51-31.95,37.87-32.27,6.77-.1,12.88,4,16.19,9.91,11.78,21.01,32.15,36.68,55.12,43.57,8.42,2.53,17.09-3.72,17.27-12.51.3-14.35,2.89-28.43,13.52-39.51,7.38-7.69,18.6-11.07,28.56-7.27,15.94,6.08,17.49,24.72,23.56,39.29,5.07,12.16,14.78,22.86,27.39,26.69,12.6,3.83,27.91-.55,34.74-11.81,5.92-9.76,4.89-22.6,13.3-31.43,3.32-3.49,8.17-5.46,12.83-4.26,13.28,3.44,7.82,24.79,19.26,28.15,9.51,2.8,16.32-11.28,17.74-19.32,1.1-6.23,5.71-11.59,11.99-12.36,8.86-1.09,12.47,8.19,16.31,15.15,3.47,6.28,12.49,11.82,17.07,6.29,3.41-12.85,7.14-26.3,18.62-34.49,6.01-4.29,13.85-5.76,20.67-2.93,13.99,5.83,13.82,24.08,21.52,36.32,5.81,9.24,16.2,14.96,21.69,24.39,10.92,18.74-1.53,41.99-13.67,59.97-6.03-15.49-30.38-15.19-41.59-2.92-11.21,12.27-12.54,30.43-12.33,47.05.73,56.07,8.68,164.7-7.03,166.92-15.73,2.23.39-145.56-20.35-215.27-1.79-6.02-6.91-10.74-13.17-11.35-11.28-1.11-15.75,11.42-17.6,21.5-14.74,80.42-10.16,241.86-26.65,243.6-16.5,1.74-3.29-256.51-30.18-250.05-26.89,6.46-5.65,260.94-20.13,258.3-14.48-2.64-11.01-132.53-16.52-198.8-1.23-14.78-2.79-30.51-15.07-40.77-5.83-4.87-13.91-6.72-20.98-3.93-11.99,4.75-13.53,18.34-14.09,30.03-3.41,71.64,4,214.92-10.23,214.92s-22.04-77.47-19.91-118.01c2.13-40.53-.91-117.24-12.1-119.82-11.19-2.58-2.24,157.32-14.44,156.57-12.2-.75-3.96-107.8-5.83-126.84s-15.04,11.41-17.02,20.56c-1.98,9.14-.71,18.63.22,27.94,4.99,49.55-5.39,145.91-13.9,147.81-8.52,1.9-12.14-129.04-7.28-193.56,2.35-31.14,6.17-63.82-8.22-92.08-2.12-4.16-6.77-6.75-11.3-5.65-6.3,1.53-6.89,8.25-6.87,13.8.3,79.11,12.08,241.64.91,237.33s-31.84-239.47-31.84-239.47c-.61-4.6-4.25-8.52-8.89-8.73-6.54-.3-8.69,6.48-9.4,12.06-3.51,27.47,1.46,55.2,3.81,82.8,2.35,27.59-2.62,79.25-11.75,80.98s-.33-174.01-16.96-173.57c-16.62.44-24.35,66.47-25.51,102.21-1.63,50.01,1.94,148.39-4.9,150.03-6.83,1.64-30.66-229.58-30.66-229.58-.43-3.23-1.9-6.35-4.5-8.32-9.25-7.03-18.34,5.77-21.46,15.9-12.97,42.06-29.33,124.59-38.92,126.17-9.58,1.59-9.42-27.04-11.15-33.67-2.98-11.45-5.23-23.09-6.74-34.82-3.13-24.26-3.14-48.92-.05-73.18,3.09-24.26,9.31-48.1,18.56-70.74,3.88-9.49,4.71-16.31,15.87-15.58,10.94.71,21.22,12.49,28.65,19.38Z" fill="#774f2f"/>
                <g clip-path="url(#e)">
                  <path d="M69.82,372.54c.14,47.56.29,95.12.43,142.68.05,17.34.38,35.69,9.48,50.45,9.1,14.76,30.34,23.47,44.36,13.27,7.47-5.44,11.07-14.61,14.14-23.33,27.07-76.97,41.71-158.3,43.21-239.88.12-6.3.2-12.82,2.8-18.56,2.61-5.74,8.49-10.51,14.74-9.71,6.3.81,10.57,6.62,14.07,11.93,22.32,33.85,44.64,67.7,66.96,101.55,13.22-11.79,15.29-31.24,19.01-48.55s12.95-36.76,30.45-39.5c13.47-2.1,26.3,7.03,34.64,17.82,8.34,10.79,13.91,23.59,22.92,33.82,9.01,10.23,23.35,17.74,36.17,13.11,16.11-5.82,20.52-25.96,23.96-42.74,3.44-16.78,12.54-36.75,29.68-36.89,9.83-.08,18.22,6.84,27.63,9.68,21.43,6.47,43.25-9.01,57.69-26.11,7.27-8.61,15.66-18.83,26.92-18.27,15.65.77,21.67,20.53,23.11,36.14,4,43.15,4.93,86.58,2.77,129.85-3.12,62.74-14.48,129.1-56.34,175.94-35.87,40.14-89.32,60.15-142.21,70.22-79.25,15.09-161.3,11.03-240.58-3.91-55.48-10.45-113.67-28.55-148.98-72.6-24.45-30.51-34.73-69.58-47.73-106.45-18.13-51.43-46.3-108.74-28.18-164.21,12.75-39.01,53.14-65.05,90.32-38.23,26.72,19.27,28.46,52.29,28.55,82.48Z" fill="#23253a" opacity=".21"/>
                </g>
              </g>
              <path d="M67.41,154.09c16.89,13.33,33.78,26.66,50.67,39.99,3.9,3.08,8.16,6.3,13.12,6.51,5.35.23,10.12-3.06,14.66-5.89,24.11-15.02,52.92-20.09,80.92-24.87,10.75-1.83,22.7-3.44,31.8,2.58,5.75,3.81,9.41,10.14,14.98,14.22,10.68,7.8,25.49,5.59,38.22,2.03,12.73-3.56,26.26-8.14,38.83-4.04,9.23,3.02,17.12,10.55,26.84,10.73,7.25.13,13.82-3.92,20.69-6.23,6.88-2.31,15.87-2.18,19.77,3.94,9.71,15.25,34.42,19.25,52.1,15.45,17.67-3.79,33.55-13.19,50.35-19.87,16.79-6.68,36.18-10.55,52.66-3.13-.7-7.75-1.43-15.62-4.17-22.9-2.74-7.29-7.79-14.05-14.95-17.11-12.15-5.19-25.71,1.4-38.53,4.57-22.57,5.58-46.18.27-69.31-2.19-46.62-4.96-93.57,1.8-140.37,4.74-13.42.85-27.3,1.31-39.87-3.47-14.64-5.56-25.75-17.54-38.82-26.18-13.06-8.64-31.21-13.61-43.87-4.39-31.43,22.91-78.19,25.32-115.72,35.5Z" fill="#23253a" opacity=".1"/>
            </g>
          </g>
          <path d="M94.07,183.33c4.54,3.97,9.23,8.03,14.92,10.06,9.34,3.33,19.66.64,29.04-2.57,18.86-6.45,37.03-14.98,56.31-20.07,19.27-5.09,40.31-6.54,58.73,1.1,4.14,1.72,10.21,3.2,12.01-.91.68-1.54.34-3.33-.12-4.96-5.3-18.83-24.25-31.1-43.42-35.01-19.17-3.91-38.97-1.19-58.49.16-21.33,1.47-43.1,1.32-63.51,7.68-8.08,2.52-27.16,8.05-29.33,17.82s17.5,21.13,23.87,26.7Z" fill="none"/>
          <g>
            <path d="M271.85,168.11s77.92-109.6,106.43-102c28.51,7.6,125.44,102,125.44,102,0,0-24.71,29.78-61.45,22.17-36.74-7.6-60.82-37.38-90.59-28.51-29.78,8.87-72.22,12.04-79.82,6.34Z" fill="#fff"/>
            <g clip-path="url(#f)">
              <path d="M271.85,168.11s70.37-77.28,78.49-67.68c8.12,9.6-3.69,37.67,9.6,36.93,13.3-.74,19.96-.44,20.68,13.08.72,13.51,2.95,45.46,2.95,45.46l11.82-22.97s-15.02-75.88,5.91-76.93c20.93-1.05,108.58,85.68,108.58,85.68l-48.75,19.2h-152.15l-37.13-32.77Z" fill="#f2f4e4" opacity=".65"/>
            </g>
          </g>
          <g>
            <path d="M56.45,152.9s39.91,25.34,65.89,19.01c25.97-6.34,79.82-24.07,113.4-17.74,0,0-32.94-63.99-57.02-64.62-24.07-.63-74.76,22.17-85.53,28.51-10.77,6.34-36.74,34.84-36.74,34.84Z" fill="#fff"/>
            <g clip-path="url(#g)">
              <path d="M60.64,163.68s29.17-43.76,37.41-38.05c8.24,5.71,24.47,57.68,24.28,46.28-.19-11.4-17.37-49.45,6.44-57.06,23.81-7.61,74.69,20.93,106.96,50.1,32.27,29.17-152.27,21.37-152.27,21.37l-22.83-22.64Z" fill="#f2f4e4" opacity=".65"/>
            </g>
          </g>
        </g>
      </g>
      <path d="M24.81,190.44c119.55,52.69,256.24,56.74,383.38,33.12,42.71-8.15,84.86-19.47,126.32-33.26,1.08-.36,2.25.22,2.62,1.3.35,1.03-.55,1.7-1.17,2.57-23.96,33.6-159.23,67.07-270.13,67.07-143.21,0-226.5-44.38-243.04-67.21-.67-.92-1.33-1.83-.76-2.82.57-.98,1.81-1.31,2.79-.78h0Z" fill="#23253a" opacity=".1"/>
      <path d="M67.55,580.82c99.77,43.97,213.85,47.36,319.96,27.64,35.65-6.8,70.83-16.25,105.42-27.75.9-.3,1.88.18,2.18,1.08.29.86-.46,1.41-.98,2.14-20,28.04-132.88,55.98-225.45,55.98-119.52,0-189.03-37.04-202.83-56.09-.56-.77-1.11-1.53-.63-2.35.47-.82,1.51-1.09,2.33-.65h0Z" fill="#23253a" opacity=".1"/>
      <path d="M24.81,78.36c119.55,52.69,256.24,56.74,383.38,33.12,42.71-8.15,84.86-19.47,126.32-33.26,1.08-.36,2.25.22,2.62,1.3.35,1.03-.55,1.7-1.17,2.57-23.96,33.6-156.55,65.34-267.31,59.65-141.31-7.27-229.33-36.95-245.86-59.78-.67-.92-1.33-1.83-.76-2.82.57-.98,1.81-1.31,2.79-.78h0Z" fill="#23253a" opacity=".1"/>
      <path d="M494.1,46.61c-28.36-8.65-14.64-.84-6.02,2.61,6.53,2.61,30.81,13.41,31.08,21.21.61,17.77-69.9,34.48-100.98,40.41-127.14,23.62-275.2,16.34-394.75-36.35-.98-.53-2.22-.21-2.79.78-.57.99-.23,2.25.76,2.82,19.29,11.1,39.83,19.12,60.65,26.44,104.81,35.08,331.24,49.16,447.11-19.3,6.87-4.06,6.51-7.9,6.63-8.58h.06c1.38-14.1-41.74-30.04-41.74-30.04Z" fill="#fff"/>
      <g>
        <path d="M213.45,756.6s177.42-40.45-40.28-138.79c0,0,294.99-126.07,132.52-465.18,0,0,224.26-14.36,245.07-79.08l.58,447.87s-5.62,260.11-15.49,263.66-322.39-28.48-322.39-28.48Z" fill="#23253a" opacity=".09"/>
        <g clip-path="url(#h)">
          <path d="M265.45,625.1s216.21,25.18,242.87,134.76l97.74-207.32-25.18-490.17h-106.62s108.1,420.57-208.81,562.74Z" fill="#23253a" opacity=".16"/>
        </g>
      </g>
      <path d="M66.39,577.6c69.49,30.63,147.3,44.06,223.12,40.67,124.78-5.58,167.66-29.28,202.26-40.78.9-.3,1.88.18,2.18,1.08.29.86-.15,1.8-.98,2.14-33.87,13.95-68.98,25.17-104.93,32.9-89.69,19.46-185.27,18.33-272.73-10.95-17.37-6.11-34.52-12.8-50.62-22.07-.82-.47-1.11-1.53-.63-2.35.47-.82,1.51-1.09,2.33-.65h0Z" fill="#fff"/>
    </g>
  </g>
  <path d="M32.01,116.59c-3.61-2.35-8.37.06-8.46,4.36-1.35,68.25-6.3,365.81,10.45,366.51,18.91.78-29.18-315.24,22.14-329.47,51.32-14.23,203.99,29.52,205.1,10.5.47-8.07-185.79-23.64-229.22-51.9Z" fill="#fff"/>
</svg>