<?xml version="1.0" encoding="UTF-8"?>
<svg id="a" data-name="Layer 1" xmlns="http://www.w3.org/2000/svg" xmlns:xlink="http://www.w3.org/1999/xlink" viewBox="0 0 745.23 750">
  <defs>
    <clipPath id="b">
      <polygon points="2.86 195.23 10.08 522.87 367.7 750 745.19 518.85 745.19 195.23 374.02 22.37 2.86 195.23" fill="#f2f4e4"/>
    </clipPath>
    <clipPath id="c">
      <path d="M-18.52,319.88c22.06-.12,53.29,8.6,70.04,21.37,16.75,12.77,24.59,23.2,41.89,29.52,11.91,4.35,23.32,3.5,34.65,7.45,16.9,5.89,30.27,18.56,46.67,24.82,16.4,6.25,33.57,5.34,50.26,9.4,10.06,2.45,19.7,5.9,29.28,10.52,11.98,5.78,24.43,23.29,35.15,28.53,24.43,11.95,41.77,27.12,62.4,42.32,4.74,3.49,10.84,3.57,15.72.33,27.57-18.32,60.29-26.11,90.37-36.45,23.51-8.08,41.19-23.13,63.28-34.17,22.09-11.04,46.96-17.26,68.18-30.94,15.7-10.13,28.98-23.88,45.97-31.37,5.25-2.31,10.95-3.42,15.99-5.98,8.15-4.14,15.54-10.83,22.26-16.67,6.72-5.85,13-11.01,19.54-16.3,23.35-18.89,46.48-37.32,70.42-55.1,6.12,33.93,8.08,67.01,6.01,101.58-25.45,9.16-37.73,34.64-58.49,51.66-15.77,12.94-36.08,17.69-52.93,28.9-12.31,8.19-22.79,19.43-35.86,26.41-11.39,6.08-24.22,8.3-35.81,14.01-17.57,8.67-30.62,23.5-46.39,35.5-28.39,21.58-60.33,34.68-92.5,47.11-28,10.82-55.35,20.75-83.36,30.59-47.11-16.19-80.99-57.4-127.17-75.55-29.15-11.45-60.05-9.95-89.31-22.98-14.17-6.31-22.66-14.75-38.58-22.37-40.67-19.46-90.42-26.6-131.14-49.85-.51-37.52,3.7-74.86,3.44-112.28Z" fill="#966848"/>
    </clipPath>
    <clipPath id="d">
      <path d="M2.86,195.23c-2.19-11.82,5.46-24.66,13.31-32.98,4.62-4.9,10.41-8.14,16.13-11.29C135.16,94.3,241.69,45.88,350.79,6.2c14.47-5.26,31.13-10.14,44.17-1.4,9.97,6.69,15.05,19.74,24.1,27.9,13.9,12.53,33.73,11.11,51.59,9.93,36.02-2.38,76.9,1.18,100.3,31.74,10.88,14.21,16.81,33.07,29.86,44.79,18.55,16.65,45.06,13.88,68.86,12.33,23.79-1.55,51.74,1.33,64.71,23.59,7.5,12.87,10.7,24.82,10.82,40.15.09,12.74,0,38.88,0,38.88-6.87,9.48-20.69,17.53-31.61,18.45-48.69,4.1-87.79,45.33-133.7,63.83-20.59,8.29-43.3,12.39-60.41,27.59-7.98,7.09-14.31,16.28-22.38,23.25-27.11,23.43-68.81,18.15-93.93,44.18-5.67,5.88-10.32,13.22-17.12,17.37-11.85,7.23-26.93,2.63-38.26-5.57-11.33-8.21-20.53-19.67-31.91-27.79-24.15-17.22-54.99-17.45-81.36-30.01-15.02-7.15-28.27-18.16-42.51-27.06-40.99-25.63-88.94-33.21-132.79-52.09-16.7-7.19-33.3-16.44-45-31.52s-18.36-41.15-11.36-59.49Z" fill="#73a820"/>
    </clipPath>
    <clipPath id="e">
      <path d="M367.7,750v-370.59s330.17-249.56,377.49-184.18v323.62l-377.49,231.15Z" fill="#23253a" opacity=".25"/>
    </clipPath>
  </defs>
  <g>
    <polygon points="2.86 195.23 10.08 522.87 367.7 750 745.19 518.85 745.19 195.23 374.02 22.37 2.86 195.23" fill="#f2f4e4"/>
    <g clip-path="url(#b)">
      <g>
        <path d="M-18.52,319.88c22.06-.12,53.29,8.6,70.04,21.37,16.75,12.77,24.59,23.2,41.89,29.52,11.91,4.35,23.32,3.5,34.65,7.45,16.9,5.89,30.27,18.56,46.67,24.82,16.4,6.25,33.57,5.34,50.26,9.4,10.06,2.45,19.7,5.9,29.28,10.52,11.98,5.78,24.43,23.29,35.15,28.53,24.43,11.95,41.77,27.12,62.4,42.32,4.74,3.49,10.84,3.57,15.72.33,27.57-18.32,60.29-26.11,90.37-36.45,23.51-8.08,41.19-23.13,63.28-34.17,22.09-11.04,46.96-17.26,68.18-30.94,15.7-10.13,28.98-23.88,45.97-31.37,5.25-2.31,10.95-3.42,15.99-5.98,8.15-4.14,15.54-10.83,22.26-16.67,6.72-5.85,13-11.01,19.54-16.3,23.35-18.89,46.48-37.32,70.42-55.1,6.12,33.93,8.08,67.01,6.01,101.58-25.45,9.16-37.73,34.64-58.49,51.66-15.77,12.94-36.08,17.69-52.93,28.9-12.31,8.19-22.79,19.43-35.86,26.41-11.39,6.08-24.22,8.3-35.81,14.01-17.57,8.67-30.62,23.5-46.39,35.5-28.39,21.58-60.33,34.68-92.5,47.11-28,10.82-55.35,20.75-83.36,30.59-47.11-16.19-80.99-57.4-127.17-75.55-29.15-11.45-60.05-9.95-89.31-22.98-14.17-6.31-22.66-14.75-38.58-22.37-40.67-19.46-90.42-26.6-131.14-49.85-.51-37.52,3.7-74.86,3.44-112.28Z" fill="#966848"/>
        <g clip-path="url(#c)">
          <path d="M30.12,337.6c8.23,1.86,14.53,4.44,20.29,10.48,3.91,4.11,5.16,9.72,8.42,14.3,8.2,11.53,21.27,15.73,29.98,26.82,7.99,10.16,9.28,25.4.36,35.32-4.88,5.43-11.73,6.13-18.14,7.37-7.81,1.51-15.75,2.74-23.63,3.82-9.84,1.34-19.6,3.29-29.54,1.25-9.95-2.04-19.09-5.9-24.82-16.18-5.73-10.29-5.93-19.69-5.47-33.29.47-13.59-2.25-42.09,7.3-53.08,9.54-10.99,25.32.94,35.25,3.19ZM105.94,429.4c1.51,10,6.5,18.03,11.79,25.7,7.52,10.9,14.82,21.34,25.61,28.5,21.51,14.28,45.53,15.42,69.93,18.57,6.89.89,13.71,1.93,20.24,4.57,5.45,2.2,10.08,5.77,15.37,8.39,10.98,5.44,22.06,7.94,34.04,7.73,2.93-.05,6.1-1.12,7.75-3.27,1.65-2.15,2.03-4.15,2.27-6.52,2.33-22.73-.58-42.58-14.54-59.76-13.96-17.18-31.23-24.22-51.14-27.11-7.98-1.16-15.72.12-23.5-1.2-10.42-1.76-19.78-6.74-29.47-10.65-15.78-6.36-31.77-13.58-48.27-16.3-16.51-2.72-22.35,16.31-20.08,31.34ZM331.08,495.82c-9.5-.37-19.99,3.16-25.07,13.97-6.69,14.22-2.12,30.89,7.28,42.29,9.4,11.4,21.34,16.54,32.65,24.55,3.69,2.61,7.27,5.06,11.71,5.76,3.17.5,5.96-.34,9.22-1.32,25.14-7.53,50.1-15.96,74.94-25.32,8.41-3.17,17.23-6.56,23.86-13.66,6.63-7.1,9.68-16.9,12.82-26.21,1.29-3.81,2.49-7.95,1.39-11.57-1.1-3.62-3.29-5.48-6.21-7.03-14.09-7.46-29.69-6.68-44.58-4.76-18.27,2.35-35.84,5.89-53.21,9.8-7.84,1.77-13.45,3.81-20.92,2.16-8.77-1.93-14.38-8.29-23.88-8.66ZM493.65,527.61c.39,2,.79,3.37,2.15,4.43,1.35,1.06,2.9,1.03,4.59.63,15.21-3.59,25.38-15.25,37.57-25.19,25.49-20.77,54.72-31.9,83.57-45.33,6.22-2.9,12.65-5.69,17.64-10.72,9.64-9.73,15.11-23.35,12.1-37.57-3.01-14.21-12.64-22.3-25.1-24.53-8.53-1.53-16.74,1.24-25.01,4.36-19.1,7.18-37.48,15.17-56.09,25.2-14.95,8.05-34.36,12.41-45.88,27.37-17.62,22.88-10.79,54.37-5.54,81.35ZM722.93,303.58c-3.76,3.09-7.55,8.01-11.26,12.24-12.17,13.86-26.01,25.4-41.38,34.87-3.26,2.01-6.77,3.49-9.38,6.57-6.6,7.76-8.43,18.01-7.65,28.32.56,7.51,1.4,14.44,5.96,20.17,6.82,8.58,16.35,10.62,26.51,8.61,10.16-2.01,18.82-7.46,27.9-13.62,9.09-6.15,18.53-13.55,26.57-21.87,6.55-6.77,12.24-14.34,20.74-18.5-4.88-18.06-3.92-38.44-10.56-55.76-6.01-15.66-17.43-9.28-27.44-1.04Z" fill="#e5dca5" opacity=".65"/>
          <path d="M359.24,575.16c-.31.01-.47,0-.77-.06-2.98-.6-5.45-2.31-8.05-4.05-.3-.2-.98-.65-1.3-.87-3.82-2.62-8.1-5.19-11.85-7.66-7.16-4.7-14.2-8.84-19.79-15.82-7.27-9.08-11.51-21.96-6.4-33.1,3.94-8.59,12-10.49,19.49-10.45,4.95.03,8.37,2.66,12.75,4.48,3.3,1.37,6.52,3.26,10.1,4.12,1.69.41,3.54.77,5.37.81,4.66.1,9.14-.84,13.69-2.03,1.42-.37,2.82-.78,4.33-1.12,17.11-3.97,35.23-7.24,52.27-9.65,3.78-.54,7.99-.99,10.58-1.18,10.84-.8,21.23.22,29.93,4.9,2.97,1.6,2.77,1.35,3.69,3.54.92,2.19-.46,4.72-1.26,6.92-2.95,8.21-5.02,16.78-11.12,23.17-6.1,6.39-12.76,8.68-21.17,11.86-23.85,9.02-49.54,17.64-74.16,25.01-2.31.69-4.08,1.07-6.34,1.18ZM500.24,525.34c-4.62-24.67-11.63-52.61,3.69-74.4,7.66-10.9,22.07-14.62,33.14-20.64,3.42-1.86,6.73-2.93,10.68-4.97,17.73-9.12,36.16-17.54,55.09-24.72,4.06-1.54,9.87-3.38,14.33-3.97,2.57-.35,5.34-.72,7.75-.12,9.7,2.42,17.54,8.19,19.8,19.62,2.26,11.42-1.8,21.9-9.65,29.82-4.27,4.3-10.16,6.67-15.75,9.43-3.94,1.94-8.42,3.87-12.83,5.81-25.4,11.15-50.31,22.57-72.62,40.57-2.54,2.05-5.08,4.56-7.44,6.66-8.23,7.32-15.74,14.15-26.19,16.9ZM274.91,515.4c-7.87-.8-15.92-3.09-23.27-6.77-2.03-1.01-3.89-2.25-5.9-3.42-3.18-1.85-6.35-3.8-9.81-5.16-7-2.75-14.4-4.05-21.72-4.97-2.4-.3-4.8-.54-7.08-.8-20.72-2.39-42.33-4.75-60.03-16.58-10.67-7.12-17.15-17.12-24.05-26.76-5.51-7.7-8.86-14.15-10.84-22.93-1.62-7.21.34-14.1,3.62-19.81,1.68-2.93,3.61-3.31,6.24-3.83.85-.17,1.62.07,2.5.3,16.12,4.17,31.72,9.51,47.23,16.25.92.4,2.61,1.19,3.56,1.62,9.07,4.04,17.83,7.84,27.46,9.53,3.97.7,7.21.61,11.49.8,1.61.07,5.37,0,7.22.09,1.85.1,3.48-.06,5.19.21,18.2,2.82,34.06,9.23,46.68,24.71,12.62,15.48,15.44,33.92,13.51,53.81-.19,2.01.09,1.83-.77,2.9-.87,1.07-1.71.58-3.53.8-1.82.22-5.11.25-7.68-.01ZM684.15,407.34c-7.44.3-14.47.52-19.66-6.68-3.44-4.77-4.03-9.3-4.59-16.69-.44-5.75.23-16.21,5.26-21.4,1.6-1.65,4.56-3.49,6.71-4.66.22-.12.78-.44,1.04-.6,16.34-9.91,30.51-21.85,43.51-36.55.77-.87,1.66-1.96,2.22-2.64,2.09-2.52,6.17-7.21,8.03-8.66,4.08-3.18,7.99-7.07,12.09-7.23,4.11-.16,3.88.59,5.73,5.62,2.73,7.44,4.25,19.29,5.47,28.69.77,5.93,1.81,13.92,3.03,20.06-4.93,3.74-9.29,8.26-13.41,12.88-1.32,1.48-2.55,2.91-3.79,4.18-7.67,7.83-16.78,14.89-25.32,20.79-8.54,5.9-15.87,10.17-25.41,12.72-.25.07-.71.17-.92.18ZM27.15,430.59c-2.92.03-5.9-.1-8.24-.63-8.31-1.91-15.91-5.02-20.46-12.94-5.24-9.1-4.44-18.09-4.48-28.78,0-2.3.14-4.86.18-8.57.13-12-.97-30.19,5.06-40.91,1.13-2.01,2.75-1.3,4.11-1.31,6.06-.03,12.42,2.67,17.88,4.56,2.63.91,5.45,1.98,7.45,2.54,6.59,1.86,12.32,3.38,17.07,8.38,1.96,2.07,2.8,4.59,4.11,6.94,1.3,2.35,2.31,4.68,3.77,6.81,4.72,6.9,11.26,11.7,17.49,16.26,4.84,3.54,9.38,6.13,12.95,10.92,3.57,4.79,5.27,9.47,4.8,16.08-.23,3.27-.53,6.51-4.09,9.53-3.56,3.02-8.9,4.52-14.98,5.39s-16.45,2.72-23.12,3.71c-6.66.99-13.2,1.97-19.51,2.03Z" fill="#e5dca5"/>
          <path d="M89.71,437.8c.78.47,1.17,1.31,1.59,2.12,1.92,3.78,2.92,7.71,3.22,12.04.04.65,0,1.3-.36,1.79-.36.49-.76.57-1.39.7-6.11,1.27-28.93,3.87-28.56-6.32.18-5.14,6.11-5.52,10.06-7.01,3.94-1.49,10.9-6.08,15.44-3.33Z" fill="#e5dca5"/>
          <path d="M111.96,388.17c-1.04-2.39-2.31-3.99-4.66-4.94-2.35-.94-4.98-.85-7.47-2.03-1.06-.5-3.79-3.53-4.91-3.08-2.27.91-.56,3.35.22,5.07,1.33,2.93,3.51,7.02,6.37,8.35,2.86,1.33,2.72-.18,5.17-1.79.54-.35,4.33-3.13,5.28-1.58Z" fill="#e5dca5"/>
          <path d="M66.48,362.5c2.08,4.42,4.99,7.08,9.33,8.42.84-2.42.33-4.81-1.34-6.6s-3.71-2.3-5.88-2.86c-.42-.11-.84-.14-1.25.04s-.64.66-.5,1.13l-.37-.13Z" fill="#e5dca5"/>
          <path d="M479.71,476c.39,2.88.88,4.81-.38,7.25-1.26,2.45-4.02,3.03-6.46,2.7-2.44-.32-4.35-1.91-6.72-2.73-13.77-4.76-27.79-.94-41.92-2.36-1.17-.12-2.24-.34-2.94-1.56-.7-1.21-.27-3.01.74-4.08,1.01-1.07,2.32-1.74,3.69-2.15,8.32-2.5,16.75-2.71,25.07-5.57,3.74-1.28,6.82-3.42,10.86-5.2,4.04-1.78,15.95-9.75,19.77-5.35,3.82,4.39-2.4,13.87-1.7,19.04Z" fill="#e5dca5"/>
          <path d="M304.41,492.03c.43,1.31.35,1.62,1.66,2.07s2.65-1.56,3.66-3c2.3-3.3,5.56-4.88,9.45-4.33.75.11,1.04.71,2.09,0,1.05-.71,1.1-3.39.08-4.79-1.91-2.61-4.29-4.27-7.06-5.79-2.78-1.52-12.72-10.54-14.88-4.93-2.16,5.61,3.22,15.38,5,20.77Z" fill="#e5dca5"/>
          <path d="M630.16,376.44c1.16,2.56,3.26,3.32,5.71,3.66,2.45.34,4.6.42,6.72,2.11.5.4.32.93,1.45,1.07,1.13.14,2.45-1.8,2.63-3.46.36-3.26.65-6.63.36-9.93-.07-.77-.25-1.61-.77-1.96s-.88-.26-1.35-.21c-3.33.38-6.41,1.26-9.48,2.72-1.22.58-2.37,1.3-3.24,2.46s-1.14,2.59-.62,3.98l-1.41-.46Z" fill="#e5dca5"/>
          <path d="M659.27,422.24c-.21,2.82-.45,5.64-.65,8.45-.03.44-.09.88.18,1.24s.68.46,1.12.44c2.56-.11,4.82-1.26,7.08-2.52,2.26-1.27,4.47-2.53,6.7-3.8.27-.16.57-.37.61-.68.04-.31-.08-.48-.27-.67-4.03-3.97-8.51-4.54-13.53-2.63l-1.24.17Z" fill="#e5dca5"/>
          <path d="M-24.46,365.02c8.88-1.42,15.38,3.6,20.94,10.68,5.56,7.08,7.99,15.83,14.4,22.05,15.73,15.29,36.35,15.38,55.66,21.66,9.97,3.24,18.99,9.38,28.88,12.64,21.4,7.05,44.43,6.36,63.54,20.01,9.06,6.47,14.5,16.73,24.52,21.33,7.71,3.54,15.9,2.86,23.92,4.18,12.66,2.08,24.89,7.3,36.26,13.05,37.48,18.98,71.65,42.55,108.03,63.49,2.18,1.26,4.16,2.47,6.85,2.07,3.89-.59,5.94-3.65,9.13-6.49,19.94-17.75,40.48-23.52,65.98-18.26,16.82,3.47,34.02,1.24,48.04-10.2,7.27-5.93,11.68-14.07,20.02-17.07,7.06-2.54,14.47-.04,20.83-3.53,6.36-3.49,9.05-10.85,14.83-14.69,7.81-5.19,18.09-2.74,25.05-9.41,6.96-6.67,7.51-19.16,16.88-22.94,13.96,8.72,29.54,7.79,43.36-.44,5.17-3.08,9.64-7.75,9.27-14.22-.51-9.05-9.26-11.6-16.51-11.18-7.25.42-14.96,3.01-22.24.52,7.83-8.17,17.39-10.53,27.82-10.66,10.42-.13,19.94.78,29.75-3,3.74-1.44,7.24-3.77,10.98-4.01,6.04-.39,12.17,5.29,17.54,1.07,7.52-5.9,3.1-19.07,10.38-25.29,3.21-2.74,7.38-.84,11.04-2.12,6.25-2.18,11.11-8.96,9-16.49-2.11-7.53-9.44-8.93-15.32-6.11-1.43-6.7,2.64-12.38,8.27-14.41,5.64-2.03,10.99.09,16.44,1.51,5.45,1.42,11.05,3.59,16.4,1.19,12.13-5.44,17.01-23.55,30.53-25.05,7.91-.88,13.12,6.82,16.69,13.83,3.02,5.92,6.18,11.77,6.22,19.35.11,22.35-11.76,38.55-26.65,53.52-84.41,84.86-192.29,124.85-299.04,158.18-57.23,17.87-106.85,34.53-164,47.17-65.98-41.36-139.49-52.1-208.2-85.63-16.91-8.25-32.42-20.19-49.97-27.32-12.25-4.97-25.14-9.12-36.64-16.31-8.47-5.29-15.9-12.25-23.46-19.07-4.43-4-8.94-8.02-11.55-13.86-2.61-5.83-3.35-11.94-3.44-18.56-.32-24.4,4.16-47.62,9.6-71.19Z" fill="#23253a" opacity=".1"/>
        </g>
      </g>
      <path d="M76.63,540.32c18.86,14.14,47.49,18.19,67.36,30.5,20.1,12.45,31.36,33.05,52.34,43.53,27.64,13.8,63.44,14.44,91.08,28.24,24.51,12.24,40.86,37.64,65.37,49.88,4.56,2.28,9.25,4.59,14.24,4.94,7.06.49,13.8-2.99,20.18-6.39,14.24-7.58,28.18-28.5,42.41-36.08,17.29-9.21,34.89-5.1,52.18-14.31,15.11-8.05,30.94-31.87,45.9-40.26,36.07-20.25,41.83-5.07,76.94-27.29,10.65-6.74,22.03-25.93,35.51-34.82,9.11-6,19.84-1.32,29.49-7.72,12.4-8.23,32.78-29.4,44.92-37.44,18.63-12.34,28.41-11.08,42.6-20.06,12.18,16.93,10.13,42.45.33,61.2-9.8,18.75-25.82,32.26-41.46,45.21-43.63,36.11-87.54,71.8-132.07,106.51-75.96,59.2-160.23,117.74-252.93,115.21-48.66-1.33-95.97-19.82-138.53-46.09-42.56-26.28-80.86-60.2-118.42-94.66-23.33-21.4-46.82-43.52-63.27-71.75-11.61-19.92-33.98-79.27-10.25-98.25,20.59-16.47,59.53,37.53,76.07,49.93Z" fill="#774f2f"/>
      <path d="M80.23,536.98c20.68,18.51,53.33,9.47,75.03,26.47,6.92,5.42,12.13,13.09,18.22,19.63,30.63,32.92,78.19,33.66,117.83,50.96,18.33,8.01,35.31,19.85,49.78,34.72,10.34,10.63,23.42,23.88,36.39,17.8,4.86-2.28,8.43-6.96,11.82-11.45,7.97-10.54,16.21-21.11,26.6-28.58,21.16-15.23,48.31-15.75,71.07-27.78,19.22-10.16,34.91-28.32,55.34-34.94,12.32-3.99,25.74-3.53,37.5-9.25,22.89-11.14,36.18-43.89,61.1-45.81,5.8-.45,11.75.93,17.36-.74,6.81-2.03,11.9-8.13,16.86-13.7,27.71-31.1,63.33-53.37,101.62-63.52,3.48-.92,7.25-1.72,10.52-.11,3.9,1.92,5.9,6.66,7.59,11.01,13.16,34.02,25.67,75.89,5.8,105.6-9.67,14.46-25.09,22.41-39.76,30.05-79.96,41.65-156.67,91-229.01,147.32-30.04,23.39-59.62,48.17-93.14,64.66-60.85,29.93-129.64,30.31-196.16,30.2-35.13-.06-71.37-.37-103.68-15.71-41.75-19.83-71.09-61.85-97.77-102.72-20.71-31.74-40.98-63.83-61.25-95.93-9.31-14.74-18.8-29.89-22.98-47.3-6.82-28.36-6.56-96.47,29.3-99.63,15.37-1.36,32.84,7.24,46.52,14.01,21.61,10.7,30.01,29.11,47.48,44.74Z" fill="#774f2f" opacity=".19"/>
    </g>
  </g>
  <g>
    <path d="M2.86,195.23c-2.19-11.82,5.46-24.66,13.31-32.98,4.62-4.9,10.41-8.14,16.13-11.29C135.16,94.3,241.69,45.88,350.79,6.2c14.47-5.26,31.13-10.14,44.17-1.4,9.97,6.69,15.05,19.74,24.1,27.9,13.9,12.53,33.73,11.11,51.59,9.93,36.02-2.38,76.9,1.18,100.3,31.74,10.88,14.21,16.81,33.07,29.86,44.79,18.55,16.65,45.06,13.88,68.86,12.33,23.79-1.55,51.74,1.33,64.71,23.59,7.5,12.87,10.7,24.82,10.82,40.15.09,12.74,0,38.88,0,38.88-6.87,9.48-20.69,17.53-31.61,18.45-48.69,4.1-87.79,45.33-133.7,63.83-20.59,8.29-43.3,12.39-60.41,27.59-7.98,7.09-14.31,16.28-22.38,23.25-27.11,23.43-68.81,18.15-93.93,44.18-5.67,5.88-10.32,13.22-17.12,17.37-11.85,7.23-26.93,2.63-38.26-5.57-11.33-8.21-20.53-19.67-31.91-27.79-24.15-17.22-54.99-17.45-81.36-30.01-15.02-7.15-28.27-18.16-42.51-27.06-40.99-25.63-88.94-33.21-132.79-52.09-16.7-7.19-33.3-16.44-45-31.52s-18.36-41.15-11.36-59.49Z" fill="#73a820"/>
    <g clip-path="url(#d)">
      <path d="M.72,183.21c-11.41,13.16-15.11,32.14-18.33,50.07-1.43,7.95-2.83,16.32-.56,24.01,1.81,6.1,5.75,11.1,9.88,15.6,18.21,19.84,41.31,33,64.03,45.86,83.6,47.32,167.96,94.97,258.56,121.95,20.71,6.17,56.43,4.36,53.4-8.78-2.44-10.58,0-52.52,0-52.52-6.01-3.65-19.27-8.09-26.06-9.04-16.22-2.28-30.59-12.95-42.43-25.5-11.84-12.55-21.77-27.18-33.41-39.95-23.09-25.34-54.2-43.33-86.63-42.65-17.08.36-34.44,5.75-50.99,1.07-33.34-9.43-51.19-55.84-85.15-61.96-16.16-2.91-32.32,4.25-47.11,12.07,1.35-10.63,3.09-19.46,7.46-29.03-.81-.44-2.58-2.19-2.66-1.2Z" fill="#23253a" opacity=".1"/>
      <path d="M387.72-4.26c5.01,10.04,1.11,22.76-4.63,32.3-8.7,14.44-21.55,25.72-36.2,31.77-14.63,6.04-32.72,8.45-40.47,23.53-1.58,3.08-2.84,6.8-5.76,8.25-2.41,1.19-5.18.42-7.76-.17-18.18-4.15-38.09,2.72-50.97,17.58-3.7,4.27-6.87,9.15-11.07,12.8-14.22,12.32-34.83,6.89-52.25,12.05-29.83,8.83-50.24,48.66-81,45.73-9.95-.95-19.08-6.53-28.91-8.5-9.83-1.97-22.06,1.43-25.26,11.96,17.91,5.3,36,12.72,49.32,27.06,3.64,3.92,6.98,8.4,11.51,10.93,10.44,5.83,22.82-.52,33.06-6.78,19.54-11.94,39.09-23.89,58.63-35.83,11.31-6.91,22.88-13.93,35.58-16.52,16.88-3.44,35.85.8,50.16-9.73,7.31-5.38,12.2-13.87,17.6-21.55,31.01-44.07,81.78-64.16,130.68-77.29,18.02-4.84,37.05-9.52,50.87-23.27-21.31-17.39-49.86-23.26-75.34-15.49-2.65-9.08-9.83-15.21-17.78-18.81Z" fill="#23253a" opacity=".1"/>
      <path d="M245.7,261.29c14.48,10.46,21.34,21.07,33.09,35.15,11.75,14.08,28.52,26.13,45.34,21.8-7.16-16.24,3.44-36.31,17.71-44.95,14.28-8.65,31.14-9.51,47.13-12.79,17.73-3.64,34.8-10.44,51.51-17.97,15.43-6.96,30.62-14.58,45.32-23.27,58.11-34.36,110.47-86.26,175.53-97.26-19.32-4.1-38.79-8.58-56.62-17.82-17.83-9.24-34.09-23.79-42.62-43.51,5.55,10.47,4.94,24.02.38,35.06-4.56,11.04-12.61,19.88-21.38,27.12-5.34,4.41-11.08,8.38-17.45,10.52-10.11,3.41-20.94,2.01-31.48,2.65-38.35,2.33-70.64,31.09-100.69,57.71-30.05,26.62-64.23,53.7-102.6,51.69-9.57-.5-19.49-2.79-28.51.8-6.44,2.56-11.86,8.13-14.67,15.07,0,0-13.65-9.87,0,0Z" fill="#23253a" opacity=".1"/>
      <path d="M428.43,189.94c2.7-.07,5.42.61,8.1.22,9.44-1.38,13.98-14.67,23.07-17.84,7.74-2.7,17.04,2.64,23.89-2.2,2.46-1.74,4.13-4.55,6.36-6.63,4.45-4.17,10.58-5.06,16.29-6.29,26.59-5.71,51.14-22.47,67.76-46.25,4.35-6.22,8.27-13,13.93-17.73,1.66-1.38,3.55-2.61,5.62-2.65,3.3-.07,5.99,2.77,8.28,5.42,5.66,6.55,11.77,14.79,9.89,23.63-1.41,6.66-6.94,11.08-12.08,14.83-15.49,11.32-31.16,22.33-46.84,33.34-6.96,4.89-13.93,9.78-20.89,14.67-6.93,4.86-13.9,9.76-21.49,13.18-10.75,4.86-22.38,6.63-33.63,9.78-13.49,3.78-26.51,9.6-38.68,17.07-7.76,4.76-20.07,18.82-29.42,13.12-19.09-11.62,5.36-45.29,19.84-45.68Z" fill="#23253a" opacity=".1"/>
      <path d="M359.1,246.09c1.64.19,3.43.56,4.47,1.98,1.17,1.6.94,4.07-.12,5.76-1.06,1.69-2.77,2.73-4.5,3.47-7.34,3.15-16.26,2.19-22.3,7.79-1.96,1.82-3.46,4.21-5.5,5.91-9.62,8.03-17.06-5.24-7.9-13.3,9.55-8.41,23.86-12.97,35.85-11.62Z" fill="#23253a" opacity=".1"/>
      <path d="M174.53,152.4c5.68-1.11,11.55-.26,17.26-1.23,4.78-.81,9.3-2.86,13.77-4.9,14.01-6.39,28.03-12.78,42.04-19.17,4.78-2.18,9.62-4.39,13.73-7.86,2.76-2.32,5.14-5.16,7.95-7.4,3.19-2.53,6.9-4.24,10.76-4.96,4.05-.75,9.72,1.43,9.04,5.93-.26,1.7-1.42,3.03-2.54,4.21-35.18,36.95-87.94,43.33-129.49,70.9-11.91,7.91-22.91,1.59-12.59-11.28,8.13-10.15,17.41-21.77,30.07-24.25Z" fill="#23253a" opacity=".1"/>
      <path d="M406.71,28.45c-1.23,1.9-3.23,2.94-5.06,4.1-6.76,4.27-12.18,11.1-15.18,19.08-.11.29-.22.6-.2.92.08,1.47,2.13,1.17,3.27.41,12.87-8.57,26.97-14.85,41.59-18.54,2.58-.65,5.24-1.25,7.48-2.8s4.03-4.33,3.77-7.26c-.21-2.36-1.66-4.34-3.12-6.07-4.1-4.89-18-20.56-24.85-17.9-8.12,3.16-3.53,21.66-7.7,28.07Z" fill="#23253a" opacity=".1"/>
      <path d="M222.86,233.16c1.91-4.89-2.62-10.09-2.41-15.42.14-3.62,2.43-6.65,4.72-9.23,32.73-36.72,86.15-40.47,121.54-74,4.23-4.01,8.16-8.41,12.63-12.09,4.78-3.94,10.09-6.99,15.37-10.02,17.25-9.9,34.5-19.8,51.75-29.7-9.24-6.58-21.24-.01-30.52,6.48-23.63,16.53-47.27,33.06-70.9,49.6-8.84,6.18-17.76,12.41-27.55,16.45-9.64,3.98-19.92,5.75-29.59,9.64-7.18,2.89-13.94,6.92-20.67,10.93-29.59,17.64-61.33,33.37-89.64,53.43-17.98,12.74,6.28,9.99,15.23,8.4,16.54-2.95,33.3-4.44,50.06-4.48Z" fill="#fff" opacity=".26"/>
      <path d="M538.72,220.9c-13.74,11.22-31.34,16.49-46.38,25.39-31.52,18.66-60.54,41-92.07,59.66-9.05,5.36-18.3,10.79-28.39,12.76-3.64.71-7.51,1.03-10.55,3.36-3.04,2.33-4.61,7.65-2.02,10.57,1.56,1.75,3.99,2.03,6.2,2.01,19.32-.16,35.92-14.48,50.77-28.23,25.79-23.88,52.47-48.88,84.96-58.2,8.47-2.43,17.27-3.77,25.25-7.77,14.01-7.04,23.88-21.44,36.86-30.6,12.25-8.64,82.81-23.63,79.69-47.06-2.12-15.94-48.5,12.18-55.07,16.38-18.07,11.55-32.53,28.09-49.25,41.74Z" fill="#fff" opacity=".26"/>
      <path d="M451.88,80.66c-.22,1.07-.32,2.19-.75,3.18-1.25,2.87-4.57,3.54-7.03,5.19-5.43,3.65-6.3,12.08-5.18,19.03,9.98-12.98,24.11-21.92,39.23-24.82,2.92-.56,5.99-.95,8.44-2.81,11.01-8.35-6.01-12.88-11.37-12.72-8.82.26-20.95,1.06-23.34,12.95Z" fill="#fff" opacity=".26"/>
      <path d="M141.95,114.6c4.22-.68,8.54-.89,12.6-2.31,6.41-2.24,11.66-7.27,17-11.8,13.1-11.09,27.86-19.75,43.49-25.52-1.64-4.77-8.05-2.98-12.02-.41-31.68,20.54-64.89,38.13-99.17,52.57-6.98,2.94-42.75,11.99-42.76,19.67,0,6.41,10.38,9.79,14.62,9.58,8.28-.41,13.04-8.63,18.99-14.42,13.47-13.1,29.21-24.45,47.25-27.35Z" fill="#fff" opacity=".26"/>
    </g>
  </g>
  <g>
    <path d="M367.7,750v-370.59s330.17-249.56,377.49-184.18v323.62l-377.49,231.15Z" fill="#23253a" opacity=".25"/>
    <g clip-path="url(#e)">
      <path d="M339.78,717.68s223.73-315.96,223.56-507.84l286.28-41.51v320.79l-117.1,260.88-392.74,102.01v-134.33Z" fill="#23253a" opacity=".15"/>
    </g>
  </g>
</svg>