<?xml version="1.0" encoding="UTF-8"?>
<svg id="a" data-name="Layer 1" xmlns="http://www.w3.org/2000/svg" xmlns:xlink="http://www.w3.org/1999/xlink" viewBox="0 0 573.24 750">
  <defs>
    <clipPath id="b">
      <path d="M309.88,83.69c-145.45,0-263.36,27.5-263.36,61.42v533.2c0,33.92,117.91,71.69,263.36,71.69s263.36-37.77,263.36-71.69V145.11c0-33.92-117.91-61.42-263.36-61.42Z" fill="#fff"/>
    </clipPath>
    <clipPath id="c">
      <path d="M309.88,723.32c-170.23,0-256.51-55.13-256.51-64.36V145.11c0-22.79,97.58-54.57,256.51-54.57,69.84,0,135.42,6.32,184.67,17.81,53.03,12.37,71.84,27.53,71.84,36.76v510.59c0,22.79-97.59,67.62-256.51,67.62Z" fill="#a5c8d3"/>
    </clipPath>
    <clipPath id="d">
      <path d="M309.88,715.53c-135.2,0-221.65-41.09-232.38-46.34-8.57-4.19-13.86-12.66-13.86-21.82V155.27c0-9.16,5.29-17.63,13.86-21.82,10.73-5.25,28.67-11.64,57.3-17.51,47.62-9.76,109.8-15.13,175.08-15.13s127.46,5.37,175.08,15.13c28.63,5.87,46.57,12.26,57.3,17.51,8.57,4.19,13.86,12.66,13.86,21.82v492.1c0,9.16-5.29,17.63-13.86,21.82-10.73,5.25-97.18,46.34-232.38,46.34Z" fill="#73a820"/>
    </clipPath>
    <clipPath id="e">
      <path d="M298.64,216.22s172.92,1.96,245.1-50.92c0,0,32.03-18.42,37.9,34.37,5.88,52.79-8.4,532.61-8.4,532.61,0,0-346.64,129.26-490.31,22.52,0,0,236.27-47.98,215.71-538.58Z" fill="#23253a" opacity=".1"/>
    </clipPath>
    <clipPath id="f">
      <path d="M107.35,92.63c-11.47-8.97-18.04-22.74-23.09-36.4,2.66-.38,5.31-.77,7.97-1.15-3.94-8.88-7.88-17.75-11.82-26.63,3.69.14,7.37.27,11.06.41.7-7.58,1.39-15.17,2.09-22.75.16-1.79.41-3.76,1.73-4.98,1.77-1.64,4.58-1.17,6.9-.48,8.9,2.66,17.25,7.15,24.38,13.11.55-2.46,1.99-4.7,4.01-6.21,6,4.93,11.01,11.04,14.66,17.89.44-2.53,3.3-4.34,5.77-3.65,4.13,1.14,7.37,18.08,8.03,21.73,1.46,8.08,1.47,16.41.07,24.5-2.67,15.42-9.19,31.95-26.88,32.81-8.86.43-17.93-2.74-24.89-8.18Z" fill="#739929"/>
    </clipPath>
    <clipPath id="g">
      <path d="M312.14,131.33s24.21-10.24,29.26-6.65c19.95,14.18,41.22,9.31,41.22,9.31,0,0,58.07-42.11,0-70.92-58.07-28.81-76.24,57.18-76.24,57.18,0,0-3.06,10.55,5.76,11.08Z" fill="#ba1919"/>
    </clipPath>
    <clipPath id="h">
      <path d="M377.55,143.77s67.35,9.09,97.81,2.67c30.47-6.41,46.75-30.54,16.47-66.73-24.56-29.34-82.74-10.27-114.28,64.06Z" fill="#ba1919"/>
    </clipPath>
    <clipPath id="i">
      <path d="M415.49,148.73s57.68-16.88,68.09-44.23c10.41-27.35-12.89-35.57-16.81-36.09-17.1-2.26-66.29,4.09-99.4,80.32h48.12Z" fill="#fff" opacity=".19"/>
    </clipPath>
    <clipPath id="j">
      <path d="M155.31,42.74c.61,1.61,1.22,3.23,1.83,4.84,13.24-16.19,30.89-28.73,50.53-35.9.81,2.25,1.62,4.51,2.43,6.76,15.59-2.89,31.19-5.77,46.78-8.66-1.21,14.73-5.09,29.23-11.41,42.58,2.92-.37,5.84-.75,8.76-1.12-3.12,15.49-10.79,30.03-21.82,41.34,3.97.56,7.94,1.12,11.9,1.68-1.38-.2-12.34,12.84-14.21,14.41-5.56,4.69-11.58,8.85-17.93,12.4-12.23,6.85-26.55,12.41-40.63,13.57-26.84,2.21-34.08-23.29-33.2-45.98.64-16.58,6.37-33.08,16.97-45.95Z" fill="#739929"/>
    </clipPath>
    <clipPath id="k">
      <path d="M98.33,151.63c.22-1.95.43-3.91.65-5.86-16.61-1.47-33.45-.37-49.73,3.25.54-2.88,1.09-5.76,1.63-8.64-11.13.37-22.35-1.73-32.59-6.11,2.51-3.83,6.05-6.97,10.14-9.02-8.75-4.92-18.47-8.11-28.43-9.34,4.55-15.69,15.52-29.42,29.82-37.3-3.08-1.97-6.16-3.94-9.23-5.92,14.75-4.54,30.26-6.57,45.68-5.98-1.84-2.66-3.68-5.32-5.52-7.97,18.45,3.22,36.15,10.63,51.38,21.52.17-2.21.34-4.43.51-6.64-.05.71,36.93,20.25,41.29,58.08-12.49,7.06-41.76,16.71-55.6,19.94Z" fill="#739929"/>
    </clipPath>
    <clipPath id="l">
      <path d="M210.14,141.69s4.05-2.7,17.53,0c13.48,2.7,22.47,16.18,31.01,15.28,8.54-.9,47.19-10.79,47.19-10.79,0,0-12.16-63.19-47.19-69.22-41.8-7.19-59.78,20.67-56.18,40.45,3.6,19.78,7.64,24.27,7.64,24.27Z" fill="#ba1919"/>
    </clipPath>
    <clipPath id="m">
      <path d="M231,77.68s-29.97,30.58,29.86,84.05l57.59-11.22-27.3-74.71s-54.48-16.74-60.14,1.87Z" fill="#fff" opacity=".19"/>
    </clipPath>
  </defs>
  <g>
    <path d="M309.88,83.69c-145.45,0-263.36,27.5-263.36,61.42v533.2c0,33.92,117.91,71.69,263.36,71.69s263.36-37.77,263.36-71.69V145.11c0-33.92-117.91-61.42-263.36-61.42Z" fill="#fff"/>
    <g clip-path="url(#b)">
      <g>
        <path d="M309.88,723.32c-170.23,0-256.51-55.13-256.51-64.36V145.11c0-22.79,97.58-54.57,256.51-54.57,69.84,0,135.42,6.32,184.67,17.81,53.03,12.37,71.84,27.53,71.84,36.76v510.59c0,22.79-97.59,67.62-256.51,67.62Z" fill="#a5c8d3"/>
        <g clip-path="url(#c)">
          <g>
            <path d="M309.88,715.53c-135.2,0-221.65-41.09-232.38-46.34-8.57-4.19-13.86-12.66-13.86-21.82V155.27c0-9.16,5.29-17.63,13.86-21.82,10.73-5.25,28.67-11.64,57.3-17.51,47.62-9.76,109.8-15.13,175.08-15.13s127.46,5.37,175.08,15.13c28.63,5.87,46.57,12.26,57.3,17.51,8.57,4.19,13.86,12.66,13.86,21.82v492.1c0,9.16-5.29,17.63-13.86,21.82-10.73,5.25-97.18,46.34-232.38,46.34Z" fill="#73a820"/>
            <g clip-path="url(#d)">
              <path d="M135.97,485.43c33.54-2.77,67.58-15.08,89.9-40.26,13.42-15.13,25.11-36.09,45.28-37.66,18.52-1.45,33.68,15.37,40.34,32.71,6.66,17.35,8.13,36.54,16.41,53.17,4.71,9.45,12.31,18.31,22.59,20.68,15.68,3.61,30.45-8.9,39.66-22.09,9.21-13.19,16.71-28.74,30.82-36.47,19.75-10.83,44.14-2.22,64.67,7.04,20.53,9.26,43.91,19.22,64.72,10.58,10-4.15,17.84-12.11,26.81-18.17,8.97-6.06,20.64-10.28,30.51-5.81,12.87,5.82,15.76,22.51,16.68,36.6,2.81,43.28,3.27,86.72,1.38,130.06-1.98,45.28-7.26,92.56-32.44,130.24-34.53,51.68-99.03,74.31-160.42,84.04-99.78,15.81-203.51,6.03-298.57-28.15-24.8-8.92-49.43-19.72-69.39-36.92-37.7-32.48-54.13-84.36-54.57-134.13-.37-42.09,6.12-95.74,23.65-134.48,7.35-16.25,15.32-16.68,32.25-14.7,23.3,2.73,46.21,5.67,69.73,3.73Z" fill="#73a820" opacity=".26"/>
              <path d="M33.83,556.76c8.49,16.01,23.82,29.59,41.89,30.95,21.59,1.63,40.35-13.71,56.52-28.11,22.89-20.39,45.78-40.78,68.67-61.18,13.93-12.41,31.37-25.73,49.35-20.75,32.48,8.99,28.32,64.29,59.24,77.68,15.28,6.62,33.34-.39,46.11-11.08,12.77-10.69,22.3-24.79,34.78-35.81,12.48-11.03,29.91-18.96,45.68-13.6,25.88,8.81,29.08,43.84,45.6,65.61,15.55,20.49,45.75,28.26,69.26,17.83,15.73-6.99,32.94-21.17,47.66-12.24,6.86,4.16,10.2,12.23,12.54,19.91,17.64,57.82,1.25,124.7-41.14,167.8-31.92,32.46-75.54,50.68-119.25,63.4-120.54,35.08-254,33.12-368.25-18.9-37.96-17.29-75-41.41-95.09-77.97-18.36-33.43-20.41-73.89-13.32-111.36,4.06-21.45,11.85-69.26,28.11-84.84,20.47-19.62,24.81,19.78,31.63,32.65Z" fill="#f2f4e4" opacity=".27"/>
              <path d="M33.83,597.87c8.49,16.01,23.82,29.59,41.89,30.95,21.59,1.63,40.35-13.71,56.52-28.11,22.89-20.39,45.78-40.78,68.67-61.18,13.93-12.41,31.37-25.73,49.35-20.75,32.48,8.99,28.32,64.29,59.24,77.68,15.28,6.62,33.34-.39,46.11-11.08,12.77-10.69,22.3-24.79,34.78-35.81,12.48-11.03,29.91-18.96,45.68-13.6,25.88,8.81,29.08,43.84,45.6,65.61,15.55,20.49,45.75,28.26,69.26,17.83,15.73-6.99,32.94-21.17,47.66-12.24,6.86,4.16,10.2,12.23,12.54,19.91,17.64,57.82,1.25,124.7-41.14,167.8-31.92,32.46-75.54,50.68-119.25,63.4-120.54,35.08-254,33.12-368.25-18.9-37.96-17.29-75-41.41-95.09-77.97-18.36-33.43-20.41-73.89-13.32-111.36,4.06-21.45,11.85-69.26,28.11-84.84,20.47-19.62,24.81,19.78,31.63,32.65Z" fill="#f2f4e4"/>
              <path d="M150.65,372.33c8.29,16.45,19.11,34.35,37.07,38.42,22.54,5.1,42.78-14.08,57.01-32.29,14.23-18.21,30.94-39.14,54.05-39.3,27.25-.18,49.34,29.58,76.27,25.38,23.87-3.73,37.2-32.38,60.78-37.63,29.42-6.56,54.75,26.17,84.89,25.92,21.59-.18,38.91-16.97,54.2-32.21,15.29-15.24,34.02-31.14,55.49-28.86-27.69-64.66-19.03-139.36-39.75-206.58-6.55-21.26-16.63-42.39-34.08-56.19-24.62-19.45-58.53-20.66-89.91-21.02-72.8-.82-145.97-1.62-217.99,9.08-58.27,8.65-115.42,24.83-169.59,48-30.05,12.86-60.91,29.47-76.64,58.13-14.05,25.6-13.59,56.39-12.76,85.59,1.04,36.75,1.14,118.96,56.07,109.47,18.52-3.2,34.96-10.88,53.98-4.66,26.37,8.64,39.33,35.79,50.91,58.76Z" fill="#f9cfe9"/>
              <path d="M146.63,329.92c8.29,16.45,19.11,34.35,37.07,38.42,22.54,5.1,42.78-14.08,57.01-32.29,14.23-18.21,30.94-39.14,54.05-39.3,27.25-.18,49.34,29.58,76.27,25.38,23.87-3.73,37.2-32.38,60.78-37.63,29.42-6.56,54.75,26.17,84.89,25.92,21.59-.18,38.91-16.97,54.2-32.21,15.29-15.24,34.02-31.14,55.49-28.86-27.69-64.66-19.03-139.36-39.75-206.58-6.55-21.26-16.63-42.39-34.08-56.19-24.62-19.45-58.53-20.66-89.91-21.02-72.8-.82-145.97-1.62-217.99,9.08C186.39-16.7,129.24-.53,75.08,22.64,45.03,35.5,14.17,52.12-1.56,80.77c-14.05,25.6-13.59,56.39-12.76,85.59,1.04,36.75,1.14,118.96,56.07,109.47,18.52-3.2,34.96-10.88,53.98-4.66,26.37,8.64,39.33,35.79,50.91,58.76Z" fill="#e8bfda"/>
              <path d="M123.35,136.89c25.18,4.82,50.36,9.64,75.54,14.46,17.49,3.35,34.99,6.7,52.48,10.04,12.3,2.35,24.98,4.71,37.25,2.18,9.8-2.02,18.68-7.02,28.04-10.56,9.36-3.54,21.96,3.26,29.2-1.51,7.24-4.78-5.56-6.31-6.6-10.29-1.03-3.98.37-8.93,4.15-10.54,6.54-2.78,14.57,5.67,20.52,1.79,3.94-2.56,3.25-9.01-.15-12.26-3.4-3.25-8.35-4.14-12.99-4.84-47.37-7.15-95.43-9.69-143.29-7.58-11.57.51-24.17,1.73-32.52,9.76-5.75,5.54-21.16,11.8-26.75,8.68-5.59-3.12-12.72-4.24-18.38-1.25-4.4,2.32-6.23,6.95-6.51,11.92Z" fill="#23253a" opacity=".1"/>
              <path d="M377.83,144.04c10.2,5.28,25.63,5.24,36.75,8.12,7.32,1.89,4.97,11.79,17.75,8.61,1.92-.48,3.87.99,5.84.85,3.42-.25,6.37-2.35,9.52-3.69,5.63-2.39,11.94-2.34,18.03-2.88,10.23-.9,20.21-3.53,30.14-6.16,5.68-1.5,11.41-3.02,16.62-5.74,6.27-3.27,12.89-8.41,19.6-6.16,1.4.47,3.65.73,3.69-.74.02-.74-.68-1.26-1.31-1.64-16.31-9.93-35.89-13.43-54.98-13.16-19.1.27-37.94,4.1-56.65,7.92-11.36,2.32-22.81,4.66-33.51,9.14-4.51,1.89-8.33,1.82-11.5,5.55Z" fill="#23253a" opacity=".1"/>
              <path d="M343.93,167.66c5.54-1.88,10.42-5.29,15.08-8.84,1.24-.95,2.51-1.93,4.01-2.38,2.6-.78,5.37.19,7.91,1.14,8.4,3.14,16.79,6.28,25.19,9.41,1.81.68,3.96,1.82,3.91,3.76-.05,1.9-2.23,2.95-4.11,3.28-7.46,1.28-14.94-2.02-22.51-2.15-9.09-.15-17.59,4.27-26.53,5.92-13.2,2.44-26.68-1.23-39.6-4.87-1.01-.28-2.15-.69-2.51-1.67-.72-1.96,2.16-3.13,4.24-3.21,5.89-.24,12.49-1.39,18.33-.55,6,.87,10.51,2.22,16.59.16Z" fill="#23253a" opacity=".1"/>
            </g>
          </g>
          <g>
            <path d="M298.64,216.22s172.92,1.96,245.1-50.92c0,0,32.03-18.42,37.9,34.37,5.88,52.79-8.4,532.61-8.4,532.61,0,0-346.64,129.26-490.31,22.52,0,0,236.27-47.98,215.71-538.58Z" fill="#23253a" opacity=".1"/>
            <g clip-path="url(#e)">
              <path d="M452.34,167.1s1.04,63.77,2.98,256.71c1.96,194.87-222.29,402.47-241.87,416.18-19.58,13.71,386.8-62.67,395.61-62.67s26.44-446.53,26.44-446.53l-19.58-208.67-163.58,44.98Z" fill="#23253a" opacity=".1"/>
              <path d="M514.03,152.63s1.04,63.77,2.98,256.71c1.96,194.87-222.29,402.47-241.87,416.18-19.58,13.71,386.8-62.67,395.61-62.67s26.44-446.53,26.44-446.53l-19.58-208.67-163.58,44.98Z" fill="#23253a" opacity=".1"/>
            </g>
          </g>
          <path d="M42.22,322.5s2.64-100.37,32.41-137.13c17.58-21.71,77.48,35.01,77.48,20.03,0-4.92-31.8-16.92-47.02-29.07,0,0-16.25-24.76,5.95-32.4l-88.85-21.81,20.02,200.38Z" fill="#23253a" opacity=".1"/>
        </g>
      </g>
    </g>
  </g>
  <g>
    <path d="M107.35,92.63c-11.47-8.97-18.04-22.74-23.09-36.4,2.66-.38,5.31-.77,7.97-1.15-3.94-8.88-7.88-17.75-11.82-26.63,3.69.14,7.37.27,11.06.41.7-7.58,1.39-15.17,2.09-22.75.16-1.79.41-3.76,1.73-4.98,1.77-1.64,4.58-1.17,6.9-.48,8.9,2.66,17.25,7.15,24.38,13.11.55-2.46,1.99-4.7,4.01-6.21,6,4.93,11.01,11.04,14.66,17.89.44-2.53,3.3-4.34,5.77-3.65,4.13,1.14,7.37,18.08,8.03,21.73,1.46,8.08,1.47,16.41.07,24.5-2.67,15.42-9.19,31.95-26.88,32.81-8.86.43-17.93-2.74-24.89-8.18Z" fill="#739929"/>
    <g clip-path="url(#f)">
      <path d="M140.82,91.78c.03-.08.11-.12.13-.2,3.48-13.91,5.65-28.22,6.44-42.54.05-.94-.67-1.75-1.61-1.8-.9-.08-1.75.67-1.8,1.61-.68,12.37-2.47,24.72-5.2,36.81-3.11-9.05-6.46-18.01-10.07-26.88,1.69-9.39,2.82-18.97,3.33-28.51.05-.94-.67-1.75-1.62-1.8-.95-.05-1.75.68-1.8,1.62-.41,7.58-1.22,15.19-2.39,22.71-3.87-9.19-7.97-18.26-12.35-27.18-.42-.85-1.44-1.19-2.29-.78-.85.42-1.2,1.44-.78,2.29,3.27,6.65,6.4,13.39,9.38,20.2-8.43,1.15-17.35-1.6-23.56-7.44-.69-.65-1.77-.62-2.42.08-.65.69-.62,1.77.07,2.42,5.92,5.57,14.04,8.67,22.15,8.67,1.73,0,3.44-.16,5.15-.45,4,9.3,7.75,18.72,11.19,28.25-11.38-1.2-22.57-5.6-31.66-12.55-.75-.57-1.82-.43-2.4.32-.57.75-.43,1.83.32,2.4,10.01,7.65,22.44,12.41,35,13.42,3.27,9.26,6.3,18.6,9.03,28,.22.75.9,1.24,1.65,1.24.16,0,.32-.02.47-.07.91-.26,1.43-1.21,1.17-2.12-1.72-5.94-3.58-11.84-5.51-17.72Z" fill="#4f6618"/>
      <path d="M83.65,19.68s28.09,52.64,42.88,48.5c14.79-4.14,38.64-45.64,38.64-45.64l14.79,42.04-44.84,50.51-71.08-32.09,19.61-63.32Z" fill="#23253a" opacity=".24"/>
    </g>
  </g>
  <g>
    <path d="M312.14,131.33s24.21-10.24,29.26-6.65c19.95,14.18,41.22,9.31,41.22,9.31,0,0,58.07-42.11,0-70.92-58.07-28.81-76.24,57.18-76.24,57.18,0,0-3.06,10.55,5.76,11.08Z" fill="#ba1919"/>
    <g clip-path="url(#g)">
      <g opacity=".45">
        <path d="M342.33,116.42c-1.09,1.59-1.38,3.29-.64,3.79.73.5,2.21-.38,3.29-1.97,1.09-1.59,1.38-3.29.64-3.79-.73-.5-2.21.38-3.29,1.97Z" fill="#e5e01a"/>
        <path d="M325.03,116.42c-1.09,1.59-1.38,3.29-.64,3.79.73.5,2.21-.38,3.29-1.97,1.09-1.59,1.38-3.29.64-3.79-.73-.5-2.21.38-3.29,1.97Z" fill="#e5e01a"/>
        <path d="M330.7,96.71c-1.09,1.59-1.38,3.29-.64,3.79.73.5,2.21-.38,3.29-1.97,1.09-1.59,1.38-3.29.64-3.79-.73-.5-2.21.38-3.29,1.97Z" fill="#e5e01a"/>
        <path d="M369.24,99.73c-1.09,1.59-1.38,3.29-.64,3.79.73.5,2.21-.38,3.29-1.97,1.09-1.59,1.38-3.29.64-3.79-.73-.5-2.21.38-3.29,1.97Z" fill="#e5e01a"/>
        <path d="M333.99,79.01c-1.09,1.59-1.38,3.29-.64,3.79.73.5,2.21-.38,3.29-1.97,1.09-1.59,1.38-3.29.64-3.79s-2.21.38-3.29,1.97Z" fill="#e5e01a"/>
        <path d="M386.4,75.99c-1.09,1.59-1.38,3.29-.64,3.79.73.5,2.21-.38,3.29-1.97,1.09-1.59,1.38-3.29.64-3.79-.73-.5-2.21.38-3.29,1.97Z" fill="#e5e01a"/>
        <path d="M369.51,68.67c1.09-1.59,1.38-3.29.64-3.79-.73-.5-2.21.38-3.29,1.98-1.09,1.59-1.38,3.29-.64,3.79.73.5,2.21-.38,3.29-1.98Z" fill="#e5e01a"/>
        <path d="M383.63,105.94c-1.09,1.59-1.38,3.29-.64,3.79.73.5,2.21-.38,3.29-1.98,1.09-1.59,1.38-3.29.64-3.79-.73-.5-2.21.38-3.29,1.97Z" fill="#e5e01a"/>
        <path d="M347.08,92.72c-1.09,1.59-1.38,3.29-.64,3.79.73.5,2.21-.38,3.29-1.98,1.09-1.59,1.38-3.29.64-3.79-.73-.5-2.21.38-3.29,1.98Z" fill="#e5e01a"/>
        <path d="M352.08,73.99c-1.09,1.59-1.38,3.29-.64,3.79.73.5,2.21-.38,3.29-1.98,1.09-1.59,1.38-3.29.64-3.79-.73-.5-2.21.38-3.29,1.98Z" fill="#e5e01a"/>
        <path d="M374.44,80.82c1.09-1.59,1.38-3.29.64-3.79-.73-.5-2.21.38-3.29,1.97-1.09,1.59-1.38,3.29-.64,3.79.73.5,2.21-.38,3.29-1.97Z" fill="#e5e01a"/>
        <path d="M398.02,87.73c-.73-.5-2.21.38-3.29,1.97-1.09,1.59-1.38,3.29-.64,3.79.73.5,2.21-.38,3.29-1.97,1.09-1.59,1.38-3.29.64-3.79Z" fill="#e5e01a"/>
        <path d="M361.49,117.75c-1.09,1.59-1.38,3.29-.64,3.79.73.5,2.21-.38,3.29-1.97,1.09-1.59,1.38-3.29.64-3.79-.73-.5-2.21.38-3.29,1.97Z" fill="#e5e01a"/>
        <path d="M374.16,126.41c-1.09,1.59-1.38,3.29-.64,3.79s2.21-.38,3.29-1.97c1.09-1.59,1.38-3.29.64-3.79-.73-.5-2.21.38-3.29,1.97Z" fill="#e5e01a"/>
      </g>
      <path d="M304.41,111.51c6.45,3.62,14.61,4.04,21.39,1.09,4.25-1.85,8.1-4.95,12.71-5.4,3.42-.33,6.78.86,10.09,1.8,23.76,6.73,50.88-.08,68.64-17.25,2.72,13.09-.17,27.25-7.8,38.24-7.63,10.98-19.89,18.64-33.1,20.67-10.24,1.57-20.69-.1-30.86-2.09-10.87-2.13-21.66-4.62-32.45-7.11-4.91-1.13-10.33-2.61-13.03-6.87-3.24-5.11-1.14-11.78,1.05-17.43.78-2.02,2.1-3.89,3.37-5.64Z" fill="#23253a" opacity=".1"/>
    </g>
  </g>
  <g>
    <path d="M377.55,143.77s67.35,9.09,97.81,2.67c30.47-6.41,46.75-30.54,16.47-66.73-24.56-29.34-82.74-10.27-114.28,64.06Z" fill="#ba1919"/>
    <g clip-path="url(#h)">
      <g>
        <path d="M415.49,148.73s57.68-16.88,68.09-44.23c10.41-27.35-12.89-35.57-16.81-36.09-17.1-2.26-66.29,4.09-99.4,80.32h48.12Z" fill="#fff" opacity=".19"/>
        <g clip-path="url(#i)">
          <path d="M492.15,72.13c-2.16-2.76-7.11-3.11-8.98-.14-1.37-1.6-5.06-2.79-7.05-2.1-6.38,2.19-12.85,4.51-19.16,7.15-8.09-1.92-15.43-7.14-19.59-14.34l-2.96,1.72c3.93,6.78,10.4,11.97,17.74,14.71-6.15,2.8-12.06,6-17.49,9.77-9.18-2.33-17.61-7.75-23.33-15.3l-2.73,2.07c5.62,7.42,13.66,12.97,22.53,15.82-4.66,3.62-8.9,7.73-12.5,12.51,0,0,0,0,0,.01-.25.02-.5.04-.74.05-6.05.19-12.18.16-18.23-.08-3.61-.14-7.08-.42-9.76-2.16l-1.87,2.87c3.41,2.22,7.54,2.56,11.49,2.71,3.45.14,6.92.21,10.4.21,2.13,0,4.27-.05,6.39-.1-.63,1.15-1.14,2.35-1.44,3.62-.35,1.49-.33,3.08.05,4.56-14.02,10.68-26.01,24.09-34.94,39.25l2.95,1.74c8.61-14.61,20.13-27.54,33.59-37.89,2.76,2.98,7.52,2.75,11.49,1.86.35-.08.68-.19,1.02-.27-6.41,13.68-9.13,29.02-7.61,44.07l3.4-.34c-1.56-15.43,1.51-31.19,8.6-44.96,5.43-1.74,10.61-4.18,15.66-6.93-5.95,15.66-8.16,32.91-6.16,49.48l3.4-.41c-2.1-17.43.62-35.65,7.58-51.81,3.13-1.85,6.22-3.77,9.29-5.69,2.54-1.59,5.06-3.21,7.58-4.82-5.19,14.62-6.86,30.57-4.59,45.88l3.38-.5c-2.41-16.28-.22-33.33,6.09-48.55,3.11-2.05,6.21-4.13,9.22-6.33,2.83-2.07,5.68-4.31,7.39-7.37,1.71-3.06,2.03-7.16-.13-9.93Z" fill="#fff" opacity=".19"/>
          <path d="M421.07,113.56c-7.58-1.4,51.89-37.69,56.68-35.17,4.79,2.52-38.04,38.6-56.68,35.17Z" fill="#ba1919"/>
        </g>
      </g>
      <path d="M427.49,149.12c16.86-2.98,32.81-10.97,45.3-22.69,2.04-1.91,4.13-4,6.84-4.68,1.84-.46,3.77-.21,5.66-.15,7.2.23,14.27-2.34,20.42-6.09,6.15-3.75,11.51-8.63,16.83-13.49,1.68,11.5-1.96,23.43-8.77,32.84-6.82,9.41-16.62,16.4-27.27,21.04-10.65,4.64-22.16,7.04-33.7,8.4-4.89.58-9.95.96-14.63-.57-4.67-1.53-8.89-5.44-9.36-10.33-1.41-.9-.9-2.67-1.33-4.29Z" fill="#23253a" opacity=".1"/>
      <path d="M468.71,150.65c-.08,0-.23-.01-.3-.08-.1-.1-.13-.39,0-.82.18-.55.59-1.18,1.12-1.71.84-.84,1.72-1.22,2.22-1.22.56.33.31,1.48-.83,2.61-.84.84-1.72,1.22-2.22,1.22h0ZM446.95,150.65c-.08,0-.23-.01-.3-.08-.1-.1-.13-.39,0-.82.18-.55.59-1.18,1.12-1.71.84-.84,1.72-1.22,2.22-1.22.56.33.31,1.48-.83,2.61-.84.84-1.72,1.22-2.22,1.22h0ZM460.79,141.09c-.08,0-.23-.01-.3-.08-.1-.1-.13-.39,0-.82.18-.55.59-1.18,1.12-1.71.84-.84,1.73-1.22,2.23-1.22.4.18.44.47.3.9-.18.55-.59,1.18-1.12,1.71-.84.84-1.73,1.22-2.23,1.22h0ZM486.39,137.94c-.08,0-.23-.01-.3-.08-.1-.1-.13-.39,0-.82.18-.55.59-1.18,1.12-1.71.84-.84,1.72-1.22,2.22-1.22.56.33.31,1.48-.83,2.61-.84.84-1.72,1.22-2.22,1.22h0ZM501.26,133.62c-.12-.06-.26-.32-.29-.77-.03-.58.13-1.31.43-2,.6-1.35,1.47-1.98,1.86-1.98.22.07.35.33.38.79.03.58-.13,1.31-.43,2-.6,1.35-1.47,1.98-1.86,1.98,0,0-.07,0-.09-.02ZM476.29,131.16c-.08,0-.23-.01-.3-.08-.1-.1-.13-.39,0-.82.18-.55.59-1.18,1.12-1.71.84-.84,1.72-1.22,2.22-1.22.56.33.31,1.48-.83,2.61-.84.84-1.72,1.22-2.22,1.22h0ZM495.92,124.38c-.33-.08-.74-1.18-.38-2.75.35-1.54,1.15-2.31,1.5-2.31l.28.22c.26.42.41,1.37.15,2.53-.35,1.54-1.15,2.31-1.5,2.31h-.05ZM506.43,119.5c-.35,0-.99-.98-.99-2.59s.64-2.59.99-2.59.99.98.99,2.59-.64,2.59-.99,2.59ZM487.91,116.75c-.35,0-.99-.98-.99-2.59s.64-2.59.99-2.59.99.98.99,2.59-.64,2.59-.99,2.59ZM499.52,104.1c-.45,0-1.24-.53-1.81-1.51-.68-1.18-.61-2.26-.27-2.45.03,0,.05,0,.07,0,.62,0,1.37.52,1.92,1.47.68,1.18.61,2.26.27,2.45l-.18.04Z" fill="#e5e01a" opacity=".45"/>
    </g>
  </g>
  <g>
    <path d="M155.31,42.74c.61,1.61,1.22,3.23,1.83,4.84,13.24-16.19,30.89-28.73,50.53-35.9.81,2.25,1.62,4.51,2.43,6.76,15.59-2.89,31.19-5.77,46.78-8.66-1.21,14.73-5.09,29.23-11.41,42.58,2.92-.37,5.84-.75,8.76-1.12-3.12,15.49-10.79,30.03-21.82,41.34,3.97.56,7.94,1.12,11.9,1.68-1.38-.2-12.34,12.84-14.21,14.41-5.56,4.69-11.58,8.85-17.93,12.4-12.23,6.85-26.55,12.41-40.63,13.57-26.84,2.21-34.08-23.29-33.2-45.98.64-16.58,6.37-33.08,16.97-45.95Z" fill="#739929"/>
    <g clip-path="url(#j)">
      <path d="M239.2,48.43c-.45-.84-1.49-1.15-2.32-.71-8.46,4.51-18.56,5.84-27.92,3.8,5.98-5.38,12.29-10.35,18.93-14.8.78-.53.99-1.59.46-2.38-.53-.79-1.59-.99-2.38-.47-10.41,7-20.07,15.2-28.82,24.32-.11-10.61,1.5-21.1,4.78-31.24.29-.9-.2-1.87-1.1-2.16-.92-.29-1.87.2-2.16,1.1-3.76,11.61-5.37,23.68-4.83,35.87-7.05,7.75-13.44,16.12-19.08,24.96-3.6-10.3-4.75-21.35-3.25-32.18.13-.94-.52-1.8-1.46-1.93-.92-.12-1.8.52-1.93,1.46-1.69,12.26-.19,24.8,4.34,36.31-3.67,6.07-6.97,12.35-9.9,18.78-5.1-9.08-8.4-19.25-9.53-29.6-.11-.94-.95-1.62-1.89-1.52-.94.1-1.62.95-1.51,1.89,1.27,11.66,5.16,23.1,11.23,33.12-2.72,6.37-5.09,12.86-7.01,19.48-.26.91.26,1.86,1.17,2.12.16.05.32.07.48.07.74,0,1.42-.48,1.65-1.23.91-3.11,1.94-6.19,3.03-9.25.31.29.72.48,1.18.48h.01c11.89-.09,23.66-1.94,34.99-5.5.9-.28,1.4-1.25,1.12-2.15-.28-.9-1.23-1.4-2.15-1.12-11.01,3.46-22.45,5.26-33.99,5.35-.03,0-.06.02-.09.02,1.7-4.53,3.61-8.99,5.69-13.38.11.03.21.08.33.09,2.02.13,4.04.19,6.08.19,10.28,0,20.67-1.63,30.39-4.78.9-.29,1.39-1.26,1.1-2.16-.29-.9-1.26-1.39-2.16-1.1-10.91,3.54-22.69,5.07-34.17,4.47,4.42-8.83,9.59-17.31,15.41-25.31.18.11.38.2.6.24,5.34.98,10.79,1.47,16.25,1.47,7.18,0,14.37-.85,21.3-2.54.92-.22,1.48-1.15,1.26-2.07-.22-.92-1.13-1.49-2.07-1.26-11.42,2.78-23.53,3.17-35.1,1.18,3.18-4.19,6.54-8.23,10.07-12.13.48-.2.84-.59.99-1.09,2.86-3.1,5.83-6.1,8.9-8.99.2.18.43.33.71.41,3.51.89,7.14,1.33,10.77,1.33,7.25,0,14.51-1.76,20.9-5.16.83-.44,1.15-1.48.71-2.32Z" fill="#4f6618"/>
      <path d="M138.27,78.81s8.03,20.66,45.51,8.52c37.48-12.15,79.19-51.91,79.19-51.91l23.85,17.65-53.9,92.71-94.64-11.05v-55.92Z" fill="#23253a" opacity=".1"/>
      <path d="M212.37,84.77s-23.82,42.56-46.72,50.03c-22.9,7.47,55.81,9.86,55.81,9.86l14.31-39.48-23.4-20.41Z" fill="#23253a" opacity=".1"/>
    </g>
  </g>
  <g>
    <path d="M98.33,151.63c.22-1.95.43-3.91.65-5.86-16.61-1.47-33.45-.37-49.73,3.25.54-2.88,1.09-5.76,1.63-8.64-11.13.37-22.35-1.73-32.59-6.11,2.51-3.83,6.05-6.97,10.14-9.02-8.75-4.92-18.47-8.11-28.43-9.34,4.55-15.69,15.52-29.42,29.82-37.3-3.08-1.97-6.16-3.94-9.23-5.92,14.75-4.54,30.26-6.57,45.68-5.98-1.84-2.66-3.68-5.32-5.52-7.97,18.45,3.22,36.15,10.63,51.38,21.52.17-2.21.34-4.43.51-6.64-.05.71,36.93,20.25,41.29,58.08-12.49,7.06-41.76,16.71-55.6,19.94Z" fill="#739929"/>
    <g clip-path="url(#k)">
      <path d="M150.45,132.63c-3.87-3.05-7.92-5.88-12.07-8.53-1.05-8.65-4.15-17.03-9.02-24.26-.53-.79-1.59-.99-2.38-.47-.78.53-.99,1.59-.46,2.38,4.03,6,6.69,12.85,7.96,19.96-6.74-4.03-13.77-7.54-21.04-10.51,0-.24-.06-.49-.18-.72-7.38-14.43-18.1-27.24-31.02-37.03-.75-.57-1.83-.42-2.4.33s-.42,1.83.33,2.4c11.7,8.87,21.5,20.31,28.57,33.18-11.21-4.17-22.9-7.08-34.76-8.65-.06-.15-.12-.3-.23-.44-7.45-9.05-17.17-16.07-28.1-20.3-.88-.34-1.88.1-2.21.98-.34.88.1,1.87.98,2.22,9.43,3.65,17.89,9.5,24.66,16.98-14.26-1.44-28.7-.99-42.81,1.57-.93.17-1.55,1.06-1.38,1.99.17.93,1.07,1.55,1.99,1.38,9.57-1.74,19.3-2.45,29.02-2.29-3.1,7.45-8,14.03-14.31,19.05-.74.59-.86,1.67-.27,2.4.34.43.84.65,1.34.65.37,0,.75-.12,1.07-.37,7.03-5.59,12.48-12.97,15.77-21.33.04-.11.04-.22.06-.33,10.14.41,20.24,1.85,30.11,4.23-6.52,9.64-15.32,17.62-25.6,23.09-.84.44-1.15,1.48-.71,2.32.31.58.9.91,1.51.91.27,0,.55-.06.8-.2,11.14-5.92,20.63-14.63,27.52-25.2,10.29,2.73,20.3,6.51,29.8,11.29-5.27,5.96-11.27,11.26-17.84,15.74-.78.53-.98,1.6-.45,2.38.33.49.87.75,1.41.75.33,0,.67-.1.96-.3,6.95-4.73,13.28-10.34,18.82-16.66.08-.09.12-.2.18-.31,7.82,4.15,15.3,8.95,22.26,14.44.31.25.69.37,1.06.37.5,0,1.01-.22,1.34-.65.59-.74.46-1.82-.28-2.4Z" fill="#4f6618"/>
      <path d="M13.63,139.87s108.09-13.44,92.15-67.57l26.83-7.72,29.94,75.29-65.32,33.05L13.63,139.87Z" fill="#23253a" opacity=".1"/>
    </g>
  </g>
  <g>
    <path d="M210.14,141.69s4.05-2.7,17.53,0c13.48,2.7,22.47,16.18,31.01,15.28,8.54-.9,47.19-10.79,47.19-10.79,0,0-12.16-63.19-47.19-69.22-41.8-7.19-59.78,20.67-56.18,40.45,3.6,19.78,7.64,24.27,7.64,24.27Z" fill="#ba1919"/>
    <g clip-path="url(#l)">
      <g>
        <path d="M231,77.68s-29.97,30.58,29.86,84.05l57.59-11.22-27.3-74.71s-54.48-16.74-60.14,1.87Z" fill="#fff" opacity=".19"/>
        <g clip-path="url(#m)">
          <path d="M276.35,125.13c11.34,7.63,22.2,16.05,32.33,25.19l1.72-1.91c-10.36-9.35-21.48-17.95-33.09-25.73,1.7-5.36,1.69-11.96.4-18.63,10.66,2.14,20.93,5.75,30.61,10.84l1.2-2.27c-10.24-5.38-21.11-9.15-32.41-11.3-1.18-4.83-2.99-9.61-5.29-13.91,7.14.26,14.22,1.23,21.18,2.9l-.02.19,1.33.12.43-2.52c-7.99-2.01-16.16-3.07-24.39-3.25-3.45-5.65-7.75-10.21-12.5-12.49-18.3-8.76-28.41,3.45-28.41,3.45,0,0,4.21,5.79,8.45,17.09-8.1,4.77-15.56,10.5-22.15,17.22l1.83,1.8c6.33-6.46,13.48-11.98,21.24-16.59,1.83,4.74,3.92,9.74,6.19,14.51-6.2,11.97-11.73,24.38-16.39,37.02l2.41.89c4.41-11.95,9.6-23.68,15.39-35.03,2.38,4.73,4.93,9.12,7.58,12.65-2.17,14.28-2.65,28.76-1.4,43.16l2.56-.22c-1.16-13.43-.79-26.92,1.06-40.25,2.94,3.28,5.97,5.37,8.99,5.6,3.12,10.65,7.1,21.06,11.95,31.04l2.31-1.12c-4.73-9.71-8.62-19.84-11.67-30.19.43-.13.86-.25,1.28-.46,3.35-1.67,5.72-4.4,7.27-7.79Z" fill="#fff" opacity=".19"/>
          <path d="M250.9,94.9c2.8,8.06,4.56,16.76,9.77,23.52,1.2,1.56,3.48,3.07,4.94,1.75,1.1-.99.72-2.78.19-4.17-2.42-6.38-6.02-12.25-8.63-18.56-2.61-6.31-4.2-13.38-2.34-19.95.46-1.61,1.05-3.55-.08-4.79-.58-.64-1.47-.88-2.33-1.03-3.96-.68-15.6.46-11.9,6.83,1.51,2.6,4.58,4.62,6.23,7.34s3.05,5.92,4.14,9.05Z" fill="#ba1919"/>
        </g>
      </g>
      <path d="M216.15,105.38c1.24,1.48,1.69,3.14,1,3.71s-2.23-.17-3.47-1.65c-1.24-1.48-1.69-3.14-1-3.71s2.23.17,3.47,1.65ZM226.21,130.24c-.68.57-.23,2.23,1,3.71,1.24,1.48,2.79,2.22,3.47,1.65.68-.57.23-2.23-1-3.71-1.24-1.48-2.79-2.22-3.47-1.65ZM211.13,117.45c-.68.57-.23,2.23,1,3.71,1.24,1.48,2.79,2.22,3.47,1.65s.23-2.23-1-3.71c-1.24-1.48-2.79-2.22-3.47-1.65ZM217.15,136.35c-.68.57-.23,2.23,1,3.71,1.24,1.48,2.79,2.22,3.47,1.65s.23-2.23-1-3.71c-1.24-1.48-2.79-2.22-3.47-1.65ZM213.68,85.59c-.68.57-.23,2.23,1,3.71,1.24,1.48,2.79,2.22,3.47,1.65.68-.57.23-2.23-1-3.71-1.24-1.48-2.79-2.22-3.47-1.65Z" fill="#e5e01a" opacity=".45"/>
    </g>
  </g>
  <path d="M327.37,199.66c-106.92,0-198.62-25.07-215.71-47.06-.58-.75-.89-1.66-.31-2.4.58-.75,1.66-.88,2.4-.31,32.15,24.89,251.16,73.84,427.61-.22.88-.37,1.88.05,2.24.92.37.87-.1,1.77-.92,2.24-60.71,35.2-146.31,46.84-215.32,46.84Z" fill="#fff"/>
  <path d="M116.14,186.95c-11.31-5.28-23.15-13.65-34.93-9.52-7.68,2.69-13.05,9.95-15.54,17.7-2.49,7.75-2.54,16.04-2.56,24.18-.22,73.6-.45,307.19-.67,380.79-.01,3.75-.23,9.25,3.38,10.23,6.72,1.81,17.77-281.21,19.77-336.57.64-17.66,2.06-37.76,15.9-48.75,10.65-8.45,36.45-10.56,49.55-6.9,13.1,3.66,90.73,7.12,90.74.81.01-7.05-50.84,2.98-125.64-31.97Z" fill="#fff"/>
  <path d="M284.7,216.28c0-2.65,5.09.09,13.94-.03,49.86-.63,218.98-7.51,267.75-71.14,0,0,2.2,35.94,0,54.56,0,0-2.2-20.49-18.23-12.8-14.77,7.09-185.35,48.3-249.55,34.25-5.46-1.2-13.91-2.19-13.91-4.84Z" fill="#fff"/>
</svg>