<?xml version="1.0" encoding="UTF-8"?>
<svg id="a" data-name="Layer 1" xmlns="http://www.w3.org/2000/svg" xmlns:xlink="http://www.w3.org/1999/xlink" viewBox="0 0 715.99 750">
  <defs>
    <clipPath id="b">
      <path d="M170.85,476.26s-58.12,7.34-70.62-19.74c-12.5-27.08,7.1-50.92-35.63-83.39l-59.52,37.66s29.09,4.36,28.05,25.2c-1.04,20.83-42.25,153.23,120.01,162.37l17.71-122.11Z" fill="#93603d"/>
    </clipPath>
    <clipPath id="c">
      <path d="M10.23,407.85c-3.13,0-5.28-.69-5.9-1.9-.72-1.41.19-4.62,4.92-9.44,4.65-4.73,11.61-9.6,19.59-13.7,10.17-5.22,20.33-8.34,27.19-8.34,3.14,0,5.29.69,5.91,1.9,1.79,3.49-6.67,13.98-24.52,23.14-10.17,5.22-20.33,8.34-27.19,8.34h0Z" fill="#23253a" opacity=".25"/>
    </clipPath>
    <clipPath id="d">
      <ellipse cx="430.82" cy="674.19" rx="242.21" ry="75.81" fill="#93603d"/>
    </clipPath>
    <clipPath id="e">
      <path d="M590.8,369.37s50.72-158.96,58.64-208.09c8.37-51.91-6.13-130.61-233.84-131.01-249.23-.44-249.86,111.3-231.53,168.83,0,0,43.51,145.3,73.78,184.27h-23.22s-75.84-144.48-88.91-189.93C126.29,125.87,141.25,0,415.6,0c253.49,0,269.79,96.96,269.79,163.17,0,66.21-75.67,220.2-75.67,220.2l-18.92-14Z"/>
    </clipPath>
    <clipPath id="f">
      <path d="M290.6,314.32h262.66c179,96.81,163.63,309.45,161.51,318.9,0,.11.03.22.03.32,0,38.14-129.11,95.31-287.32,95.31s-285.61-57.17-285.61-95.31c-20.71-244.15,148.73-319.23,148.73-319.23Z" fill="#93603d"/>
    </clipPath>
    <clipPath id="g">
      <ellipse cx="430.82" cy="318.39" rx="154.3" ry="69.05" fill="#93603d"/>
    </clipPath>
    <clipPath id="h">
      <circle cx="427.49" cy="243.56" r="30.69"/>
    </clipPath>
  </defs>
  <g>
    <path d="M170.85,476.26s-58.12,7.34-70.62-19.74c-12.5-27.08,7.1-50.92-35.63-83.39l-59.52,37.66s29.09,4.36,28.05,25.2c-1.04,20.83-42.25,153.23,120.01,162.37l17.71-122.11Z" fill="#93603d"/>
    <g clip-path="url(#b)">
      <path d="M136.01,466.12s20.38,27.31-16.95,58.44c-23.91,19.94-55.28-5.4-62.04-23.27-18.39-48.63-7.21-119.01,41.55-106.15l-52.26-40.72-114.81,56.6,10.57,87.54L0,651.01l102.81,37.73,112.44-89.8-36.22-160.74-43.02,27.92Z" fill="#23253a" opacity=".15"/>
    </g>
  </g>
  <ellipse cx="33.13" cy="391.16" rx="36.71" ry="12.17" transform="translate(-175.03 58.33) rotate(-27.18)" fill="#93603d"/>
  <g>
    <path d="M10.23,407.85c-3.13,0-5.28-.69-5.9-1.9-.72-1.41.19-4.62,4.92-9.44,4.65-4.73,11.61-9.6,19.59-13.7,10.17-5.22,20.33-8.34,27.19-8.34,3.14,0,5.29.69,5.91,1.9,1.79,3.49-6.67,13.98-24.52,23.14-10.17,5.22-20.33,8.34-27.19,8.34h0Z" fill="#23253a" opacity=".25"/>
    <g clip-path="url(#c)">
      <path d="M23.77,374.47s13.08,30.48,32.2,33.38l-42.43,17.83-16.27-19.45,26.5-31.76Z" fill="#23253a" opacity=".1"/>
    </g>
  </g>
  <g>
    <ellipse cx="430.82" cy="674.19" rx="242.21" ry="75.81" fill="#93603d"/>
    <g clip-path="url(#d)">
      <path d="M215.97,750s268.02,21.75,316.94-52.7l158.47-64.88,32.97,74.45-55.31,43.12-433.93,63.23-19.14-63.23Z" fill="#23253a" opacity=".3"/>
    </g>
  </g>
  <g>
    <path d="M590.8,369.37s50.72-158.96,58.64-208.09c8.37-51.91-6.13-130.61-233.84-131.01-249.23-.44-249.86,111.3-231.53,168.83,0,0,43.51,145.3,73.78,184.27h-23.22s-75.84-144.48-88.91-189.93C126.29,125.87,141.25,0,415.6,0c253.49,0,269.79,96.96,269.79,163.17,0,66.21-75.67,220.2-75.67,220.2l-18.92-14Z"/>
    <g clip-path="url(#e)">
      <path d="M210.53,355.8s-92.68-200.86-32.19-268.16C249,9.03,411.51-7.75,562.54,10.8l-58.29-60.06L155.92,9.03s-78.27,128.95-78.27,131.6,93.19,215.17,93.19,215.17h39.68Z" fill="#fff" opacity=".16"/>
      <path d="M601.7,63.26s73.89,28.8,65.94,107.41c-7.95,78.61-76.84,198.71-76.84,198.71l-20.31-22.07,31.22-284.05Z" fill="#fff" opacity=".16"/>
    </g>
  </g>
  <g>
    <path d="M290.6,314.32h262.66c179,96.81,163.63,309.45,161.51,318.9,0,.11.03.22.03.32,0,38.14-129.11,95.31-287.32,95.31s-285.61-57.17-285.61-95.31c-20.71-244.15,148.73-319.23,148.73-319.23Z" fill="#93603d"/>
    <g clip-path="url(#f)">
      <path d="M159.93,445.85c31.65-38.91,65.28-79.32,111.69-98.33,16.7-6.84,34.48-10.62,52.28-13.6,68.1-11.39,140.67-10.82,203.06,18.76,62.39,29.58,111.89,93.09,109.55,162.1-1.77,52.34-32.78,100.87-74.67,132.31-41.88,31.44-93.58,47.43-145.39,55.09-46.49,6.87-94.22,7.43-140.24-2.09-35.45-7.33-69.38-20.48-103.12-33.58-23.82-9.25-47.64-18.5-71.46-27.75-.65,26.04,15.87,49.1,32.63,69.04,24.89,29.62,53.17,58.12,89.07,72.55,38.08,15.31,80.52,13.22,121.55,14.29,47.53,1.23,95.65,6.95,142.23-2.59,32.4-6.64,62.82-20.44,92.92-34.14,43.96-20.01,87.93-40.01,131.89-60.02,21.15-9.62,42.91-19.69,58.55-36.86,13.2-14.5,21.03-32.97,28.53-51.09,7.91-19.12,15.81-38.66,17.45-59.28,1.85-23.3-4.41-46.45-11.78-68.64-21.38-64.37-53.5-126.67-103.01-173.03-16.74-15.68-35.68-29.57-57.34-37.12-24.21-8.44-50.38-8.52-75.97-9.97-55.48-3.14-110.48-13.1-166.02-14.65-55.55-1.55-113.21,6.02-160.58,35.06-15.63,9.58-31.5,28.26-22.36,44.15-15.71,16.87-33.5,38.62-47.95,56.58-7.49,9.31-14.82,19.28-17.49,30.93-2.07,9.02-1.2,18.42-.31,27.63.45,4.65,1.64,4.52,6.3,4.24Z" fill="#23253a" opacity=".2"/>
      <ellipse cx="428.34" cy="328.17" rx="170.67" ry="69.05" fill="#23253a" opacity=".1"/>
      <path d="M410.58,484.18c-35.21,0-66.9-2.86-94.13-6.92-99-14.75-160.31-47.11-162.86-48.47l6.08-11.37c.61.33,62.28,32.81,159.23,47.17,89.33,13.24,227.8,13.34,380.21-61.32l5.68,11.58c-109.18,53.48-211.41,69.33-294.21,69.33Z" fill="#63381b"/>
      <path d="M405.08,698.19c-42.21,0-80.19-3.51-112.83-8.49-118.67-18.1-194.41-67.63-195.16-68.04l5.24-14.51c.74.4,75.1,49.11,192.01,66.86,107.79,16.37,274.85,16.52,458.69-75.64l4.86,14.7c-130.95,65.65-253.54,85.11-352.82,85.11Z" fill="#63381b"/>
      <path d="M528.03,743.63s189.79-87.67,157.36-222.04c-32.43-134.38-157.36-194.75-157.36-194.75l72.95-67.08,201.23,215.02s40.25,158.94,13.42,185.77c-26.83,26.83-130.24,100.62-130.24,100.62l-157.36-17.54Z" fill="#23253a" opacity=".1"/>
    </g>
  </g>
  <g>
    <ellipse cx="430.82" cy="318.39" rx="154.3" ry="69.05" fill="#93603d"/>
    <g clip-path="url(#g)">
      <path d="M592.98,268.28c-5.1-12.37-16.07-21.34-27.51-28.29-30.29-18.41-65.84-26.04-100.94-30.93-13.94-1.94-28.25-3.48-42-.45-12.21,2.69-23.34,8.86-34.26,14.95-10.74,5.99-21.61,12.07-30.44,20.62-1.79,1.73-3.61,4.23-2.55,6.48.94,2-33.87,18.91-31.8,18.15,53.55-19.46,140.27-8.64,154.65-7.62,11.39.8,22.88,3.92,32.01,10.77,9.13,6.85,15.59,17.8,15.23,29.21-.34,10.8-6.65,20.76-14.99,27.63-8.34,6.86-18.56,11.02-28.82,14.38-28.81,9.45-59.38,13.49-89.65,11.86-5.48-.29-8.58,6.57-4.36,10.08.03.03.06.05.09.08,3.1,2.52,7.19,3.43,11.13,4.12,43.04,7.55,87.35-2.24,128.51-16.92,18.83-6.71,37.87-14.83,51.77-29.2,13.9-14.37,21.56-36.43,13.94-54.92Z" fill="#23253a" opacity=".2"/>
      <path d="M427.49,274.25s64.82-19.3,86.69-17.07l-17.75-16.88-54.77-5.92-22.2,14.96,8.03,24.91Z" fill="#23253a" opacity=".15"/>
    </g>
  </g>
  <g>
    <circle cx="427.49" cy="243.56" r="30.69"/>
    <g clip-path="url(#h)">
      <circle cx="414.32" cy="228.32" r="30.69" fill="#fff" opacity=".16"/>
      <circle cx="414.32" cy="228.32" r="15.24" fill="#fff" opacity=".16"/>
    </g>
  </g>
  <path d="M266.94,384.67c-5.25-.77-10.65-1.16-15.84-.03-5.41,1.18-10.35,3.99-14.83,7.25-20.49,14.91-32.08,38.97-41.02,62.68-7.16,18.97-13.15,38.39-17.94,58.1-2,8.22-3.79,16.8-2.05,25.07,1.73,8.28,7.92,16.21,16.31,17.33,6.76.9,13.43-2.75,18.2-7.62,4.77-4.88,8.11-10.94,12.02-16.53,14.15-20.24,35.56-34.04,56.65-46.9,14.72-8.98,29.9-17.91,46.76-21.52,15.02-3.22,113.52-15.88,145.94-27.62,2.04-.74,4.26-1.63,5.23-3.57,1.34-2.66-.35-5.83-2.32-8.06-12.38-14.01-34.02-13.13-52.69-12.16-28.78,1.5-60.76,2.71-89.09-3.49-8.66-1.89-51.05-20.81-65.34-22.91Z" fill="#fff" opacity=".06"/>
  <path d="M238.24,412.15c-11.75,7.89-20.06,20.26-24.65,33.64-2.45,7.13-3.91,14.81-2.52,22.22.96,5.09,3.99,10.51,9.09,11.4,4.62.81,8.91-2.36,12.4-5.5,8.77-7.89,16.68-16.8,26.24-23.72,13.08-9.47,28.62-14.77,43.83-20.2,3.35-1.2,7.31-3.22,7.34-6.78.02-2.88-2.65-4.98-5.12-6.45-20.25-12.07-45.71-18.65-66.61-4.61Z" fill="#fff" opacity=".06"/>
  <path d="M307.01,291.74c-5.21,7.44-7.48,17.24-4.6,25.85,2.8,8.38,9.85,14.51,16.59,20.21,7.91,6.68,27.54,21.51,39.1,17.25s-31.5-20.49-29.15-36.65c2.77-18.99,19.62-32.18,27.89-36.98,2.8-1.63,5.86-3.06,7.83-5.63s2.29-6.78-.3-8.72c-.93-.69-2.06-1.34-3.21-1.24-19.52,1.8-48.94,18.48-54.15,25.92Z" fill="#fff" opacity=".06"/>
</svg>