<?xml version="1.0" encoding="UTF-8"?>
<svg id="a" data-name="Layer 1" xmlns="http://www.w3.org/2000/svg" xmlns:xlink="http://www.w3.org/1999/xlink" viewBox="0 0 750 687.98">
  <defs>
    <clipPath id="b">
      <ellipse cx="317.52" cy="578.57" rx="317.52" ry="109.41" fill="#f5f5f5"/>
    </clipPath>
    <clipPath id="c">
      <path d="M612.59,207.94s137.41-20.1,137.41,88.51-182.73,125.87-182.73,125.87v-46.76s135.97-12.95,135.97-82.01-105.75-42.44-105.75-42.44l15.11-43.16Z" fill="#f5f5f5"/>
    </clipPath>
    <clipPath id="d">
      <path d="M527.05,40.69C469.42,14.45,393.31,0,312.75,0S156.07,14.45,98.44,40.69C34.96,69.59,0,110.23,0,155.11c0,403.04,232.18,437.78,312.75,437.78s312.75-26.88,312.75-437.78c0-44.89-34.96-85.52-98.44-114.43Z" fill="#f5f5f5"/>
    </clipPath>
    <clipPath id="e">
      <path d="M0,155.11s18.58,152.85,317.52,141.33c298.94-11.52,307.98-141.33,307.98-141.33h56.52l-143.14,436.56-396.25,14.32L17.53,469.16,0,155.11Z" fill="#23253a" opacity=".07"/>
    </clipPath>
    <clipPath id="f">
      <ellipse cx="312.75" cy="147.92" rx="289.38" ry="131.74" fill="#23253a" opacity=".15"/>
    </clipPath>
  </defs>
  <g>
    <ellipse cx="317.52" cy="578.57" rx="317.52" ry="109.41" fill="#f5f5f5"/>
    <g clip-path="url(#b)">
      <ellipse cx="316.84" cy="574.29" rx="308.65" ry="95.33" fill="#23253a" opacity=".07"/>
      <path d="M316.84,628.21c-60.07,0-116.3-7.15-158.36-20.14-40.64-12.55-55.39-27.08-55.39-33.78s14.75-21.23,55.39-33.78c42.05-12.99,98.29-20.14,158.36-20.14s116.31,7.15,158.36,20.14c40.64,12.55,55.39,27.08,55.39,33.78s-14.75,21.23-55.39,33.78c-42.05,12.99-98.29,20.14-158.36,20.14Z" fill="#23253a" opacity=".15"/>
      <path d="M312.75,592.89s261.03-19.71,347.71,45.41c0,0,20.35-115.77,20.35-119.38,0-2.02-219.19-61.57-406.48-68.38-148.6-5.4-254.62,60.2-254.62,60.2,57.5,11.98,103.47,21.96,161.5,51.35l131.54,30.8Z" fill="#23253a" opacity=".07"/>
      <path d="M314.13,601.15c-41.55,0-80.45-7.15-109.53-20.14-28.11-12.55-38.31-27.08-38.31-33.78s10.2-21.23,38.31-33.78c29.09-12.99,67.98-20.14,109.53-20.14s80.45,7.15,109.53,20.14c28.11,12.55,38.31,27.08,38.31,33.78s-10.2,21.23-38.31,33.78c-29.09,12.99-67.98,20.14-109.53,20.14Z" fill="#23253a" opacity=".15"/>
    </g>
  </g>
  <g>
    <path d="M612.59,207.94s137.41-20.1,137.41,88.51-182.73,125.87-182.73,125.87v-46.76s135.97-12.95,135.97-82.01-105.75-42.44-105.75-42.44l15.11-43.16Z" fill="#f5f5f5"/>
    <g clip-path="url(#c)">
      <path d="M640.66,202.23s-18.26,7.74-12.93,25.87,90.09,3.57,93.66,63.78c3.57,60.21-74.93,74.11-95.89,80.8-20.96,6.69-40.14,47.18-13.82,49.64h-62.44l29.88-110.05,23.01-113.17,38.53,3.12Z" fill="#23253a" opacity=".07"/>
      <path d="M619.85,412.51s136.47-46.53,127.25-141.34l19.33,8.5-24.98,109.43-71.81,28.54-49.79-5.13Z" fill="#23253a" opacity=".07"/>
      <path d="M578.58,428.65s13.49-53.4,46.91-72.55l4.4-109.71s-11.5-7.64-1.12-43.55l-32.54,17.73-28.96,208.07h11.31Z" fill="#23253a" opacity=".07"/>
    </g>
  </g>
  <g>
    <path d="M527.05,40.69C469.42,14.45,393.31,0,312.75,0S156.07,14.45,98.44,40.69C34.96,69.59,0,110.23,0,155.11c0,403.04,232.18,437.78,312.75,437.78s312.75-26.88,312.75-437.78c0-44.89-34.96-85.52-98.44-114.43Z" fill="#f5f5f5"/>
    <g clip-path="url(#d)">
      <g>
        <path d="M0,155.11s18.58,152.85,317.52,141.33c298.94-11.52,307.98-141.33,307.98-141.33h56.52l-143.14,436.56-396.25,14.32L17.53,469.16,0,155.11Z" fill="#23253a" opacity=".07"/>
        <g clip-path="url(#e)">
          <path d="M106.04,544.1c288.68,34.82,447.55-95.09,424.09-252.6-2.88-19.36-14-26.77-28.72-25.23l142.48-163.34,38.13,358.11-223.31,187.91s-337.67-62.64-352.66-104.85Z" fill="#23253a" opacity=".1"/>
        </g>
      </g>
      <path d="M43.71,226.9c8.04,95.81,48.06,301.81,162.86,299.74,68.5-1.23-58.09-106.41,5.13-233.48-4.38-7.98-1.97-18.61-.5-21.83-76.76-12.88-80.13-51.56-156.89-64.45-7.48,0-12.02,10.31-10.6,20.02Z" fill="#fff" opacity=".26"/>
    </g>
  </g>
  <g>
    <ellipse cx="312.75" cy="147.92" rx="289.38" ry="131.74" fill="#23253a" opacity=".15"/>
    <g clip-path="url(#f)">
      <path d="M329.72,12.03s24.81,31.9,54.93,40.75c0,0-359.39,98.43-347.3,160.36C49.44,275.08,0,89.11,0,89.11c0,0,179.11-93.91,329.72-77.08Z" fill="#23253a" opacity=".08"/>
      <ellipse cx="312.75" cy="175.46" rx="289.38" ry="131.74" fill="#73a820"/>
      <path d="M481.41,139.41c-3.65-15.87-17.54-29.66-33.8-30.49,14.56,18.15,9.87,48.65-3.38,67.79-13.24,19.14-34.13,31.4-54.82,42.06-20.69,10.66-42.3,20.64-58.89,36.96,2.03-14.22,12.64-25.85,24.59-33.83,11.95-7.98,25.51-13.2,37.84-20.59,12.32-7.38,23.87-17.7,27.96-31.47,4.09-13.77-1.91-31.16-15.52-35.76,6.15,15.86-2.69,35.6-14.4,47.93-11.71,12.33-27.12,20.35-41.11,30.01-14,9.66-27.41,22.13-31.64,38.6-2-17.97,4.71-36.7,17.64-49.33,7.85-7.66,17.61-12.99,26.59-19.27,8.98-6.29,17.58-14.05,21.3-24.37s1.05-23.58-8.42-29.1c-.09,10.07-5.5,21.04-13.32,27.39-7.82,6.35-16.95,10.93-24.72,17.35-16.08,13.28-25.63,34.52-24.4,55.34-3.03-41.5.14-62.54,19.15-86.15,3.17-3.94,6.7-7.69,8.91-12.23,2.22-4.55,2.93-10.2.35-14.55-4.64-7.82-17.62-6.92-23.54-.02-12.11,14.12-10.08,49.83-10.42,66.4-2.59-30.29-4.81-56.2,5.56-82.81,1.75-4.49,4.31-8.64,5.8-13.22,1.49-4.58,2.01-9.69.16-14.14-1.85-4.44-6.55-7.91-11.31-7.2-3.93.58-10.11,2.58-7.25,59.25-6.43-56.24-13.69-57.2-17.66-57.11-4.81.12-8.85,4.33-9.92,9.02-1.07,4.69.32,9.64,2.57,13.9s5.18,8.11,7.97,12.03c13.38,18.87,17.24,51.44,20.02,81.38-2.38-12.35-7.63-51.38-22.01-64.37-6.75-6.1-19.95-4.47-23.19,4.03-1.8,4.73-.14,10.18,2.82,14.28,2.96,4.1,7.07,7.19,10.87,10.54,22.75,20.02,29.47,40.21,33.56,81.62-2.35-20.72-15.38-40.02-33.48-50.37-8.74-5-18.53-7.96-27.31-12.88-8.79-4.92-15.99-14.81-17.8-24.72-8.4,7.05-8.76,20.58-3.34,30.11,5.43,9.53,15.22,15.71,25.14,20.38,9.92,4.66,20.45,8.25,29.49,14.46,14.9,10.24,24.7,27.55,25.8,45.6-6.97-15.51-22.31-25.51-37.75-32.64-15.44-7.13-31.98-12.41-45.63-22.56-13.65-10.15-25.72-28.1-22.37-44.77-12.63,6.85-15.57,25.01-9.19,37.88,6.38,12.87,19.52,21.07,32.92,26.24,13.4,5.17,27.66,8.01,40.79,13.83,13.13,5.82,25.57,15.47,30,29.14-19.13-13.26-42.13-19.41-64.33-26.38-22.21-6.98-44.88-15.49-61.19-32.1-16.31-16.6-26.14-45.85-14.89-66.22-15.89,3.59-27.22,19.54-28.11,35.81-.89,16.26,7.29,32.13,19.17,43.27,11.89,11.14,27.14,18.05,42.7,22.89s31.63,7.8,47.32,12.18c28.78,8.03,56.2,20.89,80.78,37.87,21.33-20.92,46.16-38.27,73.14-51.09,14.71-6.99,30.05-12.65,44.55-20.07,14.5-7.42,28.36-16.84,38.17-29.84,9.81-13,15.17-30.03,11.52-45.9Z" fill="#f2f4e4"/>
      <path d="M314.03,290.98c-.92,0-1.85-.27-2.65-.83-24.26-16.76-50.97-29.29-79.39-37.22-6.65-1.86-13.53-3.49-20.19-5.08-8.97-2.13-18.24-4.33-27.26-7.15-19.1-5.95-33.66-13.78-44.5-23.94-13.83-12.96-21.54-30.5-20.65-46.93,1.06-19.33,14.41-36.2,31.75-40.11.34-.08.69-.11,1.03-.11,1.45,0,2.84.68,3.74,1.87,1.1,1.47,1.24,3.46.35,5.07-10.25,18.56-.86,45.43,14.13,60.69,16.13,16.41,39.04,24.56,59.26,30.91l7.64,2.37c13.69,4.23,27.71,8.55,40.83,14.81-5.84-5.46-12.68-9.1-17.43-11.21-7.11-3.15-14.49-5.37-22.3-7.73-6.02-1.81-12.24-3.69-18.28-6.02-17.46-6.74-29.38-16.34-35.42-28.53-7.17-14.47-4.4-35.63,11.15-44.06.7-.38,1.47-.57,2.23-.57.98,0,1.96.31,2.78.91,1.46,1.08,2.16,2.91,1.81,4.68-2.98,14.82,8.57,31.18,20.57,40.1,9.43,7.02,20.26,11.57,31.72,16.39,4.39,1.84,8.78,3.69,13.08,5.68,10.17,4.69,18.51,9.85,25.1,15.54-4.17-8.13-10.28-15.27-17.75-20.41-6.03-4.14-12.79-7.05-19.94-10.13-2.98-1.28-5.96-2.57-8.89-3.94-8.51-4-20.59-10.67-27.22-22.3-6.04-10.6-6.55-26.81,4.39-36,.86-.72,1.92-1.1,3.01-1.1.53,0,1.07.09,1.58.28,1.57.57,2.72,1.92,3.01,3.56,1.53,8.4,7.9,17.23,15.48,21.48,4.09,2.29,8.39,4.13,12.95,6.07,4.77,2.04,9.71,4.15,14.4,6.83,7.86,4.49,14.77,10.5,20.39,17.51-4.93-18.09-12.62-29.54-25.87-41.2-.76-.67-1.54-1.33-2.31-1.99-3.23-2.75-6.57-5.6-9.26-9.31-4.31-5.98-5.58-12.96-3.4-18.68,2.48-6.5,9.27-10.7,17.31-10.7,5.15,0,9.91,1.73,13.38,4.87.62.56,1.22,1.15,1.8,1.78-1.92-4.69-4.15-8.94-6.75-12.61l-1.44-2.01c-2.38-3.32-4.84-6.74-6.86-10.55-3.15-5.96-4.18-11.88-2.99-17.12,1.63-7.17,7.67-12.5,14.36-12.66h.02c4.81,0,9.37,1.57,13.62,13.77,1.95-13.01,5.97-15.16,10.7-15.86.65-.1,1.29-.14,1.94-.14,5.97,0,11.88,4.18,14.37,10.17,2.07,4.96,2.06,10.97-.03,17.38-.94,2.9-2.23,5.55-3.47,8.11-.85,1.77-1.71,3.53-2.43,5.36-1.68,4.31-3.01,8.61-4.06,12.94.33-.44.67-.86,1.02-1.26,3.84-4.48,9.9-7.15,16.21-7.15s11.95,2.85,14.9,7.83c3.13,5.26,3.06,12.36-.16,18.98-2.01,4.12-4.82,7.5-7.54,10.76-.65.78-1.3,1.57-1.94,2.36-11.06,13.74-16.69,26.34-18.46,45,4.35-7.87,10.13-14.97,17.11-20.73,4.17-3.44,8.67-6.36,13.02-9.18,4.16-2.7,8.09-5.24,11.73-8.19,6.75-5.47,11.52-15.26,11.59-23.8.02-1.66.92-3.19,2.36-4.02.72-.41,1.52-.61,2.31-.61s1.62.21,2.35.63c12.35,7.19,14.61,23.26,10.47,34.73-4.54,12.59-15.31,21.21-23.02,26.61-2.65,1.86-5.37,3.63-8.09,5.4-6.52,4.26-12.68,8.27-17.92,13.39-6.49,6.33-11.29,14.41-14.01,23.13,5.53-6.73,12.86-13.23,22.09-19.6,3.9-2.69,7.91-5.26,11.92-7.82,10.47-6.7,20.36-13.03,28.46-21.55,10.3-10.84,18.9-28.93,13.44-43.02-.66-1.69-.27-3.61.98-4.92.9-.94,2.12-1.44,3.38-1.44.5,0,1.01.08,1.5.25,16.76,5.66,23.09,26.04,18.5,41.52-3.87,13.04-13.98,24.53-30.04,34.15-5.55,3.32-11.36,6.23-16.99,9.05-7.3,3.65-14.19,7.1-20.66,11.42-4.32,2.89-10.45,7.65-15.27,14.02,11.88-8.41,24.96-15.07,37.74-21.57l7.1-3.63c18.84-9.7,40.03-21.64,53.12-40.56,12.17-17.59,16.84-45.67,3.58-62.21-1.15-1.44-1.36-3.41-.52-5.05.8-1.57,2.41-2.55,4.16-2.55.08,0,.16,0,.24,0,17.75.9,33.78,15.25,38.12,34.11,3.69,16.04-.92,34.64-12.34,49.76-8.96,11.87-21.96,22.07-39.77,31.18-8.41,4.31-17.17,8.06-25.64,11.68-6.29,2.7-12.79,5.48-19.03,8.45-26.64,12.66-50.82,29.55-71.88,50.21-.9.88-2.08,1.34-3.27,1.34Z" fill="#f2f4e4" opacity=".46"/>
      <path d="M145.77,255.52s144.15,54.87,343.88-15.59c199.74-70.47,45.32-158.42-90.03-190.16l22.91-12.91,144.74,60.95,45.52,65.07-84.01,116.79-235.61,27.23-147.4-51.38Z" fill="#23253a" opacity=".08"/>
      <path d="M79.96,157.26c10.74-8.37,24.38-11.84,36.69-17.64,30.79-14.5,52.87-43.31,83.24-58.68,17.4-8.8,36.77-12.81,55.94-16.37,47.31-8.78,64.9-14.02,112.82-18.41-52.86-23.55-83.28-20.38-140.93-15.39-38.1,3.3-76.34,6.62-113.63,15.09-20.42,4.64-40.7,10.91-58.73,21.55-18.03,10.64-33.79,25.99-42.11,45.2-8.4,19.38-8.77,41.43-5.37,62.28,2.68,16.44,7.83,32.94,18.34,45.86,8.71,10.71,48.94,34.73,42.33,4.35-2.75-12.62-8.83-22.66-6.87-36.16,1.8-12.35,8.42-24.01,18.28-31.69Z" fill="#23253a" opacity=".08"/>
    </g>
  </g>
  <path d="M662.86,224.22c2.77,2.38,6.64,2.87,10.25,3.49,25.59,4.36,48.85,20.8,61.5,43.46,1.46,2.61,4.09,5.76,6.74,4.39,2.42-1.25,1.82-4.84.76-7.34-7.45-17.54-15.96-30.25-37.38-41.78-8.5-4.58-17.43-8.46-26.88-10.46-3.45-.73-10.43-2.91-13.79-1.73-4.28,1.51-4.82,6.86-1.19,9.98Z" fill="#fff"/>
  <path d="M31.2,574.14c.39,13.06,11.91,22.79,22.95,29.79,27.66,17.55,58.8,29.58,91.07,35.19,1.41.24,2.99.44,4.15-.38,3.04-2.15-.32-7.21-3.84-8.42-26.48-9.04-42.07-16.98-64.43-28.91-4.43-2.37-8.66-5.1-12.36-8.51-20.77-19.2,4.3-32.11,4.48-40.69.16-7.38-5.22-13.18-12.49-12.68-14.35,1-29.94,21.07-29.53,34.62Z" fill="#fff" opacity=".55"/>
  <path d="M449.97,77.03c154.45,61.65,98.76,122.39,103.3,127.2,4.54,4.81,46.49-34.8,11.46-73.12-51.54-56.38-134.86-67.29-136.8-64.01-1.3,2.2,16.69,7.8,22.04,9.93Z" fill="#fff" opacity=".24"/>
</svg>