<?xml version="1.0" encoding="UTF-8"?>
<svg id="a" data-name="Layer 1" xmlns="http://www.w3.org/2000/svg" xmlns:xlink="http://www.w3.org/1999/xlink" viewBox="0 0 461.48 750">
  <defs>
    <clipPath id="b">
      <path d="M348.92,2.95c100.5,96.34-23,249.15-23,249.15C387.4,79.38,293.69,2.95,293.69,2.95c64.29,86.38,0,237.77,0,237.77C265.03,157.01,253.89,76.66,262.06,0c-20.88,71.38-30.43,159.26-33.83,256.08-6.44-103.62-14.49-200.45-33.05-253.13,3.99,65.97-2.8,155.19-11.97,249.54-65.61-56.08-28.92-222.32,0-249.04-71.88,35.64-71.44,168.59-61.28,239.16-22.6-54.42-48.48-171.78,2.56-239.66,0,0-92.16,55.44-24.12,244.5C4.42,116.55,68.13,19.16,68.13,19.16c-77.28,73.87-9.86,240.07,34.51,293.1l249.9,23.54C479.31,49.68,348.92,2.95,348.92,2.95Z" fill="#637738"/>
    </clipPath>
    <clipPath id="c">
      <polygon points="216.04 2.95 114.04 435.93 363.47 433.93 246.98 2.95 216.04 2.95" fill="#799347"/>
    </clipPath>
    <clipPath id="d">
      <path d="M231.32,2.95l-15.71,308.1s-74.55-243.86.43-308.1c0,0-113.57,14.31-33.44,308.1,0,0-59.69-111.54-59.69-213.66S195.19,2.95,195.19,2.95c0,0-75.41-23.39-92.69,61.45-17.28,84.84,35.61,269.35,35.61,269.35,0,0-71.75-142.1-73.32-212.8S97.78,16.92,124.49,2.95c0,0-23.17,1.22-44.58,17.37-21.41,16.15-41.04,47.22-33.97,106.92,14.14,119.4,51.84,213.66,51.84,213.66,0,0-75.41-138.25-76.98-208.95,0,0-3.71-91.58,47.33-112.8,0,0-83.52,19.22-65.62,121.96,17.9,102.74,121.96,341.36,121.96,341.36l-15.39,209.3c-.83,11.24,4.39,22.14,13.82,28.3,18.87,12.32,57.19,29.53,124.07,29.53,0,0,47.51,5.99,113.7-28.18,11.58-5.98,18.4-18.37,16.98-31.33l-23.27-211.29S586.2,47.18,367.72,2.95c0,0,64.62,35.78,56.42,109.64-8.21,73.86-58.47,210.28-58.47,210.28C365.66,322.88,423.11,23.83,317.45,0,317.45,0,399.51,89,300.01,317.75,300.01,317.75,354.38,22.81,262.06,0,262.06,0,312.32,35.66,261.04,306.46L231.32,2.95Z" fill="#9ac157"/>
    </clipPath>
    <clipPath id="e">
      <path d="M224.66,526.95c-41.37,0-78.67-3.32-104.9-20.46-1.76-1.15-3.52-3.92-4.54-7.84l-5.46-17.97c.19-2.53,1.56-4.83,3.7-6.19,1.31-.84,2.81-1.26,4.33-1.26.96,0,1.92.17,2.85.52.43.16,50.35,17.45,112.77,17.45,40.74,0,89.52-11.51,127.28-24.77.87-.3,1.77-.45,2.67-.45,1.5,0,2.99.42,4.29,1.24,2.07,1.31,3.44,3.49,3.71,5.93l-6.72,25.23c.42,3.82-1.92,7.41-5.59,8.56-2.61.82-64.8,20.04-134.38,20.04Z"/>
    </clipPath>
  </defs>
  <g>
    <path d="M348.92,2.95c100.5,96.34-23,249.15-23,249.15C387.4,79.38,293.69,2.95,293.69,2.95c64.29,86.38,0,237.77,0,237.77C265.03,157.01,253.89,76.66,262.06,0c-20.88,71.38-30.43,159.26-33.83,256.08-6.44-103.62-14.49-200.45-33.05-253.13,3.99,65.97-2.8,155.19-11.97,249.54-65.61-56.08-28.92-222.32,0-249.04-71.88,35.64-71.44,168.59-61.28,239.16-22.6-54.42-48.48-171.78,2.56-239.66,0,0-92.16,55.44-24.12,244.5C4.42,116.55,68.13,19.16,68.13,19.16c-77.28,73.87-9.86,240.07,34.51,293.1l249.9,23.54C479.31,49.68,348.92,2.95,348.92,2.95Z" fill="#637738"/>
    <g clip-path="url(#b)">
      <path d="M14.26,190.11S402.9,151.35,417.75,31.59l11.14,361.15-319.37,9.28L13.9,326.82l.36-136.71Z" fill="#23253a" opacity=".19"/>
    </g>
  </g>
  <g>
    <polygon points="216.04 2.95 114.04 435.93 363.47 433.93 246.98 2.95 216.04 2.95" fill="#799347"/>
    <g clip-path="url(#c)">
      <path d="M115.2,385.45L213.75,44.92l-11.35,275.83,27.08-281.86s76.44,321.1,71.22,313.39c-5.22-7.7-48.36-306.23-48.36-306.23l92.91,178.1L246.98-57.24l-52.52,28.38-79.26,414.31Z" fill="#23253a" opacity=".19"/>
    </g>
  </g>
  <g>
    <path d="M231.32,2.95l-15.71,308.1s-74.55-243.86.43-308.1c0,0-113.57,14.31-33.44,308.1,0,0-59.69-111.54-59.69-213.66S195.19,2.95,195.19,2.95c0,0-75.41-23.39-92.69,61.45-17.28,84.84,35.61,269.35,35.61,269.35,0,0-71.75-142.1-73.32-212.8S97.78,16.92,124.49,2.95c0,0-23.17,1.22-44.58,17.37-21.41,16.15-41.04,47.22-33.97,106.92,14.14,119.4,51.84,213.66,51.84,213.66,0,0-75.41-138.25-76.98-208.95,0,0-3.71-91.58,47.33-112.8,0,0-83.52,19.22-65.62,121.96,17.9,102.74,121.96,341.36,121.96,341.36l-15.39,209.3c-.83,11.24,4.39,22.14,13.82,28.3,18.87,12.32,57.19,29.53,124.07,29.53,0,0,47.51,5.99,113.7-28.18,11.58-5.98,18.4-18.37,16.98-31.33l-23.27-211.29S586.2,47.18,367.72,2.95c0,0,64.62,35.78,56.42,109.64-8.21,73.86-58.47,210.28-58.47,210.28C365.66,322.88,423.11,23.83,317.45,0,317.45,0,399.51,89,300.01,317.75,300.01,317.75,354.38,22.81,262.06,0,262.06,0,312.32,35.66,261.04,306.46L231.32,2.95Z" fill="#9ac157"/>
    <g clip-path="url(#d)">
      <path d="M209.6,420.35l19.89-381.46,3.91,452.3c50.89-163.28,92.02-320.88,80.52-447.87,30.53,128.91-2.99,285.79-48.38,447.87,70.74-140.2,112.51-286.88,114.38-442.49,6.83,143.84-21.6,291.44-82.33,442.49,0,0,163.51-269.18,154.32-375.6-9.2-106.42-36.79-123.5-36.79-123.5l57.81,69.63s27.59,175.9,28.9,179.92c1.31,4.02-93.86,211.61-93.86,211.61l-72.99,45.6h-187.88l-91.97-28.1L-19.77,109.01s155.03,357.37,152.41,353.42c-2.63-3.94-108.68-304.38-108.68-304.38l170.52,331.05C136.1,334.76,59.31,160.69,99.81,84.25c-20.5,17.7,98.6,334.71,98.6,334.71,0,0-83.21-331.18-34.6-357.97-9.79,94.29,20.59,216.55,45.79,359.36Z" fill="#23253a" opacity=".19"/>
      <path d="M114.04,613.36s-5.19,105.44,116.7,97.69c121.89-7.75,73.82-178.32-34.72-195.37l-128.7-51.17-18.61-128.7s70.83,94.59,182.03,89.94c185.46-7.75,270.75-217.08,273.85-283.76l-65.12,683.81-351.99-44.97s-16.65-147.31,26.56-167.46Z" fill="#23253a" opacity=".19"/>
    </g>
  </g>
  <g>
    <path d="M224.66,526.95c-41.37,0-78.67-3.32-104.9-20.46-1.76-1.15-3.52-3.92-4.54-7.84l-5.46-17.97c.19-2.53,1.56-4.83,3.7-6.19,1.31-.84,2.81-1.26,4.33-1.26.96,0,1.92.17,2.85.52.43.16,50.35,17.45,112.77,17.45,40.74,0,89.52-11.51,127.28-24.77.87-.3,1.77-.45,2.67-.45,1.5,0,2.99.42,4.29,1.24,2.07,1.31,3.44,3.49,3.71,5.93l-6.72,25.23c.42,3.82-1.92,7.41-5.59,8.56-2.61.82-64.8,20.04-134.38,20.04Z"/>
    <g clip-path="url(#e)">
      <path d="M99.98,506.96s2.33-24.51,59.52-12.84c57.18,11.67,127.28,10.83,201.19-27.71l-288.72-14.3,28.01,54.85Z" fill="#fff" opacity=".26"/>
    </g>
  </g>
  <path d="M146.12,616.58c9.77,14.62,24.34,25.53,40.04,33.47,14.61,7.39,33.29,12.06,46.57,2.49,9.94-7.17,13.69-20.49,13.15-32.73-.82-18.7-10.23-36.57-24.19-49.04-17.32-15.48-51.39-29.94-74.53-19.54-22.72,10.21-11.04,50.39-1.04,65.36Z" fill="#fff" opacity=".26"/>
</svg>