<?xml version="1.0" encoding="UTF-8"?>
<svg id="a" data-name="Layer 1" xmlns="http://www.w3.org/2000/svg" xmlns:xlink="http://www.w3.org/1999/xlink" viewBox="0 0 726.71 750">
  <defs>
    <clipPath id="b">
      <path d="M21.87,216.64v412.52c0,66.74,154.62,120.84,345.35,120.84s345.35-54.1,345.35-120.84V216.64H21.87Z" fill="#73a820"/>
    </clipPath>
    <clipPath id="c">
      <path d="M716.64,188.41v-67.57h-131.9c-61.3-15.69-138.04-25.05-221.38-25.05s-160.08,9.35-221.38,25.05H9.57v68.28c-6.19,8.84-9.57,18.04-9.57,27.51,0,66.74,162.68,120.84,363.35,120.84s363.35-54.1,363.35-120.84c0-9.72-3.55-19.17-10.07-28.23Z" fill="#c9c9c9"/>
    </clipPath>
    <clipPath id="d">
      <ellipse cx="363.35" cy="120.84" rx="363.35" ry="120.84" fill="#ddd"/>
    </clipPath>
  </defs>
  <g>
    <path d="M21.87,216.64v412.52c0,66.74,154.62,120.84,345.35,120.84s345.35-54.1,345.35-120.84V216.64H21.87Z" fill="#73a820"/>
    <g clip-path="url(#b)">
      <path d="M128.07,356.16v287.73s90.38,39.63,246.64,39.63,243.66-39.63,243.66-39.63v-287.73s-296.25,65.18-490.3,0Z" fill="#ddd"/>
      <g>
        <path d="M497.92,517.95c2.47,0,4.47-2,4.47-4.47s-2-4.47-4.47-4.47h-34.45v-19.17c0-2.47-2-4.47-4.47-4.47s-4.47,2-4.47,4.47v19.17h-34.46c-2.47,0-4.47,2-4.47,4.47s2,4.47,4.47,4.47h34.46v42.37c0,2.47,2,4.47,4.47,4.47s4.47-2,4.47-4.47v-42.37h34.45Z" fill="#4f6618"/>
        <path d="M420.06,453h13.03v11.5c0,2.47,2,4.47,4.47,4.47s4.47-2,4.47-4.47v-11.5h37.13v11.5c0,2.47,2,4.47,4.47,4.47s4.47-2,4.47-4.47v-11.5h9.81c2.47,0,4.47-2,4.47-4.47s-2-4.47-4.47-4.47h-9.81v-13.19c0-2.47-2-4.47-4.47-4.47s-4.47,2-4.47,4.47v13.19h-37.13v-13.19c0-2.47-2-4.47-4.47-4.47s-4.47,2-4.47,4.47v13.19h-13.03c-2.47,0-4.47,2-4.47,4.47s2,4.47,4.47,4.47Z" fill="#4f6618"/>
        <path d="M292.31,510.26c1.97-1.48,2.37-4.29.89-6.26-1.49-1.97-4.29-2.37-6.26-.89-5.5,4.13-10.7,7.51-15.66,10.29v-47.24h18.34c2.47,0,4.47-2,4.47-4.47s-2-4.47-4.47-4.47h-18.34v-32.58c0-2.47-2-4.47-4.47-4.47s-4.47,2-4.47,4.47v32.58h-25.53c-2.47,0-4.47,2-4.47,4.47s2,4.47,4.47,4.47h25.53v51.61c-9.14,3.83-17.37,5.15-24.76,3.85-2.43-.44-4.75,1.19-5.18,3.63-.43,2.43,1.19,4.75,3.62,5.18,2.41.43,4.86.64,7.38.64,5.97,0,12.28-1.28,18.94-3.7v29.69l-22.55,15.72c-2.03,1.41-2.52,4.2-1.11,6.23.87,1.25,2.26,1.92,3.67,1.92.88,0,1.77-.26,2.55-.8l24.46-17.05c1.2-.84,1.92-2.21,1.92-3.67v-35.88c6.65-3.32,13.64-7.7,21.03-13.26Z" fill="#4f6618"/>
        <path d="M395.59,564.65c.24.04.48.05.71.05,2.15,0,4.04-1.56,4.4-3.75.4-2.43-1.25-4.73-3.68-5.14-1.26-.21-29.61-5.58-45.02-46.86h32.59c2.47,0,4.47-2,4.47-4.47s-2-4.47-4.47-4.47h-34.45v-32.36h34.45c2.47,0,4.47-2,4.47-4.47s-2-4.47-4.47-4.47h-34.45v-32.58c0-2.47-2-4.47-4.47-4.47s-4.47,2-4.47,4.47v32.58h-34.46c-2.47,0-4.47,2-4.47,4.47s2,4.47,4.47,4.47h34.46v32.36h-34.46c-2.47,0-4.47,2-4.47,4.47s2,4.47,4.47,4.47h32.59c-15.4,41.25-43.74,46.64-45.02,46.86-2.43.4-4.08,2.68-3.7,5.12.35,2.2,2.25,3.77,4.41,3.77.23,0,.47-.02.71-.05,1.3-.21,27.45-4.79,45.46-38v48.32c0,2.47,2,4.47,4.47,4.47s4.47-2,4.47-4.47v-48.32c18.01,33.21,44.16,37.79,45.46,38Z" fill="#4f6618"/>
        <path d="M442.88,536.71c-11.4,12.33-31.02,17.34-31.22,17.39-2.39.6-3.86,3.02-3.26,5.42.51,2.04,2.33,3.39,4.33,3.39.36,0,.72-.04,1.08-.13.91-.22,22.38-5.67,35.64-20,1.68-1.81,1.56-4.65-.25-6.32-1.81-1.67-4.64-1.57-6.32.25Z" fill="#4f6618"/>
        <path d="M506.94,554.1c-.2-.05-19.82-5.05-31.22-17.39-1.68-1.82-4.51-1.92-6.32-.25-1.81,1.68-1.93,4.51-.25,6.32,13.25,14.33,34.73,19.77,35.64,20,.36.09.72.13,1.08.13,2,0,3.83-1.36,4.33-3.39.6-2.4-.86-4.82-3.26-5.42Z" fill="#4f6618"/>
        <path d="M510.04,491.97c-.33-.03-32.62-3.37-47.14-29.64-.06-.11-.16-.17-.23-.27-.16-.25-.36-.46-.57-.67-.22-.22-.44-.42-.7-.59-.1-.06-.15-.16-.26-.22-.14-.08-.3-.08-.44-.14-.29-.12-.58-.22-.89-.28-.28-.05-.55-.07-.83-.07-.28,0-.55.02-.83.07-.31.06-.6.16-.9.28-.14.06-.3.06-.44.14-.1.06-.16.15-.25.22-.26.17-.48.37-.71.6-.21.21-.4.42-.56.66-.07.1-.17.16-.23.27-14.52,26.27-46.81,29.61-47.14,29.64-2.45.23-4.26,2.41-4.04,4.87.22,2.32,2.16,4.06,4.45,4.06.14,0,.27,0,.41-.02,1.41-.13,32.32-3.27,50.23-28.11,17.9,24.83,48.82,27.98,50.23,28.11.14.01.28.02.41.02,2.28,0,4.23-1.74,4.45-4.06.23-2.46-1.58-4.63-4.04-4.87Z" fill="#4f6618"/>
      </g>
      <g>
        <path d="M148.36,633.54l5.02-3.79c1.14,2.61,2.7,4.17,4.87,4.67,2.83.66,4.71-.69,5.49-4.04l3.39-14.5-10.71-2.5,1.32-5.66,17.72,4.14-4.62,19.77c-1.76,7.53-6.41,10.35-13.6,8.67-4.09-.95-7.34-3.37-8.89-6.76Z" fill="#4f6618"/>
        <path d="M193.95,640.75l-14.26-2.84-4.03,6.04-7.28-1.45,19.8-27.99,7.02,1.4,7.62,33.45-7.46-1.49-1.41-7.12ZM192.79,634.91l-2.53-12.73-7.21,10.79,9.74,1.94Z" fill="#4f6618"/>
        <path d="M233.87,634.13c-1.12,6.89-6.98,10.33-15.23,8.99l-6.23-1.01-1.38,8.52-7.15-1.16,5.02-30.91,13.38,2.17c8.26,1.34,12.73,6.46,11.6,13.4ZM226.63,632.95c.55-3.4-1.33-5.74-5.7-6.45l-5.83-.95-1.74,10.73,5.83.95c4.37.71,6.91-.92,7.45-4.28Z" fill="#4f6618"/>
        <path d="M253.46,649.95l-14.42-1.84-3.6,6.3-7.36-.94,17.8-29.29,7.1.91,9.92,32.83-7.54-.96-1.9-7.01ZM251.89,644.2l-3.41-12.52-6.44,11.26,9.85,1.26Z" fill="#4f6618"/>
        <path d="M295.36,629.36l-2.82,31.2-5.93-.54-13.84-20.35-1.71,18.94-7.13-.64,2.82-31.19,5.97.54,13.8,20.34,1.71-18.94,7.13.64Z" fill="#4f6618"/>
        <path d="M322.16,656.41l-.32,5.8-24.19-1.33,1.72-31.24,23.61,1.3-.32,5.8-16.42-.9-.38,6.79,14.51.8-.31,5.62-14.51-.8-.4,7.23,17.01.93Z" fill="#4f6618"/>
        <path d="M323.13,659.2l2.59-5.39c2.59,1.99,6.49,3.42,10.25,3.52,4.29.1,6.07-1.28,6.11-3.21.14-5.85-18.15-2.28-17.86-13.9.13-5.32,4.53-9.64,13.43-9.42,3.94.1,7.93,1.13,10.79,3.04l-2.37,5.44c-2.87-1.73-5.84-2.6-8.61-2.67-4.29-.1-5.98,1.47-6.03,3.43-.14,5.77,18.15,2.23,17.87,13.72-.13,5.23-4.57,9.59-13.51,9.38-4.96-.12-9.93-1.72-12.65-3.93Z" fill="#4f6618"/>
        <path d="M376.02,656.97l.03,5.81-24.23.15-.19-31.29,23.65-.14.03,5.81-16.45.1.04,6.8,14.53-.09.03,5.63-14.53.09.04,7.24,17.03-.1Z" fill="#4f6618"/>
        <path d="M418.71,660.73l-1.16-18.74-8.27,15.99-3.26.19-10.05-14.49,1.09,18.34-6.78.4-1.86-31.24,5.98-.36,12.85,18.72,10.36-20.1,5.94-.36,1.95,31.24-6.79.4Z" fill="#4f6618"/>
        <path d="M450.33,651l-14.46,1.51-2.07,6.96-7.39.77,10.64-32.59,7.12-.74,17.17,29.69-7.56.79-3.45-6.39ZM447.49,645.76l-6.18-11.41-3.7,12.44,9.88-1.03Z" fill="#4f6618"/>
        <path d="M463.79,630.45l-9.92,1.39-.82-5.85,27.02-3.79.82,5.85-9.92,1.39,3.53,25.16-7.18,1.01-3.53-25.16Z" fill="#4f6618"/>
        <path d="M480.95,637.95c-1.64-9.29,4.31-17.19,13.91-18.89,5.33-.94,10.12.21,13.64,3.22l-3.83,5.04c-2.49-2.01-5.31-2.78-8.39-2.24-5.77,1.02-9.15,5.79-8.12,11.6,1.03,5.81,5.84,9.14,11.61,8.12,3.08-.54,5.46-2.24,7.1-5.02l5.32,3.42c-2.28,4.08-6.38,6.8-11.75,7.75-9.55,1.69-17.86-3.7-19.5-12.99Z" fill="#4f6618"/>
        <path d="M536.98,610.89l6.74,30.57-7.08,1.56-2.76-12.54-13.89,3.06,2.76,12.54-7.08,1.56-6.74-30.57,7.08-1.56,2.66,12.06,13.89-3.06-2.66-12.06,7.08-1.56Z" fill="#4f6618"/>
        <path d="M567.02,628.34l-14.04,3.77-.94,7.2-7.17,1.93,5.35-33.86,6.91-1.86,21.64,26.61-7.34,1.97-4.42-5.76ZM563.39,623.62l-7.91-10.29-1.69,12.87,9.59-2.57Z" fill="#4f6618"/>
      </g>
      <path d="M11.15,519.84s9.07,159.53,244.48,178.89c235.4,19.36,335.73-112.46,339.07-190.88C600.36,375,87.98,305.14,0,356.16l9.57-167.03,792.36,37.82,26.23,473.16-442.74,153.16L21.87,753.19l-10.73-233.35Z" fill="#23253a" opacity=".19"/>
      <path d="M648.64,241.68s63.93,424.83-217.92,548.44l431.29-36.94-49.75-584.78-163.62,73.27Z" fill="#23253a" opacity=".19"/>
      <path d="M604.35,286.99s22.08,432.64-35.98,494.38l116.69-47.91s-27.95-460.49,10.36-500.47l-91.07,54.01Z" fill="#fff" opacity=".22"/>
    </g>
  </g>
  <g>
    <path d="M716.64,188.41v-67.57h-131.9c-61.3-15.69-138.04-25.05-221.38-25.05s-160.08,9.35-221.38,25.05H9.57v68.28c-6.19,8.84-9.57,18.04-9.57,27.51,0,66.74,162.68,120.84,363.35,120.84s363.35-54.1,363.35-120.84c0-9.72-3.55-19.17-10.07-28.23Z" fill="#c9c9c9"/>
    <g clip-path="url(#c)">
      <path d="M205.5,229.71s100.53,27.43,186.74,30.68,9.48,55.02-25.02,56.65c0,0,152.29,9.32,313.32-86.65,0,0,52.35-4.49,13.28,47.61l95.97-19.52,34.16-68.32-68.32-108.98-420.43,39.65-129.69,30.3v78.58Z" fill="#23253a" opacity=".19"/>
      <path d="M9.57,189.13s13.17-17.26,156.32,33.17L0,103.93l9.57,85.2Z" fill="#23253a" opacity=".19"/>
    </g>
  </g>
  <g>
    <ellipse cx="363.35" cy="120.84" rx="363.35" ry="120.84" fill="#ddd"/>
    <g clip-path="url(#d)">
      <path d="M261.01,249.86S483.29,100.29,432.77-26c0,0,410.88,87.56,417.61,89.25s60.62,107.77,60.62,107.77l-331.73,96.67-318.26-17.83Z" fill="#23253a" opacity=".05"/>
      <path d="M289.12-23.21s-29.56,192.75-156.09,274.34S-64.45,95.79-64.45,95.79L78.63-72.88l210.48,49.66Z" fill="#fff" opacity=".22"/>
    </g>
  </g>
  <path d="M555.71,30.71c40.69,17.84,63.54,39.17,63.54,59.9,0,49.73-131.06,102.98-326.16,102.98-74.26,0-139.2-7.73-191.21-20.02,56.93,24.96,148.85,43.08,262.62,43.08,195.1,0,326.16-53.25,326.16-102.98,0-30.8-50.32-62.94-134.95-82.95Z" fill="#23253a" opacity=".19"/>
  <path d="M18.06,210.08s4.26,35.52,130.72,68.91c126.46,33.39,174.06,29.84,174.06,29.84,0,0-227.7-39.79-304.79-98.75Z" fill="#23253a" opacity=".19"/>
</svg>