<?xml version="1.0" encoding="UTF-8"?>
<svg id="a" data-name="Layer 1" xmlns="http://www.w3.org/2000/svg" xmlns:xlink="http://www.w3.org/1999/xlink" viewBox="0 0 750 681.59">
  <defs>
    <clipPath id="b">
      <ellipse cx="418.01" cy="606.03" rx="166.12" ry="75.56" fill="#f5f5f5"/>
    </clipPath>
    <clipPath id="c">
      <path d="M414.36,161.51c-143.42,0-226.24,21.99-300.65,65.92-34.7,24.83-102.02,9.97-111.66,37.82-7.81,22.59,73.04,61.29,109.29,75.02,57.7,28.93,177.04,30.83,302.17,30.83,185.34,0,331.06-29.89,336.43-113.98,3.37-52.7-150.25-95.62-335.58-95.62Z" fill="#f5f5f5"/>
    </clipPath>
    <clipPath id="d">
      <path d="M21.18,282.42s-25.68-22.57,15.08-25.29c29.87-1.99,72.13-6.55,100.02-25.78,27.89-19.24,119.26-48.09,135.61-49.05,16.35-.96,311.62,0,311.62,0,0,0,193.32,38.45,146.08,107.71-44.85,65.76-135.5,56.75-135.5,56.75l-299.11,51.94L29.52,310.21l-8.34-27.79Z" fill="#23253a" opacity=".15"/>
    </clipPath>
    <clipPath id="e">
      <path d="M152.7,271.82c6.71-2.29,14.13-3.3,19.7-7.69,17.27-13.6,5.22-48.33,24.67-58.57,7.02-3.7,15.5-2.28,23.41-2.92,21.29-1.72,39.67-21.14,40.21-42.49.21-8.22-1.82-16.92,1.64-24.37,9-19.38,40.19-9.36,57.91-21.3,21.54-14.52,13.53-54.11,36.37-66.47,14.26-7.72,36.63-1.89,44.16-16.25,1.99-3.81,2.28-8.25,3.55-12.36,4.6-14.86,23.12-22.98,37.81-17.86,14.69,5.12,24.06,21.31,23.03,36.84-.86,12.97-7.57,27.34-.09,37.97,12.1,17.22,44.75,2.08,57.87,18.54,11.82,14.82-3.36,42.85,12.55,53.16,6.79,4.4,15.64,2.47,23.71,1.85,8.07-.62,18.1,1.74,20.14,9.58,1,3.86-.34,7.9-.33,11.89.03,16.82,28.04,11.6,37.92,25.96,9.88,14.36.44,24.15,9.21,31.86,8.77,7.71,17.81-7.31,32.78,5.04,14.96,12.35,7.94,47.22,28.48,53.47,9.58,2.92,21.51,1.06,28.2,8.51,4.51,5.02,4.88,12.7,9.15,17.93,4.68,5.73,13.55,7.91,16.07,14.87,3.25,8.99-6.49,16.99-14.93,21.48-159.7,84.95-352.31,105.95-526.57,57.41-13.66-3.8-27.33-8.07-39.62-15.14-40.58-23.35-67.04-100.46-7.01-120.93Z" fill="#73a820"/>
    </clipPath>
    <clipPath id="f">
      <path d="M414.36,352.75c-125.14,0-234.19-19.53-291.89-48.46-34-12.88-115.71-16.46-121.31-36.43-9.73,55.68,44.38,65.58,67.94,101.16,49.31,74.45,62.51,288.1,360.37,288.1,160.3,0,320.47-123.09,320.47-399.99,0,52.81-150.25,95.62-335.58,95.62Z" fill="#f5f5f5"/>
    </clipPath>
    <clipPath id="g">
      <path d="M413.51,371.11s310.86,5.73,349.35-106.37l-44.47,314.98-206.14,96.86-222.19-19.46s155.53-55.19,123.44-286.01Z" fill="#23253a" opacity=".15"/>
    </clipPath>
  </defs>
  <g>
    <ellipse cx="418.01" cy="606.03" rx="166.12" ry="75.56" fill="#f5f5f5"/>
    <g clip-path="url(#b)">
      <path d="M473.08,693.16s22.76-20.58,0-25.52c-22.76-4.95-120.29,12.32-211.75-30.35l-24.92-27.84,423.99-14.09-127.98,113.37-59.35-15.57Z" fill="#23253a" opacity=".25"/>
    </g>
  </g>
  <g>
    <path d="M414.36,161.51c-143.42,0-226.24,21.99-300.65,65.92-34.7,24.83-102.02,9.97-111.66,37.82-7.81,22.59,73.04,61.29,109.29,75.02,57.7,28.93,177.04,30.83,302.17,30.83,185.34,0,331.06-29.89,336.43-113.98,3.37-52.7-150.25-95.62-335.58-95.62Z" fill="#f5f5f5"/>
    <g clip-path="url(#c)">
      <g>
        <path d="M21.18,282.42s-25.68-22.57,15.08-25.29c29.87-1.99,72.13-6.55,100.02-25.78,27.89-19.24,119.26-48.09,135.61-49.05,16.35-.96,311.62,0,311.62,0,0,0,193.32,38.45,146.08,107.71-44.85,65.76-135.5,56.75-135.5,56.75l-299.11,51.94L29.52,310.21l-8.34-27.79Z" fill="#23253a" opacity=".15"/>
        <g clip-path="url(#d)">
          <path d="M85.29,209.93s59.41,105.78,136.28,110.45l-162.49,22.91-76.37-50.15,102.58-83.21Z" fill="#23253a" opacity=".15"/>
          <path d="M676.84,173.46s-24.75,95.65,63.99,155.54l-166.57-33.58-67.24-113.33-11.41-55.36,181.23,46.73Z" fill="#23253a" opacity=".15"/>
        </g>
      </g>
    </g>
  </g>
  <g>
    <path d="M152.7,271.82c6.71-2.29,14.13-3.3,19.7-7.69,17.27-13.6,5.22-48.33,24.67-58.57,7.02-3.7,15.5-2.28,23.41-2.92,21.29-1.72,39.67-21.14,40.21-42.49.21-8.22-1.82-16.92,1.64-24.37,9-19.38,40.19-9.36,57.91-21.3,21.54-14.52,13.53-54.11,36.37-66.47,14.26-7.72,36.63-1.89,44.16-16.25,1.99-3.81,2.28-8.25,3.55-12.36,4.6-14.86,23.12-22.98,37.81-17.86,14.69,5.12,24.06,21.31,23.03,36.84-.86,12.97-7.57,27.34-.09,37.97,12.1,17.22,44.75,2.08,57.87,18.54,11.82,14.82-3.36,42.85,12.55,53.16,6.79,4.4,15.64,2.47,23.71,1.85,8.07-.62,18.1,1.74,20.14,9.58,1,3.86-.34,7.9-.33,11.89.03,16.82,28.04,11.6,37.92,25.96,9.88,14.36.44,24.15,9.21,31.86,8.77,7.71,17.81-7.31,32.78,5.04,14.96,12.35,7.94,47.22,28.48,53.47,9.58,2.92,21.51,1.06,28.2,8.51,4.51,5.02,4.88,12.7,9.15,17.93,4.68,5.73,13.55,7.91,16.07,14.87,3.25,8.99-6.49,16.99-14.93,21.48-159.7,84.95-352.31,105.95-526.57,57.41-13.66-3.8-27.33-8.07-39.62-15.14-40.58-23.35-67.04-100.46-7.01-120.93Z" fill="#73a820"/>
    <g clip-path="url(#e)">
      <path d="M205.58,292.75c15.97,6.08,34.52.8,50.54,6.71,11.2,4.13,20.69,13.56,32.61,14.05,10.62.44,20.1-6.41,30.48-8.71,16.8-3.73,33.57,4.61,49.67,10.68,16.1,6.07,36.21,9.29,48.9-2.33,7.58-6.94,10.69-17.79,18.41-24.57,16.33-14.34,41.92-3.23,59.03,10.16,17.11,13.4,36.77,29.85,57.78,24.3,28.17-7.44,35.42-48.83,63.15-57.77,5.58-1.8,11.6-2.08,17.08-4.18,23.32-8.9,25.49-43.89,47.15-56.29,14.03-8.03,32.52-3.67,45.3,6.23,12.78,9.9,21.12,24.32,29.14,38.36,11.39,19.95,22.79,39.91,34.18,59.86,3.3,5.78,6.71,12.11,5.78,18.7-.65,4.6-3.35,8.61-6.03,12.4-60.76,86.01-150.02,151.52-250.3,183.68-100.28,32.16-210.99,30.79-310.44-3.85-43.43-15.12-85.55-37.04-116.8-70.77-31.25-33.73-50.45-80.62-43.38-126.06,4.46-28.67,27.11-65.62,58.68-70.03,34.73-4.86,51.2,28.81,79.08,39.42Z" fill="#23253a" opacity=".15"/>
      <path d="M258.99,329.78c16.77,3.88,35.24,7.58,50.5-.38,10.28-5.37,22.42-15.68,31.37-8.29,4.49,3.71,5.12,10.2,7.11,15.68,7.54,20.79,35.78,26.31,56.64,18.96,20.86-7.34,37.37-23.31,56.45-34.49,4.85-2.84,11.05-5.36,15.83-2.4,3.29,2.04,4.7,6.01,6.97,9.13,5.79,7.99,16.64,10,26.41,11.39,15.9,2.26,31.81,4.53,47.71,6.79,7.97,1.13,16.58,2.16,23.66-1.67,10.1-5.47,12.99-18.22,17-28.99,4.01-10.76,13.59-22.31,24.65-19.25,3.3.91,6.53,3.11,9.85,2.27,2.6-.66,4.35-3,6.04-5.08,20.78-25.64,64.02-28.49,87.98-5.79,12.29,11.64,19.08,27.84,24.53,43.86,3.17,9.29,6.03,18.87,6.04,28.69.02,17.18-8.86,33.48-21.06,45.59-16.51,16.39-38.46,25.87-59.86,34.99-40.36,17.2-80.86,34.44-123.13,46.15-122.18,33.84-252.76,19.7-376.2-9.24-28.3-6.63-57.46-14.56-79.65-33.33-36.62-30.99-66.85-111.27-12.06-139.61,21.66-11.2,48.55-9.71,71.25-2.93,33.96,10.15,67.22,19.9,101.97,27.94Z" fill="#23253a" opacity=".15"/>
      <path d="M498.64,58.69c-11.4-1.05-20.86,10.32-22.07,21.7-1.2,11.38,3.5,22.46,8.1,32.94-11.23,12.7-37.24,3.34-45.72,18.01-2.4,4.16-2.57,9.3-4.87,13.51-5.36,9.82-20.8,9.98-29.02,2.39-8.22-7.59-2.93-18.5-9.42-31-6.5-12.5-31.02,15.39-43.87,13.19-12.85-2.2-4.08-4.45-2.27-15.72,1.81-11.27-12.61-10.17-17.14,2-4.53,12.17,12.74,44.39,30.18,58.86,3.24,2.68,6.72,5.15,10.67,6.62,5.24,1.95,11.35,2.18,15.58,5.83,7.62,6.58,3.29,20.38-5.68,24.94-8.97,4.56-19.84,2.44-29.35-.86-4.21-1.46-9.4-2.96-12.68.06-2.84,2.61-2.49,7.06-2.93,10.89-1.79,15.27-22.96,24.07-35.05,14.57-7.38,9.22,1.83,24.07,13.45,26.19s23.03-4.1,32.84-10.67c9.81-6.58,19.93-14.02,31.72-14.79,10-.66,19.86,3.66,29.85,2.83,8.03-.67,15.39-4.6,22.32-8.72,27.1-16.13,51.67-36.5,72.55-60.14,9.45,7.73,18.9,15.45,28.35,23.18,2.76,2.26,5.67,4.73,6.63,8.16,2.14,7.6-6.18,13.95-13.68,16.42-7.5,2.47-16.5,4.49-19.69,11.71-3.08,6.96,1.66,15.55,8.58,18.72s15.1,2.05,22.25-.54c8.46-3.07,16.19-8.11,22.41-14.62,7.51-7.85,13.92-18.46,24.63-20.3,10.32-1.78,20.02,5.57,30.46,6.41,20.11,1.62,34.45-22.45,30.89-42.3-3.56-19.85-18.64-35.37-33.16-49.36-24.83-23.93-52.14-48.34-86.07-54.5-4.01-8.76-19.17-14.71-28.76-15.59Z" fill="#23253a" opacity=".15"/>
      <g>
        <path d="M300.01,160.14c-1.09.02-2.13.44-3.11.91-3.9,1.85-8.86,5.13-10.06,9.55-.63,2.31-.48,4.74-.33,7.13.05.75.1,1.53.48,2.18.32.56.85.97,1.38,1.34,1.24.87,2.59,1.64,4.08,1.91,1.49.27,3.15-.04,4.24-1.1,1.53-1.49,1.53-3.92,1.25-6.03-.28-2.12-.7-4.39.28-6.29.77-1.5,2.28-2.46,3.45-3.68,1.17-1.22,2.02-3.12,1.15-4.56-.56-.93-1.72-1.38-2.81-1.35Z" fill="#5c8219"/>
        <path d="M328.45,224.15c-3.57-.11-5.56,0-8.81-1.56-1.77-.84-3.87-2.05-5.44-.27-3.48,3.95,4.91,8.87,7.1,10.74,2.77,2.36,6.06,4.88,9.64,4.26,2.58-.45,4.58-2.43,6.35-4.36.44-.48.9-1,1.03-1.65.16-.84-.28-1.68-.79-2.37-2.09-2.86-5.54-4.69-9.08-4.8Z" fill="#5c8219"/>
        <path d="M577.67,293.92c-3.57-.11-5.56,0-8.81-1.56-1.77-.84-3.87-2.05-5.44-.27-3.48,3.95,4.91,8.87,7.1,10.74,2.77,2.36,6.06,4.88,9.64,4.26,2.58-.45,4.58-2.43,6.35-4.36.44-.48.9-1,1.03-1.65.16-.84-.28-1.68-.79-2.37-2.09-2.86-5.54-4.69-9.08-4.8Z" fill="#5c8219"/>
        <path d="M422.36,224.12c-1.44-.97-3.16-1.49-4.47-2.63-1.68-1.46-2.49-3.8-4.36-5-1.15-.74-2.56-.95-3.92-1.14-.82-.12-1.69-.22-2.46.1-4.65,1.97-1.12,7.95,1.02,10.18,3.08,3.2,7.53,5.14,11.99,4.98,1.65-.06,3.56-.58,4.17-2.11.64-1.61-.55-3.4-1.99-4.37Z" fill="#5c8219"/>
        <path d="M456.72,248.62c-5.14-2.17-4.25,3.85-5.52,7.5-.71,2.05-.83,4.25-.93,6.42-.05,1.04-.1,2.11.28,3.08.42,1.09,1.32,1.91,2.18,2.7,1.38,1.24,2.97,2.57,4.82,2.48.84-.04,1.64-.38,2.37-.79,2.19-1.23,3.99-3.24,4.73-5.64.67-2.19.44-4.58-.25-6.77-1.18-3.73-4.01-7.42-7.68-8.98Z" fill="#5c8219"/>
        <path d="M534.18,206.33c-3.38-1.21-10.16,1.74-12.71,4-1.28,1.13-2.26,2.7-2.29,4.4-.04,2,1.19,3.78,2.37,5.4.81,1.11,1.77,2.31,3.13,2.5.72.1,1.44-.12,2.14-.33,1.73-.53,3.57-1.14,4.66-2.59.95-1.27,1.19-3.04,2.39-4.08.74-.63,1.72-.88,2.6-1.29.88-.42,1.74-1.15,1.77-2.13.01-.49-.19-.96-.39-1.4-.81-1.82-1.8-3.81-3.68-4.48Z" fill="#5c8219"/>
        <path d="M478.49,199.9c-3.38-1.21-10.16,1.74-12.71,4-1.28,1.13-2.26,2.7-2.29,4.4-.04,2,1.19,3.78,2.37,5.4.81,1.11,1.77,2.31,3.13,2.5.72.1,1.44-.12,2.14-.33,1.73-.53,3.57-1.14,4.66-2.59.95-1.27,1.19-3.04,2.39-4.08.74-.63,1.72-.88,2.6-1.29.88-.42,1.74-1.15,1.77-2.13.01-.49-.19-.96-.39-1.4-.81-1.82-1.8-3.81-3.68-4.48Z" fill="#5c8219"/>
        <path d="M366.34,295.63c-3.38-1.21-10.16,1.74-12.71,4-1.28,1.13-2.26,2.7-2.29,4.4-.04,2,1.19,3.78,2.37,5.4.81,1.11,1.77,2.31,3.13,2.5.72.1,1.44-.12,2.14-.33,1.73-.53,3.57-1.14,4.66-2.59.95-1.27,1.19-3.04,2.39-4.08.74-.63,1.72-.88,2.6-1.29.88-.42,1.74-1.15,1.77-2.13.01-.49-.19-.96-.39-1.4-.81-1.82-1.8-3.81-3.68-4.48Z" fill="#5c8219"/>
        <path d="M429.99,312.22c-3.38-1.21-10.16,1.74-12.71,4-1.28,1.13-2.26,2.7-2.29,4.4-.04,2,1.19,3.78,2.37,5.4.81,1.11,1.77,2.31,3.13,2.5.72.1,1.44-.12,2.14-.33,1.73-.53,3.57-1.14,4.66-2.59.95-1.27,1.19-3.04,2.39-4.08.74-.63,1.72-.88,2.6-1.29.88-.42,1.74-1.15,1.77-2.13.01-.49-.19-.96-.39-1.4-.81-1.82-1.8-3.81-3.68-4.48Z" fill="#5c8219"/>
        <path d="M553.58,236.87c-.94-.95-2.13-1.67-3.41-1.84-1.35-.18-6.12.33-3.58,2.45,1.89,1.58,3.96,2.82,5.73,4.59.53.53,1.06,1.1,1.74,1.4.68.29,1.55.23,2.01-.37.6-.78.23-1.96-.22-2.86-.61-1.23-1.33-2.41-2.27-3.37Z" fill="#5c8219"/>
        <path d="M644.03,253.57c.51-2.6.36-5.19-.82-7.14-1.24-2.05-7.47-7.7-8.11-1.34-.48,4.75-.19,9.25-1.11,14.1-.28,1.46-.62,2.97-.34,4.29.28,1.31,1.37,2.39,2.9,2.16,1.98-.3,3.5-2.45,4.48-4.3,1.34-2.54,2.49-5.16,3.01-7.76Z" fill="#5c8219"/>
        <path d="M608.59,218.29c-.13-1.29-.26-2.58-.4-3.87-.05-.51-.11-1.04-.37-1.48-.26-.44-.69-.75-1.1-1.05-2.17-1.55-6.01-6-8.26-2.9-1.99,2.75-.2,8.46.91,11.11.38.92.86,1.86,1.68,2.44,1.14.81,2.67.76,4.04.51,1.22-.22,2.53-.65,3.15-1.71.53-.89.44-2.01.33-3.04Z" fill="#5c8219"/>
        <path d="M556.14,183.36c1.65,1.38,3.94,2.5,5.87,1.57,1.54-.74,2.26-2.53,2.56-4.22.31-1.75.28-3.65-.59-5.2-.75-1.35-2.04-2.29-3.31-3.18-2.85-1.99-6.25-3.96-9.61-3.07-2.41.64-1.25,5.84-.48,7.45,1.16,2.42,3.54,4.95,5.56,6.64Z" fill="#5c8219"/>
        <path d="M492.13,149.69c1.28-.27,2.59-.68,3.49-1.62,1.44-1.51,1.41-3.86,1.15-5.93-.38-2.98-1.24-6.18-3.66-7.95-1.43-1.05-3.23-1.46-4.98-1.8-3.28-.64-20.1-.99-13.66,6.17,2.22,2.47,5.73,2.67,7.98,5.16,1.88,2.08,3,5.17,5.94,6.02,1.21.35,2.51.21,3.75-.05Z" fill="#5c8219"/>
        <path d="M406.57,133.36c.91.43,1.43,1.37,2.04,2.17.51.67,1.1,1.27,1.76,1.79.27.21.56.42.9.47.64.11,1.24-.33,1.73-.75,1.72-1.5,3.29-3.33,3.81-5.56,2.03-8.75-10.37-6.01-15.06-4.8-1.93.5-4.1,1.06-3.71,3.42.65,4.03,6.11,2.1,8.54,3.26Z" fill="#5c8219"/>
        <path d="M467.6,78.85c-.66-.77-1.58-1.27-2.5-1.7-1.6-.74-3.28-1.31-5-1.7-.85-.19-1.76-.34-2.58-.03-2.99,1.15,1.72,4.9,2.36,6.63,1.33,3.57.56,7.7,2.09,11.19.42.95,1.02,1.84,1.88,2.42.86.58,2.01.78,2.95.36,1.35-.6,1.89-2.22,2.12-3.68.44-2.84.26-5.74.07-8.61-.11-1.72-.28-3.57-1.39-4.88Z" fill="#5c8219"/>
        <path d="M235.58,283.15c-.66-.53-1.58-.88-2.5-1.17-1.6-.51-3.28-.9-5-1.17-.85-.13-1.76-.23-2.58-.02-2.99.79,1.72,3.38,2.36,4.57,1.33,2.46.56,5.31,2.09,7.72.42.65,1.02,1.27,1.88,1.67.86.4,2.01.54,2.95.25,1.35-.42,1.89-1.53,2.12-2.54.44-1.96.26-3.96.07-5.94-.11-1.19-.28-2.46-1.39-3.37Z" fill="#5c8219"/>
        <path d="M273.75,265.57c.52-.67.85-1.59,1.12-2.52.48-1.61.84-3.3,1.08-5.02.12-.85.2-1.77-.03-2.58-.85-2.98-3.35,1.78-4.53,2.44-2.44,1.37-5.3.65-7.68,2.23-.65.43-1.25,1.04-1.63,1.91-.38.87-.51,2.02-.2,2.96.44,1.34,1.57,1.86,2.58,2.07,1.97.41,3.96.19,5.94-.04,1.18-.13,2.46-.32,3.34-1.45Z" fill="#5c8219"/>
        <path d="M191.57,305.54c.52-.67.85-1.59,1.12-2.52.48-1.61.84-3.3,1.08-5.02.12-.85.2-1.77-.03-2.58-.85-2.98-3.35,1.78-4.53,2.44-2.44,1.37-5.3.65-7.68,2.23-.65.43-1.25,1.04-1.63,1.91-.38.87-.51,2.02-.2,2.96.44,1.34,1.57,1.86,2.58,2.07,1.97.41,3.96.19,5.94-.04,1.18-.13,2.46-.32,3.34-1.45Z" fill="#5c8219"/>
        <path d="M416.28,50.1c1.07-.47,1.95-1.29,2.76-2.15.81-.86,1.59-1.79,2.05-2.87.55-1.28.63-2.7.6-4.09-.03-1.49-.19-2.98-.47-4.45-.13-.69-.31-1.41-.82-1.9-1.92-1.82-6.92-.86-8.18,1.3-.56.96-.36,2.46-.71,3.52-.57,1.78-1.89,3.24-2.23,5.1-.33,1.79.41,3.74,1.84,4.87,1.43,1.13,3.49,1.4,5.16.67Z" fill="#5c8219"/>
        <path d="M492.47,173.7c-6.23.05-4.73,9.87-.24,11.32.64.2,1.32.15,1.99.12,1.64-.07,3.3.06,4.93-.14,1.63-.2,3.3-.76,4.41-1.97,4.94-5.37-7.27-9.36-11.09-9.33Z" fill="#5c8219"/>
        <path d="M239.82,228.85c-2.42-1.67-5.74-1.94-8.39-.66-6.01,2.9-7.33,8.45-14.64,8.83-3.99.21-12.79-1.75-10.06,5.97,1.07,3.02,3.97,5.12,7.06,5.94,3.1.82,6.37.53,9.53,0,6.52-1.11,13.26-3.55,17.25-8.83,1.68-2.22,2.8-5.16,1.93-7.8-.46-1.4-1.46-2.59-2.67-3.43Z" fill="#5c8219"/>
        <path d="M328.56,140.24c1.51-.32,2.65-1.54,3.68-2.69,2.15-2.4,4.38-4.96,4.99-8.12.8-4.18-1.84-8.75-5.86-10.14-.95-.33-2.01-.49-2.96-.17-2.25.76-2.83,3.61-3.06,5.97-.11,1.2-.23,2.41-.34,3.61l.06-1.02c-1.14,2.47-2.3,5.11-1.97,7.81s2.81,5.33,5.47,4.76Z" fill="#5c8219"/>
        <path d="M387.21,179.91c-.51,0-1.05.05-1.49.31-.96.58-1.06,1.93-.89,3.03,0,0,1.55,6.5,3.24,8.65s4.16,3.85,6.9,3.98,5.63-1.67,6.15-4.36c.39-1.98-.52-4.01-1.73-5.63-2.82-3.76-7.49-6.06-12.19-5.99Z" fill="#5c8219"/>
      </g>
    </g>
  </g>
  <g>
    <path d="M414.36,352.75c-125.14,0-234.19-19.53-291.89-48.46-34-12.88-115.71-16.46-121.31-36.43-9.73,55.68,44.38,65.58,67.94,101.16,49.31,74.45,62.51,288.1,360.37,288.1,160.3,0,320.47-123.09,320.47-399.99,0,52.81-150.25,95.62-335.58,95.62Z" fill="#f5f5f5"/>
    <g clip-path="url(#f)">
      <path d="M111.34,340.28c12.57,8.34,20.08,22.68,23.68,37.33,3.6,14.65,3.79,29.88,4.8,44.94,6.06,90.54,42.83,177.9,98.84,249.29-9.57,6.46-22.58,5.77-33.19,1.2-10.61-4.57-19.36-12.48-27.96-20.18-50.76-45.48-104.65-90.24-137.18-150.13-13.63-25.11-23.06-52.2-30.77-79.64-6.54-23.29-20.55-56.67-17.68-81,2.59-21.96,23.19-30.64,42.94-25.87,13.6,3.28,26.51,9.22,40.31,12.33,12.41,2.79,25.36,4.55,36.2,11.74Z" fill="#23253a" opacity=".15"/>
      <g>
        <path d="M413.51,371.11s310.86,5.73,349.35-106.37l-44.47,314.98-206.14,96.86-222.19-19.46s155.53-55.19,123.44-286.01Z" fill="#23253a" opacity=".15"/>
        <g clip-path="url(#g)">
          <path d="M584.03,317.84s-63.48,317.75-189.43,390.14l131.77-22.72s161.7-158.19,154.41-383.67l-96.75,16.25Z" fill="#fff" opacity=".39"/>
        </g>
      </g>
    </g>
  </g>
</svg>