<?xml version="1.0" encoding="UTF-8"?>
<svg id="a" data-name="Layer 1" xmlns="http://www.w3.org/2000/svg" xmlns:xlink="http://www.w3.org/1999/xlink" viewBox="0 0 750 720.28">
  <defs>
    <clipPath id="b">
      <ellipse cx="399.23" cy="588.46" rx="205.51" ry="131.82" fill="#f5f5f5"/>
    </clipPath>
    <clipPath id="c">
      <path d="M49.33,253.4s-35.6,430.91,349.9,430.91,349.9-430.91,349.9-430.91H49.33Z" fill="#f5f5f5"/>
    </clipPath>
    <clipPath id="d">
      <path d="M49.33,253.4S.2,407.9,426.39,412.09c0,0-82.94,56.77-34.91,162.11,43.89,96.29,144.64,116.62,282.96,41.17l-210.31,192.8-386.96-74.29L-33.91,409.99,49.33,253.4Z" fill="#23253a" opacity=".1"/>
    </clipPath>
    <clipPath id="e">
      <ellipse cx="399.23" cy="253.4" rx="349.9" ry="131.82" fill="#f5f5f5"/>
    </clipPath>
    <clipPath id="f">
      <path d="M530.2,148.43s10.69,51.34-42.66,125.38c-9.03,12.53,242.33,38.33,242.33,38.33,0,0,64.3-122.06-199.67-163.72Z" fill="#23253a" opacity=".1"/>
    </clipPath>
    <clipPath id="g">
      <ellipse cx="402.2" cy="324.83" rx="337.22" ry="131.82" fill="#73a820"/>
    </clipPath>
    <clipPath id="h">
      <path d="M369.79,250.68s-122.66,16.55-178.14,4.87c-55.49-11.68-85.15-55.63-30-121.53,44.73-53.44,150.69-18.7,208.15,116.66Z" fill="#ba1919"/>
    </clipPath>
    <clipPath id="i">
      <path d="M300.69,259.72s-105.05-30.74-124.01-80.55c-18.96-49.81,23.47-64.78,30.62-65.73,31.14-4.12,120.73,7.45,181.03,146.28h-87.64Z" fill="#fff" opacity=".19"/>
    </clipPath>
    <clipPath id="j">
      <path d="M248.61,334.56c29.32-2.8,36.6-10.41,44.72-22,1.14-4.03,1.79-8.26,1.79-12.65,0-25.69-20.82-46.51-46.51-46.51s-46.51,20.82-46.51,46.51c0,7.97,2.01,15.46,5.54,22.01,7.12,8.61,14.05,15.21,40.97,12.64Z" fill="#7a54b9"/>
    </clipPath>
    <clipPath id="k">
      <path d="M565.62,259.16c29.32-2.8,36.6-10.41,44.72-22,1.14-4.03,1.79-8.26,1.79-12.65,0-25.69-20.82-46.51-46.51-46.51s-46.51,20.82-46.51,46.51c0,7.97,2.01,15.46,5.54,22.01,7.12,8.61,14.05,15.21,40.97,12.64Z" fill="#7a54b9"/>
    </clipPath>
    <clipPath id="l">
      <path d="M364.68,140.14l-24.1,7.67s2.34-20.03,14.97-20.83c0,0-23.38-7.31-17.74-26.92,11.72,13.02,22.95-1.81,33.59,12.95,0,0,1.88-31.16,11.28-33.3,0,0,1.07,24.86,12.09,34.05,0,0,9.94-21.43,22.02-19.55,0,0-6.18,25.25,6.98,33.04l-59.09,12.89Z" fill="#73a820"/>
    </clipPath>
    <clipPath id="m">
      <path d="M336.92,232.7s-49.47-111.11,52.78-102.34c0,0,33.18-29.36,62.54-15.26,59.04,28.35,62.76,133.01,62.76,144.62,0,0-84.36,10.23-96.36,0-12-10.23-81.72-27.03-81.72-27.03Z" fill="#ba1919"/>
    </clipPath>
    <clipPath id="n">
      <path d="M389.7,130.36s-45.51,2.49-38.66,39.28c6.86,36.79,42.22,87.26,71.7,103.56,29.48,16.3,100.38,1.31,101.63,0,1.25-1.31-13.09-148.45-13.09-148.45l-70.85-30.55-50.73,36.16Z" fill="#fff" opacity=".19"/>
    </clipPath>
    <clipPath id="o">
      <path d="M346.66,268.32c10.7-8.16,18.62-9.31,24.07-8.21,1.14-4.03,1.79-8.26,1.79-12.65,0-25.69-20.82-46.51-46.51-46.51s-46.51,20.82-46.51,46.51c0,7.97,2.01,15.46,5.54,22.01,15.93,4.87,45.31,11.28,61.62-1.15Z" fill="#7a54b9"/>
    </clipPath>
    <clipPath id="p">
      <path d="M116.24,330.92s28.47,15.56,62.01,24.68C178.26,355.6,78.39-15.68,14.63.51c-63.77,16.19,101.62,330.41,101.62,330.41Z" fill="#f5f5f5"/>
    </clipPath>
  </defs>
  <g>
    <ellipse cx="399.23" cy="588.46" rx="205.51" ry="131.82" fill="#f5f5f5"/>
    <g clip-path="url(#b)">
      <path d="M331.11,740.46s-28.16-35.89,0-44.52c28.16-8.63,148.82,21.48,261.97-52.94l30.83-48.57-498.5,19.65,132.29,153.55,73.42-27.17Z" fill="#23253a" opacity=".22"/>
    </g>
  </g>
  <g>
    <path d="M49.33,253.4s-35.6,430.91,349.9,430.91,349.9-430.91,349.9-430.91H49.33Z" fill="#f5f5f5"/>
    <g clip-path="url(#c)">
      <g>
        <path d="M49.33,253.4S.2,407.9,426.39,412.09c0,0-82.94,56.77-34.91,162.11,43.89,96.29,144.64,116.62,282.96,41.17l-210.31,192.8-386.96-74.29L-33.91,409.99,49.33,253.4Z" fill="#23253a" opacity=".1"/>
        <g clip-path="url(#d)">
          <path d="M178.26,355.6s-101.1,378.28,369.65,391.8L0,750.8l-121.93-376.44S-50.68,232.04-44.39,238.24c6.29,6.19,112.08,12.68,222.65,117.36Z" fill="#23253a" opacity=".1"/>
        </g>
      </g>
      <path d="M749.13,253.4s18.46,111.38-213.65,144.15c0,0,24.28,88.32,5.21,135.48-19.07,47.17,90.32,113.41,169.61,0,79.28-113.41,75.66-257.18,38.83-279.63Z" fill="#fff"/>
    </g>
  </g>
  <g>
    <ellipse cx="399.23" cy="253.4" rx="349.9" ry="131.82" fill="#f5f5f5"/>
    <g clip-path="url(#e)">
      <path d="M364.68,140.14S10.26,128.18,74.22,302.31c63.96,174.14,272.44-33.99,272.44-33.99l18.02-128.18Z" fill="#23253a" opacity=".1"/>
      <g>
        <path d="M530.2,148.43s10.69,51.34-42.66,125.38c-9.03,12.53,242.33,38.33,242.33,38.33,0,0,64.3-122.06-199.67-163.72Z" fill="#23253a" opacity=".1"/>
        <g clip-path="url(#f)">
          <path d="M629.31,142.06s3.4,151.47-37.45,205.53l168.52,6.33v-152.35l-131.07-59.51Z" fill="#23253a" opacity=".1"/>
        </g>
      </g>
      <g>
        <ellipse cx="402.2" cy="324.83" rx="337.22" ry="131.82" fill="#73a820"/>
        <g clip-path="url(#g)">
          <path d="M582.37,256.54c3.05-.91-48.49-7.42-50.82-9.6-8.54-7.98-1.52-16.56,5.99-17.91,4.1-.73,8.25.14,12.26,1.41.01-.01.03-.02.04-.04,2.41-2.04,4.77-4.17,7.13-6.27,9.98-8.86,19.84-17.95,30.68-25.77-55.69-13.08-112.07-24.54-169.11-22.81-53.4,1.62-105.69,14.77-158.55,22.52-51.7,7.58-106.18,10.66-151.02,37.47-13.96,8.35-53.41,38.43-37.42,58.35,9.04,11.27,17.93-1.56,26.19-7.45,12.03-8.58,25.41-15.29,39.52-19.67,5.65-1.76,12.79-2.85,15.95,3.49,2.09,4.19,1.22,9.27-1.72,12.91-20.56,25.53-21.08,64.58-2.1,91.05,5-32.1,10.64-65.72,30.5-91.43,7.53-9.75,17.35-18.31,30.09-20.01,6.38-.85,13.01.45,18.27,4.15,16.12,11.34-22.18,14.17-22.18,14.17-12.36,20.23-12.36,45.09,5.56,58.71,27.97,21.28,71.37-10.67,69.16-17.22-2.15-6.39-10.45-1.62-11.01-8.33-1.03-12.17,5.2-13.92,14.12-22.27,9.27-8.68,22.77-10.69,35.37-12.3,41.61-5.3,84.46-10.53,125.01.23,18.04,4.79,36.87,12.72,54.68,7.11,8.83-2.78,16.41-8.7,25.24-11.53,13.38-4.28,28.49-.77,40.04,7.22,13.33,9.22,28.81,19.27,34.4,34.32,1.67,4.5-.06,11.96,4.59,10.76,6.68-1.73,6.19-10.38,4.04-16.38-10.61-29.54-64.93-42.92-24.89-54.9Z" fill="#23253a" opacity=".15"/>
          <path d="M356.61,297.36c3.56,6.5-4.6,9.47-9.82,9.35-4.82-.11-9.61-1.17-14.03-3.09-1.91-.83-3.8-1.86-5.15-3.45s-2.05-3.86-1.35-5.82c.72-2.01,2.76-3.31,4.85-3.73,2.09-.43,4.25-.12,6.37.18,5.03.72,16.31,1.43,19.13,6.57ZM329.56,332.08c-2.57,2.51-4.77,6.23-3.39,9.55,1.16,2.78,4.54,4.1,7.54,3.81s5.73-1.8,8.35-3.29c4.79-2.72,16.9-11.49,8.73-17.16-5.99-4.16-17.21,3.14-21.23,7.08ZM379.89,357.85c1.86.9,3.91,1.56,5.96,1.34,2.05-.22,4.08-1.5,4.72-3.46.63-1.94-.16-4.02-.95-5.9-2.51-6.01-8.9-32.13-20.04-22.26-9.61,8.52,1.96,26.11,10.3,30.28ZM396.43,303.07c5.53-4.95-1.87-18.52-6.46-21.51-4.18-2.72-9.63-1.94-14.54-1.06-2.93.52-6.36,1.44-7.39,4.23-1.15,3.11,1.45,6.26,3.94,8.44,4.44,3.9,18.31,15.39,24.44,9.9ZM426.8,300c1.77,1.24,4.05,2.19,6.06,1.38,2.03-.81,3.06-3.23,2.87-5.4-.4-4.5-8.66-16.36-14.42-14.13-6.98,2.71,1.94,15.66,5.49,18.15ZM423.91,315.18c-1.96.42-3.97,1.05-5.36,2.48-2.23,2.29-2.24,6.07-.88,8.97s3.8,5.11,6.18,7.24c3.21,2.87,6.64,5.85,10.88,6.63,4.23.78,9.37-1.67,9.85-5.94.25-2.22-.62-4.91,1.04-6.4,2.38-2.14,7.24,1.2,8.43-2.33.91-2.69-4.17-5.93-5.83-7.01-6.79-4.4-16.58-5.28-24.32-3.63Z" fill="#23253a" opacity=".15"/>
          <path d="M575.19,255.43c17.39-6.48,37.34-1.89,53.24,7.67,15.9,9.56,28.52,23.6,40.89,37.43,2.68-7.98-4.38-15.58-10.38-21.48-6.01-5.9-11.86-15.16-7.01-22.04,4.87-6.9,15.5-4.47,23.32-1.29,15.1,6.14,30.17,12.35,45.2,18.64-7.52-19.61-24.39-34.47-43.15-43.93-18.75-9.46-39.48-14.15-59.96-18.76-5.99-1.35-12.08-2.7-18.2-2.25s-12.38,2.99-15.9,8.02c-6.45,9.21-1.46,21.78,3.64,31.79-3.98,3.18-7.72,3.01-11.7,6.19Z" fill="#23253a" opacity=".15"/>
          <path d="M573.01,185.69c27.9,12.49,54.63,27.58,79.74,45.01-84.86,16.4-170.87,26.79-257.2,31.07-20.49,1.02-41.52,1.62-60.98-4.88-15-5.01-28.66-14.13-44.24-16.82-21.65-3.73-43.12,5.45-64.44,10.73-40.4,10.02-82.78,6.14-124.21,2.19,33.92-11.05,62.49-31.27,93.43-49.04,109.3-62.79,247.24-73.15,364.7-27.41,4.74,1.85,10.53,4.81,13.2,9.15Z" fill="#23253a" opacity=".1"/>
        </g>
      </g>
    </g>
  </g>
  <path d="M372.64,328.43c.89,8.93,4.65,17.55,10.59,24.28,2.16,2.44,5.75,4.76,8.41,2.87,2.37-1.69,1.89-5.3,1-8.08-.44-1.38-.9-2.93-.22-4.2,1.29-2.41,5.03-1.43,7.13.33,2.1,1.76,4.37,4.15,7.04,3.55,2.04-.46,3.32-2.66,3.37-4.75.05-2.09-.86-4.08-1.84-5.93-5.09-9.53-12.35-14.61-22.31-18.3-8.29-3.07-14.17.18-13.17,10.22Z" fill="#774f2f"/>
  <path d="M442.51,338.67c1.75,1.05,4.35,1.85,5.54.19.93-1.28.21-3.07-.58-4.45-2.11-3.67-4.62-7.11-7.46-10.24,5.44,1.47,11.07,2.21,16.7,2.2,1.62,0,3.29-.08,4.75-.76,1.47-.68,2.69-2.12,2.66-3.74-.05-2.45-2.66-3.93-4.95-4.79-7.48-2.81-24.75-8.93-31.12-1.1-6.64,8.18,8.34,18.99,14.46,22.68Z" fill="#774f2f"/>
  <path d="M378.95,295.04c-2.49-1.95-5.11-4.87-4.08-7.86.8-2.31,3.61-3.41,6.04-3.08s4.55,1.74,6.58,3.11c-.73-1.92-1.48-3.9-1.42-5.95s1.11-4.22,3.03-4.95c1.74-.67,3.77,0,5.19,1.21,1.42,1.21,2.37,2.87,3.28,4.5,2.86,5.09,5.72,10.19,8.58,15.28,1.2,2.13,2.43,4.46,2.11,6.88-1.45,10.84-25.56-6.21-29.31-9.14Z" fill="#774f2f"/>
  <path d="M521.91,334.27c2.99-.35,6.49-1.99,6.58-5,.08-2.53-2.33-4.36-4.57-5.53-4.46-2.35-28.95-10.68-30.98-2.71-2.17,8.53,23.69,13.86,28.97,13.24Z" fill="#23253a" opacity=".1"/>
  <path d="M558.18,307.92c2.34-1.9,4.42-5.16,2.88-7.75-1.29-2.17-4.3-2.43-6.82-2.23-5.02.41-30.17,6.48-27.61,14.3,2.73,8.36,27.43-.98,31.55-4.33Z" fill="#23253a" opacity=".1"/>
  <path d="M555.2,293.05c3.73,1.15,7.4,4.68,6.34,8.43-.7,2.5-3.21,4.01-5.6,5.04-6.22,2.69-13.1,3.85-19.86,3.36-3.07-.22-6.38-.93-8.39-3.26-8.09-9.39,21.64-15.39,27.5-13.58Z" fill="#774f2f"/>
  <path d="M418.8,279.89c-.51-1.74-.79-3.79.31-5.24,1.63-2.15,4.96-1.55,7.49-.61,3.19,1.18,6.37,2.59,8.89,4.87,2.52,2.28,4.33,5.56,4.11,8.96-1.11,17.43-18.71-.89-20.79-7.97Z" fill="#774f2f"/>
  <g>
    <path d="M369.79,250.68s-122.66,16.55-178.14,4.87c-55.49-11.68-85.15-55.63-30-121.53,44.73-53.44,150.69-18.7,208.15,116.66Z" fill="#ba1919"/>
    <g clip-path="url(#h)">
      <g>
        <path d="M300.69,259.72s-105.05-30.74-124.01-80.55c-18.96-49.81,23.47-64.78,30.62-65.73,31.14-4.12,120.73,7.45,181.03,146.28h-87.64Z" fill="#fff" opacity=".19"/>
        <g clip-path="url(#i)">
          <path d="M161.07,120.21c3.93-5.04,12.96-5.66,16.36-.26,2.49-2.91,9.21-5.08,12.83-3.83,11.62,3.99,23.4,8.21,34.89,13.02,14.73-3.5,28.1-13.01,35.69-26.11l5.4,3.12c-7.15,12.34-18.94,21.79-32.31,26.8,11.2,5.1,21.96,10.92,31.85,17.79,16.72-4.25,32.08-14.12,42.49-27.86l4.97,3.76c-10.23,13.51-24.87,23.62-41.03,28.8,8.49,6.59,16.2,14.07,22.77,22.78,0,0,0,.01.01.02.45.03.91.07,1.35.08,11.02.34,22.19.29,33.2-.15,6.58-.26,12.89-.76,17.77-3.94l3.4,5.23c-6.21,4.04-13.74,4.66-20.92,4.94-6.28.25-12.61.38-18.95.38-3.89,0-7.77-.08-11.64-.18,1.14,2.09,2.08,4.28,2.62,6.59.64,2.71.59,5.61-.09,8.3,25.53,19.45,47.37,43.88,63.64,71.49l-5.37,3.17c-15.68-26.6-36.66-50.16-61.17-69.01-5.03,5.42-13.7,5.01-20.93,3.39-.63-.14-1.24-.35-1.86-.5,11.67,24.91,16.63,52.85,13.86,80.26l-6.2-.63c2.84-28.11-2.75-56.8-15.67-81.88-9.88-3.18-19.33-7.61-28.52-12.63,10.84,28.52,14.86,59.94,11.21,90.12l-6.19-.75c3.83-31.75-1.13-64.92-13.81-94.36-5.7-3.37-11.33-6.87-16.92-10.37-4.62-2.9-9.21-5.84-13.81-8.78,9.45,26.63,12.49,55.69,8.36,83.56l-6.16-.91c4.39-29.65.4-60.7-11.08-88.43-5.67-3.74-11.3-7.52-16.78-11.53-5.16-3.77-10.34-7.85-13.46-13.43-3.12-5.58-3.69-13.05.24-18.08Z" fill="#fff" opacity=".19"/>
          <path d="M290.53,195.67c13.8-2.54-94.51-68.64-103.22-64.06-8.72,4.59,69.27,70.31,103.22,64.06Z" fill="#ba1919"/>
        </g>
      </g>
      <path d="M278.85,260.42c-30.71-5.44-59.76-19.98-82.51-41.32-3.71-3.48-7.52-7.29-12.46-8.52-3.35-.83-6.86-.38-10.31-.27-13.11.42-25.98-4.27-37.19-11.09-11.21-6.82-20.97-15.73-30.66-24.57-3.06,20.94,3.56,42.68,15.98,59.82,12.42,17.14,30.26,29.87,49.66,38.33,19.4,8.45,40.36,12.82,61.37,15.31,8.9,1.05,18.13,1.75,26.64-1.05,8.51-2.79,16.2-9.9,17.05-18.82,2.57-1.64,1.65-4.86,2.42-7.81Z" fill="#23253a" opacity=".1"/>
      <path d="M203.77,263.21c-.91,0-2.52-.69-4.05-2.22-2.07-2.07-2.52-4.16-1.5-4.76.91,0,2.52.69,4.05,2.21.97.98,1.72,2.11,2.05,3.12.26.79.19,1.32.01,1.5-.13.13-.41.15-.55.15h0ZM243.39,263.21c-.91,0-2.52-.69-4.05-2.22-2.07-2.07-2.52-4.16-1.5-4.76.91,0,2.52.69,4.05,2.21.97.98,1.72,2.11,2.05,3.12.26.79.19,1.32.01,1.5-.13.13-.41.15-.55.15h0ZM218.2,245.8c-.91,0-2.52-.69-4.06-2.21-.97-.98-1.72-2.11-2.05-3.12-.26-.79-.19-1.32.54-1.65.91,0,2.52.69,4.06,2.21.97.98,1.72,2.11,2.05,3.12.26.79.19,1.32.01,1.5-.13.13-.41.15-.55.15h0ZM171.57,240.06c-.91,0-2.52-.69-4.05-2.22-2.07-2.07-2.52-4.16-1.5-4.76.91,0,2.52.69,4.05,2.21.97.98,1.72,2.11,2.05,3.12.26.79.19,1.32.01,1.5-.13.13-.41.15-.55.15h0ZM144.31,232.23c-.72,0-2.3-1.15-3.39-3.61-.55-1.26-.85-2.59-.79-3.64.05-.83.3-1.3.69-1.43.72,0,2.3,1.15,3.39,3.61.55,1.26.85,2.59.79,3.64-.05.83-.3,1.3-.52,1.4-.05.02-.17.03-.17.03ZM189.96,227.72c-.91,0-2.52-.69-4.05-2.22-2.07-2.07-2.52-4.16-1.5-4.76.91,0,2.52.69,4.05,2.21.97.98,1.72,2.11,2.05,3.12.26.79.19,1.32.01,1.5-.13.13-.41.15-.55.15h0ZM154.12,215.38c-.63,0-2.09-1.41-2.73-4.2-.49-2.11-.21-3.84.27-4.61l.51-.4c.63,0,2.09,1.4,2.73,4.2.66,2.85-.08,4.86-.69,5h-.09ZM133.26,201.77c0-2.93,1.17-4.72,1.8-4.72s1.8,1.79,1.8,4.72c0,2.93-1.17,4.71-1.8,4.71s-1.8-1.79-1.8-4.71ZM166.99,196.76c0-2.93,1.17-4.72,1.8-4.72s1.8,1.79,1.8,4.72c0,2.93-1.17,4.72-1.8,4.72s-1.8-1.79-1.8-4.72ZM147.31,178.36c-.62-.36-.74-2.32.5-4.47.99-1.72,2.36-2.67,3.5-2.67.04,0,.09,0,.13,0,.62.36.74,2.32-.5,4.47-1.04,1.78-2.47,2.75-3.29,2.75l-.33-.08Z" fill="#e5e01a" opacity=".45"/>
    </g>
  </g>
  <g>
    <path d="M248.61,334.56c29.32-2.8,36.6-10.41,44.72-22,1.14-4.03,1.79-8.26,1.79-12.65,0-25.69-20.82-46.51-46.51-46.51s-46.51,20.82-46.51,46.51c0,7.97,2.01,15.46,5.54,22.01,7.12,8.61,14.05,15.21,40.97,12.64Z" fill="#7a54b9"/>
    <g clip-path="url(#j)">
      <path d="M214.33,259.72c.91-.25-4.36,63.63,42.73,61.01,47.09-2.62,54.07-19.37,54.07-19.37l-2.18,23.46-43.6,22.5-83.71-17.96s18.31-65.69,32.7-69.65Z" fill="#23253a" opacity=".2"/>
    </g>
  </g>
  <g>
    <path d="M565.62,259.16c29.32-2.8,36.6-10.41,44.72-22,1.14-4.03,1.79-8.26,1.79-12.65,0-25.69-20.82-46.51-46.51-46.51s-46.51,20.82-46.51,46.51c0,7.97,2.01,15.46,5.54,22.01,7.12,8.61,14.05,15.21,40.97,12.64Z" fill="#7a54b9"/>
    <g clip-path="url(#k)">
      <path d="M535.62,179.97s-27.65,69.23,83.57,65.54l-2.66,18.76-57.78,11.97-51-6.89-13.7-41.86s27.86-44.65,41.58-47.52Z" fill="#23253a" opacity=".2"/>
    </g>
  </g>
  <g>
    <path d="M364.68,140.14l-24.1,7.67s2.34-20.03,14.97-20.83c0,0-23.38-7.31-17.74-26.92,11.72,13.02,22.95-1.81,33.59,12.95,0,0,1.88-31.16,11.28-33.3,0,0,1.07,24.86,12.09,34.05,0,0,9.94-21.43,22.02-19.55,0,0-6.18,25.25,6.98,33.04l-59.09,12.89Z" fill="#73a820"/>
    <g clip-path="url(#l)">
      <path d="M337.81,100.06s.93,24.68,40.06,21.52l-6.47-8.57-.58-30.67,11.86-2.64s-13.49,37.28,12.09,34.05v-17.72l22.02-1.82s-23.02,29.6-10.13,35.84l-43.68,17.76-23.35-2.26s-10.27-39.46-1.81-45.49Z" fill="#23253a" opacity=".1"/>
    </g>
  </g>
  <g>
    <path d="M336.92,232.7s-49.47-111.11,52.78-102.34c0,0,33.18-29.36,62.54-15.26,59.04,28.35,62.76,133.01,62.76,144.62,0,0-84.36,10.23-96.36,0-12-10.23-81.72-27.03-81.72-27.03Z" fill="#ba1919"/>
    <g clip-path="url(#m)">
      <g>
        <path d="M389.7,130.36s-45.51,2.49-38.66,39.28c6.86,36.79,42.22,87.26,71.7,103.56,29.48,16.3,100.38,1.31,101.63,0,1.25-1.31-13.09-148.45-13.09-148.45l-70.85-30.55-50.73,36.16Z" fill="#fff" opacity=".19"/>
        <g clip-path="url(#n)">
          <path d="M524.48,271.44l-.21,3.51c-20.88-1.24-48.71-31.36-60.97-45.88-2.51,2.89-6.12,5.16-11.07,6.65-1.55.47-3.07.79-4.56,1.02,4.13,13.38,10.07,37.07,6.26,53.15l-3.42-.81c3.64-15.39-2.43-39.07-6.45-52-10.19.32-18.91-4.86-26.32-13.29-5.54,12.03-15.95,33.68-23.86,44.6l-2.85-2.06c7.99-11.03,18.93-34.03,24.22-45.56-4.94-6.35-9.27-14.14-13.03-22.61-12.94,14.43-39.34,22-40.74,22.39l-.95-3.39c.34-.1,28.42-8.14,40.14-22.6-4.1-9.83-7.48-20.4-10.24-30.6-11.92,16.64-40.98,25.1-42.36,25.49l-.96-3.39c.34-.1,32.43-9.43,42.12-26.72-6.59-25.81-9.16-48.08-9.16-48.08l15.72-7.72s19.95,20.48,38.86,45.44c11.4-.23,37.32-2.28,59.89-15.13l1.74,3.06c-21.94,12.49-46.33,15.1-59.02,15.55,5.44,7.34,10.71,15,15.3,22.58,13.85,2.88,40.05,6.48,58.47-2.19l1.5,3.19c-9.31,4.38-20.28,5.84-30.75,5.84s-19.56-1.33-26.79-2.71c4.53,7.9,8.21,15.64,10.46,22.77,11.75,4.61,38.02,13.3,58.53,8.28l.84,3.42c-4.71,1.15-9.66,1.63-14.66,1.63-16.58,0-33.54-5.3-43.53-9.08,1.84,7.71,1.71,14.54-1.2,19.85,11.66,13.83,39.41,44.21,59.07,45.38Z" fill="#fff" opacity=".19"/>
        </g>
      </g>
      <path d="M389.7,130.36s41.29,86.86,53.96,84.22c12.67-2.64-41.19-89.34-50.16-92.98-8.97-3.63-3.81,8.76-3.81,8.76Z" fill="#ba1919"/>
      <ellipse cx="345.54" cy="178.81" rx="1.31" ry="3.58" transform="translate(-43.15 161.67) rotate(-24.84)" fill="#e5e01a" opacity=".45"/>
      <ellipse cx="334" cy="169.98" rx="3.58" ry="1.31" transform="translate(1.58 343.02) rotate(-54.47)" fill="#e5e01a" opacity=".45"/>
      <ellipse cx="332.7" cy="195.42" rx="3.14" ry="1.23" transform="translate(32.23 437.47) rotate(-69.28)" fill="#e5e01a" opacity=".45"/>
      <path d="M363.83,220.55c0,1.76-.59,3.18-1.32,3.18s-1.32-1.42-1.32-3.18c0-1.76.59-3.18,1.32-3.18s1.32,1.42,1.32,3.18Z" fill="#e5e01a" opacity=".45"/>
      <ellipse cx="352.66" cy="232.85" rx="1.16" ry="2.79" transform="translate(-65.19 169.66) rotate(-24.84)" fill="#e5e01a" opacity=".45"/>
      <ellipse cx="343.56" cy="209.33" rx="1.2" ry="2.83" transform="translate(-22.81 43.13) rotate(-6.95)" fill="#e5e01a" opacity=".45"/>
      <ellipse cx="371.03" cy="238.24" rx="1.2" ry="2.83" transform="translate(-26.11 46.66) rotate(-6.95)" fill="#e5e01a" opacity=".45"/>
      <ellipse cx="340.77" cy="221.07" rx="1.2" ry="2.83" transform="translate(-24.25 42.88) rotate(-6.95)" fill="#e5e01a" opacity=".45"/>
      <ellipse cx="353.27" cy="206.52" rx="1.2" ry="2.83" transform="translate(-22.4 44.28) rotate(-6.95)" fill="#e5e01a" opacity=".45"/>
      <ellipse cx="339.21" cy="151.29" rx="3.74" ry="1.55" transform="translate(73.53 410.84) rotate(-68.37)" fill="#e5e01a" opacity=".45"/>
      <path d="M318.73,174.73s44.09,69.76,181.41,89.54l-125.16,11.26-38.07-42.83s-23.7-43.27-18.19-57.96Z" fill="#23253a" opacity=".1"/>
    </g>
  </g>
  <g>
    <path d="M346.66,268.32c10.7-8.16,18.62-9.31,24.07-8.21,1.14-4.03,1.79-8.26,1.79-12.65,0-25.69-20.82-46.51-46.51-46.51s-46.51,20.82-46.51,46.51c0,7.97,2.01,15.46,5.54,22.01,15.93,4.87,45.31,11.28,61.62-1.15Z" fill="#7a54b9"/>
    <g clip-path="url(#o)">
      <path d="M298.8,205.15s-15.98,19.38,14.15,45.07c30.13,25.69,67.12-11.99,67.12-11.99l12.69,43.92-51.57,19.21-87.02-32.87,13.82-62.7,30.81-.64Z" fill="#23253a" opacity=".2"/>
    </g>
  </g>
  <path d="M248.52,261.02c-3.2,1.65-5.71,5.02-5.46,8.62.28,4.03,3.83,7.16,7.63,8.52s7.92,1.43,11.9,2.11c5.7.97,11.17,3.22,15.89,6.55,1.3.92,2.6,1.94,4.16,2.3,1.55.36,3.46-.19,4.07-1.66.57-1.38-.17-2.92-.93-4.2-6.81-11.45-22.11-30.06-37.26-22.24Z" fill="#fff" opacity=".19"/>
  <path d="M321.16,206.76c-3.74.23-7.48,1.81-9.88,4.69-2.4,2.88-3.25,7.12-1.69,10.52,2.43,5.28,9.11,6.79,14.9,7.41,9.5,1.01,19.07,1.4,28.63,1.15.8-.02,1.64-.05,2.35-.43,2.1-1.1,1.82-4.19.95-6.4-4.26-10.78-16-18.11-27.56-17.19-1.77.14-5.93.13-7.7.25Z" fill="#fff" opacity=".19"/>
  <path d="M553.54,194.14c-.39,5.51,3.76,10.52,8.73,12.94,4.97,2.42,10.64,2.82,16.14,3.31s11.2,1.16,15.93,4.02c1.92,1.16,4.1,2.73,6.18,1.88,1.4-.57,2.17-2.08,2.55-3.54,1.24-4.78-.59-9.94-3.63-13.83-3.04-3.89-7.19-6.75-11.26-9.54-3.8-2.6-7.66-5.23-12.02-6.73-8.2-2.83-21.87,1.03-22.62,11.49Z" fill="#fff" opacity=".19"/>
  <path d="M337.85,331.32c-1.98,1.58-3.82,3.49-4.66,5.88-.84,2.39-.45,5.35,1.47,7.01,3.08,2.66,7.86.79,11.17-1.58,3.53-2.52,14.13-10.05,11.09-15.58-3.35-6.08-15.47,1.4-19.07,4.27Z" fill="#774f2f"/>
  <path d="M342.94,293.89c-2.53.16-5.13.66-7.2,2.14-2.06,1.48-3.44,4.12-2.83,6.58.99,3.95,5.98,5.16,10.05,5.13,4.33-.04,17.34-.11,18.03-6.39.75-6.9-13.47-7.74-18.06-7.46Z" fill="#774f2f"/>
  <g>
    <path d="M116.24,330.92s28.47,15.56,62.01,24.68C178.26,355.6,78.39-15.68,14.63.51c-63.77,16.19,101.62,330.41,101.62,330.41Z" fill="#f5f5f5"/>
    <g clip-path="url(#p)">
      <path d="M161.93,298.77s2.87,10.54-7.56,15.35c-10.43,4.81-34-.24-51.76-49.85C84.85,214.66-20.3,25.21,24.89-13.89L-47.24,13.92l27.81,170.98,100.8,162.08,46.06,71.91,90.38-28.68-55.88-91.43Z" fill="#23253a" opacity=".1"/>
    </g>
  </g>
  <path d="M36.43,51.73c25.2,49.91,70.44,151.07,78.58,148.1,8.13-2.97-20.46-59.08-31.39-88.36-10.79-28.89-21.54-60.24-39.33-85.53-3.19-4.54-14.97-15.76-20.91-8.28-4.55,5.72,10.24,28.52,13.05,34.07Z" fill="#fff"/>
  <path d="M528.9,330.87c2.99-.35,6.49-1.99,6.58-5,.08-2.53-2.33-4.36-4.57-5.53-4.46-2.35-28.95-10.68-30.98-2.71-2.17,8.53,23.69,13.86,28.97,13.24Z" fill="#774f2f"/>
</svg>