<?xml version="1.0" encoding="UTF-8"?>
<svg id="a" data-name="Layer 1" xmlns="http://www.w3.org/2000/svg" xmlns:xlink="http://www.w3.org/1999/xlink" viewBox="0 0 652.54 750">
  <defs>
    <clipPath id="b">
      <path d="M139.69,79.63s0-52.4,11.75-70.5c15.73-24.22,67.14,8.39,105.75,0,38.61-8.39,270.25,26.86,308.86,16.79,38.61-10.07,18.46,73.86,18.46,73.86,0,0,36.93,211.5,48.68,369.29,11.75,157.79,36.93,243.4,0,266.9-36.93,23.5-224.93-5.04-268.57,0s-142.68,22.18-184.64,9.41c-41.96-12.77-55.39-37.95-112.47-51.38C10.44,680.56,3.44,672.97.09,649.47-3.27,625.97,91.01,126.63,139.69,79.63Z" fill="#9ac157"/>
    </clipPath>
    <clipPath id="c">
      <path d="M190.85,722.69s-16.05-585.24-51.16-643.07c-37.73-62.14,35.17,392.89-30.96,490.57-25.72,26.29-73.83,46.45-95.59,76.1-2.32,3.17-4.49,7.59-2.17,10.76,2.33,3.18,7.21,2.42,10.97,1.23,14.12-4.49,39.74-6.59,52.62-13.92,8.05-4.58,15.92-9.74,24.79-12.4,8.87-2.66,19.2-2.44,26.58,3.15,4.57,3.46,7.55,8.59,10.25,13.65,9.38,17.61,16.8,36.26,22.1,55.5,1.95,7.09,3.41,15.38-1.02,21.25-3.62,4.79-10.58,6.97-12.51,12.65-2.97,8.72,7.88,15.38,16.65,18.23,24.29,7.9,49.6,15.89,74.91,12.48,6.06-.82,13.52-4.19,12.94-10.27-23.42-6.31-55.21-8.59-58.39-35.89Z" fill="#23253a" opacity=".19"/>
    </clipPath>
  </defs>
  <g>
    <path d="M139.69,79.63s0-52.4,11.75-70.5c15.73-24.22,67.14,8.39,105.75,0,38.61-8.39,270.25,26.86,308.86,16.79,38.61-10.07,18.46,73.86,18.46,73.86,0,0,36.93,211.5,48.68,369.29,11.75,157.79,36.93,243.4,0,266.9-36.93,23.5-224.93-5.04-268.57,0s-142.68,22.18-184.64,9.41c-41.96-12.77-55.39-37.95-112.47-51.38C10.44,680.56,3.44,672.97.09,649.47-3.27,625.97,91.01,126.63,139.69,79.63Z" fill="#9ac157"/>
    <g clip-path="url(#b)">
      <path d="M262.28,240.04c17.6,121.85,25.6,243.7,24,365.55,100.72,10.01,197.32,11.81,287.08,0,8.91-117.9-.9-237.79-26.77-359.39-82.8-10.49-179.82-10.96-284.31-6.16Z" fill="#ddd"/>
      <path d="M410.55,426.56c8.75,9.84,7.21,25.34,6.75,28.71,1.92,3.5,3.71,7.26,5.29,11.35.1-6.37,1.1-13.95,3.82-22.53.43-1.35,2.09-5.59,5.59-10.78-.06-4.37,1.02-18.89,17.05-29.14,19.06-12.18,43.7-4.81,43.7-4.81,0,0-4.68.82-8.08,5.67-2.26,3.22-6.83,13.86-19.37,22.32-10.41,7.02-26.38,7.41-31.53,7.34-2.1,3.06-3.84,6.38-5.04,9.96-6.76,20.12-1.22,34.58,1.33,40.67.63,1.5-.49,3.16-2.12,3.16-.95,0-1.8-.58-2.14-1.47-.87-2.26-2.41-7.05-2.98-13.91,0,0,0,0,0,0,0,0-2.62-7.27-7.95-16.56-14.26,2.66-31.43-12.14-34.22-20.29-5.73-16.69-16.72-21.76-16.72-21.76,12.14-5.74,36.78.99,46.64,12.08Z" fill="#4f6618"/>
      <path d="M428.33,525.26c-46.15,0-83.7-39.97-83.7-89.09s37.55-89.09,83.7-89.09,83.69,39.97,83.69,89.09-37.55,89.09-83.69,89.09ZM428.33,350.1c-44.48,0-80.68,38.61-80.68,86.07s36.19,86.07,80.68,86.07,80.67-38.61,80.67-86.07-36.19-86.07-80.67-86.07Z" fill="#4f6618"/>
      <path d="M428.93,604.07c-32.73,0-65.21-1.38-97.25-4.15-17.58-1.52-31.35-16.58-31.35-34.28v-.94c0-9.65,3.9-18.58,10.97-25.14,7.04-6.53,16.58-9.84,26.2-9.12,62.81,4.77,125.1,4.82,185.13.16,9.67-.73,19.25,2.57,26.32,9.12,7.09,6.56,10.99,15.49,10.99,25.15v.7c0,17.74-13.8,32.8-31.42,34.29-33.27,2.82-66.55,4.23-99.58,4.23ZM334.88,533.36c-7.95,0-15.68,3-21.53,8.41-6.45,5.98-10,14.12-10,22.92v.94c0,16.15,12.55,29.89,28.58,31.27,64.21,5.54,130.26,5.52,196.33-.08l.13,1.51-.13-1.51c16.07-1.36,28.65-15.1,28.65-31.28v-.7c0-8.8-3.56-16.95-10.02-22.93-6.46-5.97-15.21-9.02-24.03-8.32-60.18,4.67-122.62,4.62-185.59-.16-.8-.06-1.59-.09-2.39-.09Z" fill="#4f6618"/>
      <g>
        <path d="M349.11,252.97c2.73,32.83,3.96,52.63,6.69,85.44-4.94,1.8-7.41,2.77-12.36,4.86-1.22-17.29-1.81-26.65-2.98-45.02-1.19,18.89-1.83,28.79-3.13,47.69-4.27,1.93-6.4,2.94-10.68,5.09-3.48-17.52-5.15-27.32-8.42-47.19.9,20.54,1.34,31.01,2.29,50.35-5,2.65-7.51,4.05-12.53,6.99-1.58-41.4-2.19-66.32-3.77-107.75,5.74-.14,8.61-.2,14.35-.29,4.48,22.92,6.73,35.04,11.41,57.31,2.08-24.28,3.07-36.36,4.84-57.48,5.72-.03,8.58-.03,14.3,0Z" fill="#4f6618"/>
        <path d="M382.93,318.74c-5.2.98-7.8,1.55-13.01,2.83-.32,5-.48,7.49-.8,12.42-5.19,1.55-7.79,2.41-12.99,4.29,3.05-34.85,4.54-54.32,6.96-85.18,5.4.08,8.11.13,13.51.27,8.77,29.61,13.18,46.42,22.45,73.93-5.17.76-7.75,1.23-12.94,2.33-1.28-4.27-1.92-6.45-3.18-10.9ZM378.07,300.95c-2.28-8.56-3.41-12.95-5.65-21.69-.51,8.94-.78,13.55-1.33,22.76,2.79-.46,4.19-.68,6.97-1.07Z" fill="#4f6618"/>
        <path d="M419.94,255.18c1,6.76,1.5,10.24,2.49,17.23-4.01-.2-6.02-.28-10.04-.4,2.9,21.35,4.31,32.8,7.24,53.38-4.87.19-7.32.36-12.21.86-2.79-20.93-4.13-32.67-6.89-54.46-3.97-.02-5.96-.02-9.93.04-.87-7.38-1.3-11.03-2.18-18.11,12.59.43,18.89.71,31.51,1.45Z" fill="#4f6618"/>
        <path d="M424.35,271.53c.73-5.33,2.27-9.35,4.63-12.11,2.35-2.75,5.41-3.98,9.19-3.71,3.25.24,6.34,1.57,9.25,4.05,2.92,2.48,5.51,5.91,7.78,10.33,2.26,4.41,4.1,9.55,5.5,15.38-5.01-.72-7.52-1.04-12.53-1.59-.92-2.41-2.01-4.32-3.25-5.73-1.25-1.4-2.54-2.17-3.9-2.29-2-.18-3.36,1.09-4.11,3.79-.75,2.7-.78,6.43-.09,11.17.69,4.74,1.82,8.55,3.41,11.45,1.58,2.89,3.38,4.43,5.4,4.65,1.37.15,2.49-.36,3.36-1.53.87-1.17,1.41-2.89,1.63-5.17,5.04.63,7.56,1.01,12.59,1.89.33,5.65,0,10.44-.99,14.37s-2.62,6.76-4.89,8.57c-2.27,1.82-5.08,2.46-8.41,2.05-3.89-.48-7.49-2.22-10.8-5.35-3.32-3.13-6.13-7.36-8.44-12.83-2.31-5.47-3.96-11.75-4.94-18.79-.98-7.04-1.1-13.27-.36-18.6Z" fill="#4f6618"/>
        <path d="M493.32,261.73c4.53,32.03,6.77,48.81,11.3,80.83-4.75-2.16-7.13-3.15-11.9-4.97-1.76-11.89-2.64-17.95-4.39-30.06-4.52-1.24-6.78-1.81-11.31-2.85,1.74,11.69,2.6,17.54,4.35,28.98-4.79-1.49-7.18-2.16-11.98-3.32-4.42-28.36-6.57-43.94-10.99-72.31,4.72.43,7.08.65,11.81,1.13,1.61,10.56,2.42,15.96,4.02,26.76,4.51.81,6.77,1.24,11.28,2.19-1.62-11.18-2.43-16.77-4.06-27.76,4.74.52,7.11.8,11.86,1.37Z" fill="#4f6618"/>
        <path d="M530.1,343.38c-5.02-2.77-7.53-4.07-12.56-6.49-.07,4.85-.1,7.25-.16,11.99-4.97-2.65-7.45-3.89-12.44-6.16,1.01-29.54,1.52-45.69,2.56-79.18,5.49.73,8.23,1.12,13.74,1.92,10,37.57,14.97,57.75,24.77,101.38-4.94-3.56-7.41-5.25-12.37-8.42-1.41-6.07-2.12-9.07-3.54-15.03ZM524.6,320.46c-2.61-10.67-3.91-15.92-6.53-26.24-.12,9.52-.18,14.21-.3,23.42,2.73,1.09,4.1,1.65,6.83,2.81Z" fill="#4f6618"/>
      </g>
      <path d="M316.64,171.39s208.27,117.62,242.97,279.59c34.71,161.97,55.92,61.7,44.35-53.99-11.57-115.69-15.43-244.88-52.06-254.52-36.64-9.64-418.42-40.69-235.26,28.92Z" fill="#fff" opacity=".22"/>
      <path d="M195.14,66.46h0c-2.68,0-4.86-2.17-4.86-4.86V-14.79c0-2.68,2.17-4.86,4.86-4.86h0c2.68,0,4.86,2.17,4.86,4.86V61.61c0,2.68-2.17,4.86-4.86,4.86ZM220.68,61.61V-14.79c0-2.68-2.17-4.86-4.86-4.86h0c-2.68,0-4.86,2.17-4.86,4.86V61.61c0,2.68,2.17,4.86,4.86,4.86h0c2.68,0,4.86-2.17,4.86-4.86ZM575.96,85.5V9.1c0-2.68-2.17-4.86-4.86-4.86h0c-2.68,0-4.86,2.17-4.86,4.86v76.4c0,2.68,2.17,4.86,4.86,4.86h0c2.68,0,4.86-2.17,4.86-4.86ZM558.44,81.25V4.86C558.44,2.17,556.27,0,553.59,0h0c-2.68,0-4.86,2.17-4.86,4.86v76.4c0,2.68,2.17,4.86,4.86,4.86h0c2.68,0,4.86-2.17,4.86-4.86ZM538.54,81.25V4.86C538.54,2.17,536.36,0,533.68,0h0c-2.68,0-4.86,2.17-4.86,4.86v76.4c0,2.68,2.17,4.86,4.86,4.86h0c2.68,0,4.86-2.17,4.86-4.86ZM515.44,81.25V4.86C515.44,2.17,513.27,0,510.59,0h0c-2.68,0-4.86,2.17-4.86,4.86v76.4c0,2.68,2.17,4.86,4.86,4.86h0c2.68,0,4.86-2.17,4.86-4.86ZM493.95,76.47V.08c0-2.68-2.17-4.86-4.86-4.86h0c-2.68,0-4.86,2.17-4.86,4.86v76.4c0,2.68,2.17,4.86,4.86,4.86h0c2.68,0,4.86-2.17,4.86-4.86ZM470.06,76.47V.08c0-2.68-2.17-4.86-4.86-4.86h0c-2.68,0-4.86,2.17-4.86,4.86v76.4c0,2.68,2.17,4.86,4.86,4.86h0c2.68,0,4.86-2.17,4.86-4.86ZM446.87,76.47V.08c0-2.68-2.17-4.86-4.86-4.86h0c-2.68,0-4.86,2.17-4.86,4.86v76.4c0,2.68,2.17,4.86,4.86,4.86h0c2.68,0,4.86-2.17,4.86-4.86ZM426.17,70.99V-5.4c0-2.68-2.17-4.86-4.86-4.86h0c-2.68,0-4.86,2.17-4.86,4.86v76.4c0,2.68,2.17,4.86,4.86,4.86h0c2.68,0,4.86-2.17,4.86-4.86ZM404.67,66.31V-10.08c0-2.68-2.17-4.86-4.86-4.86h0c-2.68,0-4.86,2.17-4.86,4.86v76.4c0,2.68,2.17,4.86,4.86,4.86h0c2.68,0,4.86-2.17,4.86-4.86ZM379.61,66.31V-10.08c0-2.68-2.17-4.86-4.86-4.86h0c-2.68,0-4.86,2.17-4.86,4.86v76.4c0,2.68,2.17,4.86,4.86,4.86h0c2.68,0,4.86-2.17,4.86-4.86ZM357.31,61.61V-14.79c0-2.68-2.17-4.86-4.86-4.86h0c-2.68,0-4.86,2.17-4.86,4.86V61.61c0,2.68,2.17,4.86,4.86,4.86h0c2.68,0,4.86-2.17,4.86-4.86ZM333.78,61.61V-14.79c0-2.68-2.17-4.86-4.86-4.86h0c-2.68,0-4.86,2.17-4.86,4.86V61.61c0,2.68,2.17,4.86,4.86,4.86h0c2.68,0,4.86-2.17,4.86-4.86ZM314.67,61.61V-14.79c0-2.68-2.17-4.86-4.86-4.86h0c-2.68,0-4.86,2.17-4.86,4.86V61.61c0,2.68,2.17,4.86,4.86,4.86h0c2.68,0,4.86-2.17,4.86-4.86ZM293.36,61.61V-14.79c0-2.68-2.17-4.86-4.86-4.86h0c-2.68,0-4.86,2.17-4.86,4.86V61.61c0,2.68,2.17,4.86,4.86,4.86h0c2.68,0,4.86-2.17,4.86-4.86ZM272.04,61.61V-14.79c0-2.68-2.17-4.86-4.86-4.86h0c-2.68,0-4.86,2.17-4.86,4.86V61.61c0,2.68,2.17,4.86,4.86,4.86h0c2.68,0,4.86-2.17,4.86-4.86ZM248.95,66.31V-10.08c0-2.68-2.17-4.86-4.86-4.86h0c-2.68,0-4.86,2.17-4.86,4.86v76.4c0,2.68,2.17,4.86,4.86,4.86h0c2.68,0,4.86-2.17,4.86-4.86Z" fill="#4f6618"/>
      <g>
        <path d="M190.85,722.69s-16.05-585.24-51.16-643.07c-37.73-62.14,35.17,392.89-30.96,490.57-25.72,26.29-73.83,46.45-95.59,76.1-2.32,3.17-4.49,7.59-2.17,10.76,2.33,3.18,7.21,2.42,10.97,1.23,14.12-4.49,39.74-6.59,52.62-13.92,8.05-4.58,15.92-9.74,24.79-12.4,8.87-2.66,19.2-2.44,26.58,3.15,4.57,3.46,7.55,8.59,10.25,13.65,9.38,17.61,16.8,36.26,22.1,55.5,1.95,7.09,3.41,15.38-1.02,21.25-3.62,4.79-10.58,6.97-12.51,12.65-2.97,8.72,7.88,15.38,16.65,18.23,24.29,7.9,49.6,15.89,74.91,12.48,6.06-.82,13.52-4.19,12.94-10.27-23.42-6.31-55.21-8.59-58.39-35.89Z" fill="#23253a" opacity=".19"/>
        <g clip-path="url(#c)">
          <path d="M106.46,267.38c9.33,63,15.63,127.1,7.87,190.31-7.76,63.21-61.5,127.04-104.35,174.16,8.45,8.13,44.61-8.61,54.1-15.5,20.12-14.63,48.18-32.55,65.55-38.75,17.37-6.2,25.86,19.05,27.99,22.28,8.77,13.29,11.93,29.44,14.05,45.22,5.64,42.02,5.19,84.86-1.34,126.75-.59,3.79-1.15,8,.98,11.19,1.78,2.66,4.98,3.92,8,5,28.95,10.28,59,17.47,89.46,21.4-1.05-25.6-17.37-47.57-30.42-69.63-52.82-89.27-57.3-198.4-54.15-302.08,3.16-103.68,12.23-209.87-17.9-309.12-6.27-20.65-15.1-42-32.75-54.41-17.65-12.41-46.3-11.14-56.93,7.64-3.79,6.69-4.85,14.57-5.28,22.25-3.3,57.99,26.74,106.67,35.12,163.31Z" fill="#23253a" opacity=".1"/>
        </g>
      </g>
      <path d="M-7.18,549.41c32.83,11.96,69.06-6.78,94.84-30.37,38.29-35.04,63.65-73.15,89.33-118.26l12.97,292.58s-17.74,89.34,59.28,65.22l-58.51,43.95-123.72-28.28L-7.18,709.96l-26.16-120.8,26.16-39.76Z" fill="#23253a" opacity=".19"/>
      <path d="M365.86,102.78c22.18,3.95,44.44,7.92,66.95,8.91,25.7,1.13,51.47-1.62,77.16-.29,25.69,1.33,52.18,7.26,72.19,23.43,20.78,16.8,32.02,42.39,42.51,66.96-23.11-43.46-33.75-93.46-30.34-142.57.42-5.99,1.03-12.11-.47-17.92-2.7-10.5-11.7-18.08-20.69-24.15.84,20.33,9.67,43.62-3.55,59.08-4.73,5.54-11.57,8.81-18.39,11.37-40.61,15.24-85.64,10.38-128.72,5.29-27.29-3.22-54.59-6.44-81.88-9.66-6.3-.74-41.11-4.44-28.85,9.88,6.12,7.14,44.25,7.91,54.08,9.66Z" fill="#23253a" opacity=".19"/>
      <path d="M165.14,59.88c.46,3.98,1.2,8.12,3.63,11.31,5.48,7.19,16.33,6.34,25.29,5.1,108.05-14.95,316.38,17.87,326.52,5.39,10.14-12.48-125.44-25.24-189.24-24-32.57.63-65.15,3.68-97.68,1.87-13.83-.77-28.19-2.62-39.76-10.24-11.57-7.61-13.09-32.29-14.84-35.58-1.76-3.28-8.24.32-9.14.88-3.29,2.05-2.16,7.09-3.44,10.07-4.12,9.54-2.48,25.17-1.33,35.19Z" fill="#23253a" opacity=".19"/>
      <path d="M207.82,353.6c4.38,65.26,19.51,109.85,20.68,175.26,1.34,74.42-8.99,121.41-7.65,195.84.09,5.2-1.16,20.34,91.26,17.44,4.55-.14-70.62,31.85-66.72,34.19,28.81,17.3,64.37,18.95,97.82,15.73,33.45-3.22,66.59-10.84,100.19-10.28,64.53,1.07,129.03,32.12,191.58,16.25,8.49-2.15,17.1-5.37,23.1-11.74,8.15-8.64,9.99-21.31,11.14-33.13,8.37-86.33,0-174.24-24.5-257.44-6.25,42.3-37.13,78.2-74.68,98.63-37.55,20.44-81.12,27.17-123.86,28.4-42.32,1.22-89.13-4.68-117.58-36.03-14.73-16.23-22.63-37.37-30.19-57.94-14.24-38.75-28.5-77.53-40.19-117.13-18.14-61.4-63.96-316.29-80.68-317.99s28.19,228.73,30.29,259.94Z" fill="#23253a" opacity=".19"/>
      <path d="M514.92,103.26s54.87-1.69,62.52-11.86c7.65-10.18,12.17-49.53,16.43-50.09s20.9,28.67,20.9,28.67l-24.29,28.79s5.4,32.83,4.05,31.93-9-26.54-22.49-25.19-41.88,3.45-57.12-2.25Z" fill="#23253a" opacity=".19"/>
    </g>
  </g>
  <path d="M430.34,389.15c-.33.46-.55,1.27-.02,1.45.35.12.68-.19.93-.47,2.2-2.5,4.69-4.75,7.41-6.67,1.36-.96,2.78-1.88,4.26-2.65.26-.13.55-.25.86-.36.95-.35.64-1.78-.37-1.69-1.42.12-2.97.69-3.79,1.18-3.63,2.19-6.83,5.78-9.27,9.2Z" fill="#fff" opacity=".26"/>
</svg>