<?xml version="1.0" encoding="UTF-8"?>
<svg id="a" data-name="Layer 1" xmlns="http://www.w3.org/2000/svg" xmlns:xlink="http://www.w3.org/1999/xlink" viewBox="0 0 750 653.4">
  <defs>
    <clipPath id="b">
      <path d="M749.87,362.4c-11.43-46.46-334.93-250.94-340.37-303.53-5.44-52.59-34.56-52.59-34.56-52.59C135.45-39.06,14.07,176.13,14.07,176.13c-39.77,27.34,17.4,377.84,17.4,377.84,243.61,57.17,718.39,99.43,718.39,99.43v-288.87c.17-.67.19-1.38,0-2.14Z" fill="#f7eab5"/>
    </clipPath>
    <clipPath id="c">
      <path d="M4.46,195.19s37.56-42.17,70.37-23.42c32.81,18.75,43.66,78.05,86.71,91.4,286.86,88.97,564.89,124.8,588.32,101.36C773.3,341.1,470.89,48.52,440.43,0c-30.47-48.52-86.71-69.62-140.61-62.58C245.91-55.55-35.32,103.81-35.32,103.81L4.46,195.19Z" fill="#73a820"/>
    </clipPath>
  </defs>
  <g>
    <path d="M749.87,362.4c-11.43-46.46-334.93-250.94-340.37-303.53-5.44-52.59-34.56-52.59-34.56-52.59C135.45-39.06,14.07,176.13,14.07,176.13c-39.77,27.34,17.4,377.84,17.4,377.84,243.61,57.17,718.39,99.43,718.39,99.43v-288.87c.17-.67.19-1.38,0-2.14Z" fill="#f7eab5"/>
    <g clip-path="url(#b)">
      <path d="M175.22,544.82c20.46,2.39,40.16,8.94,60.07,14.2,38.95,10.28,78.99,15.65,118.92,21,36.96,4.95,73.92,9.9,110.87,14.86,18.03,2.42,36.07,4.83,54.21,6.28,34.66,2.76,69.51,1.97,104.26,3.15,46.14,1.57,92.07,6.63,137.96,11.69,4.25,16.97,25.04,30,20.16,46.8-3.01,10.35-14.51,15.34-24.8,18.55-41.1,12.8-84,18.6-126.66,24.32-41.1,5.51-82.53,11-123.91,8.24-32.47-2.17-64.37-9.38-96.08-16.69-110.51-25.48-220.69-52.41-330.49-80.78-31.17-8.05-130.1-45.44-75.17-88.76,23.55-18.57,45.25-8.84,68.73,2.62,32.98,16.1,66.72,10.42,101.93,14.53Z" fill="#966848"/>
      <path d="M45.28,466.43c2.68-10.15,6.82-19.96,8.18-30.37,2.38-18.18-3.88-36.21-8.3-54-5.58-22.47-8.31-45.66-8.1-68.81.22-24.47-11.43-64.29,2.98-84.07,14.42-19.77,57.21-17.51,79.86-8.26,7.97,3.26,14.81,8.79,22.59,12.47,14.08,6.65,30.2,6.81,45.75,7.61,77.18,3.95,120.2,43.67,186.75,82.97,17.16,10.13,63.99,11.51,82.28,19.42,27.31,11.8,60.17,8.75,89.68,12.54,37.71,4.84,75.42,9.68,113.13,14.52,21.46,2.75,45.16,6.73,58.58,23.7,24.69,31.26-3.85,76.87,1.52,116.34,1.78,13.07,7.39,25.47,8.26,38.63,2.39,36.25-30.1,64.1-59.41,85.56-22.05,16.14-44.11,32.28-66.16,48.42,42.89,11.23,86.37,22.54,130.71,22.35,44.33-.2,90.37-13.24,121.7-44.61,30.88-30.92,43.74-75.1,53.98-117.58,9.98-41.43,18.26-86.55.83-125.44-15.14-33.76-47.26-56.78-80.29-73.45-47.9-24.17-100.47-38.41-153.72-45.01-51.44-6.38-104.46-5.92-153.4-22.98-37.81-13.18-71.3-36.22-107.35-53.66-46.03-22.27-96.35-35.47-140.43-61.38-28.84-16.95-54.63-39.14-85.01-53.16-68.81-31.78-154.02-15.58-214.17,30.54-16.74,12.83-32.11,28.15-41.44,47.06-9.55,19.35-12.24,41.3-14.02,62.81-5.88,71.23-3.22,143.16,7.91,213.76,5.79,36.76,14.02,73.59,30.64,106.89,10.53,21.1,97.72,127.22,114.66,69.7,5.86-19.88,313.16-3.49,306.91-21.83-11.62-34.06-344.64-114.42-335.07-150.66Z" fill="#23253a" opacity=".18"/>
      <path d="M-24.18,285.79c9.14-37.1,62.12-54.2,91.22-29.45,15.91,13.53,23.51,35.13,40.06,47.88,22.37,17.23,53.62,13.54,81.84,14.66,73.69,2.93,140.54,43.74,213.13,56.72,27.56,4.93,103.44-4.69,131.28-1.73,97.96,10.4,168.66,80.31,250.04,28.83,13.55-20.69-.03-21.3-16.24-39.98-16.21-18.68-39.49-29.4-62.03-39.58-116.31-52.55-232.62-105.1-348.93-157.65-37.61-16.99-75.46-34.07-115.47-44.18-56.83-14.35-116.18-14.21-174.8-13.98-28.77.11-60.79,1.52-81.04,21.96-23.84,24.06-20.6,63.1-14.78,96.46,1.76,10.09,7.46,23.03,17.52,21.1-16.4,10.62-21.68,22.07-11.82,38.94Z" fill="#73a820" opacity=".34"/>
      <path d="M-17.67,257.37c9.14-37.1,62.12-54.2,91.22-29.45,15.91,13.53,23.51,35.13,40.06,47.88,22.37,17.23,53.62,13.54,81.84,14.66,73.69,2.93,140.54,43.74,213.13,56.72,27.56,4.93,55.66,5.78,83.5,8.74,97.96,10.4,192.81,46.8,291.32,46.78,13.55-20.69,6.47-49.72-9.74-68.39-16.21-18.68-39.49-29.4-62.03-39.58-116.31-52.55-232.62-105.1-348.93-157.65-37.61-16.99-75.46-34.07-115.47-44.18-56.83-14.35-116.18-14.21-174.8-13.98-28.77.11-60.79,1.52-81.04,21.96-23.84,24.06-20.6,63.1-14.78,96.46,1.76,10.09,7.46,23.03,17.52,21.1-16.4,10.62-21.68,22.07-11.82,38.94Z" fill="#73a820" opacity=".34"/>
      <g>
        <path d="M4.46,195.19s37.56-42.17,70.37-23.42c32.81,18.75,43.66,78.05,86.71,91.4,286.86,88.97,564.89,124.8,588.32,101.36C773.3,341.1,470.89,48.52,440.43,0c-30.47-48.52-86.71-69.62-140.61-62.58C245.91-55.55-35.32,103.81-35.32,103.81L4.46,195.19Z" fill="#73a820"/>
        <g clip-path="url(#c)">
          <path d="M53.59,177.17c8.38-8.66,22.7-7.11,33.99-2.87,11.28,4.24,22.48,10.63,34.49,9.62,9.53-.8,17.98-6.18,25.99-11.4,11.15-7.26,22.29-14.53,33.44-21.79,10.26-6.69,20.75-13.59,28.01-23.46,7.46-10.15,10.89-22.6,15.93-34.14,5.04-11.54,12.64-23.07,24.48-27.38,18.09-6.59,39.19,5.93,57.06-1.22,8.01-3.2,14.24-10.02,22.4-12.84,8.53-2.95,17.85-1.12,26.87-.92,17.59.39,35.24-5.8,48.73-17.09,3.88-3.25,9.73-6.95,13.31-3.37,1.15,1.15,1.63,2.8,2,4.39,2.48,10.88,1.35,22.62,5.79,32.85,3.53,8.14,10.2,14.43,16.69,20.48,23.45,21.84,46.9,43.68,70.35,65.52-36.76-20.07-77.82-32.22-119.58-35.37-6.95-.52-14.05-.79-20.76,1.07-7.2,1.99-13.5,6.29-19.67,10.49-25.48,17.31-51.65,34.22-80.63,44.66-18.09,6.52-37.06,10.42-55.07,17.16-18.01,6.74-35.56,16.81-46.48,32.64-10.93,15.83-13.73,38.32-2.85,54.18,3.49,5.08,8.26,9.46,10.23,15.3-29.16-4.25-56.86-18.03-77.83-38.73-14.59-14.39-26.18-37.32-15.29-54.68-11.85.17-25.49-8.32-35.48-14.7-1.19-.76-2.51-1.72-2.63-3.12s5.89-6.53,6.55-5.28Z" fill="#23253a" opacity=".1"/>
          <path d="M30.63,187.89c2.92-9.04,11.47-16.8,20.67-20.28,10.54-3.99,21.72-6.28,32.98-6.74,8.92-.36,17.91.41,26.76-.77,20.47-2.72,39.12-16.53,47.68-35.32,1.7-3.74,3.08-7.72,5.7-10.89,4.25-5.13,11.05-7.28,16.34-11.33,12.59-9.64,16.66-29.82,31.95-34.03,4.12-1.13,8.55-.86,12.61-2.22,7.76-2.6,12.45-10.5,19.54-14.59,17.66-10.17,39.81,6.82,59.8,2.85,15.41-3.06,25.87-17.8,40.58-23.31,18.35-6.88,40.77,1.46,57.53-8.69,7.08-4.29,14.14-11.91,21.98-9.28,5.23,1.75,7.9,7.41,9.99,12.52,11.4,27.78,22.8,55.55,34.2,83.33-22.73-3.08-45.46-6.16-68.19-9.23-22.87-3.1-49.16-5.18-66,10.6-5.24,4.91-9.16,11.29-15.17,15.23-15.57,10.2-39.24.58-53.39,12.67-5.07,4.33-7.85,10.71-11.98,15.93-7.72,9.74-19.66,14.96-31.1,19.8-12.1,5.12-24.21,10.25-36.63,14.54-8.28,2.86-16.77,5.38-24.4,9.69-22.97,12.95-34.37,39.49-41.67,64.83-1.34,4.66-3.08,9.93-7.52,11.89-4.56,2.01-9.8-.46-13.94-3.24-17.86-11.98-30.88-30.96-35.63-51.93-7.87-1.59-13.3-10.27-20.54-13.74-8.75-4.2-14.6-5.05-12.91-15.12.18-1.07.44-2.12.78-3.16Z" fill="#23253a" opacity=".1"/>
        </g>
      </g>
      <path d="M179.11,561.49c20.46,2.39,40.16,8.94,60.07,14.2,38.95,10.28,78.99,15.65,118.92,21,36.96,4.95,73.92,9.9,110.87,14.86,18.03,2.42,36.07,4.83,54.21,6.28,34.66,2.76,69.51,1.97,104.26,3.15,46.14,1.57,92.07,6.63,137.96,11.69,4.25,16.97,25.04,30,20.16,46.8-3.01,10.35-14.51,15.34-24.8,18.55-41.1,12.8-84,18.6-126.66,24.32-41.1,5.51-82.53,11-123.91,8.24-32.47-2.17-64.37-9.38-96.08-16.69-110.51-25.48-220.69-52.41-330.49-80.78-31.17-8.05-130.1-45.44-75.17-88.76,23.55-18.57,45.25-8.84,68.73,2.62,32.98,16.1,66.72,10.42,101.93,14.53Z" fill="#23253a" opacity=".33"/>
    </g>
  </g>
  <path d="M422.76,165.93c26.64,7.29,48.03,27.28,64.83,49.2,3.79,4.95,7.51,10.12,12.64,13.67,5.29,3.66,11.67,5.31,17.85,7.1,38.25,11.08,74.13,30.25,104.6,55.9,2.36,1.99,4.8,4.18,5.72,7.13,2.05,6.59-4.53,12.87-11.13,14.88-6.6,2.01-13.93,1.8-19.96,5.16,3.63,8.43,14.26,10.76,23.36,11.98l38.83,5.21c9.25,1.24,15.11-9.61,9.04-16.69-11.45-13.35-25.35-24.83-39.03-36.04-37.22-30.53-74.44-61.05-111.66-91.58-16.87-13.84-34.1-27.89-54.37-35.96-28.76-11.45-60.88-9.83-91.69-6.88-17.29,1.66-16.46,12.01-1.63,14.92,16.96,3.33,34.83-2.87,52.61,2Z" fill="#fff" opacity=".26"/>
  <path d="M229.98,26.93c-5.77,1.65-11.53,3.3-17.3,4.95-14.52,4.16-29.15,8.35-42.59,15.25-13.24,6.79-25.02,16.05-36.72,25.25-10.47,8.23-20.93,16.46-31.4,24.7-10.59,8.33-22.24,18.92-21.27,32.35,12.96,3.87,26.52-4.35,35.77-14.22,9.25-9.87,16.54-21.9,27.86-29.3,15.72-10.28,36.67-9.94,52.2-20.51,9.72-6.62,16.54-17.04,26.78-22.83,9.51-5.38,20.84-6.14,31.72-7.11,18.29-1.64,36.56-4.26,54.19-9.4,3.39-.99,6.95-2.19,9.22-4.9,5.05-6.02.63-13.93-6.17-15.28-4.75-.94-15.44,5.07-20.35,6.24-20.7,4.96-41.4,8.92-61.94,14.8Z" fill="#fff" opacity=".26"/>
  <path d="M153.08,413.67c4.7,0,9.59.07,13.74.62,11.96,1.61,11.82,6.19,22.24,8.38,10,2.1,26.22,1.28,36.15,3.4-11.57,1.15-23.78,2.12-36.2,1.96-12.42-.17-25.18-1.67-31.08-4.43-1.99-.93-3.29-2.02-6.6-2.67-2.26-.44-5.15-.62-7.94-.78-10.66-.62-31.72-.38-25.5-3.86,4.87-2.73,26.14-2.6,35.19-2.61Z" fill="#23253a" opacity=".1"/>
  <path d="M552.96,500.65c-9.15,4.4-20.32,4.25-30.64,2.72-12.84-1.9-34.56-2.03-44.53-8.88-9.14-6.27-6.48-11.15,5.24-11.99,13.64-.98,20.92,10.41,33.2,13.25,6.33,1.46,12.96.56,19.4.73,1.66.04,18.14,3.78,17.34,4.17Z" fill="#23253a" opacity=".1"/>
  <path d="M104.76,343.51c-9.15,4.4-20.32,4.25-30.64,2.72-12.84-1.9-34.56-2.03-44.53-8.88-9.14-6.27-6.48-11.15,5.24-11.99,13.64-.98,20.92,10.41,33.2,13.25,6.33,1.46,12.96.56,19.4.73,1.66.04,18.14,3.78,17.34,4.17Z" fill="#23253a" opacity=".1"/>
  <path d="M472.25,417.5c-18.81,4.4-41.75,4.25-62.95,2.72-26.37-1.9-47.65-12.63-91.5-8.88-19.72,1.69-13.31-11.15,10.76-11.99,28.03-.98,42.99,10.41,68.21,13.25,13,1.46,26.62.56,39.85.73,3.42.04,37.27,3.78,35.63,4.17Z" fill="#23253a" opacity=".1"/>
  <path d="M637.75,584.31c-5.41.03-12,.03-18.1.02-7.58-.01-20.41-.02-26.3-.07-5.4-.05-3.83-.08,3.09-.09,8.06,0,12.36.08,19.61.1,3.74.01,7.65,0,11.46,0,.98,0,10.71.03,10.24.03Z" fill="#23253a" opacity=".1"/>
  <path d="M655.44,467.05c-6.86-.54-13.06-2.78-19.66-4.1-6.52-1.3-13.38-1.7-20.19-2.05-2.68-.14-6.59.63-5.76,2.26,11.83,6.27,30.23,5.29,42.04,11.58,2.25,1.2,4.27,2.66,7.01,3.34,2.21.55,4.66.51,7.02.38,7.98-.46,15.81-2.01,22.8-4.52,5.89-2.11,10.86-4.22,17.67-4.84,4.99-.45,13.69,1.16,18.17-.63,6.29-2.51,2.37-3.34-4.01-5.12-23.36-6.53-42.4,5.51-65.09,3.7Z" fill="#23253a" opacity=".1"/>
  <path d="M159.16,509.04c4.05,1.39,8.46,3.44,9.92,7.46-8.88,1.91-17.84-2.06-26.83-3.36-9.36-1.36-18.91.21-28.07,2.54-6.69,1.7-13.34,3.83-20.24,4.18-14.64.74-29.5-6.26-29.5-16.72s21.63,4.66,34.68,2.31c20.23-3.64,40.44-3.12,60.03,3.59Z" fill="#23253a" opacity=".1"/>
  <path d="M405.02,516.8c5.15,1.03,10.75,2.54,12.61,5.53-11.28,1.41-22.66-1.53-34.08-2.49-11.89-1.01-24.02.15-35.67,1.88-8.5,1.26-16.96,2.84-25.71,3.1-18.6.55-37.48-4.64-37.48-12.39s27.49,3.45,44.06,1.71c25.71-2.7,51.38-2.32,76.28,2.66Z" fill="#23253a" opacity=".1"/>
  <path d="M680.16,567.86c4.05,1.39,8.46,3.44,9.92,7.46-8.88,1.91-17.84-2.06-26.83-3.36-9.36-1.36-18.91.21-28.07,2.54-6.69,1.7-13.34,3.83-20.24,4.18-14.64.74-29.5-6.26-29.5-16.72s21.63,4.66,34.68,2.31c20.23-3.64,40.44-3.12,60.03,3.59Z" fill="#23253a" opacity=".1"/>
</svg>