<?xml version="1.0" encoding="UTF-8"?>
<svg id="a" data-name="Layer 1" xmlns="http://www.w3.org/2000/svg" xmlns:xlink="http://www.w3.org/1999/xlink" viewBox="0 0 750 611.9">
  <defs>
    <clipPath id="b">
      <ellipse cx="365.33" cy="529.32" rx="181.56" ry="82.59" fill="#f5f5f5"/>
    </clipPath>
    <clipPath id="c">
      <path d="M631.96,39.99C562.86,14.2,471.6,0,375,0S187.14,14.2,118.04,39.99C41.92,68.41,0,108.35,0,152.47c0,396.18,278.4,430.33,375,430.33s375-26.42,375-430.33c0-44.12-41.92-84.07-118.04-112.48Z" fill="#f5f5f5"/>
    </clipPath>
    <clipPath id="d">
      <path d="M0,152.47s22.28,150.25,380.72,138.93c358.44-11.32,369.28-138.93,369.28-138.93h67.77l-171.63,429.13-475.13,14.08L21.02,461.18,0,152.47Z" fill="#23253a" opacity=".07"/>
    </clipPath>
    <clipPath id="e">
      <ellipse cx="375" cy="145.41" rx="346.98" ry="129.5" fill="#23253a" opacity=".15"/>
    </clipPath>
    <clipPath id="f">
      <ellipse cx="375" cy="172.48" rx="346.98" ry="129.5" fill="#73a820"/>
    </clipPath>
  </defs>
  <g>
    <ellipse cx="365.33" cy="529.32" rx="181.56" ry="82.59" fill="#f5f5f5"/>
    <g clip-path="url(#b)">
      <path d="M425.51,624.54s24.87-22.49,0-27.89c-24.87-5.41-131.47,13.46-231.44-33.17l-27.23-30.43,440.4,12.31-116.87,96.2-64.86-17.02Z" fill="#23253a" opacity=".25"/>
    </g>
  </g>
  <g>
    <g>
      <path d="M631.96,39.99C562.86,14.2,471.6,0,375,0S187.14,14.2,118.04,39.99C41.92,68.41,0,108.35,0,152.47c0,396.18,278.4,430.33,375,430.33s375-26.42,375-430.33c0-44.12-41.92-84.07-118.04-112.48Z" fill="#f5f5f5"/>
      <g clip-path="url(#c)">
        <g>
          <path d="M0,152.47s22.28,150.25,380.72,138.93c358.44-11.32,369.28-138.93,369.28-138.93h67.77l-171.63,429.13-475.13,14.08L21.02,461.18,0,152.47Z" fill="#23253a" opacity=".07"/>
          <g clip-path="url(#d)">
            <path d="M127.15,534.84c346.14,34.23,536.63-93.47,508.5-248.3-3.46-19.03-16.79-26.31-34.44-24.8l170.84-160.56,45.71,352.02-267.76,184.71s-404.89-61.57-422.86-103.06Z" fill="#23253a" opacity=".1"/>
          </g>
        </g>
        <path d="M52.41,223.04c9.64,94.18,57.62,296.68,195.28,294.64,82.14-1.21-69.65-104.6,6.15-229.51-5.25-7.84-2.37-18.3-.6-21.46-92.04-12.67-96.08-50.69-188.12-63.35-8.97,0-14.41,10.13-12.71,19.68Z" fill="#fff" opacity=".26"/>
      </g>
    </g>
    <g>
      <ellipse cx="375" cy="145.41" rx="346.98" ry="129.5" fill="#23253a" opacity=".15"/>
      <g clip-path="url(#e)">
        <path d="M395.35,11.83s29.75,31.35,65.86,40.06c0,0-430.93,96.76-416.43,157.63C59.28,270.4,0,87.6,0,87.6c0,0,214.76-92.32,395.35-75.77Z" fill="#23253a" opacity=".08"/>
        <g>
          <ellipse cx="375" cy="172.48" rx="346.98" ry="129.5" fill="#73a820"/>
          <g clip-path="url(#f)">
            <path d="M339.35,15.91s-48.56,283.25,112.64,342.15l-357.72-32.55L-11.47,197.38l-13.95-115.03L339.35,15.91Z" fill="#23253a" opacity=".07"/>
          </g>
        </g>
        <path d="M174.79,251.18s172.84,53.94,412.34-15.33c239.49-69.27,54.34-155.73-107.96-186.93l27.47-12.69,173.56,59.91,54.58,63.96-100.74,114.81-282.51,26.77-176.74-50.51Z" fill="#23253a" opacity=".08"/>
        <path d="M51.11,232.74s64.12-108.53,367.27-106.39c286.17,2.03,312.3,164.76,312.3,164.76l-606.74,25.47-72.84-83.85Z" fill="#23253a" opacity=".08"/>
        <path d="M70.29,309.68s82.13-126.38,367.27-106.39c285.14,20,280.49,166.1,280.49,166.1l-574.93,24.14-72.84-83.85Z" fill="#23253a" opacity=".08"/>
      </g>
    </g>
    <path d="M332.16,71.82c183.31-7.6,261.56,33.66,266.73,23,3.95-8.16-87.61-48-271.75-39.09-134.2,6.49-207.57,44.05-196.04,53.99,6.4,5.52,73.67-32.61,201.06-37.89Z" fill="#fff" opacity=".24"/>
  </g>
</svg>