<?xml version="1.0" encoding="UTF-8"?>
<svg id="a" data-name="Layer 1" xmlns="http://www.w3.org/2000/svg" xmlns:xlink="http://www.w3.org/1999/xlink" viewBox="0 0 750 677.9">
  <defs>
    <clipPath id="b">
      <path d="M353.28,364.48s12.05-106.45-98.9-177.38C143.43,116.18,0,159.08,0,159.08c0,0,27.23,4.78,47.05,33,13.17,18.76,39.74,80.68,112.77,129.94,73.03,49.26,193.46,42.45,193.46,42.45Z" fill="#73a820"/>
    </clipPath>
    <clipPath id="c">
      <path d="M418.27,216.74s-3.49-83.27,44.35-142.59C510.45,14.83,606.27,0,606.27,0c0,0-44.49,26.24-51.33,78.71-6.84,52.47-45.19,135.75-136.67,138.03Z" fill="#73a820"/>
    </clipPath>
    <clipPath id="d">
      <path d="M439.8,488.59s-18.68-106.54,38.7-171.09c57.37-64.55,200.81-103.72,271.5-70.31,0,0-63.95,29.5-97.33,126.65-17.19,50.02-127.59,143.44-212.87,114.75Z" fill="#73a820"/>
    </clipPath>
    <clipPath id="e">
      <path d="M93.84,196.18s4.24,1.31,11.64,3.95c-4.03-1.34-7.95-2.66-11.64-3.95ZM554.81,358.7c27.47-13.68,60.47-16.87,102.27-21.18-8.07-2.36-53.09-1.76-90.71,10.45,34.21-30.67,74.05-56.5,119.67-71.28-25.83,6.78-55.26,18.75-85.59,36.82,8.66-25.77,3.36-45.82,3.36-45.82,1.78,12.15-9.51,49.52-9.51,49.52h.06c-23.31,14.47-47.04,32.6-69.99,54.8.34-13.39.34-53.63-11.14-71.01,0,0,13.26,57.1,0,82.11l.09-.06c-40.34,41.87-77.59,96.88-104.94,167.6-.57-37.07-6.39-81.23-22.24-131.17-4.53-14.25-10-27.49-16.22-39.87,9.45-38.87,60.13-212.67,152.99-317.54-30.66,21.44-73.95,81.6-114.61,174.4,21.37-142.73-23.45-208.52-23.45-208.52,36.67,90.22,15.71,229.5,10.59,239.75l.03-.02c-10.94,28.25-21.86,60.92-32.61,98.79-21.56-37.42-50.44-65.99-81.97-88.36-3.56-53.15-27.67-81.59-34.91-88.97,15.91,17.1,25,69.15,27.28,83.7-26.2-17.55-53.9-31.05-80.58-41.97-4.72-14.64-22.88-63.94-56.79-75.6,0,0,37.57,24.32,47,71.68-28.51-11.14-55.38-19.48-77.42-26.82,19.82,7.07,62.51,23.75,108.66,50.89-22.39-2.16-80.49-6.06-111.31,7.86,0,0,94.56-11.04,134.66,6.65l-.03-.03c16.83,11.04,33.68,23.47,49.65,37.31-23.04-1.66-73.72-3.26-115.31,10.05,0,0,87.37-11.52,131.34,4.63,30.27,29.37,55.84,64.34,69.58,105.25,39.35,117.12,7.1,201.3-7.74,236.79-3.66,8.75,2.86,18.37,12.34,18.37,5.53,0,10.46-3.4,12.45-8.56,5.07-13.14,14.01-41.06,17.35-81,0,0,.01,0,.02.01,0,0,24.6-68.44,75.05-142.51.19-.08,70.08-27.81,118.7-26.56,0,0-28.96-10.62-110.79,15.2,18.42-25.85,39.97-51.97,64.69-75.78ZM243.89,187.1s.55.47,1.5,1.42c-.49-.5-.99-.99-1.5-1.42ZM245.39,188.52c.17.17.41.42.6.62-.2-.21-.4-.42-.6-.62Z" fill="#4f6618"/>
    </clipPath>
  </defs>
  <g>
    <path d="M353.28,364.48s12.05-106.45-98.9-177.38C143.43,116.18,0,159.08,0,159.08c0,0,27.23,4.78,47.05,33,13.17,18.76,39.74,80.68,112.77,129.94,73.03,49.26,193.46,42.45,193.46,42.45Z" fill="#73a820"/>
    <g clip-path="url(#b)">
      <path d="M63.52,235s180.55,84.72,265.46,0l47.97,117.92-45.37,61.06s-221.45-39.91-226.11-40.77c-4.66-.87-41.96-138.21-41.96-138.21Z" fill="#23253a" opacity=".18"/>
    </g>
  </g>
  <g>
    <path d="M418.27,216.74s-3.49-83.27,44.35-142.59C510.45,14.83,606.27,0,606.27,0c0,0-44.49,26.24-51.33,78.71-6.84,52.47-45.19,135.75-136.67,138.03Z" fill="#73a820"/>
    <g clip-path="url(#c)">
      <path d="M433.81,114.92s-10.57,68.44,3.08,70.72c0,0,87.07-161.4,169.38-185.65l-75.11,220.63-105.71,46.39-48.49-25.86,56.86-126.24Z" fill="#23253a" opacity=".18"/>
    </g>
  </g>
  <g>
    <path d="M439.8,488.59s-18.68-106.54,38.7-171.09c57.37-64.55,200.81-103.72,271.5-70.31,0,0-63.95,29.5-97.33,126.65-17.19,50.02-127.59,143.44-212.87,114.75Z" fill="#73a820"/>
    <g clip-path="url(#d)">
      <path d="M442.94,345.35s46.31,73.12,115.59,34.22c69.28-38.9,119.22-108.1,191.47-132.38l-31.01,130.1-122.52,146.77-132.24,3.04-46.02-41.83,24.73-139.93Z" fill="#23253a" opacity=".18"/>
    </g>
  </g>
  <g>
    <path d="M93.84,196.18s4.24,1.31,11.64,3.95c-4.03-1.34-7.95-2.66-11.64-3.95ZM554.81,358.7c27.47-13.68,60.47-16.87,102.27-21.18-8.07-2.36-53.09-1.76-90.71,10.45,34.21-30.67,74.05-56.5,119.67-71.28-25.83,6.78-55.26,18.75-85.59,36.82,8.66-25.77,3.36-45.82,3.36-45.82,1.78,12.15-9.51,49.52-9.51,49.52h.06c-23.31,14.47-47.04,32.6-69.99,54.8.34-13.39.34-53.63-11.14-71.01,0,0,13.26,57.1,0,82.11l.09-.06c-40.34,41.87-77.59,96.88-104.94,167.6-.57-37.07-6.39-81.23-22.24-131.17-4.53-14.25-10-27.49-16.22-39.87,9.45-38.87,60.13-212.67,152.99-317.54-30.66,21.44-73.95,81.6-114.61,174.4,21.37-142.73-23.45-208.52-23.45-208.52,36.67,90.22,15.71,229.5,10.59,239.75l.03-.02c-10.94,28.25-21.86,60.92-32.61,98.79-21.56-37.42-50.44-65.99-81.97-88.36-3.56-53.15-27.67-81.59-34.91-88.97,15.91,17.1,25,69.15,27.28,83.7-26.2-17.55-53.9-31.05-80.58-41.97-4.72-14.64-22.88-63.94-56.79-75.6,0,0,37.57,24.32,47,71.68-28.51-11.14-55.38-19.48-77.42-26.82,19.82,7.07,62.51,23.75,108.66,50.89-22.39-2.16-80.49-6.06-111.31,7.86,0,0,94.56-11.04,134.66,6.65l-.03-.03c16.83,11.04,33.68,23.47,49.65,37.31-23.04-1.66-73.72-3.26-115.31,10.05,0,0,87.37-11.52,131.34,4.63,30.27,29.37,55.84,64.34,69.58,105.25,39.35,117.12,7.1,201.3-7.74,236.79-3.66,8.75,2.86,18.37,12.34,18.37,5.53,0,10.46-3.4,12.45-8.56,5.07-13.14,14.01-41.06,17.35-81,0,0,.01,0,.02.01,0,0,24.6-68.44,75.05-142.51.19-.08,70.08-27.81,118.7-26.56,0,0-28.96-10.62-110.79,15.2,18.42-25.85,39.97-51.97,64.69-75.78ZM243.89,187.1s.55.47,1.5,1.42c-.49-.5-.99-.99-1.5-1.42ZM245.39,188.52c.17.17.41.42.6.62-.2-.21-.4-.42-.6-.62Z" fill="#4f6618"/>
    <g clip-path="url(#e)">
      <path d="M353.66,654.85s22.72,8.38,30.5-10.18c7.78-18.56,39.02-140.21,98.04-198.83l-23.8,188.65-51.49,75.44-65.26-19.76,12.01-35.33Z" fill="#23253a" opacity=".31"/>
      <path d="M408.4,550.65l-6.49,9.57s5.79-43.84-31.97-180.61c0,0,53.48-234.2,152.99-317.54l-128.49,320.57,13.96,168.01Z" fill="#23253a" opacity=".31"/>
    </g>
  </g>
  <path d="M121.1,187.24c27.46-2.17,55.43,2.38,80.78,13.15,5.73,2.44,14.34,4.08,16.48-1.77,1.74-4.75-3.19-9.13-7.56-11.67-26.78-15.58-56.95-25.19-87.75-28.35-12.9-1.32-84.98-7.53-69.33,14.79,9.59,13.67,53.63,14.93,67.37,13.84Z" fill="#fff" opacity=".26"/>
  <path d="M482.63,328.18c1.36,10.77,14.95,16.17,25.42,13.3,10.46-2.87,18.4-11.14,26.23-18.65,42.88-41.15,157.29-71.62,157.29-77.93s-88.12-4.04-193.65,64.45c-5.89,3.82-16.17,11.87-15.29,18.84Z" fill="#fff" opacity=".26"/>
  <path d="M461.95,83.43c-1.5,2.11-2.52,5.8-.07,6.65,1.59.55,3.13-.87,4.25-2.13,10.07-11.47,21.5-21.75,33.95-30.57,6.24-4.42,12.74-8.6,19.52-12.14,1.17-.61,2.52-1.14,3.93-1.66,4.35-1.62,2.92-8.14-1.7-7.76-6.51.55-13.62,3.15-17.39,5.43-16.66,10.05-31.32,26.48-42.49,42.18Z" fill="#fff" opacity=".26"/>
</svg>