<?xml version="1.0" encoding="UTF-8"?>
<svg id="a" data-name="Layer 1" xmlns="http://www.w3.org/2000/svg" xmlns:xlink="http://www.w3.org/1999/xlink" viewBox="0 0 441.37 750">
  <defs>
    <clipPath id="b">
      <path d="M437.11,79.76c0-41.7-96.9-75.5-216.43-75.5S4.26,38.06,4.26,79.76c0,1.9.27,3.77.66,5.63.02,0,.03.01.05.02,14.38,114.1,73.78,586.9,73.78,610.81,0,27.35,63.55,49.51,141.94,49.51s141.94-22.17,141.94-49.51c0-23.97,59.69-499.05,73.88-611.68.05-.02.09-.04.14-.06.28-1.56.46-3.13.46-4.72Z" fill="#d2d2d2"/>
    </clipPath>
    <clipPath id="c">
      <path d="M24.93,146.01l-5.29-40.4c-1.12-8.54,2.38-16.99,9.17-22.29,24.17-18.89,88.71-59.43,194.11-55.97,101.8,3.34,165.48,34.32,191.49,50.02,8.26,4.99,12.79,14.34,11.55,23.91l-17.67,135.46c-7.04,1.63-15.53-6.84-19.14-13.1s-6.98-13.65-13.78-16.11c-5.68-2.06-12.24.22-16.7,4.3-4.46,4.08-7.19,9.69-9.47,15.28-26.24,64.21-6.5,138.87-26.82,205.35-1.05,3.42-3.53,6.41-6.93,7.56-7.05,2.37-11.91-4.64-14.49-10.78-17.64-41.81-12.73-90.56-30.85-132.15-6.86-15.74-18.1-31.21-39.28-29.64-10.74.8-20.68,6.08-28.1,13.88-15.72,16.54-19.57,39.49-23,61.41l-13.7,87.34c-.51,3.28-1.52,6.5-3.3,9.3-6.92,10.88-17.33,6.42-21.72-.69-2.83-4.58-3.7-10.07-4.5-15.39-6.74-44.39-13.48-88.79-20.21-133.18-1.8-11.86-4.33-24.99-14.01-32.1-9.82-7.21-27.41,43.71-34.35,34.99-7.59-9.53-16.67-96.66-31.84-51.59l-11.16-95.41Z" fill="#e3e5cf"/>
    </clipPath>
    <clipPath id="d">
      <path d="M215.65,75.42c3.02,3.05,5.63,6.63,9.33,8.81,3.7,2.18,9.03,2.47,11.82-.79,1.54-1.79,2.1-4.39,4-5.79,3.68-2.69,8.48.97,12.05,3.79,7.22,5.7,16.63,8.55,25.8,7.82,9.17-.73,18.01-5.04,24.24-11.82,1.68-1.82,3.22-3.93,3.59-6.38.38-2.53-.54-5.06-1.44-7.46-1.57-4.17-3.26-8.53-6.62-11.46-5.41-4.73-13.38-4.44-20.45-5.77-17.74-3.34-31.04-17.58-43.45-30.69-2.61-2.76-6.14-5.75-9.75-4.58-1.58.51-2.81,1.76-3.94,2.99-9.72,10.55-17.47,22.88-22.81,36.19-1.83,4.56-4.93,10.26-.57,14.09,2.19,1.93,6.39,2.58,9.01,4.05,3.36,1.89,6.47,4.24,9.18,6.98Z" fill="#fff"/>
    </clipPath>
    <clipPath id="e">
      <path d="M120.45,50.81c2.81-3.7,6.17-7.62,10.77-8.25,4.33-.6,8.42,1.89,12.02,4.36,22.53,15.39,43.03,33.74,60.81,54.42-8.72-.47-16.86,3.9-25.07,6.89-8.21,2.99-18.23,4.38-24.99-1.15-6.02-4.93-7.95-14.27-15.02-17.51-10.39-4.77-33.63,14.74-40.66,1.27-5.03-9.64,16.82-33.04,22.14-40.03Z" fill="#fff"/>
    </clipPath>
    <clipPath id="f">
      <path d="M287.83,103.62s44.49-39.15,61.09-40.93c16.61-1.78,49.23,36.18,49.23,36.18,0,0-21.35,6.52-34.4,15.42-13.05,8.9-27.88,17.79-34.99,13.05-7.12-4.75-40.93-23.73-40.93-23.73Z" fill="#fff"/>
    </clipPath>
    <clipPath id="g">
      <path d="M150.58,736.27v-283.39c0-43.01,32.29-77.88,72.13-77.88h0c39.84,0,72.13,34.87,72.13,77.88v299.41h-147.26l3-16.02Z" fill="#23253a" opacity=".15"/>
    </clipPath>
    <clipPath id="h">
      <path d="M321.36,750v-334.99c0-43.01,32.29-77.88,72.13-77.88h0c39.84,0,72.13,34.87,72.13,77.88v299.41l-147.26,51.6,3-16.02Z" fill="#23253a" opacity=".25"/>
    </clipPath>
    <clipPath id="i">
      <path d="M-25.6,698.4v-283.39c0-43.01,32.29-77.88,72.13-77.88h0c39.84,0,72.13,34.87,72.13,77.88v347.99l-147.26-48.58,3-16.02Z" fill="#23253a" opacity=".25"/>
    </clipPath>
    <clipPath id="j">
      <path d="M220.69,172.51s-12.72,443.52-194.59,451.43l11.07,159.73,381.14,71.17,16.27-754.98s-7.98,79.92-213.89,72.65Z" fill="#23253a" opacity=".18"/>
    </clipPath>
  </defs>
  <g>
    <path d="M437.11,79.76c0-41.7-96.9-75.5-216.43-75.5S4.26,38.06,4.26,79.76c0,1.9.27,3.77.66,5.63.02,0,.03.01.05.02,14.38,114.1,73.78,586.9,73.78,610.81,0,27.35,63.55,49.51,141.94,49.51s141.94-22.17,141.94-49.51c0-23.97,59.69-499.05,73.88-611.68.05-.02.09-.04.14-.06.28-1.56.46-3.13.46-4.72Z" fill="#d2d2d2"/>
    <g clip-path="url(#b)">
      <path d="M-5.59,74.93s13.99,49.08,78.81,60.07c64.82,10.99,135.29,20.26,135.29,20.26,0,0-45.98-137.66-18.51-157.97C189.99-2.71,7.09-2.71,0,28.94c-7.09,31.65-5.59,45.98-5.59,45.98Z" fill="#23253a" opacity=".1"/>
      <path d="M24.93,146.01l61.31,524.22c1.06,9.05,6.81,16.85,15.17,20.47,33.76,14.64,126.91,45.38,236.67-.5,8.39-3.51,14.22-11.32,15.36-20.34l66.77-527.11c.82-6.46-6.18-11.01-11.73-7.6-24.02,14.74-81.15,40.02-187.78,37.36-106.91-2.66-161.92-22.98-184.61-34.36-5.52-2.77-11.87,1.73-11.15,7.86Z" fill="#73a820"/>
      <path d="M24.93,284.49l-5.29-40.4c-1.12-8.54,2.38-16.99,9.17-22.29,24.17-18.89,88.71-59.43,194.11-55.97,101.8,3.34,165.48,34.32,191.49,50.02,8.26,4.99,12.79,14.34,11.55,23.91l-17.67,135.46c-7.04,1.63-15.53-6.84-19.14-13.1s-6.98-13.65-13.78-16.11c-5.68-2.06-12.24.22-16.7,4.3s-7.19,9.69-9.47,15.28c-26.24,64.21-6.5,138.87-26.82,205.35-1.05,3.42-3.53,6.41-6.93,7.56-7.05,2.37-11.91-4.64-14.49-10.78-17.64-41.81-12.73-90.56-30.85-132.15-6.86-15.74-18.1-31.21-39.28-29.64-10.74.8-20.68,6.08-28.1,13.88-15.72,16.54-19.57,39.49-23,61.41l-13.7,87.34c-.51,3.28-1.52,6.5-3.3,9.3-6.92,10.88-17.33,6.42-21.72-.69-2.83-4.58-3.7-10.07-4.5-15.39-6.74-44.39-13.48-88.79-20.21-133.18-1.8-11.86-4.33-24.99-14.01-32.1-9.82-7.21-27.41,43.71-34.35,34.99-7.59-9.53-16.67-96.66-31.84-51.59l-11.16-95.41Z" fill="#e3e5cf" opacity=".25"/>
      <g>
        <path d="M24.93,146.01l-5.29-40.4c-1.12-8.54,2.38-16.99,9.17-22.29,24.17-18.89,88.71-59.43,194.11-55.97,101.8,3.34,165.48,34.32,191.49,50.02,8.26,4.99,12.79,14.34,11.55,23.91l-17.67,135.46c-7.04,1.63-15.53-6.84-19.14-13.1s-6.98-13.65-13.78-16.11c-5.68-2.06-12.24.22-16.7,4.3-4.46,4.08-7.19,9.69-9.47,15.28-26.24,64.21-6.5,138.87-26.82,205.35-1.05,3.42-3.53,6.41-6.93,7.56-7.05,2.37-11.91-4.64-14.49-10.78-17.64-41.81-12.73-90.56-30.85-132.15-6.86-15.74-18.1-31.21-39.28-29.64-10.74.8-20.68,6.08-28.1,13.88-15.72,16.54-19.57,39.49-23,61.41l-13.7,87.34c-.51,3.28-1.52,6.5-3.3,9.3-6.92,10.88-17.33,6.42-21.72-.69-2.83-4.58-3.7-10.07-4.5-15.39-6.74-44.39-13.48-88.79-20.21-133.18-1.8-11.86-4.33-24.99-14.01-32.1-9.82-7.21-27.41,43.71-34.35,34.99-7.59-9.53-16.67-96.66-31.84-51.59l-11.16-95.41Z" fill="#e3e5cf"/>
        <g clip-path="url(#c)">
          <path d="M4.91,207.71c9.23-6.96,18.71-14.05,29.79-17.34,11.08-3.29,24.25-2.04,32.45,6.1,6.45,6.41,9.61,16.61,18.06,19.98,7.12,2.84,15.34-.56,21.15-5.56,5.81-5.01,10.14-11.53,15.86-16.64,15.73-14.04,39.7-15.06,59.82-8.76,20.12,6.3,37.62,18.76,55.65,29.69,18.03,10.93,37.85,20.7,58.93,20.61,20.25-.09,39.36-9.3,56.4-20.24,17.04-10.94,32.92-23.84,51.11-32.74,16.94-8.29,36.59-13.69,48.1-28.63,13.43-17.43,10.84-43.69-2.02-61.56-12.86-17.86-33.9-28.29-55.28-33.49s-35.56-10.87-57.45-13.14c-42.66-4.42-92.76-10.07-135.65-10.3-58.34-.31-107.47,19.44-157.01,50.24C-6.13,117.61-15.18,176.1,3.96,186.46c-2.61,8.66,0,12.25.96,21.25Z" fill="#fff" opacity=".25"/>
          <path d="M100.23,119.28c-2.39,1.9-4.33,5.06-3.26,7.91,1.31,3.48,6.39,4.06,9.52,2.04,3.13-2.02,4.77-5.63,6.33-9.01,3.92-8.49,8.63-17.12,16.44-22.26s19.54-5.46,25.6,1.66c2.44,2.86,3.75,6.6,6.44,9.23,3.54,3.47,8.88,4.41,13.83,4.24,4.96-.17,9.86-1.28,14.82-1.19,17.52.32,31.49,15.09,48.58,19,1.85.42,4.34.4,5.03-1.37.48-1.25-.28-2.6-1.03-3.7-18.84-27.76-48.52-47.48-80.91-55.69-15.36-3.89-31.3-5.51-46.86-1.83-9.29,2.2-25.23,7.38-26.28,18.96-.66,7.34,5.74,14.18,12.22,16.33,4.02,1.34,9.25.14,8.95,6.18-.24,4.85-6.23,6.97-9.42,9.51Z" fill="#23253a" opacity=".1"/>
          <path d="M194.96,61.23c-.02,7.47,5.87,13.47,11.34,18.55,2.21,2.06,4.89,4.27,7.87,3.81,3.72-.57,5.89-5.02,9.6-5.64,2.62-.44,5.17,1.21,6.94,3.19s3.11,4.36,5.09,6.13c3.09,2.76,7.35,3.72,11.41,4.57,8.68,1.83,17.38,3.67,26.2,4.66,14.7,1.66,29.66.95,44.14-2.08,2.7-.57,5.66-1.4,7.14-3.72,2.24-3.5-.12-8.1-2.86-11.23-13.51-15.47-35.36-20.13-55.7-22.96-19.67-2.74-39.63-4.6-59.36-2.38-3.08.35-9.22,5.41-11.83,7.1Z" fill="#23253a" opacity=".1"/>
          <path d="M320.17,131.32c1.83,1.78,3.74,3.62,6.16,4.42,5.01,1.67,10.18-1.5,14.81-4.04,20.42-11.21,44.69-11.89,67.72-15.36,5.9-.89,12.48-2.43,15.59-7.52,1.8-2.95,2.07-6.55,2.29-10,.27-4.25.35-9.05-2.61-12.11-2-2.07-4.97-2.85-7.79-3.44-20.17-4.24-41.33-3.67-61.24,1.66-14.88,3.99-28.9,10.55-42.49,17.71-5.61,2.96-14.6,5.31-9.32,12.24,4.58,6.01,11.45,11.15,16.87,16.44Z" fill="#23253a" opacity=".1"/>
          <path d="M436.02,94.48c-4.23-11.4-14.1-20.59-24.22-27.88-33.29-23.98-73.96-37.55-114.98-38.38,5.4,3.25,10.9,6.59,15,11.37,4.1,4.79,6.64,11.37,5.06,17.47-2.29,8.85-11.92,13.52-20.76,15.84-19.44,5.11-40.36,4.45-59.44-1.89-14.14-4.69-29.05-12.49-43.08-7.5-9.19,3.27-17.65,11.9-27.02,9.18,2.71,5.44,8.69,8.27,14.12,11.01,5.43,2.74,11.2,6.41,12.65,12.31,1.45,5.9-5.1,13.1-10.26,9.89,9.95,5.26,15.54,17.66,12.9,28.6-2.64,10.95-13.27,19.42-24.53,19.56-13.44.17-27.21,1.34-40.6.26,0,0,252.42,20.49,305.17-59.86Z" fill="#23253a" opacity=".16"/>
        </g>
      </g>
      <g>
        <path d="M215.65,75.42c3.02,3.05,5.63,6.63,9.33,8.81,3.7,2.18,9.03,2.47,11.82-.79,1.54-1.79,2.1-4.39,4-5.79,3.68-2.69,8.48.97,12.05,3.79,7.22,5.7,16.63,8.55,25.8,7.82,9.17-.73,18.01-5.04,24.24-11.82,1.68-1.82,3.22-3.93,3.59-6.38.38-2.53-.54-5.06-1.44-7.46-1.57-4.17-3.26-8.53-6.62-11.46-5.41-4.73-13.38-4.44-20.45-5.77-17.74-3.34-31.04-17.58-43.45-30.69-2.61-2.76-6.14-5.75-9.75-4.58-1.58.51-2.81,1.76-3.94,2.99-9.72,10.55-17.47,22.88-22.81,36.19-1.83,4.56-4.93,10.26-.57,14.09,2.19,1.93,6.39,2.58,9.01,4.05,3.36,1.89,6.47,4.24,9.18,6.98Z" fill="#fff"/>
        <g clip-path="url(#d)">
          <path d="M216.25,23.63c1.9-2.97,5.11-6.33,8.33-4.89,1.4.62,2.27,2.01,3.06,3.31,13.62,22.52,27.24,45.05,40.86,67.57,1.14,1.89,2.33,4.05,1.75,6.18-.77,2.83-4.13,3.95-7.01,4.47-15.46,2.78-31.67,1.26-46.34-4.36-6.78-2.6-13.54-6.33-17.36-12.51-2.79-4.51-4.01-10.21-4.3-15.47-.29-5.16,2.38-9.56,4.53-14.2,4.82-10.38,10.33-20.45,16.49-30.1Z" fill="#f2f4e4" opacity=".8"/>
          <path d="M276.88,93.11s-36.63-54.26-27.82-52.33c8.81,1.93,28.18,7.31,38.77,9.34,10.59,2.03,19.89,8.56,19.89,8.56l5.51,21.08-36.36,13.35Z" fill="#f2f4e4" opacity=".8"/>
        </g>
      </g>
      <g>
        <path d="M120.45,50.81c2.81-3.7,6.17-7.62,10.77-8.25,4.33-.6,8.42,1.89,12.02,4.36,22.53,15.39,43.03,33.74,60.81,54.42-8.72-.47-16.86,3.9-25.07,6.89-8.21,2.99-18.23,4.38-24.99-1.15-6.02-4.93-7.95-14.27-15.02-17.51-10.39-4.77-33.63,14.74-40.66,1.27-5.03-9.64,16.82-33.04,22.14-40.03Z" fill="#fff"/>
        <g clip-path="url(#e)">
          <path d="M138.9,96.64c.27.85.54,1.76.35,2.63-.39,1.75-2.36,2.58-4.08,3.07-6.9,1.98-14.22,3.04-21.28,1.73-5.5-1.02-20.29-7.04-16.63-14.83,1.77-3.76,6.43-6.88,9.08-10.07,3.38-4.06,6.55-8.3,9.46-12.7,1.17-1.77,2.34-3.6,4.04-4.88,1.7-1.27,4.08-1.88,5.97-.92,2.02,1.02,2.87,3.4,3.55,5.56,3.18,10.14,6.35,20.27,9.53,30.41ZM205.16,95.16c-13.75-18.05-30.28-34.46-50.44-44.88-2.12-1.1-4.33-2.14-6.7-2.4-5.96-.65-8.8,4.26-7.55,9.6,1.39,5.95,6.43,11.07,10.47,15.35,6.82,7.22,13.68,14.48,21.5,20.6,7.82,6.13,16.71,11.13,26.42,13.25,3.01.66,6.75.77,8.55-1.74,2.09-2.93-.07-6.92-2.25-9.79ZM183.77,108.04c-11.1-10.68-22.21-21.36-33.31-32.03-2.37-2.28-5.02-4.69-8.3-4.98,1.1,7.89,2.48,15.81,3.23,23.74.37,3.93-.12,8.46,1.61,12.12,4.95,10.47,22.1,13.77,32.24,12.1,3.59-.59,7.87-2.83,7.45-6.45-.21-1.81-1.61-3.23-2.92-4.5Z" fill="#f2f4e4" opacity=".8"/>
        </g>
      </g>
      <g>
        <path d="M287.83,103.62s44.49-39.15,61.09-40.93c16.61-1.78,49.23,36.18,49.23,36.18,0,0-21.35,6.52-34.4,15.42-13.05,8.9-27.88,17.79-34.99,13.05-7.12-4.75-40.93-23.73-40.93-23.73Z" fill="#fff"/>
        <g clip-path="url(#f)">
          <path d="M339.09,73.3c2.32-1.1,4.97.87,4.51,3.39-.63,3.52-1.57,7-2.5,10.47-3.4,12.64-6.8,25.28-10.2,37.92-.87,3.23-1.9,6.71-4.6,8.7-3.54,2.61-8.48,1.65-12.75.56-5.96-1.51-11.97-3.05-17.43-5.87-8.53-4.4-20.01-17.46-12.56-27.49,2.89-3.9,9.06-5.72,13.24-7.7,7.38-3.49,14.77-6.98,22.15-10.47l20.13-9.52Z" fill="#f2f4e4" opacity=".54"/>
          <path d="M344.5,101.03c1.84-2.54,3.96-5.1,4.38-8.2.39-2.9-.78-5.76-1.02-8.67-.25-2.91,1.02-6.46,3.9-6.94,1.24-.21,2.49.21,3.68.63,6.06,2.13,12.12,4.25,18.17,6.38,9.3,3.27,19.1,6.88,25.26,14.57,1.24,1.55,2.35,3.44,2.06,5.4-.34,2.22-2.33,3.76-4.17,5.05-17.01,11.92-35.14,23.95-55.8,26.08-16.7,1.73-.56-28.64,3.55-34.31Z" fill="#f2f4e4" opacity=".54"/>
        </g>
      </g>
      <path d="M73.79,689.58s67.58,35.51,141.01,35.51,125.05-22.58,146.38-40.96c21.33-18.39,8.81,76.51,8.81,76.51l-260.53,47.82-61.82-104.6,26.15-14.27Z" fill="#fff"/>
      <g>
        <path d="M150.58,736.27v-283.39c0-43.01,32.29-77.88,72.13-77.88h0c39.84,0,72.13,34.87,72.13,77.88v299.41h-147.26l3-16.02Z" fill="#23253a" opacity=".15"/>
        <g clip-path="url(#g)">
          <path d="M192.5,740.57v-283.39c0-43.01,32.29-77.88,72.13-77.88h0c39.84,0,72.13,34.87,72.13,77.88v299.41h-147.26l3-16.02Z" fill="#23253a" opacity=".1"/>
        </g>
      </g>
      <g>
        <path d="M321.36,750v-334.99c0-43.01,32.29-77.88,72.13-77.88h0c39.84,0,72.13,34.87,72.13,77.88v299.41l-147.26,51.6,3-16.02Z" fill="#23253a" opacity=".25"/>
        <g clip-path="url(#h)">
          <path d="M363.28,702.7v-283.39c0-43.01,32.29-77.88,72.13-77.88h0c39.84,0,72.13,34.87,72.13,77.88v299.41h-147.26l3-16.02Z" fill="#23253a" opacity=".1"/>
        </g>
      </g>
      <g>
        <path d="M-25.6,698.4v-283.39c0-43.01,32.29-77.88,72.13-77.88h0c39.84,0,72.13,34.87,72.13,77.88v347.99l-147.26-48.58,3-16.02Z" fill="#23253a" opacity=".25"/>
        <g clip-path="url(#i)">
          <path d="M16.32,702.7v-283.39c0-43.01,32.29-77.88,72.13-77.88h0c39.84,0,72.13,34.87,72.13,77.88v299.41H13.33l3-16.02Z" fill="#23253a" opacity=".1"/>
        </g>
      </g>
      <g>
        <path d="M220.69,172.51s-12.72,443.52-194.59,451.43l11.07,159.73,381.14,71.17,16.27-754.98s-7.98,79.92-213.89,72.65Z" fill="#23253a" opacity=".18"/>
        <g clip-path="url(#j)">
          <path d="M50.68,674.84s196.07,27.08,236.36-182.45c40.29-209.52,27.63-377.69,27.63-377.69,0,0,118.64,10.97,142.73-68.56,64.05-4.3-45.54,757.3-87.45,762.67-5.1.65-300.74-21.38-300.74-21.38l-18.53-112.6Z" fill="#23253a" opacity=".18"/>
        </g>
      </g>
    </g>
  </g>
  <path d="M12.86,100.77c2.23,7,7.43,13.04,10.28,15.11,35.87,26.1,110,43.64,197.55,43.64,96.13,0,177.75-13.66,208.57-59.63-25.25,31.92-109.03,55.37-208.57,55.37S38.94,132.24,12.86,100.77Z" fill="#fff"/>
  <path d="M441.37,79.76C441.37,35.03,344.44,0,220.69,0S0,35.03,0,79.76c0,.17.03.34.03.52,0,0,0,.01,0,.02s0,.04,0,.05c.04,2.12.33,4.21.79,6.28,7.99,63.31,73.66,584.34,73.66,609.6,0,30.16,64.22,53.78,146.2,53.78s146.2-23.62,146.2-53.78c0-25.27,65.67-546.29,73.66-609.6.47-2.07.75-4.16.79-6.28,0,0,0-.04,0-.05,0,0,0-.02,0-.03,0-.17.03-.34.03-.51ZM362.63,696.22c0,27.35-63.55,49.51-141.94,49.51s-141.94-22.17-141.94-49.51C78.75,671.89,4.99,85.57,4.97,85.41c-.02,0-.71-3.76-.71-5.65C4.26,38.06,101.16,4.26,220.69,4.26s216.43,33.8,216.43,75.5c0,1.59-74.49,592.14-74.49,616.46Z" fill="#fff"/>
  <path d="M75.88,589.91c1.81,9.7,10.03,7.24,9.82-3.26-.07-3.68-27.86-328.67-28.34-346.3s2.91-36.85,15.97-48.69c12.79-11.6,31.54-13.29,48.81-13.28,54.6.03,127.01,12.08,211.16-13.55,2.25-.69,1.58-4.05-.76-3.75-50.55,6.31-108.09,14.46-210.73,1.28-28.87-3.71-58.31-11.79-80.72-30.37-5.23-4.34-20.84-16.09-25.36-4.59-2.33,5.92,58.31,452.67,60.15,462.51Z" fill="#fff"/>
  <path d="M150.58,641.33c2.92.06,2.9-184.57,2.9-184.57,0,0,1.2-34.8,22.67-59.55,13.95-15.27,30.18-19.06,30.18-20.17s-17.98,1.29-34.46,14.71c-13.05,10.63-25.16,28.89-26.62,60.15-1.69,36.29,2.4,189.37,5.32,189.43Z" fill="#fff"/>
  <path d="M321.32,601.52c2.64.06,1.84-185.35,1.84-185.35,0,0,3.55-36.52,28.62-60.84,13.21-12.9,27.99-15.41,27.99-16.99s-17.16.63-33.85,11.64c-14.91,9.84-29.43,27.96-30.98,61.33-1.69,36.29,3.74,190.15,6.38,190.21Z" fill="#fff"/>
  <path d="M67.59,369.62s-1.11-24.76,14.94-15.52c25.16,14.47,29.64,37.73,32.22,35.55,3.21-2.71-17.97-40.08-44.43-49.31-2.7-.94-4.95-1.86-5.6-5.37,0,0-9.93,22.65,2.86,34.65Z" fill="#fff"/>
</svg>