<?xml version="1.0" encoding="UTF-8"?>
<svg id="a" data-name="Layer 1" xmlns="http://www.w3.org/2000/svg" xmlns:xlink="http://www.w3.org/1999/xlink" viewBox="0 0 394.66 750">
  <defs>
    <clipPath id="b">
      <path d="M312.3,202.68l17.42-190.96c.51-5.59,4.71-10.15,10.24-11.12,8.39-1.47,16.38-.22,24.01,3.52,4.65,2.29,7.26,7.38,6.65,12.52l-23.3,196.13-35.02-10.1Z" fill="#f2f4e4"/>
    </clipPath>
    <clipPath id="c">
      <path d="M388.55,239.12c-6.51-58.62-65.6-80.02-65.6-80.02-14.61-7.76-3.2-15.98-9.13-29.67-5.93-13.7-33.33-15.52-33.33-15.52,0,0,1.83-47.94-31.96-55.7-33.78-7.76-54.78-46.11-54.78-46.11-16.89,29.67-54.78,41.09-54.78,41.09-11.87,6.85-11.87,37.44-11.87,37.44-8.22,13.7-35.15,12.78-35.15,12.78-13.7,5.93-8.22,42-8.22,42-26.93-1.37-32.77,21.83-32.77,21.83-3.52,31.64-28.12,42.19-28.12,42.19,0,0-13.22,10.97-16.74,29.72l20.15,229.02c.54,6.15,3.42,11.75,8.11,15.77,12.34,10.58,19.99,25.31,21.57,41.48l17.28,147.41c1.3,11.08,8.16,20.69,18.16,25.63,19.92,9.85,56.7,20,105.98,21.32,48.94,1.31,84.91-11.61,104.95-21.81,10.79-5.49,18.04-16.06,19.25-28.1l15.53-155.09c1.1-13.13,7.85-25.11,18.51-32.86,4.73-3.44,7.8-8.75,8.43-14.57l24.3-225.89c.19-1.19.28-2.03.25-2.33Z" fill="#73a820"/>
    </clipPath>
    <clipPath id="d">
      <path d="M36.12,322.1c-14.67,4.83-22.75-56.92-30.02-82.96,3.52-18.75,16.74-29.72,16.74-29.72,0,0,24.61-10.55,28.12-42.19,0,0,5.83-23.2,32.77-21.83,0,0-5.48-36.07,8.22-42,0,0,26.94.91,35.15-12.78,0,0,0-30.59,11.87-37.44,0,0,37.89-11.41,54.78-41.09,0,0,21,38.35,54.78,46.11,33.78,7.76,31.96,55.7,31.96,55.7,0,0,27.39,1.83,33.33,15.52,5.93,13.7-5.48,21.91,9.13,29.67,0,0,59.09,21.4,65.6,80.02.46,4.11-20.6,95.24-25.62,104.37-5.02,9.13-19.44-.41-19.44-.41,0,0-29.12-61.85-47.84-49.53-18.72,12.33-65.38,62.31-78.62,61.85-13.24-.46-33.37-32.98-57.57-32.06-24.2.91-58.85,37.09-73,30.24-14.15-6.85,4.91-78.47-50.34-31.49Z" fill="#f2f4e4"/>
    </clipPath>
    <clipPath id="e">
      <path d="M174.37,207.77c22.04,6.87,45.94,2.81,68.21-3.28,22.26-6.09,44.29-14.21,67.34-15.43,12.69-.67,26.92,1.54,34.81,11.5,6.75,8.53,6.98,20.84,3.23,31.05-3.75,10.21-15.9,22.95-26.95,30.52,19.92-2.85,50.88-11.62,70.9-23.79,3.03-1.84,6.99-2.37,8.99-5.3,3.4-4.99.39-11.71-2.75-16.87-9.96-16.37-21.14-32-33.41-46.72-9.88-11.87-26.32-36.34-41.39-41.38-14.25-4.77-31.63,19.01-41.77,26.91-14.86,11.58-30.84,21.73-47.64,30.28-18.96,9.64-38.97,17.24-59.58,22.53Z" fill="#23253a" opacity=".09"/>
    </clipPath>
    <clipPath id="f">
      <path d="M205.48,121.51c32.69-1.45,63.55-23.55,75.45-54.03-.52,1.34,4.88,11.55,5.38,13.57,1.32,5.32,1.86,10.86,1.58,16.34-.65,12.87-4.28,15.41-15.78,19.77-21.12,8.01-44.66,9.62-66.63,4.34Z" fill="#23253a" opacity=".09"/>
    </clipPath>
    <clipPath id="g">
      <path d="M44.78,499.33s158.57,49.31,314.34-12.52c0,0-28.61,303.05-31.5,304.98s-306.97-29.92-306.97-29.92l24.13-262.53Z" fill="#23253a" opacity=".18"/>
    </clipPath>
  </defs>
  <g>
    <path d="M312.3,202.68l17.42-190.96c.51-5.59,4.71-10.15,10.24-11.12,8.39-1.47,16.38-.22,24.01,3.52,4.65,2.29,7.26,7.38,6.65,12.52l-23.3,196.13-35.02-10.1Z" fill="#f2f4e4"/>
    <g clip-path="url(#b)">
      <path d="M326.58,4.98c18.47,8.86,38.7,19.5,47.21,38.14,8.51,18.64,10.26,40.27,4.87,60.04-7.94-32.11-38.46-56.27-66.35-61.83.05,12.78-1.03,29.43-3.62,41.94,21.44,8.22,42.92,24.87,53.94,45.02,4.91,8.97,3.22,30.66-3.12,38.68-7.81-10.77-34.1-26.38-47.21-28.67-7.37-1.29-2.28,7.95-5.73,14.59-2.19,4.22-1.37,9.31-.49,13.99,1.98,10.54,4.02,21.23,8.85,30.8,4.83,9.57,12.9,18.04,23.26,20.81,13.57,3.63,27.9-3.15,38.59-12.26,19.51-16.64,31.22-41.02,36.65-66.08,5.43-25.06,5.07-50.99,3.81-76.6-.87-17.62-2.19-35.44-7.71-52.19-2.91-8.82-7.03-17.36-13.18-24.31s-14.48-12.23-23.66-13.58c-10.76-1.59-21.55,2.21-31.47,6.68-6.92,3.12-13.81,6.69-19.17,12.07-5.36,5.38-9.04,12.88-8.26,20.43,1.01-.51,2.02-1.01,3.03-1.52,3.09-1.55,6.91-4.18,9.75-6.14Z" fill="#5b3d29"/>
      <path d="M309.07,148.32s29.1,11.17,36.32-28.9c7.22-40.07,19.55-121.76,19.55-121.76l27.36,14.43-5.78,133.14-39.69,60.49-37.76-57.41Z" fill="#23253a" opacity=".18"/>
      <path d="M306.37,141s19.65,8.86,27.36-16.95c7.71-25.82,11.66-44.7,11.66-128.69l32.26-5.39,30.82,22.14,6.55,61.09-40.07,125.22h-64.35l-4.24-57.41Z" fill="#23253a" opacity=".18"/>
    </g>
  </g>
  <path d="M197.33,209.62C88.35,209.62,0,222.69,0,238.83l20.22,229.86c.68,7.69,4.34,14.81,10.19,19.83,11.09,9.51,18.07,22.94,19.48,37.48l18.93,194.8c0,16.13,57.53,29.21,128.5,29.21s128.5-13.08,128.5-29.21l17.25-205.51c.95-11.37,6.81-21.77,16.04-28.48,6.12-4.45,10.08-11.29,10.89-18.82l24.66-229.16c0-16.13-88.35-29.21-197.33-29.21Z" fill="#fff"/>
  <g>
    <path d="M388.55,239.12c-6.51-58.62-65.6-80.02-65.6-80.02-14.61-7.76-3.2-15.98-9.13-29.67-5.93-13.7-33.33-15.52-33.33-15.52,0,0,1.83-47.94-31.96-55.7-33.78-7.76-54.78-46.11-54.78-46.11-16.89,29.67-54.78,41.09-54.78,41.09-11.87,6.85-11.87,37.44-11.87,37.44-8.22,13.7-35.15,12.78-35.15,12.78-13.7,5.93-8.22,42-8.22,42-26.93-1.37-32.77,21.83-32.77,21.83-3.52,31.64-28.12,42.19-28.12,42.19,0,0-13.22,10.97-16.74,29.72l20.15,229.02c.54,6.15,3.42,11.75,8.11,15.77,12.34,10.58,19.99,25.31,21.57,41.48l17.28,147.41c1.3,11.08,8.16,20.69,18.16,25.63,19.92,9.85,56.7,20,105.98,21.32,48.94,1.31,84.91-11.61,104.95-21.81,10.79-5.49,18.04-16.06,19.25-28.1l15.53-155.09c1.1-13.13,7.85-25.11,18.51-32.86,4.73-3.44,7.8-8.75,8.43-14.57l24.3-225.89c.19-1.19.28-2.03.25-2.33Z" fill="#73a820"/>
    <g clip-path="url(#c)">
      <path d="M39.1,405.36c11.34-8.11,13.02-27.78,26.61-30.89,14.86-3.4,24.98,17.05,40.07,19.12,8.78,1.2,17.09-4.17,23.63-10.14,6.54-5.97,12.56-12.98,20.76-16.34,9.58-3.92,20.9-2.05,29.74,3.34,8.83,5.39,15.39,13.94,20.05,23.18,4.9,9.72,7.94,20.37,13.69,29.61,5.75,9.24,15.27,17.24,26.15,17,15.75-.34,25.76-16.57,32.18-30.95,6.42-14.38,14.7-31,30.22-33.68,13.34-2.3,25.99,7.34,33.68,18.49,7.69,11.14,12.4,24.24,21,34.7,8.59,10.46,23.3,17.96,35.65,12.41,14.38-6.46,16.93-25.43,17.44-41.19,1.12-34.29,2.24-68.58,3.36-102.88.5-15.21.82-31.21-6.25-44.69-7.36-14.01-21.87-23.16-37.07-27.56-15.2-4.4-31.25-4.65-47.07-4.86-87.31-1.18-174.62-2.36-261.94-3.54-22.72-.31-47.04-.17-65.89,12.52-17.25,11.61-26.77,31.92-31.23,52.22-5.2,23.69-4.05,49.44,5.44,71.93,7.64,18.13,22.59,32.49,36.4,46.11,8.42,8.3,22.72,13.69,33.38,6.07Z" fill="#f2f4e4" opacity=".46"/>
      <path d="M-6.28,454.94c12.39,6.52,27.62,7.39,40.67,2.31,13.05-5.08,23.69-16.01,28.41-29.19,3.42-9.55,5.42-21.91,15.08-24.98,8.25-2.62,16.51,3.72,22.31,10.15s11.99,13.96,20.62,14.61c16.91,1.28,24.91-23.71,41.62-26.61,7.2-1.25,14.61,2.13,19.8,7.28s8.47,11.88,11.28,18.63c7.15,17.19,11.76,35.43,13.66,53.95.78,7.66,1.13,15.48,3.69,22.75,2.56,7.27,7.82,14.08,15.22,16.21,7.75,2.24,16.12-1.08,22.56-5.94,11.14-8.39,18.24-20.96,24.77-33.28,6.53-12.32,13.04-25.08,23.47-34.35,10.42-9.27,25.9-14.33,38.61-8.58,13.9,6.28,19.74,22.42,28.85,34.66,8.28,11.13,20.1,19.59,33.3,23.84,5.94,1.91,12.85,2.87,18.1-.51,6.3-4.06,7.67-12.53,8.44-19.98,3.23-30.98,6.45-61.96,9.68-92.94,3.08-29.58,5.39-59,.26-88.29-5.12-29.29-20.26-58.27-46.08-73.02-17.29-9.88-37.62-12.59-57.37-15.12-58.36-7.46-116.88-14.93-175.71-15.59-58.83-.66-118.28,5.66-173.81,25.09-12.61,4.41-25.56,9.91-33.88,20.36-9.91,12.44-11.36,29.4-12.42,45.27-2.08,31.41-4.11,63.48,3.98,93.9,8.81,33.13,24.57,63.42,54.9,79.39Z" fill="#f2f4e4" opacity=".46"/>
      <path d="M69.52,480.87c2.07-8.36,2.75-17.15,6.24-25.02,3.49-7.88,10.87-14.94,19.48-14.53,10.8.51,18.45,12.09,29.21,13.13,9.77.94,18.11-7.04,27.74-8.91,13.8-2.67,27.05,7.9,33.81,20.23,6.76,12.32,9.19,26.54,14.84,39.41,5.65,12.87,16.25,25.26,30.27,26.3,21.62,1.61,34.9-22.52,52.95-34.53,16.93-11.26,40.63-11.27,57.56-.01,16.17,10.75,26.75,30.66,45.65,35.12,13.8,3.25,28.51-3.24,38.37-13.42,9.86-10.19,15.66-23.57,20.42-36.93,23.48-65.82,26.45-137.61,18.08-206.99-2.94-24.36-8.22-50.45-26.32-67.02-14.09-12.9-33.97-17.83-53.08-17.86-19.1-.04-37.9,4.31-56.69,7.73-43.73,7.95-88.35,10.95-132.75,8.92-32.2-1.47-64.35-5.58-96.55-4.33-37.94,1.48-75.16,10.36-112.09,19.2-20.51,4.91-42.1,10.4-57.15,25.18-17.31,17-22.35,42.72-24.43,66.89-4,46.29,0,94.37,20.17,136.22,11.75,24.37,29.4,46.17,51.43,61.97,10.85,7.78,22.86,14.2,35.57,18.35,13.86,4.52,21.83-.19,32.6-9.44,11.99-10.3,20.87-24.28,24.68-39.66Z" fill="#f2f4e4" opacity=".46"/>
      <g>
        <path d="M36.12,322.1c-14.67,4.83-22.75-56.92-30.02-82.96,3.52-18.75,16.74-29.72,16.74-29.72,0,0,24.61-10.55,28.12-42.19,0,0,5.83-23.2,32.77-21.83,0,0-5.48-36.07,8.22-42,0,0,26.94.91,35.15-12.78,0,0,0-30.59,11.87-37.44,0,0,37.89-11.41,54.78-41.09,0,0,21,38.35,54.78,46.11,33.78,7.76,31.96,55.7,31.96,55.7,0,0,27.39,1.83,33.33,15.52,5.93,13.7-5.48,21.91,9.13,29.67,0,0,59.09,21.4,65.6,80.02.46,4.11-20.6,95.24-25.62,104.37-5.02,9.13-19.44-.41-19.44-.41,0,0-29.12-61.85-47.84-49.53-18.72,12.33-65.38,62.31-78.62,61.85-13.24-.46-33.37-32.98-57.57-32.06-24.2.91-58.85,37.09-73,30.24-14.15-6.85,4.91-78.47-50.34-31.49Z" fill="#f2f4e4"/>
        <g clip-path="url(#d)">
          <path d="M274.22,60.27c3.38-16.53-18.26-23.88-31.86-33.87-13.89-10.2-31.53-13.13-48.62-14.3,1,31.08-16.82,59.41-48.74,64.52-2.87.46-3.64,4.17-1.23,5.79,10.12,6.8,22.71,12.1,33.59,9.17,13.47-3.63,25.94-10.38,39.43-13.91,13.49-3.53,41.13-18.56,51.72-9.49.69-4.85,4.79-3.46,5.7-7.92Z" fill="#23253a" opacity=".09"/>
          <path d="M114.91,128.91c28.83,13.56,60.51,21.04,92.36,21.81,9.86.24,21.81,1.02,26.3,9.8-45.29,5.65-90.99,11.31-136.46,7.36-18.35-1.59-39-4.1-53.2,7.62-6.24-12.92-.2-28.13,5.81-41.15,4.03-8.72,8.32-17.79,15.91-23.69,20.96-16.29,32.42,10.31,49.28,18.24Z" fill="#23253a" opacity=".09"/>
          <g>
            <path d="M174.37,207.77c22.04,6.87,45.94,2.81,68.21-3.28,22.26-6.09,44.29-14.21,67.34-15.43,12.69-.67,26.92,1.54,34.81,11.5,6.75,8.53,6.98,20.84,3.23,31.05-3.75,10.21-15.9,22.95-26.95,30.52,19.92-2.85,50.88-11.62,70.9-23.79,3.03-1.84,6.99-2.37,8.99-5.3,3.4-4.99.39-11.71-2.75-16.87-9.96-16.37-21.14-32-33.41-46.72-9.88-11.87-26.32-36.34-41.39-41.38-14.25-4.77-31.63,19.01-41.77,26.91-14.86,11.58-30.84,21.73-47.64,30.28-18.96,9.64-38.97,17.24-59.58,22.53Z" fill="#23253a" opacity=".09"/>
            <g clip-path="url(#e)">
              <path d="M316.09,121.09c0,1.35-4.05,41.88-58.99,63.05,0,0,34.68-5.85,52.69-20.26,18.01-14.41,37.83-2.7,37.83-2.7l-31.52-40.08Z" fill="#23253a" opacity=".09"/>
              <path d="M321,262.12s54.74-16.6,46.65-77.99l47.53,50.23-4.23,21.82-89.95,5.94Z" fill="#23253a" opacity=".09"/>
            </g>
          </g>
          <g>
            <path d="M205.48,121.51c32.69-1.45,63.55-23.55,75.45-54.03-.52,1.34,4.88,11.55,5.38,13.57,1.32,5.32,1.86,10.86,1.58,16.34-.65,12.87-4.28,15.41-15.78,19.77-21.12,8.01-44.66,9.62-66.63,4.34Z" fill="#23253a" opacity=".09"/>
            <g clip-path="url(#f)">
              <path d="M233.57,124.55s46.04-16.53,57.3-42.2l9.01,29.72-14.86,18.01-51.45-5.54Z" fill="#23253a" opacity=".09"/>
            </g>
          </g>
          <path d="M272.21,239.46c-32,24.57-75.91,28.61-116.08,24.72-62.38-6.04-106.64-33.37-112.38-42.98,2.35,3.97,17.5,5.37,22.35,6.66,9.54,2.54,18.94,5.47,28.55,7.76,19.23,4.58,38.79,7.79,58.47,9.63,39.7,3.7,79.93,1.81,119.08-5.78Z" fill="#23253a" opacity=".09"/>
          <path d="M83.72,145.41s40.97,12.15,71.14,10.8c0,0-68.45-20.72-75.66-47.28,0,0-5.83,30.63,4.51,36.48Z" fill="#23253a" opacity=".09"/>
          <path d="M244.78,58.59s-15.45,5.3-31.21,12.05c-15.76,6.75-35.13,22.52-57.19,11.26,31.86.13,48.5-19.37,66.65-36.93l21.76,13.61Z" fill="#23253a" opacity=".09"/>
        </g>
      </g>
      <path d="M42.9,655.71s246.22-75.98,253.97-209.24c7.74-133.26-34.42-162.23-34.42-162.23,0,0,90.39-13.87,126.11-31.99l-14.34,249.34-48.39,219.19-282.94,48.13v-113.21Z" fill="#23253a" opacity=".18"/>
      <path d="M181.27,293.64s99.52-2.56,164.12-25.1l76.64-24.4-7.41,261.13-62.04,249.63-186.12,31.87L12.74,687.68l26.85-104.15s159.27-51.95,141.68-289.89Z" fill="#23253a" opacity=".18"/>
      <g opacity=".6">
        <path d="M44.78,499.33s158.57,49.31,314.34-12.52c0,0-28.61,303.05-31.5,304.98s-306.97-29.92-306.97-29.92l24.13-262.53Z" fill="#23253a" opacity=".18"/>
        <g clip-path="url(#g)">
          <polygon points="102.7 488.83 138.41 828.46 359.12 832.32 404.84 429.79 102.7 488.83" fill="#23253a" opacity=".18"/>
          <polygon points="239.77 499.33 231.08 820.74 361.78 808.87 422.12 486.8 239.77 499.33" fill="#23253a" opacity=".18"/>
          <path d="M363.56,477.75c-70.15,40.06-141.93,35.93-245.74,34.97-4.13-.04-9.42-1.96-11.13,1.8-1.68,3.68,2.27,7.35,5.75,9.42,31.13,18.61,77.15,21.55,112.82,28.09,12.46,2.29,25.36,3.89,36.54,9.86,18.1,9.68,28.91,29.8,31.66,50.14,2.75,20.34-1.54,40.99-7.45,60.64-7.9,26.29-18.75,51.69-32.27,75.58,42.78-2.38,79.91-33.1,101.44-70.14,21.53-37.04,30.15-79.97,38.14-122.06,2.16-11.36,4.3-22.95,2.79-34.41-2.03-15.34-10.91-29.64-23.76-38.26-2.13-1.42-7.2-3.62-8.77-5.64Z" fill="#23253a" opacity=".18"/>
        </g>
      </g>
    </g>
  </g>
  <path d="M7.26,234.37s158,97.05,381.29,4.75l-3.31,30.77s3.8-25.13-9.05-20.85c-12.86,4.29-91.9,32.85-194.74,32.85-80.47,0-177.36-47.53-173.48-21.49,0,0-8.24-15.96-.71-26.04Z" fill="#fff"/>
  <path d="M51.96,268.53s63.19,19.76,144.36,19.76,149.07-19.76,149.07-19.76c0,0-56.41,25.85-149.07,25.85s-144.36-25.85-144.36-25.85Z" fill="#fff"/>
  <path d="M332.92,17.61c-.8,6.56-1.14,13.17-1.47,19.78-.92,18.16-1.85,36.33-2.77,54.49-.08,1.54.45,3.69,1.98,3.5,1.18-.15,1.58-1.64,1.69-2.82,2.27-22.94,4.53-45.88,6.8-68.82.33-3.33,2.32-11.07-1.13-13.37-4.02-2.68-4.8,4.77-5.1,7.23Z" fill="#fff"/>
  <path d="M95.69,177.06c-2.15-.62-4.57-.19-6.08,1.46-2.61,2.86-.23,6.57,2.11,9.09,27.63,29.87,70.45,44.7,110.65,38.97,1.47-.21,1.49-2.32.01-2.51-24.05-3.08-47-13.27-49.35-14.91-2.65-1.85-4.66-5-4.22-8.2.61-4.44,32.84-8.76,47.51-10.71,37.63-5,44.61-25.45,43.35-25.83-2.92-.88-1.99,3.68-12.26,10.58-31.33,21.04-98.46,11.58-131.71,2.06Z" fill="#fff"/>
  <path d="M248.43,83.84c-1.09-1.16-3.03-1.14-4.42-.37-1.4.76-2.39,2.09-3.33,3.38-25.55,14.25-68.23,17.43-95.24,6.19-1.12-.46-2.49-.93-3.45-.19-1.07.82-.83,2.48-.39,3.75,3.27,9.52,11.04,16.8,19.28,22.59,14.77,10.37,31.96,17.27,49.8,19.99,1.57.24,3.53.27,4.32-1.11.6-1.06.11-2.46-.79-3.28-.9-.82-2.1-1.2-3.25-1.58-9.56-3.17-18.54-8.11-26.33-14.5-2.07-1.7-4.26-4.33-3.11-6.75.92-1.94,3.42-2.4,5.56-2.63,10.41-1.08,20.86-2.19,30.99-4.81,10.13-2.62,20.01-6.84,28.04-13.55,1.08-.9,2.15-1.88,2.73-3.16.58-1.28.57-2.92-.39-3.95Z" fill="#fff"/>
</svg>