<?xml version="1.0" encoding="UTF-8"?>
<svg xmlns="http://www.w3.org/2000/svg" version="1.1" viewBox="0 0 500 500">
  <!-- Generator: Adobe Illustrator 28.7.3, SVG Export Plug-In . SVG Version: 1.2.0 Build 164)  -->
  <g>
    <g id="object">
      <g>
        <path d="M449.965,143.248c1.275.492-11.705,13.276-11.8,13.75-.684.788-2.075.378-2.23-.64,0,0-2.99-16.35-2.99-16.35-.194-.907.721-1.749,1.6-1.49.573.442,15.838,3.479,15.42,4.73ZM438.015,153.328l8.29-9.01-10.44-2.77,2.15,11.78Z"/>
        <polygon points="446.305 144.318 438.015 153.328 435.865 141.548 446.305 144.318" fill="#fed23d"/>
        <path d="M433.495,224.458c7.61,5.73,11.23,15.11,9.45,24.47-1.78,9.36-8.59,16.75-17.77,19.3l-25.94,7.19c-6.67,1.85-12,6.85-14.24,13.38l-8.78,25.46c-3.11,9-10.92,15.34-20.37,16.54-1.07.13-2.13.2-3.19.2-8.28,0-15.99-4.09-20.65-11.14l-14.33-21.64c-1.32,1.39-3.03,2.33-4.89,2.72l.24,11.17c.02.69-.34,1.33-.92,1.69-.31.18-.66.28-1,.28-.32,0-.64-.08-.93-.24l-5.16-2.83c.16,2.47-.2,5.78-2.1,9.49-6,11.72-23.39,20.44-51.66,25.91-13.46,2.6-22.82,7.19-29.32,12.21,10.24,2.98,17.58,10.51,20.66,19.41,3.61,10.41.84,23.97-13.79,29.17-7.26,2.58-14.02,1.39-19.05-3.35-6.33-5.97-8.49-16.49-5.49-26.81,1.07-3.69,3.56-9.75,9.22-15.9-4.47-.21-9.37.47-14.61,2.24-19.98,6.77-24.05,24.08-28.35,42.41-4,17.04-8.13,34.65-24.74,46.22-8.89,6.19-17.45,8.51-25.28,8.51-23.08,0-39.78-20.17-40-20.45-.67-.82-.54-2.03.28-2.7s2.03-.54,2.7.28c.07.09,7.11,8.65,18.06,14.24,14.43,7.37,28.58,6.34,42.05-3.04,15.39-10.72,19.36-27.61,23.19-43.94,4.35-18.54,8.85-37.72,30.85-45.17,7.05-2.38,13.56-2.96,19.34-2.17,2.12-5.28,6.79-9.55,11.73-14.06,7.2-6.57,15.36-14.02,17.06-26.2,2.54-18.26-10.81-29.22-13.83-31.45-1.95.26-3.81.4-5.58.4-4.5,0-8.43-.84-11.77-2.51-.48-.23-.83-.66-.99-1.16-.15-.51-.09-1.06.18-1.52l7.18-12.44c-2.3-1.84-3.83-4.51-4.17-7.46l-.09-.7c-1.03.4-2.06.84-3.05,1.37l-29.77,15.64c-4.5,2.38-9.38,3.55-14.24,3.55-6.31,0-12.57-1.98-17.93-5.87-9.48-6.89-14.14-18.34-12.16-29.89l5.69-33.15c1.49-8.65-1.39-17.49-7.69-23.64l-24.07-23.47c-8.39-8.17-11.36-20.17-7.74-31.31,3.62-11.15,13.07-19.12,24.67-20.8l33.27-4.84c8.71-1.27,16.22-6.73,20.11-14.61l14.89-30.16c2.6-5.25,6.52-9.51,11.26-12.45,4.73-2.95,10.28-4.58,16.14-4.58,11.72,0,22.21,6.53,27.4,17.03l14.89,30.16c3.89,7.88,11.41,13.34,20.11,14.61l33.27,4.84c11.37,1.65,20.47,9.08,24.35,19.87,2.96,8.24,2.35,16.87-1.48,24.26l21.19-14.82c7.8-5.45,17.84-6,26.18-1.42,8.36,4.59,13.29,13.35,12.87,22.87l-1.17,26.9c-.3,6.91,2.82,13.51,8.33,17.67l21.48,16.23ZM439.165,248.208c1.53-8.03-1.46-15.76-7.98-20.69l-21.49-16.22c-6.52-4.92-10.2-12.74-9.85-20.91l1.17-26.9c.36-8.17-3.71-15.39-10.87-19.33-7.17-3.93-15.44-3.48-22.14,1.2l-22.06,15.43c-6.021,1.511-26.632,23.364-31.34,27.69-6.3,6.15-9.17,14.99-7.69,23.64l5.69,33.15c1.98,11.55-2.68,23-12.16,29.89-5.35,3.89-11.61,5.86-17.91,5.86-3.61,0-7.23-.65-10.7-1.95-1.21-.45-2.4-.97-3.56-1.59l-14.43-7.58c2.61,7.08,9.15,13.6,19.32,13.77l9.32.17,17.6.32c3.37.06,6.65.79,9.73,2.18,2.42.86,4.62,2.29,6.41,4.17,1.57,1.4,2.96,3.01,4.13,4.78l14.85,22.45c4.51,6.82,12.05,10.27,20.16,9.25,8.11-1.03,14.54-6.26,17.21-13.99l8.79-25.46c2.65-7.72,8.95-13.64,16.84-15.83l25.94-7.19c7.88-2.18,13.49-8.28,15.02-16.31ZM337.215,160.978c6.7-7.38,8.66-17.44,5.26-26.91-3.39-9.43-11.35-15.92-21.28-17.37l-33.28-4.84c-9.95-1.44-18.55-7.69-23-16.71l-14.89-30.16c-4.6-9.32-13.55-14.88-23.95-14.88s-19.35,5.56-23.95,14.88l-14.89,30.16c-4.45,9.02-13.05,15.27-23,16.71l-33.27,4.84c-10.3,1.5-18.36,8.3-21.57,18.19-3.21,9.88-.68,20.12,6.76,27.37l24.08,23.47c7.2,7.03,10.49,17.14,8.79,27.04l-5.69,33.15c-1.76,10.25,2.22,20.02,10.63,26.13s18.93,6.87,28.13,2.03l29.76-15.64c13.823-7.931,27.6-1.205,39.93,6.03l18.28,9.61c9.2,4.84,19.71,4.08,28.12-2.03,8.42-6.11,12.39-15.88,10.63-26.13l-5.69-33.15c-1.7-9.9,1.59-20.01,8.79-27.04l24.08-23.47c.38-.37.76-.77,1.22-1.27v-.01ZM315.105,295.338c-2.031-3.161-5.583-5.51-9.28-6.02-.819,1.742-.701,3.812.34,5.42v.01c1.88,3.1,6.679,3.424,8.94.59ZM309.115,308.868l-.18-7.91c-1.829-.41-3.508-1.322-4.83-2.66l-6.76,4.1,11.77,6.47ZM302.125,288.218l.02-.07c-.71-.08-1.42-.13-2.13-.14l-26.92-.49c-11.73-.21-21.62-8.59-23.91-20.07l-10.17-5.34c-.53,2.57-1.95,4.88-4.01,6.52l7.19,12.44c.29.51.34,1.13.12,1.68s-.68.96-1.25,1.13c-1.43.42-2.82.78-4.18,1.09,5.39,4.84,15.02,16.06,12.68,32.87-1.88,13.56-10.59,21.5-18.27,28.51-1.86,1.7-3.62,3.31-5.19,4.9,6.26-3.57,14.24-6.65,24.42-8.62,33.7-6.51,45.23-16.58,48.97-23.89,2.49-4.85,1.68-8.72,1.25-10.08l-8.17-4.49c-.6-.33-.98-.96-1-1.64-.01-.69.34-1.33.93-1.69l9.55-5.79c-.82-2.19-.82-4.63.07-6.83ZM227.525,403.578c12.22-4.34,14.55-15.33,11.44-24.3-2.94-8.46-10.33-15.49-20.66-17.56-6.56,6.25-9.26,12.65-10.35,16.39-2.6,8.95-.85,17.95,4.44,22.94,3.92,3.7,9.29,4.6,15.13,2.53ZM237.615,280.838l-5.97-10.34c-2.362.801-4.964.79-7.33,0l-6.13,10.62c3.79,1.37,8.42,1.66,13.84.86.02-.01.03-.01.05-.01,1.77-.26,3.61-.64,5.54-1.13ZM235.335,260.948l-.93-.48c-.82-.43-1.65-.78-2.49-1.05-2.55-.58-5.17-.78-7.78-.58-1.26.21-2.47.57-3.63,1.06l.09.82c.28,2.37,1.71,4.48,3.82,5.64h.02c1.07.59,2.28.88,3.49.89.22,0,.44-.02.65-.03,1.03-.08,2.05-.36,2.96-.86h.01c2.04-1.12,3.45-3.13,3.79-5.41Z"/>
        <path d="M431.181,227.515l-21.49-16.22c-6.52-4.92-10.2-12.74-9.85-20.91l1.17-26.9c.36-8.17-3.71-15.39-10.87-19.33-7.17-3.93-15.44-3.48-22.14,1.2l-22.06,15.43c-6.021,1.511-26.632,23.364-31.34,27.69-6.3,6.15-9.17,14.99-7.69,23.64l5.69,33.15c1.98,11.55-2.68,23-12.16,29.89-5.35,3.89-11.61,5.86-17.91,5.86l-.05,2.82,16.53.3,1.07.02c3.37.06,6.65.79,9.73,2.18,2.42.86,4.62,2.29,6.41,4.17,1.57,1.4,2.96,3.01,4.13,4.78l14.85,22.45c4.51,6.82,12.05,10.27,20.16,9.25,8.11-1.03,14.54-6.26,17.21-13.99l8.79-25.46c2.65-7.72,8.95-13.64,16.84-15.83l25.94-7.19c7.88-2.18,13.49-8.28,15.02-16.31,1.53-8.03-1.46-15.76-7.98-20.69ZM327.671,291.425c-.31.19-.66.28-1,.28-.65,0-1.28-.33-1.64-.92-1.22-1.99-2.95-3.63-5-4.73-.93-.5-1.29-1.67-.78-2.6.5-.94,1.66-1.29,2.6-.79,2.65,1.43,4.89,3.54,6.46,6.11.55.91.26,2.09-.64,2.65ZM371.301,289.865c-1.3,5-2.65,10.17-5.48,14.79-3.29,5.38-8.15,8.88-13.31,9.61-.69.1-1.39.14-2.09.14-4.05,0-8.24-1.59-11.77-4.53-3.22-2.69-5.92-6.43-8.24-11.44-.44-.96-.02-2.11.94-2.55.97-.45,2.11-.03,2.55.94,2.08,4.48,4.43,7.78,7.21,10.1,3.31,2.75,7.27,4.04,10.86,3.53,4.03-.56,7.88-3.41,10.57-7.81,2.53-4.13,3.81-9.02,5.04-13.75.27-1.03,1.32-1.64,2.35-1.38,1.02.27,1.64,1.32,1.37,2.35ZM391.871,203.405c-.36.29-.79.43-1.21.43-.56,0-1.11-.24-1.49-.71-4.01-4.91-3.85-11.54-3-16.24.41-2.25,1-4.46,1.58-6.59.76-2.84,1.49-5.53,1.8-8.29.6-5.32-.81-9.95-3.77-12.38-.82-.67-.94-1.88-.26-2.7.67-.82,1.88-.94,2.7-.27,3.97,3.26,5.89,9.16,5.15,15.78-.35,3.05-1.14,6.01-1.91,8.86-.56,2.06-1.13,4.18-1.51,6.27-.57,3.2-1.05,9.15,2.19,13.13.68.83.55,2.04-.27,2.71ZM409.361,222.125c-.27.8-1.02,1.32-1.82,1.32-.2,0-.41-.04-.61-.1-5.92-1.96-11.04-6.23-14.03-11.72-.51-.93-.16-2.1.77-2.6.93-.51,2.1-.17,2.61.76,2.53,4.64,6.85,8.25,11.86,9.91,1.01.33,1.56,1.42,1.22,2.43Z" fill="#fd4d71"/>
        <path d="M430.585,290.748c.09.36.03.74-.18,1.04l-8.59,12.51c-.21.32-.57.53-.95.56-.04,0-.08.01-.11.01-.35,0-.69-.14-.93-.39l-8.58-8.79c-.24-.25-.38-.58-.37-.93,0-.34.15-.67.4-.91l8.58-8.23c.4-.39,1-.47,1.5-.21l8.58,4.5c.33.17.57.48.65.84ZM420.575,301.528l6.86-10-6.46-3.39-6.96,6.68,6.56,6.71Z"/>
        <polygon points="427.435 291.528 420.575 301.528 414.015 294.818 420.975 288.138 427.435 291.528" fill="#4bbd8c"/>
        <path d="M414.355,86.328c1.181.356,1.161,2.165-.03,2.48-21.028,6.845-12.924,22.024-15.309,24.28-5.025-1.119-6.489-10.814-5.781-14.59,1.481-9.041,10.141-14.871,10.511-15.121.36-.931,9.971,2.951,10.61,2.95ZM409.965,87.628l-5.28-1.73c-3.551,1.685-12.3,13.18-8.03,20.43.21-5.69,2.53-14.08,13.31-18.7Z"/>
        <path d="M404.685,85.898l5.28,1.73c-10.78,4.62-13.1,13.01-13.31,18.7-4.275-7.245,4.485-18.754,8.03-20.43Z" fill="#6757dc"/>
        <path d="M408.145,219.698c1.01.33,1.56,1.42,1.22,2.43-.27.8-1.02,1.32-1.82,1.32-.2,0-.41-.04-.61-.1-5.92-1.96-11.04-6.23-14.03-11.72-.51-.93-.16-2.1.77-2.6.93-.51,2.1-.17,2.61.76,2.53,4.64,6.85,8.25,11.86,9.91Z"/>
        <path d="M404.275,335.338c.37,1.03,9.12,25.34-2.27,35.75-2.37,2.16-4.94,3.25-7.66,3.25-.21,0-.42-.01-.63-.02-.39,2.96-2.05,9.69-9.08,12.4-1.37,2.31-8.31,12.89-20.62,12.89-2.83,0-5.95-.56-9.34-1.91-.54-.21-.87-.75-.81-1.33.05-.57.47-1.04,1.04-1.15.13-.03,13.27-2.73,16.45-11.7-1.16-1.07-2.09-2.16-2.74-3.01s-1.02-1.45-1.09-1.56c-2.63-3.99-3.57-7.73-2.65-10.54.62-1.86,2.05-3.24,4.14-3.99,4.67-1.68,10.98,3.79,13.69,6.46.27-.62.49-1.31.63-2.06-2.88-2.84-4.84-5.85-5.31-6.61-3.42-3.42-5.12-8.81-2.55-13.95,1.56-3.11,3.51-4.63,5.77-4.51,4.67.25,8.76,7.9,10.84,12.62,1.95-9.71-7.36-21.82-7.46-21.96-.32-.41-.36-.98-.11-1.44.26-.45.77-.71,1.29-.64l17.41,2.17c.48.06.89.39,1.06.84ZM400.255,369.168c9.09-8.3,3.18-28.11,1.83-32.19l-13.69-1.71c3.26,4.96,9.53,16.42,4.94,25.35l-.01.01c-2.06,4.01-5.65,5.77-9.56,4.88,2.41,2.69,5.78,5.62,9.44,6.16,2.51.36,4.82-.45,7.05-2.5ZM383.315,384.438c6.33-2.19,7.61-8.21,7.86-10.58-2.05-.62-3.96-1.77-5.66-3.12-.34,1.06-.79,2-1.34,2.83-.01.03-.03.05-.04.07-2.95,4.37-8.55,5.83-12.88,6,2.22,2.63,6.69,6.67,12.06,4.8ZM390.755,359.928c-2.58-6.72-6.64-13.43-9.65-13.59-1.15-.07-2.26.98-3.31,3.09-2,3.99-.66,8.2,2.01,10.9.09.07.18.15.25.25.72.68,1.54,1.26,2.4,1.7,1.28.65,5.56,2.33,8.3-2.35ZM381.025,387.508c-.19.01-.38.03-.57.03-2.68,0-5.03-1.02-6.98-2.34-2.68,6.36-9.35,9.74-13.8,11.33,11.31,2.46,18.41-4.95,21.35-9.02ZM381.275,373.118c-3.19-3.24-8.5-7.3-11.38-6.26-1.35.48-2.18,1.26-2.55,2.37-.62,1.87.15,4.76,2.04,7.8,2.04.08,8.42,0,11.89-3.91Z"/>
        <path d="M402.085,336.978c1.35,4.08,7.26,23.89-1.83,32.19-2.23,2.05-4.54,2.86-7.05,2.5-3.66-.54-7.03-3.47-9.44-6.16,3.91.89,7.5-.87,9.56-4.88l.01-.01c4.59-8.93-1.68-20.39-4.94-25.35l13.69,1.71Z" fill="#6757dc"/>
        <path d="M388.225,156.658c3.97,3.26,5.89,9.16,5.15,15.78-.35,3.05-1.14,6.01-1.91,8.86-.56,2.06-1.13,4.18-1.51,6.27-.57,3.2-1.05,9.15,2.19,13.13.68.83.55,2.04-.27,2.71-.36.29-.79.43-1.21.43-.56,0-1.11-.24-1.49-.71-4.01-4.91-3.85-11.54-3-16.24.41-2.25,1-4.46,1.58-6.59.76-2.84,1.49-5.53,1.8-8.29.6-5.32-.81-9.95-3.77-12.38-.82-.67-.94-1.88-.26-2.7.67-.82,1.88-.94,2.7-.27Z"/>
        <path d="M391.175,373.858c-.25,2.37-1.53,8.39-7.86,10.58-5.37,1.87-9.84-2.17-12.06-4.8,4.33-.17,9.93-1.63,12.88-6,.01-.02.03-.04.04-.07.55-.83,1-1.77,1.34-2.83,1.7,1.35,3.61,2.5,5.66,3.12Z" fill="#6757dc"/>
        <path d="M381.105,346.338c3.01.16,7.07,6.87,9.65,13.59-2.74,4.68-7.02,3-8.3,2.35-.86-.44-1.68-1.02-2.4-1.7-.07-.1-.16-.18-.25-.25-2.67-2.7-4.01-6.91-2.01-10.9,1.05-2.11,2.16-3.16,3.31-3.09Z" fill="#6757dc"/>
        <path d="M380.455,387.538c.19,0,.38-.02.57-.03-2.94,4.07-10.04,11.48-21.35,9.02,4.45-1.59,11.12-4.97,13.8-11.33,1.95,1.32,4.3,2.34,6.98,2.34Z" fill="#6757dc"/>
        <path d="M369.935,287.518c1.02.27,1.64,1.32,1.37,2.35-1.3,5-2.65,10.17-5.48,14.79-3.29,5.38-8.15,8.88-13.31,9.61-.69.1-1.39.14-2.09.14-4.05,0-8.24-1.59-11.77-4.53-3.22-2.69-5.92-6.43-8.24-11.44-.44-.96-.02-2.11.94-2.55.97-.45,2.11-.03,2.55.94,2.08,4.48,4.43,7.78,7.21,10.1,3.31,2.75,7.27,4.04,10.86,3.53,4.03-.56,7.88-3.41,10.57-7.81,2.53-4.13,3.81-9.02,5.04-13.75.27-1.03,1.32-1.64,2.35-1.38Z"/>
        <path d="M369.895,366.858c2.88-1.04,8.19,3.02,11.38,6.26-3.47,3.91-9.85,3.99-11.89,3.91-1.89-3.04-2.66-5.93-2.04-7.8.37-1.11,1.2-1.89,2.55-2.37Z" fill="#6757dc"/>
        <path d="M358.415,91.888c4.37,0,7.92,3.56,7.92,7.93s-3.55,7.92-7.92,7.92-7.93-3.55-7.93-7.92,3.56-7.93,7.93-7.93ZM363.745,99.818c0-2.94-2.39-5.34-5.33-5.34s-5.34,2.4-5.34,5.34,2.4,5.33,5.34,5.33,5.33-2.39,5.33-5.33Z"/>
        <path d="M358.415,94.478c2.94,0,5.33,2.4,5.33,5.34s-2.39,5.33-5.33,5.33-5.34-2.39-5.34-5.33,2.4-5.34,5.34-5.34Z" fill="#fd4d71"/>
        <path d="M342.471,134.065c-3.39-9.43-11.35-15.92-21.28-17.37l-33.28-4.84c-9.95-1.44-18.55-7.69-23-16.71l-14.89-30.16c-.8-1.63-1.74-3.14-2.8-4.53-4.97-6.56-12.57-10.35-21.15-10.35-10.4,0-19.35,5.56-23.95,14.88l-14.89,30.16c-4.45,9.02-13.05,15.27-23,16.71l-33.27,4.84c-10.3,1.5-18.36,8.3-21.57,18.19-3.21,9.88-.68,20.12,6.76,27.37l24.08,23.47c7.2,7.03,10.49,17.14,8.79,27.04l-5.69,33.15c-1.76,10.25,2.22,20.02,10.63,26.13,8.41,6.11,18.93,6.87,28.13,2.03l29.76-15.64c13.823-7.931,27.6-1.205,39.93,6.03l18.28,9.61c9.2,4.84,19.71,4.08,28.12-2.03,8.42-6.11,12.39-15.88,10.63-26.13l-5.69-33.15c-1.7-9.9,1.59-20.01,8.79-27.04l7.36-7.18,16.72-16.29c.38-.37.76-.77,1.22-1.27v-.01c6.7-7.38,8.66-17.44,5.26-26.91ZM140.981,170.815c-.94-.5-1.3-1.66-.8-2.6s1.66-1.3,2.6-.8c13.65,7.21,22.31,23,21.06,38.4-.09,1-.93,1.76-1.92,1.76h-.16c-1.05-.09-1.84-1.02-1.76-2.08,1.14-13.9-6.68-28.17-19.02-34.68ZM220.201,250.105c-2.48-.12-4.99.73-6.88,2.36-.36.31-.81.46-1.25.46-.54,0-1.08-.22-1.46-.66-.69-.81-.6-2.02.2-2.72,2.63-2.26,6.12-3.46,9.59-3.28,1.06.05,1.88.96,1.82,2.02-.05,1.06-.95,1.88-2.02,1.82ZM287.241,263.675c-2.84,1.19-5.77,1.68-8.7,1.68-7.74,0-15.42-3.43-21.11-6.4-.86-.45-1.73-.91-2.59-1.37-7.71-4.09-15.68-8.32-23.99-7.73-1.05.08-1.98-.73-2.05-1.79-.07-1.06.72-1.98,1.78-2.05,9.41-.66,17.87,3.83,26.06,8.18.86.45,1.71.91,2.57,1.35,7.15,3.74,17.69,8.29,26.55,4.59,7.57-3.16,11.91-12.45,9.49-20.29-.32-1.01.25-2.09,1.26-2.4,1.01-.32,2.09.25,2.41,1.26,2.99,9.65-2.36,21.08-11.68,24.97Z" fill="#fed23d"/>
        <path d="M328.315,288.778c.55.91.26,2.09-.64,2.65-.31.19-.66.28-1,.28-.65,0-1.28-.33-1.64-.92-1.22-1.99-2.95-3.63-5-4.73-.93-.5-1.29-1.67-.78-2.6.5-.94,1.66-1.29,2.6-.79,2.65,1.43,4.89,3.54,6.46,6.11Z"/>
        <path d="M314.795,294.868l.31.47c-2.261,2.835-7.06,2.509-8.94-.59v-.01c-1.041-1.608-1.159-3.678-.34-5.42,3.518.478,6.893,2.647,8.97,5.55Z" fill="#fd4d71"/>
        <path d="M314.735,375.558c.13.43.02.9-.29,1.24l-11.51,12.51c-.25.27-.6.42-.95.42-.12,0-.24-.02-.36-.05-.48-.14-.83-.53-.92-1.02l-2.99-16.35c-.08-.44.06-.88.39-1.19.33-.3.79-.41,1.21-.3l14.51,3.84c.44.12.78.46.91.9ZM302.785,385.628l8.29-9.01-10.44-2.76,2.15,11.77Z"/>
        <polygon points="311.075 376.618 302.785 385.628 300.635 373.858 311.075 376.618" fill="#fd4d71"/>
        <path d="M308.935,300.958l.18,7.91-11.77-6.47,6.76-4.1c1.322,1.338,3.001,2.25,4.83,2.66Z" fill="#fd4d71"/>
        <path d="M298.925,238.708c2.99,9.65-2.36,21.08-11.68,24.97-2.84,1.19-5.77,1.68-8.7,1.68-7.74,0-15.42-3.43-21.11-6.4-.86-.45-1.73-.91-2.59-1.37-7.71-4.09-15.68-8.32-23.99-7.73-1.05.08-1.98-.73-2.05-1.79s.72-1.98,1.78-2.05c9.41-.66,17.87,3.83,26.06,8.18.86.45,1.71.91,2.57,1.35,7.15,3.74,17.69,8.29,26.55,4.59,7.57-3.16,11.91-12.45,9.49-20.29-.32-1.01.25-2.09,1.26-2.4,1.01-.32,2.09.25,2.41,1.26Z"/>
        <path d="M285.095,39.548c12.26,4.34,10.11,22.34,10.01,23.1-.014,2.135-6.231.778-7.34,1.14-.949.027-1.614-1.08-1.15-1.9,4.102-8.736-11.109-15.192-10.56-16.7-.01-.46.23-.89.62-1.12.684-.213,7.74-5.21,8.42-4.52ZM292.635,61.188c.23-3.73.3-15.58-7.84-18.98l-4.98,2.99c3.75,2.54,11.74,8.89,9.84,15.99h2.98Z"/>
        <path d="M284.795,42.208c8.14,3.4,8.07,15.25,7.84,18.98h-2.98c1.9-7.1-6.09-13.45-9.84-15.99l4.98-2.99Z" fill="#6757dc"/>
        <path d="M282.535,281.018l-.05,2.82-9.32-.17c-10.17-.17-16.71-6.69-19.32-13.77l14.43,7.58c1.16.62,2.35,1.14,3.56,1.59,3.47,1.3,7.09,1.95,10.7,1.95Z" fill="#fd4d71"/>
        <path d="M238.445,433.198c.58.2.95.78.86,1.4-.76,5.78-3.18,10.15-7.17,12.98-4.16,2.95-9.18,3.62-12.88,3.62-2.95,0-5.07-.43-5.26-.47-.39-.08-.72-.33-.9-.69l-4.46-8.92c-.26-.51-.15-1.12.26-1.52.4-.39,1.02-.47,1.52-.2,17.43,9.5,26.12-5,26.48-5.62.31-.54.96-.78,1.55-.58ZM230.645,445.448c2.04-1.45,3.59-3.39,4.65-5.81-4.19,3.85-11.78,8.1-22.65,3.69l2.48,4.96c2.2.33,9.94,1.13,15.52-2.84Z"/>
        <path d="M231.645,270.498l5.97,10.34c-1.93.49-3.77.87-5.54,1.13-.02,0-.03,0-.05.01-5.42.8-10.05.51-13.84-.86l6.13-10.62c2.366.79,4.968.801,7.33,0Z" fill="#fed23d"/>
        <path d="M234.405,260.468l.93.48c-.34,2.28-1.75,4.29-3.79,5.41h-.01c-.91.5-1.93.78-2.96.86-.21.01-.43.03-.65.03-1.21-.01-2.42-.3-3.49-.89h-.02c-2.11-1.16-3.54-3.27-3.82-5.64l-.09-.82c1.16-.49,2.37-.85,3.63-1.06,2.61-.2,5.23,0,7.78.58.84.27,1.67.62,2.49,1.05Z" fill="#fed23d"/>
        <path d="M235.295,439.638c-1.06,2.42-2.61,4.36-4.65,5.81-5.58,3.97-13.32,3.17-15.52,2.84l-2.48-4.96c10.87,4.41,18.46.16,22.65-3.69Z" fill="#fed23d"/>
        <path d="M220.405,246.268c1.06.05,1.88.96,1.82,2.02-.05,1.06-.95,1.88-2.02,1.82-2.48-.12-4.99.73-6.88,2.36-.36.31-.81.46-1.25.46-.54,0-1.08-.22-1.46-.66-.69-.81-.6-2.02.2-2.72,2.63-2.26,6.12-3.46,9.59-3.28Z"/>
        <path d="M142.785,167.418c13.65,7.21,22.31,23,21.06,38.4-.09,1-.93,1.76-1.92,1.76h-.16c-1.05-.09-1.84-1.02-1.76-2.08,1.14-13.9-6.68-28.17-19.02-34.68-.94-.5-1.3-1.66-.8-2.6s1.66-1.3,2.6-.8Z"/>
        <path d="M159.745,326.378c.09.36.02.74-.19,1.05l-8.58,12.51c-.22.32-.57.52-.96.56h-.11c-.35,0-.68-.14-.93-.39l-8.58-8.78c-.24-.25-.37-.58-.37-.93.01-.35.15-.68.4-.91l8.58-8.23c.4-.39,1.01-.48,1.5-.22l8.58,4.51c.33.17.57.47.66.83ZM149.725,337.168l6.86-10-6.46-3.39-6.96,6.67,6.56,6.72Z"/>
        <polygon points="156.585 327.168 149.725 337.168 143.165 330.448 150.125 323.778 156.585 327.168" fill="#4bbd8c"/>
        <path d="M117.925,224.798c.01.04.01.09.01.13,0,3.3-2.68,5.98-5.98,5.98-.04,0-.09,0-.13-.01l.13-2.58c1.86,0,3.38-1.52,3.38-3.39l2.59-.13Z"/>
        <path d="M117.925,224.798l-2.59.13c0-1.86-1.52-3.38-3.38-3.38l.13-2.58c3.2.06,5.78,2.64,5.84,5.83Z"/>
        <path d="M111.955,221.548c1.86,0,3.38,1.52,3.38,3.38,0,1.87-1.52,3.39-3.38,3.39-1.87,0-3.39-1.52-3.39-3.39,0-1.86,1.52-3.38,3.39-3.38Z" fill="#fd4d71"/>
        <path d="M113.495,81.748c1.037.73.432,2.411-.83,2.35-.14-.01-13.52-.59-18.8,7.33,1.74,2.64,2.53,5.14,2.6,5.37v.01c2.227,6.563,1.721,12.805-4.99,13.73-5.007.444-9.694-6.358-11.69-9.61-.42.54-.8,1.15-1.12,1.85,2.1,3.45,3.27,6.85,3.54,7.71,2.48,4.14,2.82,9.79-.92,14.14-2.27,2.65-4.52,3.65-6.7,2.97-4.47-1.38-6.56-9.79-7.44-14.88-4.25,8.95,1.83,22.96,1.89,23.12.504,1.009-.629,2.178-1.65,1.73,0,0-16.35-6.35-16.35-6.35-.46-.17-.77-.58-.82-1.07-.12-1.09-2.69-26.79,10.89-34.12,3.04-1.64,6-2,8.82-1.1,1.1-2.77,4.35-8.91,11.83-9.82,2.32-2.35,15.88-14.79,31.74-3.36ZM92.215,89.278c4.16-5.5,11.44-7.15,16.15-7.62-10.38-5.14-19.07.33-22.92,3.55,2.87.56,5.1,2.19,6.77,4.07ZM94.275,106.278c1.06-1.67,1.01-4.66-.08-8.07-1.96-.57-8.17-2.05-12.48.9,3.016,4.898,8.374,12.166,12.56,7.17ZM79.065,97.908c3.93-3.52,9.71-3.57,13.95-2.68-5.286-11.499-17.08-8.945-20.72.76,1.84,1.1,3.41,2.67,4.73,4.4.58-.94,1.24-1.75,1.98-2.42l.06-.06ZM79.315,122.938c2.91-3.39,2.64-7.8.71-11.07-.08-.09-.14-.19-.18-.29-1.649-2.543-5.897-6.487-10.54-1.99,1.115,8.105,4.116,20.681,10.01,13.35ZM77.435,105.888c-2.806-5.638-8.329-11.531-15.09-7.57-10.84,5.85-9.93,26.5-9.62,30.78l12.86,4.99c-1.95-5.6-5.24-18.25,1.39-25.79q0-.01.01-.01c2.97-3.39,6.88-4.22,10.45-2.4Z"/>
        <path d="M112.355,283.198c.54.18.9.68.9,1.25-.01.56-.39,1.06-.93,1.22-19.02,5.71-14.82,22.09-14.63,22.79.16.59-.12,1.22-.68,1.5-.18.09-.38.13-.57.13-.39,0-.78-.17-1.03-.5-3.57-4.61-4.98-9.4-4.18-14.23,1.49-9.04,10.15-14.87,10.52-15.11.33-.22.74-.28,1.12-.15l9.48,3.1ZM107.965,284.488l-5.28-1.72c-1.78,1.33-7.79,6.27-8.89,13.03-.41,2.46-.12,4.94.86,7.39.21-5.69,2.53-14.07,13.31-18.7Z"/>
        <path d="M112.085,218.968l-.13,2.58c-1.87,0-3.39,1.52-3.39,3.38l-2.58.13c-.01-.04-.01-.09-.01-.13,0-3.29,2.68-5.97,5.98-5.97.04,0,.09,0,.13.01Z"/>
        <path d="M111.955,228.318l-.13,2.58c-3.2-.06-5.78-2.64-5.84-5.84l2.58-.13c0,1.87,1.52,3.39,3.39,3.39Z"/>
        <path d="M102.685,282.768l5.28,1.72c-10.78,4.63-13.1,13.01-13.31,18.7-.98-2.45-1.27-4.93-.86-7.39,1.1-6.76,7.11-11.7,8.89-13.03Z" fill="#fed23d"/>
        <path d="M108.365,81.658c-4.71.47-11.99,2.12-16.15,7.62-1.67-1.88-3.9-3.51-6.77-4.07,3.85-3.22,12.54-8.69,22.92-3.55Z" fill="#4bbd8c"/>
        <path d="M94.195,98.208c1.34,4.65,1.647,9.145-2.97,9.74-3.03.3-7.21-4.92-9.51-8.84,4.31-2.95,10.52-1.47,12.48-.9Z" fill="#4bbd8c"/>
        <path d="M93.015,95.228c-4.24-.89-10.02-.84-13.95,2.68l-.06.06c-.74.67-1.4,1.48-1.98,2.42-1.32-1.73-2.89-3.3-4.73-4.4,3.66-9.737,15.451-12.232,20.72-.76Z" fill="#4bbd8c"/>
        <path d="M79.455,185.208c12.26,4.34,10.1,22.34,10.01,23.11-.041,2.115-6.238.772-7.35,1.13-.936.024-1.612-1.072-1.15-1.9,4.111-8.746-11.105-15.178-10.56-16.69-.01-.46.23-.89.63-1.13.695-.218,7.723-5.211,8.42-4.52ZM86.985,206.848c.23-3.73.3-15.58-7.84-18.98l-4.97,3c3.75,2.53,11.73,8.88,9.83,15.98h2.98Z"/>
        <path d="M79.145,187.868c8.14,3.4,8.07,15.25,7.84,18.98h-2.98c1.9-7.1-6.08-13.45-9.83-15.98l4.97-3Z" fill="#6757dc"/>
        <path d="M80.025,111.868c1.93,3.27,2.2,7.68-.71,11.07-1.53,1.79-2.87,2.52-3.96,2.19-2.88-.9-5.19-8.39-6.05-15.54,4.64-4.495,8.887-.559,10.54,1.99.04.1.1.2.18.29Z" fill="#4bbd8c"/>
        <path d="M69.785,97.618c3.42,1.4,5.98,5.07,7.65,8.27-3.57-1.82-7.48-.99-10.45,2.4q-.01,0-.01.01c-6.63,7.54-3.34,20.19-1.39,25.79l-12.86-4.99c-.31-4.28-1.22-24.93,9.62-30.78,2.66-1.44,5.1-1.67,7.44-.7Z" fill="#4bbd8c"/>
        <path d="M401.011,163.485s-6.99-18.16-20.16-15.54c-13.18,2.62-8.84,33.16-34.15,36.86-25.3,3.7-32.05,28.26-22.89,49.53,9.15,21.26,1.39,40.34-13.62,42.12-6.21.74-9.48,4.05-11.18,7.68l-16.53-.3.05-2.82c6.3,0,12.56-1.97,17.91-5.86,9.48-6.89,14.14-18.34,12.16-29.89l-5.69-33.15c-1.48-8.65,1.39-17.49,7.69-23.64,4.855-4.46,25.195-26.071,31.34-27.69l22.06-15.43c6.7-4.68,14.97-5.13,22.14-1.2,7.16,3.94,11.23,11.16,10.87,19.33Z" opacity=".2"/>
        <path d="M302.141,176.145c-20.98,16.59-13.2,49.27-13.2,64.86s-12.57,15.59-32.74,5.24c-20.17-10.34-42.18-16.81-63.3,3.34-21.12,20.15-30.67,12.04-33.12,0-2.44-12.03,19.54-54.34,4.18-74.95-15.36-20.62-44.47-20.12-37.43-36.98s32.18-3.25,54.81-12.45c22.62-9.2,23.63-46.61,39.16-64.02,8.95-10.02,19.44-5.97,26.72-.73-4.97-6.56-12.57-10.35-21.15-10.35-10.4,0-19.35,5.56-23.95,14.88l-14.89,30.16c-4.45,9.02-13.05,15.27-23,16.71l-33.27,4.84c-10.3,1.5-18.36,8.3-21.57,18.19-3.21,9.88-.68,20.12,6.76,27.37l24.08,23.47c7.2,7.03,10.49,17.14,8.79,27.04l-5.69,33.15c-1.76,10.25,2.22,20.02,10.63,26.13,8.41,6.11,18.93,6.87,28.13,2.03l29.76-15.64c13.823-7.931,27.6-1.205,39.93,6.03l18.28,9.61c9.2,4.84,19.71,4.08,28.12-2.03,8.42-6.11,12.39-15.88,10.63-26.13l-5.69-33.15c-1.7-9.9,1.59-20.01,8.79-27.04l7.36-7.18c2.39-11.05-2.56-13.93-17.13-2.4ZM140.981,170.815c-.94-.5-1.3-1.66-.8-2.6s1.66-1.3,2.6-.8c13.65,7.21,22.31,23,21.06,38.4-.09,1-.93,1.76-1.92,1.76h-.16c-1.05-.09-1.84-1.02-1.76-2.08,1.14-13.9-6.68-28.17-19.02-34.68ZM220.201,250.105c-2.48-.12-4.99.73-6.88,2.36-.36.31-.81.46-1.25.46-.54,0-1.08-.22-1.46-.66-.69-.81-.6-2.02.2-2.72,2.63-2.26,6.12-3.46,9.59-3.28,1.06.05,1.88.96,1.82,2.02-.05,1.06-.95,1.88-2.02,1.82ZM287.241,263.675c-2.84,1.19-5.77,1.68-8.7,1.68-7.74,0-15.42-3.43-21.11-6.4-.86-.45-1.73-.91-2.59-1.37-7.71-4.09-15.68-8.32-23.99-7.73-1.05.08-1.98-.73-2.05-1.79-.07-1.06.72-1.98,1.78-2.05,9.41-.66,17.87,3.83,26.06,8.18.86.45,1.71.91,2.57,1.35,7.15,3.74,17.69,8.29,26.55,4.59,7.57-3.16,11.91-12.45,9.49-20.29-.32-1.01.25-2.09,1.26-2.4,1.01-.32,2.09.25,2.41,1.26,2.99,9.65-2.36,21.08-11.68,24.97Z" opacity=".2"/>
        <path d="M332.285,144.482c0,7.18-7.557,17.201-10.761,17.201s-.84-10.021-.84-17.201,2.597-13,5.8-13,5.8,5.82,5.8,13Z" opacity=".2"/>
      </g>
    </g>
  </g>
</svg>