<?xml version="1.0" encoding="UTF-8"?>
<svg xmlns="http://www.w3.org/2000/svg" version="1.1" viewBox="0 0 500 500">
  <!-- Generator: Adobe Illustrator 28.7.3, SVG Export Plug-In . SVG Version: 1.2.0 Build 164)  -->
  <g>
    <g id="object">
      <g>
        <path d="M459.581,190.686c12.27,4.34,10.11,22.34,10.02,23.1-.09.65-.64,1.14-1.29,1.14h-6.06c-.45,0-.87-.24-1.11-.63-.23-.38-.25-.87-.04-1.27,3.94-7.58-9.77-15.5-9.91-15.58-.4-.23-.65-.66-.65-1.12-.01-.46.23-.89.63-1.12l7.31-4.41c.34-.2.74-.24,1.1-.11ZM467.121,212.326c.23-3.73.3-15.58-7.84-18.98l-4.97,3c3.75,2.53,11.73,8.88,9.83,15.98h2.98Z"/>
        <path d="M459.281,193.346c8.14,3.4,8.07,15.25,7.84,18.98h-2.98c1.9-7.1-6.08-13.45-9.83-15.98l4.97-3Z" fill="#fd4d71"/>
        <path d="M430.861,87.896c4.67,0,8.46,3.79,8.46,8.46s-3.79,8.46-8.46,8.46-8.46-3.79-8.46-8.46,3.8-8.46,8.46-8.46ZM435.331,96.356c0-2.47-2-4.47-4.47-4.47s-4.47,2-4.47,4.47,2.01,4.47,4.47,4.47,4.47-2,4.47-4.47Z"/>
        <path d="M432.521,117.056c1.1.06,1.95.99,1.89,2.09-.05,1.1-.99,1.96-2.08,1.9-8.58-.4-17.38,2.42-24.11,7.77-.37.29-.81.43-1.24.43-.59,0-1.17-.26-1.57-.76-.68-.86-.54-2.11.32-2.8,7.48-5.94,17.24-9.09,26.79-8.63Z"/>
        <path d="M429.151,148.376c3.72,0,6.75,3.03,6.75,6.75s-3.03,6.75-6.75,6.75-6.75-3.03-6.75-6.75,3.03-6.75,6.75-6.75ZM431.911,155.126c0-1.52-1.24-2.76-2.76-2.76s-2.76,1.24-2.76,2.76,1.24,2.76,2.76,2.76,2.76-1.24,2.76-2.76Z"/>
        <path d="M430.861,91.886c2.47,0,4.47,2,4.47,4.47s-2,4.47-4.47,4.47-4.47-2-4.47-4.47,2.01-4.47,4.47-4.47Z" fill="#fed23d"/>
        <circle cx="429.151" cy="155.126" r="2.76" fill="#fff"/>
        <path d="M413.731,243.926c.09.36.02.74-.19,1.04l-8.58,12.51c-.22.32-.57.53-.96.56-.03,0-.07.01-.11.01-.35,0-.68-.14-.93-.4l-8.58-8.78c-.24-.25-.37-.58-.37-.93.01-.34.15-.67.4-.91l8.58-8.23c.41-.39,1.01-.47,1.5-.21l8.59,4.5c.32.17.56.48.65.84ZM403.721,254.706l6.86-10-6.46-3.39-6.96,6.67,6.56,6.72Z"/>
        <path d="M409.541,153.606c1.09.13,1.88,1.12,1.75,2.21-.13,1.1-1.11,1.88-2.21,1.76-4.99-.58-10.02-.38-14.94.59-.13.03-.26.04-.39.04-.93,0-1.77-.66-1.96-1.61-.21-1.08.5-2.13,1.58-2.34,5.33-1.05,10.77-1.27,16.17-.65Z"/>
        <path d="M410.561,95.946c.47.99.03,2.18-.96,2.65-9.31,4.35-17.7,10.83-24.27,18.74-.39.47-.96.72-1.53.72-.45,0-.9-.15-1.28-.46-.84-.7-.96-1.96-.26-2.81,6.94-8.36,15.81-15.21,25.65-19.81,1-.46,2.18-.03,2.65.97Z"/>
        <polygon points="410.581 244.706 403.721 254.706 397.161 247.986 404.121 241.316 410.581 244.706" fill="#4bbd8c"/>
        <path d="M403.721,52.736c4.18,0,7.58,3.4,7.58,7.59s-3.4,7.58-7.58,7.58-7.58-3.4-7.58-7.58,3.4-7.59,7.58-7.59ZM407.311,60.326c0-1.98-1.61-3.6-3.59-3.6s-3.59,1.62-3.59,3.6c0,1.97,1.61,3.59,3.59,3.59s3.59-1.62,3.59-3.59Z"/>
        <path d="M403.721,56.726c1.98,0,3.59,1.62,3.59,3.6,0,1.97-1.61,3.59-3.59,3.59s-3.59-1.62-3.59-3.59c0-1.98,1.61-3.6,3.59-3.6Z" fill="#fff"/>
        <path d="M403.601,308.036c.38,1.03,9.12,25.33-2.26,35.74-2.37,2.17-4.94,3.26-7.66,3.26-.21,0-.42-.01-.63-.03-.39,2.96-2.05,9.69-9.08,12.4-1.37,2.31-8.32,12.89-20.62,12.89-2.84,0-5.95-.56-9.35-1.91-.53-.21-.86-.75-.81-1.33.05-.57.48-1.04,1.04-1.15.14-.03,13.27-2.73,16.46-11.7-1.16-1.07-2.09-2.16-2.74-3.01-.66-.85-1.03-1.45-1.09-1.56-2.64-3.99-3.58-7.73-2.65-10.54.62-1.86,2.05-3.24,4.14-3.99,4.66-1.68,10.97,3.79,13.68,6.47.28-.63.49-1.32.64-2.07-2.89-2.84-4.85-5.85-5.32-6.61-3.41-3.42-5.11-8.81-2.55-13.94,1.56-3.12,3.5-4.66,5.78-4.52,4.67.26,8.75,7.9,10.83,12.62,1.95-9.71-7.35-21.82-7.46-21.95-.32-.42-.36-.99-.1-1.44.26-.46.77-.71,1.29-.65l17.4,2.18c.49.06.89.38,1.06.84ZM399.581,341.866c9.09-8.31,3.18-28.12,1.84-32.2l-13.69-1.71c3.25,4.96,9.52,16.42,4.93,25.35v.01c-2.07,4.01-5.66,5.78-9.56,4.88,2.4,2.7,5.78,5.63,9.43,6.16,2.51.36,4.82-.45,7.05-2.49ZM382.651,357.126c6.33-2.19,7.6-8.21,7.86-10.58-2.06-.62-3.97-1.77-5.67-3.12-.33,1.06-.78,2-1.34,2.83-.01.03-.03.05-.04.07-2.95,4.37-8.54,5.83-12.87,6,2.22,2.63,6.68,6.66,12.06,4.8ZM390.081,332.616c-2.57-6.72-6.64-13.42-9.65-13.59-1.14-.07-2.25.98-3.3,3.09-2,3.99-.67,8.21,2.01,10.91.09.06.17.14.24.23.73.69,1.54,1.27,2.41,1.71,1.28.65,5.55,2.33,8.29-2.35ZM380.361,360.196c-.19.01-.38.03-.57.03-2.68,0-5.03-1.02-6.98-2.34-2.69,6.36-9.35,9.74-13.81,11.34,11.32,2.45,18.41-4.96,21.36-9.03ZM380.601,345.806c-3.19-3.24-8.49-7.29-11.37-6.26-1.35.49-2.19,1.26-2.56,2.37-.62,1.87.16,4.76,2.05,7.8,2.04.08,8.42,0,11.88-3.91Z"/>
        <path d="M401.421,309.666c1.34,4.08,7.25,23.89-1.84,32.2-2.23,2.04-4.54,2.85-7.05,2.49-3.65-.53-7.03-3.46-9.43-6.16,3.9.9,7.49-.87,9.56-4.88v-.01c4.59-8.93-1.68-20.39-4.93-25.35l13.69,1.71Z" fill="#fed23d"/>
        <path d="M399.881,128.796c.49.88.25,1.99-.57,2.58l-34.23,24.97,18.12.86c.92.04,1.7.72,1.86,1.63.17.92-.31,1.82-1.16,2.19-9.44,4.1-22.52,9.79-28.76,12.52,1.44,1.06,2.78,2.13,4.02,3.22,7.15,6.28,10.06,12.41,8.19,17.28l-79.9,208.43c-1.98,5.17-8.55,7.34-17.03,7.34-6.71,0-14.61-1.37-22.39-3.66l6.12,20.83v.02c3.28,11.15-16.86,23.61-37.47,29.66-9.37,2.75-18.64,4.21-26.55,4.21-1.38,0-2.72-.05-4-.13-9.49-.66-15.53-3.78-17-8.78v-.01l-62.88-214.17c-3.17-10.81,15.64-22.83,35.55-29.07-.81-6.18-4.52-26.26-19.11-38.61-9.56-8.1-22.08-11.46-37.23-10.01-1.31.13-2.47-.83-2.6-2.14s.83-2.47,2.14-2.59c16.49-1.58,30.22,2.16,40.8,11.13,15.47,13.12,19.61,33.41,20.64,40.89,10.06-2.69,19.86-3.88,27.84-3.33,9.49.65,15.52,3.77,16.99,8.77l32.09,109.29,61.25-159.78c2.4-6.26,11.25-8.14,22.15-7.14l-13.09-28.07c-.4-.86-.14-1.89.63-2.45s1.83-.5,2.53.14l11.69,10.8-14.92-41.56c-.34-.96.09-2.02,1-2.47s2.02-.13,2.56.72l20.87,32.9,5-37.96c.13-.97.94-1.71,1.92-1.73,1-.08,1.84.66,2.02,1.62l6.42,34.13,27.35-52.92c.45-.88,1.48-1.29,2.42-.97.93.32,1.49,1.28,1.31,2.25l-10.36,55.14,19.94-26.84c.6-.8,1.7-1.04,2.57-.55.88.48,1.26,1.54.89,2.47l-16.93,42.89,36.81-14.82c.94-.38,2.01,0,2.49.88ZM358.151,156.456l25.85-18.85-26.24,10.56c-.74.3-1.58.13-2.15-.43-.56-.57-.74-1.41-.45-2.15l13.1-33.16-16.1,21.67c-.56.74-1.55,1-2.4.63s-1.34-1.28-1.16-2.19l9.44-50.28-23.77,46c-.39.75-1.21,1.18-2.06,1.05-.84-.12-1.51-.76-1.67-1.6l-5.19-27.56-4.08,31.03c-.11.84-.73,1.51-1.55,1.69s-1.66-.17-2.11-.88l-14.16-22.32,11.58,32.26c.31.86-.01,1.83-.77,2.33-.77.51-1.78.43-2.46-.19l-10.24-9.45,9.87,21.16c6.78,1.06,14.08,3.06,20.95,5.7,6.97,2.67,13.42,5.9,18.89,9.42.89-.39,2.15-.95,3.66-1.61,3.04-1.33,7.09-3.1,11.15-4.86,2.91-1.27,5.83-2.54,8.36-3.64l-15.2-.72c-.85-.04-1.58-.61-1.82-1.42s.05-1.69.73-2.19ZM362.911,192.346c1.07-2.79-1.51-7.28-6.89-12-6.14-5.39-15.14-10.52-25.34-14.43-21.76-8.34-39.4-7.68-41.62-1.88l-1.25,3.26c26.6,7.68,50.47,24.9,66.39,47.77l8.71-22.72ZM345.061,238.886l7.83-20.41c-15.57-23.23-39.46-40.73-66.16-48.37l-8.06,21.01c26.61,7.69,50.48,24.91,66.39,47.77ZM336.871,260.256l6.89-17.96c-15.56-23.22-39.46-40.72-66.16-48.37l-6.79,17.71c26.59,7.98,50.37,25.49,66.06,48.62ZM328.611,281.806l6.95-18.11c-15.33-23.5-39.13-41.3-65.83-49.24l-7.18,18.74c26.6,7.97,50.37,25.49,66.06,48.61ZM317.361,311.166l9.94-25.92c-15.32-23.49-39.13-41.29-65.83-49.24l-10.18,26.54c26.6,7.97,50.38,25.48,66.07,48.62ZM308.231,334.986l7.81-20.39c-15.32-23.5-39.12-41.3-65.82-49.24l-8.06,21.01c26.61,7.98,50.38,25.49,66.07,48.62ZM301.241,353.216l5.67-14.8c-15.32-23.49-39.12-41.29-65.83-49.24l-5.97,15.58c26.6,7.91,50.39,25.38,66.13,48.46ZM292.111,377.036l7.81-20.39c-15.36-23.45-39.18-41.2-65.88-49.08l-8.06,21.01c26.61,7.92,50.4,25.39,66.13,48.46ZM286.021,392.916l4.77-12.45c-15.11-23.06-38.41-40.61-64.59-48.69l9.75,33.23c5.38,1.12,10.94,2.76,16.53,4.91,12.463,5.143,25.798,11.53,33.54,23ZM283.251,399.616c.061-1.511-.541-2.945-1.28-4.24-3.65-6.29-14.87-14.76-31.19-21.02-4.49-1.72-8.95-3.1-13.3-4.13l8.95,30.46c19.5,6.41,34.58,5.28,36.58.09.124-.378.212-.761.24-1.16ZM215.341,452.096c22.36-6.56,36-17.79,34.25-23.75-6.694-10.139-31.545-4.141-41.65-1.46-22.36,6.57-35.99,17.78-34.24,23.74.84,2.87,5.61,4.87,12.75,5.37,8.15.56,18.41-.82,28.89-3.9ZM247.221,420.266l-5.6-19.05-10.86-7.4-6.01,8.65c-.44.63-1.28.82-1.95.46l-21.07-11.51-11.28,19.16c-.37.64-1.15.91-1.84.64l-15.03-5.9-.85,15.07c-.03.47-.27.89-.65,1.16-.25.17-.55.26-.85.26-.15,0-.31-.02-.46-.07l-6.13-1.97,6.69,22.78c15.794-18.142,52.778-28.999,75.89-22.28ZM240.291,396.676l-4.8-16.34-10.86-7.4-6.01,8.65c-.44.63-1.28.83-1.95.46l-21.07-11.51-11.28,19.16c-.37.64-1.15.91-1.84.64l-15.03-5.89-.85,15.07c-.03.46-.27.88-.65,1.15-.25.17-.55.26-.85.26-.15,0-.31-.02-.46-.07l-6.13-1.97,5.11,17.4,6.22,2,.86-15.2c.03-.48.29-.92.69-1.18.41-.26.91-.31,1.36-.13l15.77,6.18,11.37-19.31c.4-.7,1.29-.95,2.01-.56l21.16,11.56,6.08-8.77c.47-.67,1.4-.84,2.08-.38l9.07,6.18ZM234.161,375.796l-3.38-11.53c-26.43-9.38-56.15-9.1-82.21.78l8.92,30.36,6.22,2,.86-15.2c.03-.48.29-.92.69-1.18.41-.26.91-.31,1.36-.13l15.77,6.18,11.37-19.31c.41-.7,1.3-.94,2.01-.55l21.16,11.55,6.08-8.76c.47-.68,1.4-.85,2.08-.39l9.07,6.18ZM229.741,360.746l-6.15-20.95c-26.44-9.39-56.16-9.11-82.2.77l6.34,21.59c25.99-9.79,55.51-10.29,82.01-1.41ZM222.551,336.266l-7.82-26.64c-26.42-9.38-56.14-9.1-82.2.77l8.01,27.28c25.98-9.8,55.51-10.29,82.01-1.41ZM213.701,306.096l-5.47-18.61c-26.43-9.39-56.15-9.11-82.2.77l5.65,19.25c25.99-9.79,55.52-10.28,82.02-1.41ZM207.201,283.956l-7.64-26.01-10.86-7.41-6.01,8.65c-.44.63-1.28.83-1.95.47l-21.07-11.51-11.28,19.16c-.37.64-1.15.91-1.84.64l-15.03-5.9-.86,15.07c-.02.46-.26.89-.65,1.15-.25.18-.54.27-.84.27-.16,0-.31-.03-.46-.08l-6.13-1.96,2.6,8.87c25.98-9.79,55.51-10.28,82.02-1.41ZM198.231,253.406l-4.8-16.34-10.86-7.4-6.01,8.65c-.44.63-1.28.82-1.95.46l-21.07-11.51-11.28,19.16c-.37.64-1.15.91-1.84.64l-15.03-5.9-.86,15.07c-.02.47-.26.89-.65,1.15-.25.18-.54.27-.84.27-.16,0-.31-.03-.46-.07l-6.13-1.97,5.11,17.4,6.22,2,.86-15.21c.03-.48.28-.91.69-1.17.4-.26.91-.31,1.35-.14l15.77,6.19,11.37-19.31c.41-.7,1.3-.95,2.01-.56l21.16,11.56,6.09-8.77c.47-.68,1.4-.85,2.08-.38l9.07,6.18ZM192.101,232.526l-5.39-18.36c-.84-2.87-5.61-4.87-12.76-5.37-1.19-.08-2.42-.12-3.69-.12-7.46,0-16.25,1.4-25.2,4.02-22.36,6.57-35.99,17.79-34.24,23.75l4.61,15.69,6.22,2,.86-15.21c.03-.48.28-.91.69-1.17.4-.26.91-.31,1.36-.14l15.76,6.19,11.37-19.31c.41-.7,1.3-.94,2.01-.56l21.16,11.56,6.09-8.77c.47-.67,1.4-.84,2.08-.38l9.07,6.18Z"/>
        <path d="M390.511,346.546c-.26,2.37-1.53,8.39-7.86,10.58-5.38,1.86-9.84-2.17-12.06-4.8,4.33-.17,9.92-1.63,12.87-6,.01-.02.03-.04.04-.07.56-.83,1.01-1.77,1.34-2.83,1.7,1.35,3.61,2.5,5.67,3.12Z" fill="#fed23d"/>
        <path d="M388.671,79.466c.72.84.63,2.1-.2,2.82-2.69,2.32-4.92,5.24-6.43,8.45-.34.72-1.06,1.15-1.81,1.15-.29,0-.58-.06-.85-.19-1-.47-1.42-1.66-.95-2.66,1.75-3.71,4.32-7.09,7.43-9.78.84-.71,2.09-.62,2.81.21Z"/>
        <path d="M380.431,319.026c3.01.17,7.08,6.87,9.65,13.59-2.74,4.68-7.01,3-8.29,2.35-.87-.44-1.68-1.02-2.41-1.71-.07-.09-.15-.17-.24-.23-2.68-2.7-4.01-6.92-2.01-10.91,1.05-2.11,2.16-3.16,3.3-3.09Z" fill="#fed23d"/>
        <path d="M384.001,137.606l-25.85,18.85c-.68.5-.97,1.38-.73,2.19s.97,1.38,1.82,1.42l15.2.72c-2.53,1.1-5.45,2.37-8.36,3.64-4.06,1.76-8.11,3.53-11.15,4.86-1.51.66-2.77,1.22-3.66,1.61-5.47-3.52-11.92-6.75-18.89-9.42-6.87-2.64-14.17-4.64-20.95-5.7l-9.87-21.16,10.24,9.45c.68.62,1.69.7,2.46.19.76-.5,1.08-1.47.77-2.33l-11.58-32.26,14.16,22.32c.45.71,1.29,1.06,2.11.88s1.44-.85,1.55-1.69l4.08-31.03,5.19,27.56c.16.84.83,1.48,1.67,1.6.85.13,1.67-.3,2.06-1.05l23.77-46-9.44,50.28c-.18.91.31,1.82,1.16,2.19s1.84.11,2.4-.63l16.1-21.67-13.1,33.16c-.29.74-.11,1.58.45,2.15.57.56,1.41.73,2.15.43l26.24-10.56Z" fill="#fed23d"/>
        <path d="M379.791,360.226c.19,0,.38-.02.57-.03-2.95,4.07-10.04,11.48-21.36,9.03,4.46-1.6,11.12-4.98,13.81-11.34,1.95,1.32,4.3,2.34,6.98,2.34Z" fill="#fed23d"/>
        <path d="M369.231,339.546c2.88-1.03,8.18,3.02,11.37,6.26-3.46,3.91-9.84,3.99-11.88,3.91-1.89-3.04-2.67-5.93-2.05-7.8.37-1.11,1.21-1.88,2.56-2.37Z" fill="#fed23d"/>
        <path d="M365.931,39.136c1.1.12,1.89,1.1,1.77,2.19l-2.13,19.63c-.11,1.02-.97,1.78-1.98,1.78-.07,0-.14,0-.21-.01-1.1-.12-1.89-1.11-1.77-2.2l2.12-19.62c.12-1.1,1.11-1.89,2.2-1.77Z"/>
        <path d="M362.907,192.343l-8.71,22.72c-14.55-20.9-35.73-37.08-59.57-45.57-2.25-.8-4.53-1.54-6.82-2.2l1.25-3.26c.88-2.29,4.16-3.78,9.16-4.22,7.65-.7,19.3,1.06,32.46,6.1,10.2,3.91,19.2,9.04,25.34,14.43,5.38,4.72,7.96,9.21,6.89,12Z" fill="#fd4d71"/>
        <path d="M352.887,218.473l-7.83,20.41c-14.45-20.76-35.46-36.87-59.12-45.41-2.4-.87-4.82-1.65-7.27-2.36l8.06-21.01c2.31.66,4.59,1.39,6.85,2.21,23.92,8.5,45.08,24.94,59.31,46.16Z" fill="#4bbd8c"/>
        <path d="M339.941,60.756c3.99,0,7.23,3.24,7.23,7.23s-3.24,7.24-7.23,7.24-7.24-3.25-7.24-7.24,3.25-7.23,7.24-7.23ZM343.181,67.986c0-1.79-1.46-3.24-3.24-3.24-1.79,0-3.25,1.45-3.25,3.24s1.46,3.25,3.25,3.25c1.78,0,3.24-1.46,3.24-3.25Z"/>
        <path d="M343.757,242.293l-6.89,17.96c-14.13-20.82-34.81-37.09-58.2-45.95-2.59-.98-5.21-1.87-7.86-2.67l6.79-17.71c2.47.71,4.92,1.5,7.34,2.38,23.72,8.56,44.7,24.92,58.82,45.99Z" fill="#fd4d71"/>
        <path d="M339.941,64.746c1.78,0,3.24,1.45,3.24,3.24s-1.46,3.25-3.24,3.25c-1.79,0-3.25-1.46-3.25-3.25s1.46-3.24,3.25-3.24Z" fill="#fed23d"/>
        <path d="M335.557,263.694l-6.95,18.11c-13.94-20.55-34.27-36.67-57.29-45.59-2.88-1.13-5.81-2.13-8.77-3.02l7.18-18.74c2.68.8,5.34,1.7,7.96,2.69,23.44,8.89,44.08,25.41,57.87,46.55Z" fill="#4bbd8c"/>
        <path d="M328.991,429.156c.12.43.01.9-.29,1.24l-11.51,12.51c-.25.27-.6.42-.96.42-.12,0-.24-.02-.36-.06-.47-.13-.82-.52-.91-1.01l-3-16.35c-.08-.44.07-.88.4-1.19.32-.3.78-.41,1.21-.3l14.5,3.85c.44.11.79.45.92.89ZM317.041,439.226l8.29-9.01-10.45-2.77,2.16,11.78Z"/>
        <path d="M327.297,285.243l-9.94,25.92c-13.56-20-33.17-35.8-55.43-44.86-3.48-1.42-7.04-2.68-10.64-3.76l10.18-26.54c3.01.9,5.99,1.92,8.92,3.07,23.05,8.97,43.32,25.33,56.91,46.17Z" fill="#fd4d71"/>
        <polygon points="325.331 430.216 317.041 439.226 314.881 427.446 325.331 430.216" fill="#fd4d71"/>
        <path d="M324.921,76.576c.13,1.09-.65,2.08-1.74,2.21-.08.01-.16.02-.24.02-1,0-1.86-.74-1.98-1.76-1.15-9.59-3.96-18.83-8.33-27.45-.5-.98-.11-2.18.87-2.68s2.19-.11,2.68.87c4.59,9.04,7.53,18.73,8.74,28.79Z"/>
        <path d="M316.037,314.593l-7.81,20.39c-13.09-19.29-31.8-34.68-53.09-43.87-4.23-1.84-8.57-3.43-12.98-4.75l8.06-21.01c3.68,1.09,7.31,2.38,10.86,3.84,22.24,9.12,41.75,25.14,54.96,45.4Z" fill="#4bbd8c"/>
        <path d="M306.907,338.414l-5.67,14.8c-12.53-18.37-30.15-33.18-50.23-42.45-5.15-2.38-10.47-4.39-15.9-6.01l5.97-15.58c4.55,1.35,9.01,2.99,13.35,4.9,21.21,9.27,39.77,24.85,52.48,44.34Z" fill="#fd4d71"/>
        <path d="M299.917,356.643l-7.81,20.39c-10.66-15.63-25.02-28.7-41.46-37.96-7.81-4.4-16.1-7.95-24.67-10.5l8.06-21.01c5.65,1.67,11.17,3.78,16.5,6.3,19.9,9.34,37.27,24.29,49.38,42.78Z" fill="#4bbd8c"/>
        <path d="M291.161,85.106c.61.92.36,2.16-.55,2.77-.34.23-.73.33-1.11.33-.64,0-1.27-.31-1.66-.89l-4.63-6.95c-.61-.92-.36-2.16.56-2.77s2.16-.36,2.77.56l4.62,6.95Z"/>
        <path d="M290.981,116.236c.66.89.47,2.14-.42,2.79-.35.27-.77.39-1.18.39-.61,0-1.22-.28-1.61-.81l-11.74-15.92c-.66-.89-.47-2.14.42-2.79.89-.66,2.14-.47,2.79.42l11.74,15.92Z"/>
        <path d="M290.787,380.463l-4.77,12.45c-7.743-11.471-21.077-17.857-33.54-23-5.59-2.15-11.15-3.79-16.53-4.91l-9.75-33.23c8.76,2.7,17.19,6.47,25.1,11.14,15.75,9.3,29.43,22.2,39.49,37.55Z" fill="#fd4d71"/>
        <path d="M283.571,52.736c4.37,0,7.93,3.56,7.93,7.93s-3.56,7.93-7.93,7.93-7.93-3.55-7.93-7.93,3.56-7.93,7.93-7.93ZM287.511,60.666c0-2.17-1.77-3.94-3.94-3.94s-3.94,1.77-3.94,3.94,1.77,3.94,3.94,3.94,3.94-1.76,3.94-3.94Z"/>
        <circle cx="283.571" cy="60.666" r="3.94" fill="#fff"/>
        <path d="M283.247,399.253c.027.519-.079,1.03-.24,1.52-1.54,4-10.84,5.59-23.94,3.17-3.91-.71-8.16-1.79-12.64-3.26l-8.95-30.46c4.35,1.03,8.81,2.41,13.3,4.13,9.12,3.5,16.65,7.69,22.15,11.79,0,.01.01.02.01.02h.01c5.625,4.642,9.306,7.35,10.3,13.09Z" fill="#fd4d71"/>
        <path d="M257.911,94.796c4.43,0,8.03,3.6,8.03,8.03s-3.6,8.03-8.03,8.03-8.03-3.61-8.03-8.03,3.6-8.03,8.03-8.03ZM261.951,102.826c0-2.23-1.81-4.04-4.04-4.04s-4.04,1.81-4.04,4.04,1.81,4.04,4.04,4.04,4.04-1.82,4.04-4.04Z"/>
        <path d="M257.911,98.786c2.23,0,4.04,1.81,4.04,4.04s-1.81,4.04-4.04,4.04-4.04-1.82-4.04-4.04,1.81-4.04,4.04-4.04Z" fill="#fed23d"/>
        <path d="M215.337,452.093c-1.43.42-2.85.81-4.26,1.16-8.97,2.26-17.59,3.22-24.63,2.74-7.14-.5-11.91-2.5-12.75-5.37-1.75-5.96,11.88-17.17,34.24-23.74,9.733-2.686,35.38-8.606,41.65,1.46,1.75,5.96-11.89,17.19-34.25,23.75Z" fill="#fd4d71"/>
        <path d="M247.217,420.263c-22.844-6.765-60.318,4.218-75.89,22.28l-6.69-22.78,6.13,1.97c.15.05.31.07.46.07.3,0,.6-.09.85-.26.38-.27.62-.69.65-1.16l.85-15.07,7.23,2.84,7.8,3.06c.69.27,1.47,0,1.84-.64l11.28-19.16,21.07,11.51c.67.36,1.51.17,1.95-.46l6.01-8.65,10.86,7.4,5.6,19.05Z" fill="#6757dc"/>
        <path d="M240.981,205.716c.12.44.01.91-.29,1.25l-11.51,12.5c-.25.28-.6.42-.96.42-.12,0-.24-.01-.36-.05-.47-.13-.83-.53-.91-1.01l-3-16.35c-.08-.44.07-.89.4-1.19.32-.3.78-.41,1.21-.3l14.5,3.84c.44.12.79.46.92.89ZM229.031,215.796l8.29-9.01-10.45-2.77,2.16,11.78Z"/>
        <path d="M240.287,396.674l-9.07-6.18c-.68-.46-1.61-.29-2.08.38l-6.08,8.77-21.16-11.56c-.72-.39-1.61-.14-2.01.56l-11.37,19.31-10.16-3.98-5.61-2.2c-.45-.18-.95-.13-1.36.13-.4.26-.66.7-.69,1.18l-.86,15.2-6.22-2-5.11-17.4,6.13,1.97c.15.05.31.07.46.07.3,0,.6-.09.85-.26.38-.27.62-.69.65-1.15l.85-15.07,2.59,1.01,12.44,4.88c.69.27,1.47,0,1.84-.64l11.28-19.16,21.07,11.51c.67.37,1.51.17,1.95-.46l6.01-8.65,10.86,7.4,4.8,16.34Z" fill="#fed23d"/>
        <polygon points="237.321 206.786 229.031 215.796 226.871 204.016 237.321 206.786" fill="#fd4d71"/>
        <path d="M234.157,375.793l-9.07-6.18c-.68-.46-1.61-.29-2.08.39l-6.08,8.76-21.16-11.55c-.71-.39-1.6-.15-2.01.55l-11.37,19.31-13.79-5.4-1.98-.78c-.45-.18-.95-.13-1.36.13-.4.26-.66.7-.69,1.18l-.86,15.2-6.22-2-8.92-30.36c4.24-1.61,8.57-2.96,12.98-4.06,22.66-5.66,47.1-4.57,69.23,3.28l3.38,11.53Z" fill="#fd4d71"/>
        <path d="M229.737,360.743c-22.19-7.44-46.5-8.29-69.08-2.63-4.38,1.1-8.7,2.45-12.93,4.04l-6.34-21.59c4.22-1.6,8.54-2.95,12.93-4.04,22.67-5.68,47.12-4.6,69.27,3.27l6.15,20.95Z" fill="#fed23d"/>
        <path d="M218.871,142.206c2.78,1.76,17.83,12.35,10.05,30.28-.21.48-.68.79-1.19.79-.05,0-.1-.01-.16-.01-.57-.07-1.03-.51-1.12-1.08-.02-.14-2.32-13.34-11.19-16.81-1.1,1.13-2.22,2.03-3.09,2.65-.86.62-1.48.98-1.59,1.04-2.94,1.81-5.71,2.74-8.07,2.75-.92,0-1.77-.14-2.55-.43-1.84-.67-3.18-2.14-3.86-4.26-1.54-4.71,4.13-10.85,6.88-13.48-.61-.29-1.29-.53-2.04-.7-2.93,2.8-6,4.67-6.77,5.12-2.27,2.12-5.33,3.51-8.56,3.51-1.8,0-3.65-.43-5.46-1.4-3.07-1.65-4.53-3.64-4.33-5.9.39-4.67,8.16-8.51,12.95-10.45-9.66-2.25-22.04,6.68-22.18,6.78-.42.31-.99.33-1.44.06s-.69-.79-.61-1.31l2.71-17.33c.08-.48.41-.88.87-1.03,1.04-.34,25.61-8.34,35.66,3.37,2.25,2.61,3.24,5.43,2.97,8.38,2.94.48,9.63,2.34,12.12,9.46ZM227.911,167.456c2.81-11.23-4.39-18.55-8.36-21.62.07,2.91-1.05,5.44-2.53,7.48,6.27,2.88,9.43,9.65,10.89,14.14ZM211.381,155.356c2.7-2.14,6.87-6.48,5.17-11.91-1.98-6.34-7.99-7.83-10.34-8.17-.68,2.04-1.88,3.91-3.28,5.56,1.04.37,1.97.85,2.78,1.43.03.01.05.03.08.04,4.27,3.09,5.55,8.72,5.59,13.05ZM208.711,157.146c.15-2.03.26-8.41-3.53-12-3.35,3.09-7.56,8.27-6.62,11.18.45,1.36,1.2,2.22,2.29,2.62,1.86.68,4.77,0,7.86-1.8ZM204.091,133.176c.44-2.5-.3-4.83-2.28-7.12-8.03-9.35-28-4.05-32.12-2.83l-2.13,13.63c5.06-3.09,16.71-9.01,25.49-4.15l.01.01c3.95,2.19,5.6,5.83,4.58,9.7,2.77-2.32,5.8-5.6,6.45-9.24ZM194.381,143.626c.68-1.26,2.5-5.48-2.09-8.36-6.8,2.37-13.63,6.22-13.89,9.23-.09,1.13.91,2.28,2.98,3.4,3.94,2.12,8.19.91,10.97-1.68.07-.09.15-.17.25-.24.71-.7,1.31-1.5,1.78-2.35Z"/>
        <path d="M219.551,145.836c3.97,3.07,11.17,10.39,8.36,21.62-1.46-4.49-4.62-11.26-10.89-14.14,1.48-2.04,2.6-4.57,2.53-7.48Z" fill="#4bbd8c"/>
        <path d="M223.651,62.616c.01.04.01.09.01.13,0,3.3-2.69,5.98-5.98,5.98-.04,0-.09,0-.13-.01l.13-2.58c1.86,0,3.38-1.52,3.38-3.39l2.59-.13Z"/>
        <path d="M223.651,62.616l-2.59.13c0-1.86-1.52-3.38-3.38-3.38l.13-2.58c3.19.06,5.78,2.64,5.84,5.83Z"/>
        <path d="M222.547,336.263c-22.17-7.43-46.46-8.3-69.03-2.64-4.4,1.1-8.74,2.45-12.98,4.05l-8.01-27.28c4.49-1.7,9.08-3.11,13.75-4.24,22.44-5.44,46.58-4.3,68.45,3.47l7.82,26.64Z" fill="#6757dc"/>
        <path d="M217.681,59.366c1.86,0,3.38,1.52,3.38,3.38,0,1.87-1.52,3.39-3.38,3.39-1.87,0-3.39-1.52-3.39-3.39,0-1.86,1.52-3.38,3.39-3.38Z" fill="#4bbd8c"/>
        <path d="M217.811,56.786l-.13,2.58c-1.87,0-3.39,1.52-3.39,3.38l-2.58.13c-.01-.04-.01-.09-.01-.13,0-3.29,2.68-5.97,5.98-5.97.04,0,.09,0,.13.01Z"/>
        <path d="M217.681,66.136l-.13,2.58c-3.2-.06-5.78-2.64-5.84-5.84l2.58-.13c0,1.87,1.52,3.39,3.39,3.39Z"/>
        <path d="M216.551,143.446c1.7,5.43-2.47,9.77-5.17,11.91-.04-4.33-1.32-9.96-5.59-13.05-.03-.01-.05-.03-.08-.04-.81-.58-1.74-1.06-2.78-1.43,1.4-1.65,2.6-3.52,3.28-5.56,2.35.34,8.36,1.83,10.34,8.17Z" fill="#4bbd8c"/>
        <path d="M213.697,306.093c-21.88-7.33-45.84-8.27-68.15-2.85-4.71,1.13-9.34,2.56-13.87,4.26l-5.65-19.25c4.8-1.82,9.72-3.31,14.72-4.47,22.16-5.19,45.92-3.96,67.48,3.7l5.47,18.61Z" fill="#fed23d"/>
        <path d="M205.181,145.146c3.79,3.59,3.68,9.97,3.53,12-3.09,1.8-6,2.48-7.86,1.8-1.09-.4-1.84-1.26-2.29-2.62-.94-2.91,3.27-8.09,6.62-11.18Z" fill="#4bbd8c"/>
        <path d="M207.197,283.954c-21.56-7.21-45.13-8.24-67.15-3.09-5.05,1.17-10.02,2.67-14.87,4.5l-2.6-8.87,6.13,1.96c.15.05.3.08.46.08.3,0,.59-.09.84-.27.39-.26.63-.69.65-1.15l.86-15.07,4.48,1.76,10.55,4.14c.69.27,1.47,0,1.84-.64l11.28-19.16,21.07,11.51c.67.36,1.51.16,1.95-.47l6.01-8.65,10.86,7.41,7.64,26.01Z" fill="#fd4d71"/>
        <path d="M201.811,126.056c1.98,2.29,2.72,4.62,2.28,7.12-.65,3.64-3.68,6.92-6.45,9.24,1.02-3.87-.63-7.51-4.58-9.7l-.01-.01c-8.78-4.86-20.43,1.06-25.49,4.15l2.13-13.63c4.12-1.22,24.09-6.52,32.12,2.83Z" fill="#4bbd8c"/>
        <path d="M198.227,253.403l-9.07-6.18c-.68-.47-1.61-.3-2.08.38l-6.09,8.77-21.16-11.56c-.71-.39-1.6-.14-2.01.56l-11.37,19.31-11.29-4.43-4.48-1.76c-.44-.17-.95-.12-1.35.14-.41.26-.66.69-.69,1.17l-.86,15.21-6.22-2-5.11-17.4,6.13,1.97c.15.04.3.07.46.07.3,0,.59-.09.84-.27.39-.26.63-.68.65-1.15l.86-15.07,7.04,2.76,7.99,3.14c.69.27,1.47,0,1.84-.64l11.28-19.16,21.07,11.51c.67.36,1.51.17,1.95-.46l6.01-8.65,10.86,7.4,4.8,16.34Z" fill="#fed23d"/>
        <path d="M192.291,135.266c4.59,2.88,2.77,7.1,2.09,8.36-.47.85-1.07,1.65-1.78,2.35-.1.07-.18.15-.25.24-2.78,2.59-7.03,3.8-10.97,1.68-2.07-1.12-3.07-2.27-2.98-3.4.26-3.01,7.09-6.86,13.89-9.23Z" fill="#4bbd8c"/>
        <path d="M192.097,232.523l-9.07-6.18c-.68-.46-1.61-.29-2.08.38l-6.09,8.77-21.16-11.56c-.71-.38-1.6-.14-2.01.56l-11.37,19.31-8.12-3.19-7.64-3c-.45-.17-.96-.12-1.36.14-.41.26-.66.69-.69,1.17l-.86,15.21-6.22-2-4.61-15.69c-1.51-5.16,8.48-14.25,25.68-20.86,2.68-1.03,5.54-2,8.56-2.89,8.95-2.62,17.74-4.02,25.2-4.02,1.27,0,2.5.04,3.69.12,7.15.5,11.92,2.5,12.76,5.37l5.39,18.36Z" fill="#6757dc"/>
        <path d="M132.471,50.086c12.26,4.34,10.11,22.34,10.01,23.1-.08.65-.63,1.13-1.29,1.13h-6.06c-.45,0-.87-.23-1.1-.62-.24-.39-.26-.87-.05-1.27,3.94-7.57-9.77-15.51-9.9-15.59-.4-.23-.65-.65-.66-1.11,0-.46.24-.89.63-1.13l7.32-4.4c.33-.2.73-.24,1.1-.11ZM140.001,71.726c.24-3.73.3-15.58-7.84-18.98l-4.97,2.99c3.75,2.53,11.73,8.88,9.84,15.99h2.97Z"/>
        <path d="M132.161,52.746c8.14,3.4,8.08,15.25,7.84,18.98h-2.97c1.89-7.11-6.09-13.46-9.84-15.99l4.97-2.99Z" fill="#fed23d"/>
        <path d="M119.331,443.366c4.37,0,7.92,3.56,7.92,7.93s-3.55,7.93-7.92,7.93-7.93-3.56-7.93-7.93,3.56-7.93,7.93-7.93ZM124.661,451.296c0-2.94-2.39-5.33-5.33-5.33s-5.33,2.39-5.33,5.33,2.39,5.33,5.33,5.33,5.33-2.39,5.33-5.33Z"/>
        <circle cx="119.331" cy="451.296" r="5.33" fill="#fed23d"/>
        <path d="M94.971,167.716c.65.52.75,1.46.23,2.11-.3.37-.73.56-1.17.56-.33,0-.66-.11-.94-.33l-6.25-5.03c-.64-.52-.74-1.46-.22-2.11.52-.64,1.46-.75,2.11-.23l6.24,5.03Z"/>
        <path d="M95.121,306.316c.09.36.02.75-.19,1.05l-8.58,12.51c-.22.32-.57.52-.96.56h-.11c-.35,0-.69-.14-.93-.39l-8.58-8.78c-.24-.25-.38-.58-.37-.93s.15-.68.4-.91l8.58-8.23c.4-.39,1.01-.48,1.5-.22l8.58,4.51c.33.17.57.47.66.83ZM85.101,317.106l6.86-10-6.46-3.39-6.96,6.67,6.56,6.72Z"/>
        <polygon points="91.961 307.106 85.101 317.106 78.541 310.386 85.501 303.716 91.961 307.106" fill="#4bbd8c"/>
        <path d="M88.681,136.896c.78.27,1.2,1.12.93,1.91l-3.86,11.15c-.21.62-.79,1.01-1.41,1.01-.17,0-.33-.03-.49-.09-.79-.27-1.2-1.12-.93-1.9l3.85-11.15c.27-.79,1.13-1.2,1.91-.93Z"/>
        <path d="M82.981,131.416c.83.09,1.41.84,1.32,1.66l-.59,5.03c-.09.76-.74,1.32-1.49,1.32-.05,0-.11,0-.17-.01-.82-.09-1.41-.84-1.32-1.66l.59-5.03c.1-.82.85-1.41,1.66-1.31Z"/>
        <path d="M80.341,174.836c.01.83-.65,1.51-1.48,1.53h-.02c-.82,0-1.49-.66-1.5-1.48l-.2-13.86c-.01-.82.65-1.51,1.48-1.52.81-.02,1.51.65,1.52,1.48l.2,13.85Z"/>
        <path d="M80.061,149.626c.41.72.16,1.64-.56,2.05-.23.13-.49.2-.74.2-.52,0-1.03-.27-1.3-.76l-6.9-12.02c-.41-.71-.16-1.63.56-2.04.72-.42,1.63-.17,2.05.55l6.89,12.02Z"/>
        <path d="M75.381,151.836c.82.14,1.37.92,1.23,1.74-.13.73-.76,1.24-1.48,1.24-.09,0-.17-.01-.26-.02l-13.65-2.37c-.82-.14-1.36-.92-1.22-1.73.14-.82.92-1.37,1.73-1.23l13.65,2.37Z"/>
        <path d="M76.221,157.016c.53.63.46,1.57-.17,2.11l-10.54,9c-.28.24-.62.36-.97.36-.42,0-.84-.18-1.14-.53-.54-.63-.46-1.58.17-2.11l10.53-9c.63-.54,1.58-.46,2.12.17Z"/>
        <path d="M74.881,80.616c.54.18.9.69.89,1.25-.01.57-.38,1.07-.92,1.23-19.02,5.71-14.82,22.09-14.63,22.78.16.6-.13,1.23-.68,1.5-.18.09-.38.14-.58.14-.39,0-.77-.18-1.02-.5-3.57-4.62-4.98-9.4-4.18-14.23,1.48-9.04,10.14-14.87,10.51-15.12.33-.22.74-.27,1.12-.15l9.49,3.1ZM70.491,81.916l-5.28-1.73c-1.78,1.33-7.79,6.27-8.9,13.03-.4,2.47-.11,4.94.87,7.4.21-5.69,2.52-14.08,13.31-18.7Z"/>
        <path d="M72.881,168.056c.75.35,1.08,1.24.74,1.99-.71,1.56-1.13,3.29-1.22,5-.04.8-.7,1.42-1.5,1.42h-.07c-.83-.04-1.47-.75-1.43-1.57.11-2.12.61-4.17,1.49-6.09.34-.76,1.23-1.09,1.99-.75Z"/>
        <path d="M72.571,384.966c.28,13-17.32,17.35-18.07,17.53-.1.03-.2.04-.3.04-.53,0-1.02-.33-1.21-.84l-2.14-5.67c-.17-.42-.09-.9.19-1.26.28-.35.72-.55,1.17-.49,8.48.98,11.05-14.62,11.08-14.77.07-.46.38-.84.81-1.01.42-.17.91-.1,1.27.19l6.71,5.29c.3.24.49.6.49.99ZM69.971,385.616l-4.55-3.59c-1.04,4.4-4.16,14.11-11.48,14.85l1.05,2.79c3.58-1.1,14.68-5.23,14.98-14.05Z"/>
        <path d="M65.211,80.186l5.28,1.73c-10.79,4.62-13.1,13.01-13.31,18.7-.98-2.46-1.27-4.93-.87-7.4,1.11-6.76,7.12-11.7,8.9-13.03Z" fill="#4bbd8c"/>
        <path d="M65.421,382.026l4.55,3.59c-.3,8.82-11.4,12.95-14.98,14.05l-1.05-2.79c7.32-.74,10.44-10.45,11.48-14.85Z" fill="#fd4d71"/>
        <path d="M65.141,141.616c.79.25,1.23,1.09.98,1.88-.2.64-.79,1.05-1.43,1.05-.15,0-.3-.02-.45-.07-2.17-.67-4.24-1.63-6.16-2.85-.7-.44-.9-1.37-.46-2.07s1.37-.9,2.07-.46c1.7,1.07,3.53,1.92,5.45,2.52Z"/>
        <path d="M60.531,159.396c.27.78-.15,1.64-.93,1.91l-8.55,2.92c-.16.06-.32.09-.48.09-.63,0-1.21-.4-1.42-1.02-.27-.78.15-1.64.93-1.9l8.54-2.93c.79-.27,1.64.15,1.91.93Z"/>
        <path d="M57.501,225.276c1.15,5.72.28,10.63-2.58,14.6-5.36,7.43-15.71,8.81-16.15,8.86-.05.01-.11.01-.16.01-.34,0-.66-.13-.91-.37l-7.11-7c-.41-.4-.51-1.01-.25-1.52.26-.5.82-.78,1.38-.69,19.56,3.35,23.1-13.18,23.24-13.89.12-.6.65-1.04,1.27-1.04s1.15.43,1.27,1.04ZM52.821,238.346c1.46-2.02,2.3-4.37,2.52-7-2.72,5-8.52,11.48-20.25,10.82l3.96,3.9c2.19-.4,9.77-2.15,13.77-7.72Z"/>
        <path d="M55.341,231.346c-.22,2.63-1.06,4.98-2.52,7-4,5.57-11.58,7.32-13.77,7.72l-3.96-3.9c11.73.66,17.53-5.82,20.25-10.82Z" fill="#fed23d"/>
        <path d="M250.647,339.073c-7.81-4.4-16.1-7.95-24.67-10.5l8.06-21.01c5.65,1.67,11.17,3.78,16.5,6.3-.32,2.3-.54,4.43-.66,6.37-.42,6.74-.08,13.03.77,18.84Z" opacity=".2"/>
        <path d="M251.007,310.763c-5.15-2.38-10.47-4.39-15.9-6.01l5.97-15.58c4.55,1.35,9.01,2.99,13.35,4.9-1.45,6.1-2.62,11.72-3.42,16.69Z" opacity=".2"/>
        <path d="M255.137,291.113c-4.23-1.84-8.57-3.43-12.98-4.75l8.06-21.01c3.68,1.09,7.31,2.38,10.86,3.84-2.23,7.67-4.24,15.06-5.94,21.92Z" opacity=".2"/>
        <path d="M261.927,266.303c-3.48-1.42-7.04-2.68-10.64-3.76l10.18-26.54c3.01.9,5.99,1.92,8.92,3.07-2.98,9.16-5.85,18.37-8.46,27.23Z" opacity=".2"/>
        <path d="M252.477,369.914c-5.59-2.15-11.15-3.79-16.53-4.91l-9.75-33.23c8.76,2.7,17.19,6.47,25.1,11.14,2.67,14.02,8.27,25,13.1,32.39-3.863-2.019-7.849-3.826-11.92-5.39Z" opacity=".2"/>
        <path d="M272.927,386.143c0,.01.01.02.01.02-.61-.16-19.77-4.98-19.07,8.25.19,3.51,2.25,6.71,5.2,9.53-3.91-.71-8.16-1.79-12.64-3.26l-8.95-30.46c4.35,1.03,8.81,2.41,13.3,4.13,9.12,3.5,16.65,7.69,22.15,11.79Z" opacity=".2"/>
        <path d="M269.727,214.454c2.68.8,5.34,1.7,7.96,2.69-2.12,6.23-4.27,12.63-6.37,19.07-2.88-1.13-5.81-2.13-8.77-3.02l7.18-18.74Z" opacity=".2"/>
        <path d="M277.597,193.924c2.47.71,4.92,1.5,7.34,2.38-2.03,5.72-4.14,11.76-6.27,18-2.59-.98-5.21-1.87-7.86-2.67l6.79-17.71Z" opacity=".2"/>
        <path d="M286.727,170.103c2.31.66,4.59,1.39,6.85,2.21-2.24,6.12-4.84,13.3-7.64,21.16-2.4-.87-4.82-1.65-7.27-2.36l8.06-21.01Z" opacity=".2"/>
        <path d="M298.217,159.813c-1.02,2.71-2.23,5.96-3.59,9.68-2.25-.8-4.53-1.54-6.82-2.2l1.25-3.26c.88-2.29,4.16-3.78,9.16-4.22Z" opacity=".2"/>
        <path d="M121.647,254.133l-6.22-2-4.61-15.69c-1.51-5.16,8.48-14.25,25.68-20.86-2.89,5.62-4.87,13.63-4.3,25.03l-7.64-3c-.45-.17-.96-.12-1.36.14-.41.26-.66.69-.69,1.17l-.86,15.21Z" opacity=".2"/>
        <path d="M127.777,275.013l-6.22-2-5.11-17.4,6.13,1.97c.15.04.3.07.46.07.3,0,.59-.09.84-.27.39-.26.63-.68.65-1.15l.86-15.07,7.04,2.76c.43,4.86,1.3,10.28,2.73,16.33l-4.48-1.76c-.44-.17-.95-.12-1.35.14-.41.26-.66.69-.69,1.17l-.86,15.21Z" opacity=".2"/>
        <path d="M140.047,280.863c-5.05,1.17-10.02,2.67-14.87,4.5l-2.6-8.87,6.13,1.96c.15.05.3.08.46.08.3,0,.59-.09.84-.27.39-.26.63-.69.65-1.15l.86-15.07,4.48,1.76c1.26,5.34,2.61,11.06,4.05,17.06Z" opacity=".2"/>
        <path d="M145.547,303.243c-4.71,1.13-9.34,2.56-13.87,4.26l-5.65-19.25c4.8-1.82,9.72-3.31,14.72-4.47,1.52,6.27,3.12,12.8,4.8,19.46Z" opacity=".2"/>
        <path d="M153.517,333.623c-4.4,1.1-8.74,2.45-12.98,4.05l-8.01-27.28c4.49-1.7,9.08-3.11,13.75-4.24,2.3,9.07,4.72,18.34,7.24,27.47Z" opacity=".2"/>
        <path d="M160.657,358.113c-4.38,1.1-8.7,2.45-12.93,4.04l-6.34-21.59c4.22-1.6,8.54-2.95,12.93-4.04,2.06,7.37,4.18,14.63,6.34,21.59Z" opacity=".2"/>
        <path d="M163.707,397.403l-6.22-2-8.92-30.36c4.24-1.61,8.57-2.96,12.98-4.06,2.32,7.34,4.67,14.31,7.05,20.69l-1.98-.78c-.45-.18-.95-.13-1.36.13-.4.26-.66.7-.69,1.18l-.86,15.2Z" opacity=".2"/>
        <path d="M169.837,418.283l-6.22-2-5.11-17.4,6.13,1.97c.15.05.31.07.46.07.3,0,.6-.09.85-.26.38-.27.62-.69.65-1.15l.85-15.07,2.59,1.01c2.76,7.15,5.55,13.44,8.32,18.52l-5.61-2.2c-.45-.18-.95-.13-1.36.13-.4.26-.66.7-.69,1.18l-.86,15.2Z" opacity=".2"/>
        <path d="M173.697,439.713c-.855.897-1.658,1.838-2.37,2.83l-6.69-22.78,6.13,1.97c.15.05.31.07.46.07.3,0,.6-.09.85-.26.38-.27.62-.69.65-1.16l.85-15.07,7.23,2.84c2.75,4.33,5.46,7.36,8.11,8.75,5.86,3.08,11.23,4.91,15.84,5.98-11.181,3.667-22.564,8.476-31.06,16.83Z" opacity=".2"/>
        <path d="M211.077,453.253c-8.97,2.26-17.59,3.22-24.63,2.74-7.14-.5-11.91-2.5-12.75-5.37-1.75-5.96,11.88-17.17,34.24-23.74,4.517-1.315,9.111-2.378,13.73-3.09-.77.69-20.69,18.55-10.59,29.46Z" opacity=".2"/>
      </g>
    </g>
  </g>
</svg>