<?xml version="1.0" encoding="UTF-8"?>
<svg xmlns="http://www.w3.org/2000/svg" version="1.1" viewBox="0 0 500 500">
  <!-- Generator: Adobe Illustrator 28.7.3, SVG Export Plug-In . SVG Version: 1.2.0 Build 164)  -->
  <g>
    <g id="object">
      <g>
        <path d="M476.51,219.5c.11.75-.23,1.49-.85,1.91l-8.37,5.61-.11,10.08c-.01.75-.45,1.43-1.13,1.76-.27.13-.56.19-.85.19-.44,0-.87-.14-1.23-.42l-7.92-6.22-9.62,3c-.72.23-1.5.03-2.02-.52s-.69-1.34-.43-2.05l3.47-9.46-5.83-8.21c-.43-.62-.48-1.43-.12-2.09.35-.66,1.07-1.06,1.81-1.04l10.07.37,6.01-8.08c.45-.6,1.21-.9,1.95-.76.74.13,1.34.68,1.55,1.41l2.75,9.68,9.55,3.23c.71.24,1.23.86,1.32,1.61ZM464.22,224.31l5.9-3.95-6.73-2.28c-.62-.2-1.1-.7-1.27-1.33l-1.95-6.83-4.24,5.7c-.38.52-1.01.81-1.66.79l-7.09-.26,4.1,5.79c.38.53.47,1.22.25,1.83l-2.45,6.67,6.78-2.12c.2-.06.39-.09.59-.09.44,0,.87.15,1.23.42l5.58,4.39.08-7.1c.01-.66.34-1.26.88-1.63Z"/>
        <path d="M470.12,220.36l-5.9,3.95c-.54.37-.87.97-.88,1.63l-.08,7.1-5.58-4.39c-.36-.27-.79-.42-1.23-.42-.2,0-.39.03-.59.09l-6.78,2.12,2.45-6.67c.22-.61.13-1.3-.25-1.83l-4.1-5.79,7.09.26c.65.02,1.28-.27,1.66-.79l4.24-5.7,1.95,6.83c.17.63.65,1.13,1.27,1.33l6.73,2.28Z" fill="#fed23d"/>
        <path d="M447.7,302.83c1.031.031-8.792,13.307-8.77,13.56-.22.32-.58.52-.96.56-.387.021-.773-.109-1.04-.39-.156-.374-9.654-9.314-8.95-9.71-.685-.444,8.695-8.653,8.98-9.15.4-.38,1-.47,1.5-.21l8.58,4.51c.33.17.57.47.66.83ZM437.68,313.62l6.86-10.01-6.46-3.39-6.96,6.68,6.56,6.72Z"/>
        <polygon points="444.54 303.61 437.68 313.62 431.12 306.9 438.08 300.22 444.54 303.61" fill="#fd4d71"/>
        <path d="M435.8,222.96c1.08.19,1.8,1.22,1.61,2.29-.18,1.08-1.21,1.8-2.29,1.62-6.28-1.1-12.68,2.57-16.94,5.43-.99.66-1.97,1.34-2.96,2.03-4.54,3.16-9.24,6.43-14.82,7.8-7.48,1.84-14.92-.07-22.11-1.93-4.31-1.11-8.77-2.26-13.1-2.54-1-.06-2.01-.07-3.02-.04,1.47,4.47,2.2,8.48,2.2,11.95,0,4.7-1.34,8.43-4.03,11.05-2.47,2.4-5.89,3.65-10.16,3.73-4.83,1.67-55.06,19.01-82.58,30-27.2,10.86-75.54,56.08-80.26,60.53l-7.13,22.89c-.57,1.8-.76,3.75-.59,5.78,1.35,15.97-4.44,31.53-15.88,42.69-9.96,9.72-23.42,15.17-37.29,15.17-.87,0-1.73-.02-2.6-.06-14.98-.74-28.57-7.5-38.27-19.04-17.01-20.23-16.47-50.29,1.25-69.92,12.26-13.57,30.29-19.89,48.3-16.94l28.29-5.17c4.91-5.42,48.72-54.25,60.17-81.03,7.09-16.57,16.66-41.29,23.44-59.11,4.54-11.94,7.92-21.04,8.57-22.77.19-4.23,1.52-7.59,3.98-9.99,3.17-3.11,8.03-4.29,14.14-3.5-1.4-4.79-2.79-9.73-1-14.65,1.19-3.3,3.59-5.79,5.91-8.2,2.45-2.55,4.77-4.96,5.25-7.96.58-3.6-1.54-7.08-3.79-10.76-.59-.97-1.2-1.97-1.76-2.97-6.53-11.75-5.71-27.01,2.04-37.99.64-.9,1.87-1.11,2.77-.48.89.63,1.1,1.87.47,2.76-6.9,9.76-7.63,23.34-1.82,33.79.52.92,1.08,1.84,1.68,2.82,2.41,3.94,5.14,8.41,4.32,13.46-.68,4.23-3.54,7.2-6.3,10.07-2.13,2.21-4.14,4.3-5.05,6.82-1.38,3.79-.14,8,1.17,12.47.17.56.32,1.11.47,1.67,3.12.78,6.48,2,10.03,3.61l4.29-44.4c.06-.64.43-1.21.99-1.53s1.24-.35,1.82-.07l15.6,7.31,24.75-49.79c.44-.89,1.48-1.32,2.42-.99.94.32,1.49,1.29,1.29,2.27l-16.93,82.48c-.13.66-.6,1.2-1.22,1.45-.63.24-1.34.15-1.88-.24l-11.11-8.04-8.89,17.58c8.76,5.43,17.86,12.61,26.51,20.95,2.39-2.56,4.35-5.38,5.71-8.59,1.05-2.5,1.71-5.15,2.4-7.96.91-3.67,1.85-7.46,3.77-10.92,3.79-6.86,10.72-11.12,16.33-14.06,1.39-.73,2.8-1.44,4.21-2.14,4.84-2.41,9.4-4.69,13.3-7.99,4.28-3.63,8.51-9.79,7.53-16.24-.17-1.08.57-2.09,1.66-2.26,1.08-.15,2.09.58,2.25,1.67,1.05,6.84-2.27,14.26-8.88,19.85-4.26,3.61-9.26,6.1-14.09,8.51-1.38.7-2.77,1.39-4.14,2.11-5.12,2.69-11.42,6.53-14.71,12.47-1.66,3-2.5,6.38-3.38,9.95-.7,2.84-1.43,5.76-2.6,8.55-1.58,3.72-3.82,6.94-6.53,9.83l1.38,1.38c3.06,3.14,5.98,6.36,8.72,9.59l23.35-21.69c.42-.39.97-.58,1.54-.52.56.05,1.07.34,1.41.8l9.91,13.49,48.48-20.92c.88-.38,1.91-.07,2.44.74.53.8.4,1.87-.31,2.53l-56.43,52.63c-.37.34-.85.53-1.35.53-.11,0-.21-.01-.32-.02-.6-.1-1.13-.48-1.42-1.02l-8.57-15.78-8.3,2.8c5.06,7.35,9.03,14.57,11.63,21.09,1.57-.11,3.14-.12,4.71-.02,4.7.3,9.34,1.5,13.83,2.66,7.02,1.81,13.66,3.52,20.17,1.92,4.87-1.2,9.07-4.12,13.51-7.21,1-.7,2.01-1.4,3.01-2.08,4.83-3.23,12.14-7.37,19.83-6.04ZM368.24,221.49l46.2-43.09-39.43,17.01c-.84.36-1.83.1-2.38-.65l-9.53-12.97-23.23,21.58-.01.01-13.86,12.87,19.35-6.53h.03l12.35-4.17c.21-.07.42-.1.63-.1.71,0,1.39.38,1.74,1.04l8.14,15ZM357.58,257.78c3.57-3.49,3.75-10.48.54-19.78-6.53,1.03-12.8,3.98-17.62,8.45-.38.35-.87.53-1.35.53-.53,0-1.06-.21-1.45-.64-.75-.8-.7-2.05.1-2.8,5.19-4.81,11.88-8.05,18.88-9.31-2.61-6.27-6.52-13.21-11.46-20.28l-26.7,9.01c-.88.29-1.86-.06-2.33-.87-.48-.8-.33-1.83.35-2.46l19.24-17.87c-2.72-3.2-5.62-6.39-8.66-9.51l-1.38-1.38c-5.18,4.62-11.59,8.37-18.26,12.03-.31.16-.63.24-.95.24-.7,0-1.38-.37-1.74-1.03-.53-.95-.18-2.16.78-2.68,6.36-3.49,12.45-7.05,17.33-11.35-8.32-8.01-17.05-14.94-25.44-20.17l-7.95,15.72c-.08.16-.18.29-.29.41-.02.03-.04.06-.07.08-.11.11-.23.21-.36.3-.02.01-.05.02-.08.04-.12.07-.25.12-.38.16-.03.01-.05.02-.08.03-.15.04-.31.06-.46.06-.02.01-.03.01-.05.01s-.04-.01-.06-.01c-.16,0-.33-.02-.49-.07-.92-.26-1.51-1.14-1.42-2.09l1.93-20.03c-3.04-1.45-5.93-2.59-8.63-3.41.79,5.65-.28,12.05-5.67,14.72-.28.13-.58.2-.87.2-.73,0-1.43-.4-1.78-1.1-.48-.98-.08-2.17.9-2.66,3.72-1.83,4.29-7.3,3.22-12.2-1.49-.28-3.1-.48-4.7-.48-2.92,0-5.81.65-7.82,2.63-1.78,1.74-2.73,4.32-2.82,7.69-.38,13.84,12.99,37.07,33.27,57.84,20.21,20.72,43.09,34.65,56.92,34.66,3.43,0,6.07-.89,7.86-2.63ZM326.6,268.35c5.81-2.05,10.9-3.83,14.78-5.18-14.63-3.82-33.78-16.58-51.42-34.66-17.4-17.81-29.87-37.63-33.38-52.33-1.45,3.86-3.37,8.94-5.56,14.72,4.79,13.69,16,30.22,30.89,45.47,14.88,15.25,31.12,26.85,44.69,31.98ZM319.08,149.82l13.25-64.57-18.84,37.9c-.48.96-1.64,1.37-2.61.91l-14.81-6.94-4.29,44.4v.01l-1.05,10.92,14.91-29.52c.26-.52.74-.9,1.3-1.03.57-.14,1.16-.02,1.63.32l10.51,7.6ZM321.02,270.32c-13.16-5.95-28.16-17.06-41.94-31.18-13.8-14.13-24.55-29.41-30.17-42.71-6.61,17.29-15.15,39.22-21.64,54.4-11.68,27.3-54.4,74.99-60.65,81.88,1.09,4.87,3.04,8.84,5.89,11.92,3.05,2.97,7.21,5.27,12.54,6.91,7.06-6.66,53.57-49.93,81.07-60.91,15.21-6.07,37.31-14.07,54.9-20.31ZM176.39,376.58l6.66-21.37c-5.61-1.56-10.12-4.22-13.54-7.95-3.48-3.48-5.74-7.74-6.72-12.8l-27.29,4.98c-.23.05-.46.05-.69.01-2.8-.48-5.61-.71-8.39-.71-8.73,0-17.22,2.31-24.69,6.65,8.15,36.42,30.62,59.44,66.81,68.46,5.45-8.87,8-19.32,7.09-29.96-.21-2.56.04-5.02.76-7.31ZM160.95,423.38c1.92-1.87,3.66-3.88,5.23-6-36.51-9.53-59.37-32.96-68.03-69.69-3.01,2.12-5.81,4.58-8.35,7.38-16.39,18.16-16.89,45.95-1.16,64.66,8.98,10.68,21.55,16.94,35.4,17.62,13.67.67,27.12-4.42,36.91-13.97Z"/>
        <path d="M414.44,178.4l-46.2,43.09-8.14-15c-.35-.66-1.03-1.04-1.74-1.04-.21,0-.42.03-.63.1l-12.35,4.17h-.03l-19.35,6.53,13.86-12.87.01-.01,23.23-21.58,9.53,12.97c.55.75,1.54,1.01,2.38.65l39.43-17.01Z" fill="#fed23d"/>
        <path d="M410.17,90.79c.1.75-.23,1.49-.85,1.91l-8.37,5.61-.11,10.07c-.01.76-.45,1.44-1.13,1.77-.27.13-.56.19-.85.19-.44,0-.87-.14-1.23-.42l-7.92-6.22-9.62,3c-.72.23-1.5.02-2.02-.52-.52-.55-.69-1.34-.43-2.05l3.47-9.46-5.83-8.22c-.43-.61-.48-1.42-.12-2.08.35-.67,1.07-1.07,1.81-1.04l10.07.37,6.01-8.08c.45-.6,1.21-.9,1.95-.76.74.13,1.34.68,1.55,1.4l2.75,9.69,9.55,3.23c.71.24,1.23.86,1.32,1.61ZM397.88,95.6l5.89-3.96-6.72-2.27c-.62-.21-1.1-.71-1.27-1.33l-1.95-6.83-4.24,5.69c-.39.53-1.01.83-1.66.8l-7.09-.26,4.1,5.79c.38.53.47,1.21.25,1.83l-2.45,6.66,6.78-2.11c.2-.06.39-.09.59-.09.44,0,.87.14,1.23.42l5.58,4.38.08-7.1c.01-.65.34-1.25.88-1.62Z"/>
        <path d="M403.77,91.64l-5.89,3.96c-.54.37-.87.97-.88,1.62l-.08,7.1-5.58-4.38c-.36-.28-.79-.42-1.23-.42-.2,0-.39.03-.59.09l-6.78,2.11,2.45-6.66c.22-.62.13-1.3-.25-1.83l-4.1-5.79,7.09.26c.65.03,1.27-.27,1.66-.8l4.24-5.69,1.95,6.83c.17.62.65,1.12,1.27,1.33l6.72,2.27Z" fill="#6757dc"/>
        <path d="M389.62,344.85c.12.44.01.91-.29,1.25l-11.51,12.51c-.25.27-.6.41-.96.41-.12,0-.24-.01-.36-.05-.47-.13-.82-.52-.91-1.01l-3-16.35c-.08-.44.07-.88.4-1.19.32-.3.78-.41,1.21-.3l14.5,3.84c.44.12.79.46.92.89ZM377.67,354.93l8.29-9.01-10.45-2.77,2.16,11.78Z"/>
        <polygon points="385.96 345.92 377.67 354.93 375.51 343.15 385.96 345.92" fill="#6757dc"/>
        <path d="M357.575,257.778c-1.79,1.74-4.43,2.63-7.86,2.63-13.83-.01-36.71-13.94-56.92-34.66-15.93-16.32-27.6-34.16-31.68-47.76-1.12-3.71-1.67-7.11-1.59-10.08.09-3.37,1.04-5.95,2.82-7.69,2.01-1.98,4.9-2.63,7.82-2.63,1.6,0,3.21.2,4.7.48,1.07,4.9.5,10.37-3.22,12.2-.98.49-1.38,1.68-.9,2.66.35.7,1.05,1.1,1.78,1.1.29,0,.59-.07.87-.2,5.39-2.67,6.46-9.07,5.67-14.72,2.7.82,5.59,1.96,8.63,3.41l-1.93,20.03c-.09.95.5,1.83,1.42,2.09.16.05.33.07.49.07.02,0,.04.01.06.01s.03,0,.05-.01c.15,0,.31-.02.46-.06.03-.01.05-.02.08-.03.13-.04.26-.09.38-.16.03-.02.06-.03.08-.04.13-.09.25-.19.36-.3.03-.02.05-.05.07-.08.11-.12.21-.25.29-.41l7.95-15.72c8.39,5.23,17.12,12.16,25.44,20.17-4.88,4.3-10.97,7.86-17.33,11.35-.96.52-1.31,1.73-.78,2.68.36.66,1.04,1.03,1.74,1.03.32,0,.64-.08.95-.24,6.67-3.66,13.08-7.41,18.26-12.03.46.46.92.92,1.38,1.38,3.04,3.12,5.94,6.31,8.66,9.51l-19.24,17.87c-.68.63-.83,1.66-.35,2.46.47.81,1.45,1.16,2.33.87l26.7-9.01c2.13,3.06,4.08,6.09,5.81,9.05,2.27,3.89,4.17,7.67,5.65,11.23-7,1.26-13.69,4.5-18.88,9.31-.8.75-.85,2-.1,2.8.39.43.92.64,1.45.64.48,0,.97-.18,1.35-.53,4.82-4.47,11.09-7.42,17.62-8.45,3.21,9.3,3.03,16.29-.54,19.78Z" fill="#ff6653"/>
        <path d="M335.97,383.03c.38,1.03,9.12,25.33-2.27,35.74-2.36,2.17-4.93,3.26-7.65,3.26-.21,0-.42-.03-.63-.05-.38,2.95-2.04,9.71-9.08,12.42-1.37,2.31-8.32,12.89-20.62,12.89-2.84,0-5.95-.56-9.35-1.91-.53-.21-.86-.75-.81-1.32.05-.58.48-1.05,1.04-1.16.14-.02,13.27-2.72,16.46-11.7-2.33-2.13-3.71-4.36-3.83-4.56,0,0,0-.01-.01-.01-2.63-3.99-3.57-7.73-2.64-10.53.62-1.87,2.05-3.25,4.14-4,4.66-1.68,10.97,3.79,13.68,6.47.28-.63.49-1.31.64-2.07-2.89-2.84-4.85-5.85-5.32-6.61-3.41-3.42-5.11-8.81-2.55-13.94,1.56-3.12,3.5-4.62,5.77-4.52,4.68.26,8.76,7.9,10.84,12.63,1.95-9.72-7.35-21.83-7.46-21.96-.32-.42-.36-.98-.1-1.44s.77-.71,1.29-.65l17.4,2.18c.48.06.89.38,1.06.84ZM331.95,416.86c9.09-8.31,3.18-28.12,1.84-32.2l-13.69-1.71c3.25,4.96,9.52,16.42,4.93,25.36v.01c-2.07,4.01-5.66,5.77-9.56,4.87,2.4,2.7,5.78,5.63,9.43,6.16,2.52.37,4.82-.45,7.05-2.49ZM315.02,432.13c6.33-2.2,7.6-8.22,7.86-10.59-2.06-.62-3.97-1.76-5.67-3.11-.34,1.05-.78,1.99-1.34,2.83-.01.02-.03.04-.04.06-2.95,4.37-8.54,5.83-12.87,6,2.22,2.63,6.68,6.67,12.06,4.81ZM322.45,407.62c-2.57-6.72-6.64-13.43-9.65-13.59-1.15-.09-2.25.97-3.31,3.08-1.99,4-.66,8.21,2.02,10.91.09.07.17.15.24.24.73.68,1.54,1.26,2.41,1.7,1.28.65,5.55,2.34,8.29-2.34ZM312.73,435.2c-.19.01-.38.02-.57.02-2.68,0-5.03-1.01-6.98-2.34-2.69,6.36-9.36,9.74-13.81,11.34,11.32,2.45,18.41-4.96,21.36-9.02ZM312.97,420.81c-3.19-3.25-8.49-7.3-11.37-6.27-1.36.49-2.19,1.26-2.56,2.37-.62,1.88.15,4.76,2.05,7.8,2.03.08,8.42,0,11.88-3.9Z"/>
        <path d="M341.375,263.168c-3.88,1.35-8.97,3.13-14.78,5.18-5.76-2.17-12-5.52-18.41-9.82-5.23-3.49-10.56-7.62-15.85-12.26-3.52-3.08-7.01-6.4-10.43-9.9-3.59-3.67-6.96-7.42-10.08-11.19-9.84-11.86-17.17-23.89-20.81-34.28,2.19-5.78,4.11-10.86,5.56-14.72,2.73,11.45,10.9,26,22.59,40.29,3.33,4.06,6.94,8.1,10.79,12.04,17.64,18.08,36.79,30.84,51.42,34.66Z" fill="#fed23d"/>
        <path d="M333.79,384.66c1.34,4.08,7.25,23.89-1.84,32.2-2.23,2.04-4.53,2.86-7.05,2.49-3.65-.53-7.03-3.46-9.43-6.16,3.9.9,7.49-.86,9.56-4.87v-.01c4.59-8.94-1.68-20.4-4.93-25.36l13.69,1.71Z" fill="#fd4d71"/>
        <path d="M332.33,85.25l-13.25,64.57-10.51-7.6c-.47-.34-1.06-.46-1.63-.32-.56.13-1.04.51-1.3,1.03l-14.91,29.52,1.05-10.92v-.01l4.29-44.4,14.81,6.94c.97.46,2.13.05,2.61-.91l18.84-37.9Z" fill="#fed23d"/>
        <path d="M322.42,306.19c4.37,0,7.93,3.55,7.93,7.92s-3.56,7.93-7.93,7.93-7.92-3.56-7.92-7.93,3.55-7.92,7.92-7.92ZM327.76,314.11c0-2.94-2.4-5.33-5.34-5.33s-5.33,2.39-5.33,5.33,2.39,5.34,5.33,5.34,5.34-2.4,5.34-5.34Z"/>
        <path d="M322.42,308.78c2.94,0,5.34,2.39,5.34,5.33s-2.4,5.34-5.34,5.34-5.33-2.4-5.33-5.34,2.39-5.33,5.33-5.33Z" fill="#fed23d"/>
        <path d="M322.88,421.54c-.26,2.37-1.53,8.39-7.86,10.59-5.38,1.86-9.84-2.18-12.06-4.81,4.33-.17,9.92-1.63,12.87-6,.01-.02.03-.04.04-.06.56-.84,1-1.78,1.34-2.83,1.7,1.35,3.61,2.49,5.67,3.11Z" fill="#fd4d71"/>
        <path d="M312.8,394.03c3.01.16,7.08,6.87,9.65,13.59-2.74,4.68-7.01,2.99-8.29,2.34-.87-.44-1.68-1.02-2.41-1.7-.07-.09-.15-.17-.24-.24-2.68-2.7-4.01-6.91-2.02-10.91,1.06-2.11,2.16-3.17,3.31-3.08Z" fill="#fd4d71"/>
        <path d="M312.16,435.22c.19,0,.38-.01.57-.02-2.95,4.06-10.04,11.47-21.36,9.02,4.45-1.6,11.12-4.98,13.81-11.34,1.95,1.33,4.3,2.34,6.98,2.34Z" fill="#fd4d71"/>
        <path d="M301.6,414.54c2.88-1.03,8.18,3.02,11.37,6.27-3.46,3.9-9.85,3.98-11.88,3.9-1.9-3.04-2.67-5.92-2.05-7.8.37-1.11,1.2-1.88,2.56-2.37Z" fill="#fd4d71"/>
        <path d="M321.015,270.318c-17.59,6.24-39.69,14.24-54.9,20.31-27.5,10.98-74.01,54.25-81.07,60.91-3.12-.96-5.84-2.15-8.17-3.57-1.65-1-3.11-2.11-4.37-3.34-2.85-3.08-4.8-7.05-5.89-11.92,6.25-6.89,48.97-54.58,60.65-81.88,6.49-15.18,15.03-37.11,21.64-54.4,4.2,9.95,11.28,21,20.35,31.85,3.06,3.66,6.34,7.3,9.82,10.86,3.12,3.2,6.31,6.25,9.53,9.11,5.79,5.17,11.67,9.76,17.43,13.61,5.14,3.44,10.18,6.29,14.98,8.46Z" fill="#fed23d"/>
        <path d="M300.63,47.63c.1.74-.24,1.48-.86,1.9l-8.37,5.62-.11,10.07c-.01.75-.45,1.44-1.13,1.76-.27.14-.56.2-.85.2-.44,0-.87-.14-1.23-.42l-7.92-6.22-9.62,3c-.72.22-1.5.02-2.02-.53-.52-.54-.69-1.34-.43-2.04l3.47-9.46-5.83-8.22c-.43-.61-.48-1.42-.12-2.09.36-.66,1.08-1.07,1.81-1.03l10.07.37,6.01-8.08c.45-.61,1.21-.9,1.95-.77.74.14,1.34.69,1.55,1.41l2.75,9.69,9.55,3.22c.71.24,1.23.87,1.33,1.62ZM288.33,52.44l5.9-3.96-6.73-2.27c-.62-.21-1.09-.71-1.27-1.33l-1.95-6.83-4.24,5.69c-.38.52-1,.82-1.66.8l-7.09-.27,4.1,5.8c.38.53.47,1.21.25,1.82l-2.45,6.67,6.78-2.11c.2-.06.4-.09.59-.09.44,0,.87.14,1.23.42l5.58,4.38.08-7.1c.01-.65.34-1.26.88-1.62Z"/>
        <path d="M294.23,48.48l-5.9,3.96c-.54.36-.87.97-.88,1.62l-.08,7.1-5.58-4.38c-.36-.28-.79-.42-1.23-.42-.19,0-.39.03-.59.09l-6.78,2.11,2.45-6.67c.22-.61.13-1.29-.25-1.82l-4.1-5.8,7.09.27c.66.02,1.28-.28,1.66-.8l4.24-5.69,1.95,6.83c.18.62.65,1.12,1.27,1.33l6.73,2.27Z" fill="#fd4d71"/>
        <path d="M265.46,353.74c.09.36.02.74-.19,1.05l-8.58,12.51c-.22.32-.57.52-.96.56h-.11c-.35,0-.68-.14-.93-.39l-8.58-8.78c-.24-.25-.37-.58-.37-.93.01-.35.15-.68.4-.92l8.58-8.22c.41-.39,1.01-.48,1.5-.22l8.58,4.51c.33.17.57.47.66.83ZM255.45,364.53l6.86-10-6.46-3.39-6.97,6.67,6.57,6.72Z"/>
        <polygon points="262.31 354.53 255.45 364.53 248.88 357.81 255.85 351.14 262.31 354.53" fill="#6757dc"/>
        <path d="M215.5,450.34c.59.2.95.79.87,1.4-.77,5.78-3.18,10.15-7.17,12.98-4.16,2.95-9.18,3.62-12.89,3.62-2.95,0-5.06-.43-5.25-.46-.39-.09-.72-.34-.9-.69l-4.47-8.93c-.25-.51-.14-1.12.26-1.52.41-.39,1.03-.47,1.53-.2,17.43,9.5,26.12-5,26.48-5.62.31-.54.96-.78,1.54-.58ZM207.71,462.59c2.03-1.44,3.59-3.39,4.65-5.81-4.2,3.85-11.79,8.1-22.66,3.69l2.49,4.97c2.19.33,9.93,1.12,15.52-2.85Z"/>
        <path d="M200.39,90.69c12.26,4.34,10.11,22.34,10.01,23.1-.08.65-.63,1.14-1.28,1.14h-6.06c-.46,0-.88-.24-1.11-.63-.24-.38-.25-.87-.05-1.27,3.95-7.58-9.76-15.5-9.9-15.58-.4-.23-.65-.65-.66-1.12,0-.46.24-.88.63-1.12l7.32-4.41c.33-.2.74-.24,1.1-.11ZM207.92,112.33c.24-3.73.31-15.58-7.84-18.98l-4.97,3c3.75,2.53,11.73,8.88,9.84,15.98h2.97Z"/>
        <path d="M212.36,456.78c-1.06,2.42-2.62,4.37-4.65,5.81-5.59,3.97-13.33,3.18-15.52,2.85l-2.49-4.97c10.87,4.41,18.46.16,22.66-3.69Z" fill="#fed23d"/>
        <path d="M200.08,93.35c8.15,3.4,8.08,15.25,7.84,18.98h-2.97c1.89-7.1-6.09-13.45-9.84-15.98l4.97-3Z" fill="#6757dc"/>
        <path d="M193.4,177.11c1.043.696.417,2.449-.83,2.34-.14,0-13.53-.58-18.81,7.35,1.75,2.64,2.54,5.13,2.61,5.36v.01c2.356,6.753,1.564,13.217-5.49,13.75-4.76,0-9.28-6.49-11.19-9.63-.42.54-.8,1.15-1.12,1.85,2.11,3.45,3.27,6.86,3.55,7.71,2.47,4.14,2.81,9.78-.93,14.14-2.27,2.65-4.53,3.65-6.69,2.97-4.48-1.38-6.57-9.79-7.44-14.88-4.26,8.95,1.82,22.96,1.89,23.12.21.48.11,1.04-.25,1.42-.362.379-.93.503-1.41.31,0,0-16.35-6.35-16.35-6.35-1.953-.583-3.253-27.967,10.069-35.19,3.041-1.64,6.011-2,8.831-1.11,1.09-2.77,4.34-8.9,11.82-9.82,2.32-2.34,15.88-14.78,31.74-3.35ZM172.12,184.65c4.16-5.52,11.44-7.17,16.15-7.63-10.41-5.17-19.09.32-22.93,3.55,2.87.56,5.1,2.2,6.78,4.08ZM174.18,201.64c1.06-1.67,1.01-4.66-.08-8.07-1.96-.57-8.17-2.05-12.48.9,3.004,4.895,8.371,12.171,12.56,7.17ZM158.97,193.27c3.93-3.52,9.71-3.57,13.95-2.68-5.102-11.45-17.277-8.907-20.73.76,1.84,1.09,3.42,2.67,4.74,4.39.58-.93,1.25-1.74,1.98-2.41.02-.03.05-.04.06-.06ZM159.22,218.3c3.682-4.352,2.354-10.261-1.39-13.61-1.08-.94-4.82-3.61-8.61.26,1.156,8.149,4.002,20.63,10,13.35ZM157.35,201.25c-2.733-5.592-8.455-11.553-15.1-7.57-10.84,5.84-9.93,26.49-9.62,30.78l12.86,4.99c-1.94-5.6-5.24-18.25,1.39-25.79,0-.01.01-.01.01-.01,2.98-3.39,6.89-4.22,10.46-2.4Z"/>
        <path d="M176.385,376.578c-.72,2.29-.97,4.75-.76,7.31.91,10.64-1.64,21.09-7.09,29.96-8.98-2.24-17.12-5.34-24.4-9.29-22.06-11.98-36.28-31.79-42.41-59.17,7.47-4.34,15.96-6.65,24.69-6.65,2.78,0,5.59.23,8.39.71.23.04.46.04.69-.01l27.29-4.98c.98,5.06,3.24,9.32,6.72,12.8,1.08,1.18,2.27,2.25,3.57,3.21,2.81,2.09,6.13,3.67,9.97,4.74l-6.66,21.37Z" fill="#fd4d71"/>
        <path d="M188.27,177.02c-4.71.46-11.99,2.11-16.15,7.63-1.68-1.88-3.91-3.52-6.78-4.08,3.84-3.23,12.52-8.72,22.93-3.55Z" fill="#ff6653"/>
        <path d="M178.75,247.39c.01.04.01.09.01.13,0,3.3-2.69,5.98-5.98,5.98-.04,0-.09,0-.13-.01l.13-2.59c1.86,0,3.38-1.52,3.38-3.38l2.59-.13Z"/>
        <path d="M178.75,247.39l-2.59.13c0-1.87-1.52-3.38-3.38-3.38l.13-2.59c3.19.06,5.78,2.64,5.84,5.84Z"/>
        <path d="M172.78,244.14c1.86,0,3.38,1.51,3.38,3.38,0,1.86-1.52,3.38-3.38,3.38-1.87,0-3.39-1.52-3.39-3.38,0-1.87,1.52-3.38,3.39-3.38Z" fill="#fed23d"/>
        <path d="M174.1,193.57c1.314,4.748,1.721,9.036-2.97,9.74-3.05.3-7.21-4.92-9.51-8.84,4.31-2.95,10.52-1.47,12.48-.9Z" fill="#ff6653"/>
        <path d="M172.91,241.55l-.13,2.59c-1.87,0-3.39,1.51-3.39,3.38l-2.58.13c-.01-.04-.01-.09-.01-.13,0-3.3,2.68-5.98,5.98-5.98.04,0,.09,0,.13.01Z"/>
        <path d="M172.78,250.9l-.13,2.59c-3.2-.06-5.78-2.64-5.84-5.84l2.58-.13c0,1.86,1.52,3.38,3.39,3.38Z"/>
        <path d="M172.92,190.59c-4.24-.89-10.02-.84-13.95,2.68-.01.02-.04.03-.06.06-.73.67-1.4,1.48-1.98,2.41-1.32-1.72-2.9-3.3-4.74-4.39,3.472-9.698,15.644-12.183,20.73-.76Z" fill="#ff6653"/>
        <path d="M166.175,417.378c-1.57,2.12-3.31,4.13-5.23,6-9.79,9.55-23.24,14.64-36.91,13.97-13.85-.68-26.42-6.94-35.4-17.62-5.12-6.09-8.52-13.15-10.21-20.52-3.51-15.27.32-31.89,11.37-44.14,2.54-2.8,5.34-5.26,8.35-7.38,6.49,27.51,20.93,47.55,43.12,59.88,7.44,4.14,15.74,7.41,24.91,9.81Z" fill="#fd4d71"/>
        <path d="M159.93,207.23c1.93,3.27,2.2,7.68-.71,11.07-1.53,1.79-2.87,2.52-3.96,2.18-2.88-.89-5.19-8.38-6.04-15.53,4.901-4.582,8.941-.495,10.71,2.28Z" fill="#ff6653"/>
        <path d="M149.69,192.98c3.42,1.4,5.98,5.06,7.66,8.27-3.57-1.82-7.48-.99-10.46,2.4,0,0-.01,0-.01.01-6.63,7.54-3.33,20.19-1.39,25.79l-12.86-4.99c-.938-5.217.059-35.937,17.06-31.48Z" fill="#ff6653"/>
        <path d="M126.93,270.99c.54.18.9.68.9,1.25-.01.57-.39,1.06-.93,1.22-19.02,5.71-14.82,22.09-14.63,22.79.16.59-.12,1.22-.68,1.5-.18.09-.38.13-.57.13-.4,0-.78-.17-1.03-.5-3.57-4.61-4.98-9.4-4.18-14.23,1.49-9.04,10.15-14.87,10.51-15.11.34-.22.75-.28,1.12-.15l9.49,3.1ZM122.54,272.28l-5.28-1.72c-1.78,1.33-7.79,6.27-8.89,13.03-.41,2.46-.12,4.94.86,7.39.21-5.69,2.53-14.07,13.31-18.7Z"/>
        <path d="M117.26,270.56l5.28,1.72c-10.78,4.63-13.1,13.01-13.31,18.7-.98-2.45-1.27-4.93-.86-7.39,1.1-6.76,7.11-11.7,8.89-13.03Z" fill="#6757dc"/>
        <path d="M120.99,90.91c.54.17.9.68.89,1.25,0,.56-.38,1.06-.92,1.22-19.08,5.73-14.83,22.09-14.63,22.78.16.6-.12,1.23-.68,1.51-.18.09-.38.13-.58.13-.39,0-.77-.17-1.02-.5-3.57-4.61-4.98-9.4-4.18-14.23,1.49-9.04,10.14-14.87,10.51-15.11.33-.22.75-.28,1.12-.16l9.49,3.11ZM116.6,92.2l-5.28-1.72c-1.78,1.33-7.79,6.27-8.9,13.03-.4,2.46-.11,4.94.87,7.39.21-5.69,2.53-14.07,13.31-18.7Z"/>
        <path d="M111.32,90.48l5.28,1.72c-10.78,4.63-13.1,13.01-13.31,18.7-.98-2.45-1.27-4.93-.87-7.39,1.11-6.76,7.12-11.7,8.9-13.03Z" fill="#fed23d"/>
        <path d="M63.88,324.82c.13.44.02.91-.29,1.24l-11.51,12.51c-.25.27-.6.42-.95.42-.12,0-.24-.02-.36-.05-.48-.14-.83-.53-.92-1.01l-2.99-16.35c-.08-.44.07-.89.39-1.19.33-.3.79-.41,1.22-.3l14.5,3.84c.44.12.78.46.91.89ZM51.93,334.9l8.29-9.01-10.44-2.77,2.15,11.78Z"/>
        <polygon points="60.22 325.89 51.93 334.9 49.78 323.12 60.22 325.89" fill="#fd4d71"/>
        <path d="M32.52,439.49c12.26,4.34,10.1,22.34,10.01,23.1-.09.65-.64,1.13-1.29,1.13h-6.06c-.45,0-.87-.23-1.11-.62-.23-.39-.25-.87-.04-1.27,3.93-7.57-9.77-15.51-9.91-15.59-.4-.23-.65-.65-.65-1.11-.01-.46.23-.89.63-1.13l7.31-4.4c.34-.2.74-.24,1.11-.11ZM40.05,461.13c.23-3.73.3-15.58-7.84-18.98l-4.97,2.99c3.75,2.53,11.73,8.88,9.83,15.99h2.98Z"/>
        <path d="M32.21,442.15c8.14,3.4,8.07,15.25,7.84,18.98h-2.98c1.9-7.11-6.08-13.46-9.83-15.99l4.97-2.99Z" fill="#6757dc"/>
        <path d="M306.035,261.858c5.14,3.44,10.18,6.29,14.98,8.46-17.59,6.24-39.69,14.24-54.9,20.31-27.5,10.98-74.01,54.25-81.07,60.91-3.12-.96-5.84-2.15-8.17-3.57,5.09-4.7,25.84-23.84,44.03-40.82,20.9-19.52,60.25-28.44,77.92-39.33,3.21-1.98,5.56-3.99,7.21-5.96Z" opacity=".2"/>
        <path d="M341.375,263.168c-3.88,1.35-8.97,3.13-14.78,5.18-5.76-2.17-12-5.52-18.41-9.82,3.51-7.52-2.64-13.8-9.36-14.39-1.31-.11-3.57.69-6.49,2.13-1.15.56-2.4,1.23-3.73,1.98-19.44,10.91-56.76,39.27-57.25,32.52-.39-5.35,21.8-33.11,37.9-52.49.88-1.06,1.74-2.09,2.57-3.1,2.75-3.28,5.25-6.24,7.34-8.71,3.33,4.06,6.94,8.1,10.79,12.04,17.64,18.08,36.79,30.84,51.42,34.66Z" opacity=".2"/>
        <ellipse cx="218.792" cy="295.043" rx="10.874" ry="2.396" transform="translate(-145.366 246.983) rotate(-45.923)" opacity=".2"/>
        <path d="M357.575,257.778c-1.79,1.74-4.43,2.63-7.86,2.63-13.83-.01-36.71-13.94-56.92-34.66-15.93-16.32-27.6-34.16-31.68-47.76,8.34,3.72,21.58,11.33,33.24,25.55,18.75,22.86,25.09,31.97,43.26,25.91,5.41-1.8,9.85-4.11,13.41-6.45,2.27,3.89,4.17,7.67,5.65,11.23-7,1.26-13.69,4.5-18.88,9.31-.8.75-.85,2-.1,2.8.39.43.92.64,1.45.64.48,0,.97-.18,1.35-.53,4.82-4.47,11.09-7.42,17.62-8.45,3.21,9.3,3.03,16.29-.54,19.78Z" opacity=".2"/>
        <path d="M141.265,407.568c7.44,4.14,15.74,7.41,24.91,9.81-1.57,2.12-3.31,4.13-5.23,6-9.79,9.55-23.24,14.64-36.91,13.97-13.85-.68-26.42-6.94-35.4-17.62-5.12-6.09-8.52-13.15-10.21-20.52,7.13,16.48,24.69,23.29,45.77,17.54,7.34-2,12.87-5.25,17.07-9.18Z" opacity=".2"/>
        <path d="M176.385,376.578c-.72,2.29-.97,4.75-.76,7.31.91,10.64-1.64,21.09-7.09,29.96-8.98-2.24-17.12-5.34-24.4-9.29,10.39-12.23,10.82-28.99,13.59-36.7,2.69-7.5,10.58-14,15.35-17.39,2.81,2.09,6.13,3.67,9.97,4.74l-6.66,21.37Z" opacity=".2"/>
      </g>
    </g>
  </g>
</svg>