<?xml version="1.0" encoding="UTF-8"?>
<svg xmlns="http://www.w3.org/2000/svg" version="1.1" viewBox="0 0 500 500">
  <!-- Generator: Adobe Illustrator 28.7.3, SVG Export Plug-In . SVG Version: 1.2.0 Build 164)  -->
  <g>
    <g id="object">
      <g>
        <path d="M425.465,277.424c1.009-.011-8.78,13.326-8.77,13.55-.22.32-.58.53-.96.56-.384.048-.775-.108-1.04-.38-.138-.345-9.672-9.363-8.95-9.71-.659-.475,8.805-8.755,8.98-9.15.4-.38,1-.47,1.5-.21.434.421,9.6,4.535,9.24,5.34ZM415.445,288.204l6.86-10-6.46-3.39-6.96,6.68,6.56,6.71Z"/>
        <polygon points="422.305 278.204 415.445 288.204 408.885 281.494 415.845 274.814 422.305 278.204" fill="#fff"/>
        <path d="M401.015,193.524c12.26,4.34,10.11,22.33,10.01,23.1-.08.65-.63,1.13-1.28,1.13h-6.06c-.46,0-.88-.24-1.11-.62-.24-.39-.25-.87-.04-1.27,3.93-7.57-9.77-15.51-9.91-15.59-.4-.23-.65-.65-.66-1.11,0-.46.24-.89.63-1.13l7.32-4.4c.33-.2.74-.24,1.1-.11ZM408.545,215.164c.24-3.74.31-15.58-7.83-18.98l-4.98,2.99c3.75,2.53,11.73,8.88,9.84,15.99h2.97Z"/>
        <path d="M400.715,196.184c8.14,3.4,8.07,15.24,7.83,18.98h-2.97c1.89-7.11-6.09-13.46-9.84-15.99l4.98-2.99Z" fill="#ff6653"/>
        <path d="M393.785,315.524c1.717,2.407,10.743,38.323-10.55,38.96-.38,2.94-2.04,9.7-9.08,12.41-3.203,6.364-15.728,17.47-29.97,10.989-1.17-.44-1.015-2.273.23-2.479.14-.03,13.27-2.73,16.46-11.7-14.816-14.444-2.705-27.652,11.34-12.64.28-.62.49-1.31.64-2.06-2.89-2.84-4.85-5.85-5.32-6.61-3.41-3.42-5.11-8.81-2.54-13.95,1.56-3.12,3.52-4.63,5.76-4.51,4.68.25,8.76,7.9,10.84,12.62,1.95-9.72-7.35-21.82-7.46-21.96-.709-.855.072-2.264,1.19-2.08,0,0,17.4,2.17,17.4,2.17.49.06.89.39,1.06.84ZM389.765,349.354c9.09-8.31,3.18-28.11,1.84-32.19l-13.69-1.71c3.25,4.96,9.52,16.42,4.93,25.35v.01c-2.07,4.01-5.66,5.77-9.56,4.88,4.003,4.744,11.015,9.144,16.48,3.66ZM372.835,364.624c6.28-2.18,7.58-8.23,7.85-10.59-2.05-.61-3.96-1.76-5.66-3.11-1.714,6.173-8.994,8.824-14.25,8.9,2.22,2.63,6.68,6.66,12.06,4.8ZM380.265,340.114c-2.57-6.72-6.64-13.43-9.65-13.59-1.15-.06-2.25.98-3.3,3.08-2.057,4.127-.597,8.428,2.25,11.15,2.488,2.106,6.98,4.934,10.7-.64ZM370.545,367.694c-2.812.209-5.486-.904-7.55-2.31-2.69,6.36-9.35,9.74-13.81,11.33,11.32,2.46,18.42-4.95,21.36-9.02ZM370.785,353.304c-3.19-3.24-8.49-7.3-11.37-6.26-4.384,1.82-2.95,5.88-.51,10.17,2.04.08,8.42,0,11.88-3.91Z"/>
        <path d="M391.605,317.164c1.34,4.08,7.25,23.88-1.84,32.19-5.465,5.484-12.478,1.084-16.48-3.66,3.9.89,7.49-.87,9.56-4.88v-.01c4.59-8.93-1.68-20.39-4.93-25.35l13.69,1.71Z" fill="#fed23d"/>
        <path d="M389.045,440.574c.12.44.01.91-.29,1.24l-11.51,12.51c-.25.27-.6.42-.96.42-.12,0-.24-.02-.36-.05-.47-.14-.83-.53-.91-1.01l-3-16.35c-.08-.44.07-.89.4-1.19.32-.3.78-.42,1.21-.3l14.5,3.84c.44.12.79.45.92.89ZM377.095,450.654l8.29-9.01-10.45-2.77,2.16,11.78Z"/>
        <polygon points="385.385 441.644 377.095 450.654 374.935 438.874 385.385 441.644" fill="#ff6653"/>
        <path d="M380.685,354.034c-.982,10.209-12.271,15.617-19.91,5.79,5.255-.076,12.537-2.727,14.25-8.9,1.7,1.35,3.61,2.5,5.66,3.11Z" fill="#fed23d"/>
        <path d="M370.615,326.524c3.01.16,7.08,6.87,9.65,13.59-3.706,5.651-8.5,2.675-10.94.4-2.68-2.7-4.01-6.91-2.01-10.91,1.05-2.1,2.15-3.14,3.3-3.08Z" fill="#fed23d"/>
        <path d="M369.975,367.724c.19,0,.38-.02.57-.03-2.94,4.07-10.04,11.48-21.36,9.02,4.46-1.59,11.12-4.97,13.81-11.33,1.95,1.32,4.3,2.34,6.98,2.34Z" fill="#fed23d"/>
        <path d="M359.415,347.044c2.88-1.04,8.18,3.02,11.37,6.26-3.46,3.91-9.84,3.99-11.88,3.91-2.439-4.289-3.874-8.351.51-10.17Z" fill="#fed23d"/>
        <path d="M359.595,274.434c.12.44.01.91-.29,1.25l-11.51,12.5c-.25.28-.6.42-.96.42-.12,0-.24-.01-.36-.05-.47-.13-.82-.53-.91-1.01l-3-16.35c-.08-.44.07-.89.4-1.19.32-.3.78-.41,1.21-.3l14.5,3.84c.44.12.79.46.92.89ZM347.645,284.514l8.29-9.01-10.45-2.77,2.16,11.78Z"/>
        <polygon points="355.935 275.504 347.645 284.514 345.485 272.734 355.935 275.504" fill="#0c7240"/>
        <path d="M342.025,152.824c.54.18.91.69.9,1.25-.01.57-.38,1.07-.93,1.23-19.01,5.71-14.82,22.09-14.63,22.78.16.6-.12,1.23-.67,1.5-.19.09-.39.14-.58.14-.39,0-.77-.18-1.03-.5-3.57-4.62-4.97-9.4-4.18-14.23,1.49-9.04,10.15-14.87,10.52-15.12.33-.22.74-.27,1.12-.15l9.48,3.1ZM337.635,154.124l-5.27-1.73c-1.78,1.33-7.79,6.27-8.9,13.04-.4,2.46-.11,4.93.86,7.39.21-5.69,2.53-14.08,13.31-18.7Z"/>
        <path d="M332.365,152.394l5.27,1.73c-10.78,4.62-13.1,13.01-13.31,18.7-.97-2.46-1.26-4.93-.86-7.39,1.11-6.77,7.12-11.71,8.9-13.04Z" fill="#0c7240"/>
        <path d="M325.175,80.694c4.37,0,7.93,3.56,7.93,7.93s-3.56,7.93-7.93,7.93-7.92-3.56-7.92-7.93,3.55-7.93,7.92-7.93ZM330.505,88.624c0-2.94-2.39-5.33-5.33-5.33s-5.33,2.39-5.33,5.33,2.39,5.33,5.33,5.33,5.33-2.39,5.33-5.33Z"/>
        <circle cx="325.175" cy="88.624" r="5.33" fill="#fff"/>
        <path d="M305.545,246.244v202.48c0,4.68-6.76,7.75-21.91,9.97-11.82,1.73-27.71,2.69-44.74,2.69s-32.92-.96-44.74-2.69c-15.15-2.22-21.91-5.29-21.91-9.97v-202.48c0-5.45,1.38-10.86,3.98-15.63,2.6-4.76,6.4-8.85,10.98-11.82,17.06-10.98,27.24-29.65,27.24-49.93v-76.97c-4.85-1.03-8.38-5.25-8.38-10.36,0-2.84,1.1-5.5,3.11-7.5,1.57-1.58,3.55-2.59,5.7-2.95.92-5.98,4.67-15.21,14-16.84,2.39-3.83,12.66-18.41,28.96-15.16,15.25,3.05,18.07,15.31,18.58,19.61,3.98,1.41,15.32,6.42,17.19,18.27,1.49,9.48-1.74,14.75-4.16,17.27,2.2,1.73,5.28,4.75,6,8.47.49,2.55-.14,4.98-1.89,7.23-4.23,5.48-8.06,7.34-10.26,7.98-.4,4.13-2.3,9.88-7.46,11.05l-.66,47.22c1.45,1.69,4.07,6.21,1.49,15.01,1.03,2.42,4.03,10.38,2.86,18.37,3.31,3.51,7.01,6.63,11.05,9.23,9.38,6.05,14.97,16.31,14.97,27.45ZM301.545,448.724v-58.56c-20.79,2.57-41.72,3.86-62.65,3.86s-41.86-1.29-62.65-3.86v58.56c0,.03.5,3.38,18.49,6.01,11.64,1.71,27.32,2.65,44.16,2.65s32.53-.94,44.16-2.65c17.99-2.63,18.49-5.98,18.49-6.01ZM301.545,387.144v-101.61c-20.79,2.57-41.72,3.86-62.65,3.86s-41.86-1.29-62.65-3.86v101.61c41.58,5.17,83.72,5.17,125.3,0ZM301.545,282.514v-36.27c0-9.77-4.91-18.78-13.13-24.09-3.61-2.32-6.98-5.01-10.05-8.02-.71,1.815-1.688,3.534-2.92,5.05.41,1.14,1.01,2.95,1.61,5.12,1.8,6.53,3.59,16.39-.01,21.61-2.763,4.222-9.643,4.858-13,.83-8.18-8.41-11.77-34.32-13.24-50.24-2.8,1.61-5.98,2.44-9.16,2.44-3.41,0-6.83-.94-9.82-2.86l-15.72-10.08c-4.12,14.73-13.47,27.62-26.73,36.15-4.02,2.61-7.36,6.2-9.63,10.38-2.29,4.18-3.5,8.92-3.5,13.71v36.27c41.58,5.17,83.72,5.17,125.3,0ZM290.395,107.494c1.02-1.33,1.39-2.64,1.13-4.02-.64-3.34-4.83-6.47-6.39-7.39-.62-.36-.99-1.03-.98-1.75s.41-1.38,1.04-1.73c.24-.13,6.24-3.72,4.45-15.02-1.82-11.58-15.5-15.43-15.64-15.47-.87-.24-1.47-1.03-1.47-1.93,0-.57-.27-14.13-15.48-17.18-15.42-3.08-25.11,13.88-25.2,14.05-.32.57-.89.95-1.53,1.02-7.94.88-10.53,8.88-11.33,12.82.25.01.48.02.72.03,18.89.79,20.97,16.74,21.16,18.89-1.599,6.987.009,15.365,8.53,15.56.72.06,1.36.49,1.66,1.15.32.71.21,1.54-.31,2.14-14.28,16.55-1.19,33.43-.63,34.14.02.03.04.06.06.08.29.41.42.9.37,1.4-.06.53-.33,1.01-.75,1.34-6.21,4.91-.83,17.53-.78,17.66.684,1.8-1.42,3.431-1.83,4.98-1.26,2.838-1.815,6.141-.58,9.07,2.657,5.955,6.466,4.699,7.36,7.83,1.38,25.04,7.17,60.31,15.75,60.31,1.88,0,3.16-.58,4.02-1.83,3.56-5.15-.56-19.19-2.45-24.17-.27-.71-.11-1.52.41-2.07,1.9-2.05,3.16-4.58,3.73-7.54,1.63-8.4-2.66-17.59-2.71-17.68-.21-.46-.25-.98-.1-1.47,2.88-9.06-.55-12.03-.69-12.16-.52-.38-.78-.96-.77-1.6l.69-49.81c.02-1.09.91-1.97,2-1.97,5.46,0,5.52-8.85,5.52-8.94,0-1.1.9-2,2-2,0,0,4.01-.27,9.02-6.74ZM250.515,193.124c-.22-2.68-.37-4.94-.47-6.59-2-1.13-6.04-3.94-7.55-8.85-1.3-4.19-.46-8.83,2.47-13.79-1.24-3.3-4.59-13.91.98-20.11-3.08-4.75-11.09-19.85-.34-35.03-1.99-.59-4.43-1.76-6.33-4.09-2.829-3.478-3.279-8.211-2.74-12.53h-18.09v76.73c0,4.8-.54,9.52-1.57,14.08l16.57,10.62c5.24,3.36,12.06,3.13,17.07-.44ZM236.585,88.134c0-.01,0-.02-.01-.03-1.446-8.032-9.114-13.213-17.05-13.18-2.547-.076-5.679-.159-7.53,1.93-1.24,1.25-1.93,2.91-1.93,4.68,0,3.61,2.82,6.5,6.43,6.6h20.09Z"/>
        <path d="M301.541,390.162v58.56c0,.03-.5,3.38-18.49,6.01-11.63,1.71-27.32,2.65-44.16,2.65h-.1c-16.8,0-32.44-.94-44.06-2.65-17.99-2.63-18.49-5.98-18.49-6.01v-58.56c20.79,2.57,41.72,3.86,62.65,3.86,7.38,0,14.76-.16,22.14-.48,13.54-.59,27.05-1.72,40.51-3.38Z" fill="#0c7240"/>
        <path d="M238.89,289.392c-7.33,0-14.66-.16-21.99-.48-13.59-.58-27.15-1.71-40.66-3.38v101.61c28.26,3.51,56.79,4.64,85.22,3.38,13.39-.6,26.76-1.72,40.08-3.38v-101.61c-20.79,2.57-41.72,3.86-62.65,3.86ZM262.831,366.692c-5.46,10.98-14.16,18.09-23.94,18.09-16.47,0-29.88-20.18-29.88-45,0-12.59,3.45-23.99,9-32.16,5.4-7.94,12.76-12.83,20.88-12.83,16.48,0,29.88,20.18,29.88,44.99,0,10.08-2.21,19.4-5.94,26.91Z" fill="#ff6653"/>
        <path d="M301.541,246.242v36.27c-28.17,3.5-56.6,4.63-84.94,3.38-13.49-.58-26.95-1.72-40.36-3.38v-36.27c0-4.79,1.21-9.53,3.5-13.71,2.27-4.18,5.61-7.77,9.63-10.38,13.26-8.53,22.61-21.42,26.729-36.15l15.72,10.08c2.99,1.92,6.41,2.86,9.82,2.86,1.12,0,2.24-.1,3.35-.31,2.03-.37,4-1.09,5.81-2.13,1.47,15.92,5.06,41.83,13.24,50.24,3.357,4.029,10.238,3.392,13-.83,3.6-5.22,1.81-15.08.01-21.61-.6-2.17-1.2-3.98-1.61-5.12,1.232-1.516,2.21-3.235,2.92-5.05,3.07,3.01,6.44,5.7,10.05,8.02,8.22,5.31,13.13,14.32,13.13,24.09Z" fill="#0c7240"/>
        <path d="M291.521,103.472c-.64-3.34-4.83-6.47-6.39-7.39-.62-.36-.99-1.03-.98-1.75.01-.72.41-1.38,1.04-1.73.24-.13,6.24-3.72,4.45-15.02-1.82-11.58-15.5-15.43-15.64-15.47-.87-.24-1.47-1.03-1.47-1.93,0-.57-.27-14.13-15.48-17.18-4.07-.81-7.74-.23-10.94,1.08-8.93,3.62-14.2,12.84-14.26,12.97-.32.57-.89.95-1.53,1.02-7.94.88-10.53,8.88-11.33,12.82.25.01.48.02.72.03,18.89.79,20.97,16.74,21.16,18.89-1.546,7.117-.109,15.248,8.53,15.56.72.06,1.36.49,1.66,1.15.32.71.21,1.54-.31,2.14-14.28,16.55-1.19,33.43-.63,34.14.02.03.04.06.06.08.29.41.42.9.37,1.4-.06.53-.33,1.01-.75,1.34-6.21,4.91-.83,17.53-.78,17.66.684,1.8-1.421,3.431-1.83,4.98-1.261,2.838-1.815,6.141-.58,9.07,2.657,5.955,6.466,4.699,7.36,7.83,1.38,25.04,7.17,60.31,15.75,60.31,1.88,0,3.16-.58,4.02-1.83.47-.68.8-1.51,1.03-2.46,1.48-6.23-1.84-17.39-3.48-21.71-.27-.71-.11-1.52.41-2.07,1.9-2.05,3.16-4.58,3.73-7.54,1.63-8.4-2.66-17.59-2.71-17.68-.21-.46-.25-.98-.1-1.47,2.88-9.06-.55-12.03-.69-12.16-.52-.38-.78-.96-.77-1.6l.69-49.81c.021-1.09.91-1.97,2-1.97,5.46,0,5.521-8.85,5.521-8.94,0-1.1.9-2,2-2,0,0,4.01-.27,9.02-6.74,1.02-1.33,1.39-2.64,1.13-4.02ZM264.121,146.552c-.28.49-.79.78-1.32.78-.24,0-.49-.06-.72-.19-.73-.4-.99-1.31-.59-2.03,1.16-2.12,1.18-4.8.19-7-1.585,1.676-4.88,6.454-7.28,4.101-1.08-2.524,7.026-4.897,7.34-11.701.65-3.98-.64-8.31-3.35-11.29-.56-.62-.52-1.57.1-2.12.61-.56,1.56-.52,2.11.1,3.37,3.7,4.9,8.86,4.1,13.8-.24,1.44-.69,2.82-1.29,4.14,2.32,3.27,2.63,7.89.71,11.41ZM261.721,172.622c-.23.13-.48.19-.73.19-.53,0-1.04-.27-1.31-.76-.41-.72-.15-1.64.57-2.04,1.96-1.11,3.29-3.27,3.37-5.52.08-2.25-1.08-4.5-2.96-5.75-.69-.45-.88-1.38-.42-2.07.46-.7,1.39-.88,2.08-.43,2.73,1.81,4.41,5.09,4.3,8.36-.12,3.27-2.04,6.42-4.9,8.02ZM269.131,103.642c-.29.38-.73.58-1.18.58-.32,0-.65-.11-.92-.32-.65-.52-.77-1.46-.26-2.11,1.97-2.51,2.88-5.9,2.43-9.06-.4-2.76-1.84-5.39-3.92-7.26-.96,1.7-2.26,3.2-3.86,4.36-.26.2-.57.29-.88.29-.46,0-.92-.21-1.21-.62-.49-.67-.34-1.6.33-2.09,3.79-2.76,5.49-8.18,3.95-12.61-1.55-4.43-6.22-7.63-10.93-7.43-.83.04-1.53-.61-1.57-1.43-.03-.83.61-1.53,1.44-1.57,6.07-.25,11.89,3.72,13.89,9.44.99,2.86.97,5.97.08,8.82,3.04,2.36,5.1,5.85,5.65,9.68.57,4.01-.54,8.14-3.04,11.33Z" fill="#fff"/>
        <path d="M272.175,92.314c.57,4.01-.54,8.14-3.04,11.33-.29.38-.73.58-1.18.58-.32,0-.65-.11-.92-.32-.65-.52-.77-1.46-.26-2.11,1.97-2.51,2.88-5.9,2.43-9.06-.4-2.76-1.84-5.39-3.92-7.26-.96,1.7-2.26,3.2-3.86,4.36-.26.2-.57.29-.88.29-.46,0-.92-.21-1.21-.62-.49-.67-.34-1.6.33-2.09,3.79-2.76,5.49-8.18,3.95-12.61-1.55-4.43-6.22-7.63-10.93-7.43-.83.04-1.53-.61-1.57-1.43-.03-.83.61-1.53,1.44-1.57,6.07-.25,11.89,3.72,13.89,9.44.99,2.86.97,5.97.08,8.82,3.04,2.36,5.1,5.85,5.65,9.68Z"/>
        <path d="M262.325,156.244c2.73,1.81,4.41,5.09,4.3,8.36-.12,3.27-2.04,6.42-4.9,8.02-.23.13-.48.19-.73.19-.53,0-1.04-.27-1.31-.76-.41-.72-.15-1.64.57-2.04,1.96-1.11,3.29-3.27,3.37-5.52s-1.08-4.5-2.96-5.75c-.69-.45-.88-1.38-.42-2.07.46-.7,1.39-.88,2.08-.43Z"/>
        <path d="M260.605,117.204c3.37,3.7,4.9,8.86,4.1,13.8-.24,1.44-.69,2.82-1.29,4.14,2.32,3.27,2.63,7.89.71,11.41-.28.49-.79.78-1.32.78-.24,0-.49-.06-.72-.19-.73-.4-.99-1.31-.59-2.03,1.16-2.12,1.18-4.8.19-7-1.585,1.676-4.881,6.455-7.28,4.101-1.082-2.52,7.028-4.901,7.34-11.701.65-3.98-.64-8.31-3.35-11.29-.56-.62-.52-1.57.1-2.12.61-.56,1.56-.52,2.11.1Z"/>
        <path d="M238.895,294.794c16.48,0,29.88,20.18,29.88,44.99s-13.4,45-29.88,45-29.88-20.18-29.88-45,13.41-44.99,29.88-44.99ZM265.775,339.784c0-23.15-12.06-41.99-26.88-41.99s-26.88,18.84-26.88,41.99,12.06,42,26.88,42,26.88-18.84,26.88-42Z"/>
        <path d="M265.771,339.782c0,6.72-1.02,13.07-2.83,18.71v.01c-4.4,13.79-13.53,23.28-24.05,23.28-14.82,0-26.88-18.84-26.88-42,0-10.34,2.41-19.82,6.4-27.15,4.93-9.07,12.28-14.84,20.48-14.84,14.82,0,26.88,18.84,26.88,41.99Z" fill="#fed23d"/>
        <path d="M250.511,193.122c-1.9,1.35-4.05,2.22-6.27,2.59-3.67.64-7.54-.06-10.8-2.15l-16.57-10.62c1.03-4.56,1.57-9.28,1.57-14.08v-76.73h18.09c-.538,4.318-.089,9.053,2.74,12.53,1.9,2.33,4.34,3.5,6.33,4.09-10.75,15.18-2.74,30.28.34,35.03-5.57,6.2-2.22,16.81-.98,20.11-2.93,4.96-3.77,9.6-2.47,13.79,1.51,4.91,5.55,7.72,7.55,8.85.1,1.65.25,3.91.47,6.59Z" fill="#ff6653"/>
        <path d="M236.581,88.132h-20.09c-3.61-.1-6.43-2.99-6.43-6.6,0-1.77.69-3.43,1.93-4.68,1.855-2.086,4.976-2.01,7.53-1.93,7.933-.035,15.605,5.148,17.05,13.18.01.01.01.02.01.03Z" fill="#0c7240"/>
        <path d="M171.575,187.514c.01.04.01.09.01.13,0,3.3-2.68,5.98-5.98,5.98-.04,0-.09,0-.13-.01l.13-2.58c1.87,0,3.39-1.52,3.39-3.39l2.58-.13Z"/>
        <path d="M171.575,187.514l-2.58.13c0-1.86-1.52-3.38-3.39-3.38l.13-2.58c3.2.06,5.78,2.64,5.84,5.83Z"/>
        <path d="M165.605,184.264c1.87,0,3.39,1.52,3.39,3.38,0,1.87-1.52,3.39-3.39,3.39-1.86,0-3.38-1.52-3.38-3.39,0-1.86,1.52-3.38,3.38-3.38Z" fill="#fff"/>
        <path d="M165.735,181.684l-.13,2.58c-1.86,0-3.38,1.52-3.38,3.38l-2.59.13c-.01-.04-.01-.09-.01-.13,0-3.29,2.69-5.97,5.98-5.97.04,0,.09,0,.13.01Z"/>
        <path d="M165.605,191.034l-.13,2.58c-3.19-.06-5.78-2.64-5.84-5.84l2.59-.13c0,1.87,1.52,3.39,3.38,3.39Z"/>
        <path d="M152.175,84.684c12.26,4.34,10.11,22.34,10.01,23.1-.08.65-.63,1.13-1.28,1.13h-6.06c-.954.033-1.606-1.068-1.16-1.89,3.94-7.57-9.76-15.51-9.9-15.59-.849-.436-.868-1.772-.03-2.23.691-.197,7.742-5.226,8.42-4.52ZM159.715,106.324c.23-3.73.3-15.58-7.85-18.98l-4.97,2.99c3.75,2.54,11.73,8.89,9.84,15.99h2.98Z"/>
        <path d="M151.865,87.344c8.15,3.4,8.08,15.25,7.85,18.98h-2.98c1.89-7.1-6.09-13.45-9.84-15.99l4.97-2.99Z" fill="#fed23d"/>
        <path d="M146.745,158.784c1.181.818.476,2.793-.96,2.69-.16-.01-15.36-.68-21.34,8.53,12.45,20.849-4.972,31.561-15.99,11.02-.47.62-.89,1.33-1.25,2.13,2.45,4.09,3.77,8.12,4.05,9.01,8.42,14.418-12.464,35.183-17.14,2.57-4.79,10.4,2.09,26.6,2.17,26.78.547,1.167-.73,2.486-1.91,1.98,0,0-18.56-7.36-18.56-7.36-.52-.21-.88-.68-.93-1.23-1.248-2.665-1.256-46.24,22.38-40.84,1.24-3.21,4.92-10.32,13.42-11.39,2.65-2.73,18.05-17.15,36.06-3.89ZM122.575,167.504c4.73-6.39,13.03-8.3,18.36-8.83-11.82-6.02-21.71.38-26.06,4.12,3.26.64,5.79,2.53,7.7,4.71ZM124.855,187.284c1.24-1.94,1.2-5.44-.06-9.44-2.23-.67-9.26-2.37-14.14,1.05,3.406,5.67,9.399,14.108,14.2,8.39ZM107.925,177.264c4.44-3.82,10.83-3.86,15.54-2.85-5.693-13.318-19.706-10.31-23.51.88,2.09,1.26,3.88,3.08,5.38,5.07.753-1.236,1.581-2.23,2.59-3.1ZM107.905,206.564c6.895-7.164-2.21-23.969-11.32-15.51,1.422,9.609,4.376,23.816,11.32,15.51ZM105.795,186.784c-3.106-6.49-9.494-13.423-17.11-8.82-12.33,6.8-11.27,30.8-10.92,35.74l14.57,5.78c-2.2-6.48-5.95-21.15,1.57-29.9v-.01c3.37-3.91,7.83-4.89,11.89-2.79Z"/>
        <path d="M132.535,436.314c.59.2.95.78.87,1.4-.77,5.78-3.18,10.14-7.17,12.97-4.17,2.95-9.18,3.63-12.89,3.63-2.95,0-5.07-.43-5.26-.47-.38-.08-.71-.33-.89-.69l-4.47-8.93c-.25-.5-.15-1.12.26-1.51s1.02-.48,1.52-.2c17.44,9.5,26.13-5,26.49-5.63.31-.53.96-.77,1.54-.57ZM124.745,448.564c2.03-1.45,3.59-3.39,4.64-5.82-4.19,3.86-11.78,8.11-22.65,3.7l2.48,4.96c2.2.33,9.94,1.13,15.53-2.84Z"/>
        <path d="M140.935,158.674c-5.33.53-13.63,2.44-18.36,8.83-1.91-2.18-4.44-4.07-7.7-4.71,4.35-3.74,14.24-10.14,26.06-4.12Z" fill="#ff6653"/>
        <path d="M129.385,442.744c-1.05,2.43-2.61,4.37-4.64,5.82-5.59,3.97-13.33,3.17-15.53,2.84l-2.48-4.96c10.87,4.41,18.46.16,22.65-3.7Z" fill="#fed23d"/>
        <path d="M124.795,177.844c1.483,5.497,1.995,10.478-3.36,11.33-3.46.37-8.17-5.72-10.78-10.28,4.88-3.42,11.91-1.72,14.14-1.05Z" fill="#ff6653"/>
        <path d="M121.235,352.424c.09.36.02.74-.19,1.05l-8.58,12.51c-.22.32-.57.52-.96.56h-.11c-.35,0-.68-.14-.93-.39l-8.58-8.78c-.24-.25-.37-.58-.37-.93.01-.35.15-.68.4-.92l8.58-8.23c.41-.38,1.01-.47,1.5-.21l8.58,4.51c.33.17.57.47.66.83ZM111.225,363.214l6.86-10.01-6.46-3.39-6.97,6.68,6.57,6.72Z"/>
        <path d="M123.465,174.414c-5.821-1.43-14.608-.42-18.13,5.95-1.5-1.99-3.29-3.81-5.38-5.07,3.825-11.225,17.835-14.167,23.51-.88Z" fill="#ff6653"/>
        <polygon points="118.085 353.204 111.225 363.214 104.655 356.494 111.625 349.814 118.085 353.204" fill="#ff6653"/>
        <path d="M106.165,190.594c3.7,3.16,6.38,10.46,1.74,15.97-1.18,1.41-2.92,3-4.43,2.54-3.28-1-5.91-9.72-6.89-18.05,4.2-4.39,8.37-1.48,9.58-.46Z" fill="#ff6653"/>
        <path d="M107.225,269.874c.54.18.9.68.9,1.25-.01.57-.39,1.06-.93,1.23-19.02,5.7-14.82,22.08-14.63,22.78.16.59-.12,1.22-.68,1.5-.18.09-.38.13-.57.13-.39,0-.78-.17-1.03-.5-3.57-4.61-4.98-9.4-4.18-14.22,1.49-9.04,10.15-14.88,10.52-15.12.33-.22.74-.28,1.12-.15l9.48,3.1ZM102.835,271.164l-5.28-1.72c-1.78,1.33-7.79,6.27-8.89,13.03-.41,2.47-.12,4.94.86,7.39.21-5.69,2.53-14.07,13.31-18.7Z"/>
        <path d="M104.335,184.184c.54.87,1.03,1.75,1.46,2.6-4.06-2.1-8.52-1.12-11.89,2.79v.01c-7.52,8.75-3.77,23.42-1.57,29.9l-14.57-5.78c-.35-4.94-1.41-28.94,10.92-35.74,6.506-3.91,12.344.558,15.65,6.22Z" fill="#ff6653"/>
        <path d="M97.555,269.444l5.28,1.72c-10.78,4.63-13.1,13.01-13.31,18.7-.98-2.45-1.27-4.92-.86-7.39,1.1-6.76,7.11-11.7,8.89-13.03Z" fill="#0c7240"/>
        <path d="M221.631,75.102c7.207.55,13.61,5.832,14.94,13,.01.01.01.02.01.03h-10.55c.5-.75.92-2.67-.58-7.44-.64-2.03-2.07-3.92-3.82-5.59Z" opacity=".2"/>
        <path d="M236.521,98.042c.338,2.4,1.225,4.731,2.75,6.62,1.9,2.33,4.34,3.5,6.33,4.09-10.75,15.18-2.74,30.28.34,35.03-5.57,6.2-2.22,16.81-.98,20.11-2.93,4.96-3.77,9.6-2.47,13.79,1.51,4.91,5.55,7.72,7.55,8.85.1,1.65.25,3.91.47,6.59-1.9,1.35-4.05,2.22-6.27,2.59-1.44-5.25-3.63-10.99-7.66-15.35-8.771-9.49,5.27-14.32,0-24.16-5.26-9.84,2.54-13.19-2.89-21.78-5.42-8.59,8.16-24.21,0-25.51-5.92-.94-7.59-11.23-8.05-16.78h10.89c-.224,1.969-.294,3.956-.01,5.91Z" opacity=".2"/>
        <path d="M301.541,246.242v36.27c-28.17,3.5-56.6,4.63-84.94,3.38.16-10.76.76-23.8,2.39-35.89,3.7-27.32,18.57-32.42,15.79-17.2-1.7,9.34-1.32,25.55-.76,36.69.17,3.36,1.64,6.37,3.91,8.53,2.28,2.17,5.36,3.49,8.73,3.49,7.15,0,12.87-5.92,12.64-13.07-.35-10.9-1.32-25.67-4-32.24-4.51-11.06-4.47-23.7-7.2-27.02-1.24-1.51-1.92-5.62-3.11-10.55,2.03-.37,4-1.09,5.81-2.13,1.47,15.92,5.06,41.83,13.24,50.24,3.357,4.029,10.238,3.392,13-.83,3.6-5.22,1.81-15.08.01-21.61-.6-2.17-1.2-3.98-1.61-5.12,1.232-1.516,2.21-3.235,2.92-5.05,3.07,3.01,6.44,5.7,10.05,8.02,8.22,5.31,13.13,14.32,13.13,24.09Z" opacity=".2"/>
        <path d="M233.691,315.452c-10.51,12.38-13.82,5.76-14.7,1.94-.18-.79-.38-2.52-.58-4.76,4.93-9.07,12.28-14.84,20.48-14.84,14.82,0,26.88,18.84,26.88,41.99,0,6.72-1.02,13.07-2.83,18.71.03-2.23.06-4.42.12-6.56.71-26.57-18.85-48.86-29.37-36.48Z" opacity=".2"/>
        <path d="M301.541,285.532v101.61c-13.32,1.66-26.69,2.78-40.08,3.38.99-7.65,1.24-15.83,1.37-23.83,3.729-7.51,5.94-16.83,5.94-26.91,0-24.81-13.4-44.99-29.88-44.99-8.12,0-15.48,4.89-20.88,12.83-.51-7.27-.98-16.17-1.11-18.71,7.33.32,14.66.48,21.99.48,20.93,0,41.86-1.29,62.65-3.86Z" opacity=".2"/>
        <path d="M261.031,393.542c13.54-.59,27.05-1.72,40.51-3.38v58.56c0,.03-.5,3.38-18.49,6.01-11.63,1.71-27.32,2.65-44.16,2.65h-.1c10.17-5.83,36.53-9.6,34.07-12.1-3.35-3.39-78.29.04-78.77-6.41-.47-6.45,28.64-4.05,49.65-15.1,10.53-5.54,15.18-16.92,17.29-30.23Z" opacity=".2"/>
        <path d="M274.771,241.182c-.23.95-.56,1.78-1.03,2.46-.86,1.25-2.14,1.83-4.02,1.83-8.58,0-14.37-35.27-15.75-60.31-.884-3.116-4.71-1.885-7.36-7.83-1.235-2.93-.681-6.231.58-9.07.409-1.551,2.514-3.178,1.83-4.98-.05-.13-5.43-12.75.78-17.66.42-.33.69-.81.75-1.34.05-.5-.08-.99-.37-1.4-.02-.02-.04-.05-.06-.08-.561-.71-13.65-17.59.63-34.14.52-.6.63-1.43.31-2.14-.3-.66-.939-1.09-1.66-1.15-8.647-.316-10.072-8.446-8.53-15.56-.19-2.15-2.271-18.1-21.16-18.89-.24-.01-.47-.02-.72-.03.8-3.94,3.39-11.94,11.33-12.82.64-.07,1.21-.45,1.53-1.02.06-.13,5.33-9.35,14.26-12.97,1.54,1.57,2.57,3.39,2.77,5.49.99,10.32-13.41,15.96-7.34,18.84,6.07,2.87,12.77,9.26,5.75,17.56-7.03,8.3.96,11.18,8.01,14.37,7.05,3.19,3.8,11.18-2.9,16.37-6.71,5.19-.64,18.44,2.57,23.45.57.89.96,1.8,1.2,2.73,1.14,4.35-1.11,9.08-5.06,13.11-4.79,4.88,6.08,6.61,1.29,14.27-4.79,7.67,3.19,7.03,8.59,12.74,5.41,5.7-2.84,10.57,2.07,13.49,4.91,2.92,4.98,14.65,0,18.66-4.979,4.02.19,16.74,3.57,23.45,1.65,3.28,5.07,3.35,8.14,2.57Z" opacity=".2"/>
      </g>
    </g>
  </g>
</svg>