<?xml version="1.0" encoding="UTF-8"?>
<svg xmlns="http://www.w3.org/2000/svg" version="1.1" viewBox="0 0 500 500">
  <!-- Generator: Adobe Illustrator 28.7.3, SVG Export Plug-In . SVG Version: 1.2.0 Build 164)  -->
  <g>
    <g id="object">
      <g>
        <g>
          <path d="M450.641,161.392c1.475,3.88-5.349,7.416-7.36,9.67-1.325,3.148,2.82,10.759-1.46,12.959-3.775,2.953-8.984-3.949-12.39-4.07-4.342,2.081-13.76,7.508-13.36-1.76-.065-.606,2.391-8.329,1.55-8.62-1.702-2.476-8.128-6.76-6.2-10.44,1.08-4.008,8.681-2.847,11.63-3.491,2.923-1.769,4.048-10.377,8.8-9.629,4.806-.178,4.947,8.465,7.64,10.58,2.833,1.007,10.538.689,11.15,4.8ZM447.011,163.272c2.419-3.34-10.915-1.674-11.399-5.93-4.349-10.338-3.251-10.376-8.79-.509-1.376,3.255-8.658,2.333-11.36,2.91-3.365.516,4.444,6.637,4.7,7.51,2.658,2.323-.461,8.958-.75,11.71-.556,3.354,7.691-2.168,8.6-2.14,3.023-1.834,8.378,3.197,10.9,4.32,3.038,1.54.307-7.976.62-8.84-.807-3.432,5.64-6.977,7.48-9.03Z"/>
          <path d="M447.321,162.272c.75.82-6.002,5.652-6.29,6.19-3.552,2.355.553,9.907-1.07,12.66-.15.1-.57.31-1.05.02-9.194-5.909-8.338-5.794-18.11-1.049-4.052.819,3.019-10.608-.64-12.84-.234-.858-8.067-6.989-4.7-7.51,11.035-.682,10.059-.118,15.27-9.801.28-.479.73-.509.93-.499,1.017-.456,3.524,7.454,3.95,7.9,1.134,4.091,9.597,2.542,11.71,4.93Z" fill="#fed23d"/>
          <path d="M443.751,223.922c.2.7-.06,1.45-.65,1.87s-1.39.43-1.99.01c-.54-.38-13.45-9.2-20.11.35-.32.46-.85.73-1.41.73s-1.09-.27-1.41-.73l-6.32-9.05c-.27-.39-.37-.86-.28-1.32.09-.45.36-.85.75-1.11.53-.35,13.25-8.4,28.46.61.38.22.66.58.78,1.01l2.18,7.63ZM439.291,220.842l-.83-2.94c-10.32-5.81-19.18-2.84-22.68-1.19l3.92,5.61c1.94-2.03,4.31-3.3,7.05-3.79,4.63-.83,9.37.79,12.54,2.31Z"/>
          <path d="M438.461,217.902l.83,2.94c-3.17-1.52-7.91-3.14-12.54-2.31-2.74.49-5.11,1.76-7.05,3.79l-3.92-5.61c3.5-1.65,12.36-4.62,22.68,1.19Z" fill="#6757dc"/>
          <path d="M413.321,257.192c1.476,3.883-5.357,7.417-7.37,9.67-1.301,3.159,2.807,10.758-1.46,12.959-3.781,2.957-8.978-3.958-12.39-4.07-4.389,2.063-13.674,7.562-13.36-1.76-.062-.614,2.403-8.317,1.55-8.62-1.706-2.476-8.118-6.757-6.2-10.44,1.088-4.01,8.688-2.847,11.64-3.491,2.923-1.778,4.044-10.355,8.8-9.629,4.797-.175,4.938,8.47,7.63,10.58,2.836,1.007,10.541.692,11.16,4.8ZM409.681,259.072c2.423-3.336-10.904-1.675-11.399-5.93-4.353-10.336-3.232-10.368-8.78-.509-1.382,3.258-8.654,2.336-11.36,2.92-3.377.497,4.447,6.641,4.69,7.51,2.672,2.31-.456,8.955-.74,11.7-.558,3.359,7.686-2.176,8.59-2.14,3.03-1.826,8.37,3.202,10.9,4.32,3.058,1.521.295-7.958.62-8.83-.791-3.449,5.627-6.981,7.48-9.04Z"/>
          <path d="M409.991,258.072c.752.82-6.001,5.651-6.29,6.19-3.53,2.361.527,9.891-1.06,12.66-.16.11-.58.31-1.06.02-9.199-5.892-8.33-5.803-18.11-1.049-4.04.817,3.033-10.609-.64-12.83-.223-.856-8.069-7.009-4.69-7.51,11.022-.697,10.057-.12,15.27-9.801.27-.489.74-.519.92-.509,1.018-.458,3.523,7.454,3.95,7.9,1.141,4.089,9.598,2.544,11.71,4.93Z" fill="#fed23d"/>
          <path d="M409.131,170.082c0,.95-.76,1.72-1.71,1.73-27.67.15-54.94,4.88-81.04,14.07-.18.07-.38.1-.57.1-.71,0-1.37-.44-1.62-1.15-.31-.89.16-1.87,1.05-2.19,26.46-9.32,54.11-14.12,82.16-14.27.91-.01,1.72.76,1.73,1.71Z"/>
          <path d="M395.981,196.152c.15.64-.06,1.3-.56,1.72-.31.27-.71.41-1.11.41-.23,0-.46-.04-.67-.13l-14.97-6.34c-.59-.25-.99-.79-1.05-1.42-.06-.62.23-1.24.76-1.59l11.5-7.73c.47-.32,1.06-.38,1.58-.18s.91.65,1.05,1.19l3.47,14.07ZM391.821,193.652l-2.06-8.36-6.83,4.59,8.89,3.77Z"/>
          <path d="M395.221,127.202c.61.65.62,1.67.03,2.33l-4.16,4.63c-.31.35-.74.55-1.2.57-.46.03-.91-.14-1.25-.46-.16-.15-4.08-3.68-6.96-1.1-3.9,3.5-7.2,8.21-7.24,8.25-.32.47-.85.74-1.4.74-.14,0-.28-.02-.42-.05-.7-.18-1.21-.76-1.29-1.47-.07-.59-1.62-14.64,7.04-18.36,8.6-3.69,16.52,4.57,16.85,4.92ZM389.601,130.672l1.95-2.17c-1.68-1.41-5-3.71-8.63-3.71-1.05,0-2.12.19-3.19.65-3.65,1.57-4.74,6.35-5.01,10.05,1.3-1.54,2.91-3.3,4.67-4.88,3.45-3.1,7.64-1.67,10.21.06Z"/>
          <polygon points="389.761 185.292 391.821 193.652 382.931 189.882 389.761 185.292" fill="#fd4d71"/>
          <path d="M391.551,128.502l-1.95,2.17c-2.57-1.73-6.76-3.16-10.21-.06-1.76,1.58-3.37,3.34-4.67,4.88.27-3.7,1.36-8.48,5.01-10.05,1.07-.46,2.14-.65,3.19-.65,3.63,0,6.95,2.3,8.63,3.71Z" fill="#4bbd8c"/>
          <path d="M383.741,228.912c.22.8-.24,1.62-1.04,1.85-.79.22-1.62-.24-1.85-1.04-1.4-4.95-6.08-7.26-9.99-7.78-.46-.06-.94-.1-1.44-.12.01.01.01.02.01.03,1.04,5.05-.7,9.3-4.67,11.37-1.37.71-2.83,1.06-4.2,1.06-1.74,0-3.32-.56-4.36-1.66-.76-.81-2.28-3.11.07-7.06,1.93-3.23,5.08-5.43,8.82-6.31-.48-.57-1.06-1-1.75-1.29-4.51-1.88-12.75,2.42-15.54,4.24-.7.45-1.63.25-2.08-.44-.45-.7-.26-1.63.44-2.08.46-.3,11.45-7.36,18.34-4.49,1.7.71,3,1.93,3.89,3.63.93-.03,1.89.02,2.86.15,6.2.81,10.99,4.62,12.49,9.94ZM363.371,230.562c1.3-.68,4.21-2.83,3.12-8.1-.03-.14-.06-.28-.09-.41-2.89.53-5.76,2.04-7.55,5.05-.54.9-1.32,2.56-.47,3.46.8.83,2.93,1.07,4.99,0Z"/>
          <path d="M378.681,203.912c.94.13,1.6,1,1.47,1.94-.14.94-1,1.59-1.94,1.46-32.42-4.55-65.7.36-95.38,13.85,2.89,2.92,5.61,5.82,8.12,8.67,8.64-.72,17.4.03,25.76,2.29.92.25,1.46,1.19,1.21,2.11-.24.92-1.19,1.46-2.1,1.21-7.17-1.94-14.65-2.71-22.07-2.35,2.1,2.5,4.03,4.96,5.77,7.34,9.11,12.52,11.73,21.27,7.78,26.01-.59.71-1.3,1.29-2.13,1.75l-222.68,175.66v-.01l-1.47-1.86-1.46-1.84.07-.27c.06.02.12.03.17.04l19.8-15.62c-5.91-1.25-11.63-3.1-17.05-5.53-3.44-1.54-6.79-3.33-10.01-5.33l-7.48,14.19c.02.07.06.14.09.22l-.28.07-2.08-1.1-2.45-.34c.09-.3.22-.6.4-.87l132.31-250.88c.29-.84.71-1.62,1.28-2.3,5.52-6.64,21.2-1.35,39.18,9.52,2.1-10.97,1.75-22.37-1.16-33.25-.24-.91.3-1.85,1.22-2.1.92-.24,1.86.3,2.1,1.22,3.15,11.79,3.44,24.19.96,36.06,3.91,2.46,7.9,5.17,11.91,8.06,13.42-31.88,19.14-67.36,16.19-101.69-.09-.95.61-1.78,1.56-1.86.94-.08,1.78.62,1.86,1.56,3.02,35.15-2.9,71.49-16.77,104.07,4.06,3.01,8.11,6.18,12.06,9.46,9.9-9.29,20.64-17.65,32.11-24.93.81-.5,1.87-.27,2.38.53.5.8.27,1.87-.53,2.37-11.18,7.09-21.65,15.23-31.3,24.26,5,4.25,9.74,8.57,14.13,12.87,30.57-14.16,64.96-19.37,98.45-14.66ZM303.731,263.262c1.51-2.11.3-8.55-8.06-20.03-2.25-3.09-4.85-6.32-7.74-9.62-5.38.7-10.68,2-15.76,3.91-.2.07-.41.11-.61.11-.69,0-1.35-.43-1.61-1.12-.33-.89.12-1.88,1.01-2.21,4.6-1.73,9.38-2.98,14.23-3.76-2.18-2.38-4.49-4.8-6.92-7.22-3.66,1.79-7.25,3.7-10.77,5.76-.28.16-.57.23-.87.23-.59,0-1.16-.3-1.48-.85-.48-.82-.2-1.87.62-2.35,3.24-1.89,6.54-3.67,9.89-5.35-4.07-3.92-8.43-7.87-13.02-11.75-2.57,2.51-5.09,5.07-7.53,7.71-.34.37-.8.55-1.27.55-.41,0-.83-.15-1.16-.45-.7-.65-.74-1.73-.1-2.43,2.4-2.6,4.89-5.12,7.41-7.6-3.61-2.98-7.14-5.76-10.56-8.32-1.77,3.9-3.64,7.75-5.64,11.52-.31.58-.9.92-1.52.92-.27,0-.54-.07-.8-.2-.84-.45-1.16-1.48-.72-2.32,2.08-3.93,4.02-7.94,5.85-12.01-3.88-2.82-7.61-5.36-11.17-7.62-.97,3.5-2.17,6.95-3.64,10.31-.28.64-.91,1.03-1.58,1.03-.23,0-.46-.05-.68-.15-.87-.38-1.27-1.39-.89-2.26,1.54-3.52,2.78-7.15,3.75-10.84-13.98-8.56-24.86-12.65-30.57-12.65-1.76,0-3.01.4-3.73,1.17l-.68,1.29c-1.68,6.87,12.8,29.26,43.43,54.75,14.45,12.03,29.2,21.9,41.52,27.8,11.3,5.41,17.73,6.07,20.33,4.87l1.04-.82ZM268.131,291.352l28.22-22.27c-4.32-.67-9.66-2.52-16.04-5.57-12.67-6.07-27.77-16.17-42.51-28.44-20.85-17.35-39.4-37.81-44.08-51.4l-18.34,34.77,2.63,15.16h15.23c.76,0,1.39.56,1.49,1.31l2.73,21.28,23.12-.88c.7-.05,1.29.41,1.49,1.05l5.68,18.36h25.69c.74,0,1.36.53,1.48,1.25l2.56,15.38h10.65ZM250.201,305.492l14.12-11.14h-8.11c-.73,0-1.36-.53-1.48-1.26l-2.56-15.37h-25.53c-.66,0-1.24-.43-1.43-1.06l-5.66-18.31-23.34.89c-.77.03-1.45-.54-1.55-1.31l-2.74-21.33h-15.17c-.73,0-1.35-.53-1.48-1.25l-2.18-12.57-10.2,19.35.97,5.61h15.24c.76,0,1.39.56,1.49,1.31l2.73,21.28,23.12-.88c.69-.05,1.29.41,1.5,1.05l5.67,18.36h25.69c.74,0,1.36.53,1.48,1.25l2.56,15.38h6.86ZM232.121,319.752l14.28-11.26h-4.33c-.73,0-1.36-.53-1.48-1.26l-2.56-15.37h-25.53c-.66,0-1.24-.43-1.43-1.06l-5.66-18.31-23.34.89c-.77.04-1.45-.54-1.55-1.31l-2.74-21.33h-15.18c-.73,0-1.35-.53-1.48-1.24l-.52-3.03-14.69,27.85c8.22,15.17,20.74,27.81,35.44,35.71,15.16,8.15,33.11,11.56,50.77,9.72ZM208.011,338.772l19.86-15.67c-1.7.1-3.4.15-5.09.15-15.05,0-29.93-3.63-42.85-10.58-14.64-7.87-27.2-20.27-35.7-35.17l-12.27,23.26c8.91,13.52,21.66,24.48,36.12,30.95,12.34,5.51,26.1,7.94,39.93,7.06ZM188.271,354.342l15.75-12.42c-.5.01-1,.04-1.5.04-12.38,0-24.58-2.56-35.66-7.51-14.49-6.49-27.33-17.3-36.49-30.67l-9.58,18.16c7.37,9.18,16.48,16.83,26.47,22.19,12.35,6.64,26.49,10.17,41.01,10.21ZM164.711,372.932l19.87-15.68c-13.71-.59-27-4.17-38.74-10.48-9.97-5.35-19.1-12.9-26.57-21.95l-11.7,22.2c7.6,7.94,16.68,14.43,26.42,18.78,9.48,4.24,20.06,6.67,30.72,7.13ZM142.381,390.552l18.79-14.83c-9.89-.81-19.6-3.25-28.4-7.18-9.8-4.38-18.96-10.82-26.69-18.71l-10.79,20.47c6.32,5.54,13.3,10.05,20.79,13.41,8.27,3.69,17.11,5.97,26.3,6.84ZM124.201,404.892l14.82-11.7c-8.41-1.08-16.52-3.33-24.16-6.74-7.56-3.39-14.61-7.9-21.01-13.42l-8.43,15.98c4.98,3.75,10.33,6.92,15.93,9.43,7.21,3.22,14.89,5.37,22.85,6.45ZM102.701,421.852l18.27-14.42c-7.23-1.21-14.23-3.3-20.84-6.25-5.67-2.54-11.08-5.72-16.13-9.48l-10.05,19.07c3.16,1.97,6.45,3.74,9.82,5.25,5.99,2.68,12.35,4.63,18.93,5.83Z"/>
          <path d="M365.831,248.582c.81.49,1.07,1.55.57,2.36-.32.53-.89.83-1.47.83-.3,0-.61-.08-.89-.25-8.43-5.13-18.05-8.63-27.81-10.14-.94-.15-1.58-1.02-1.44-1.96.15-.94,1.02-1.58,1.96-1.44,10.2,1.58,20.26,5.24,29.08,10.6Z"/>
          <path d="M352.061,70.742c1.473,3.863-5.368,7.411-7.37,9.66-1.301,3.159,2.807,10.758-1.46,12.959-3.786,2.961-8.98-3.953-12.39-4.07-4.35,2.078-13.736,7.514-13.36-1.76-.065-.602,2.405-8.323,1.55-8.61-1.699-2.478-8.127-6.771-6.2-10.45,1.08-4.01,8.691-2.847,11.64-3.491,2.916-1.778,4.056-10.355,8.8-9.629,4.792-.174,4.941,8.471,7.63,10.58,2.842,1.01,10.545.686,11.16,4.81ZM348.421,72.612c2.425-3.338-10.912-1.673-11.399-5.93-4.353-10.336-3.232-10.368-8.78-.509-1.381,3.256-8.663,2.336-11.37,2.92-3.351.509,4.456,6.641,4.7,7.51,2.657,2.307-.458,8.957-.74,11.7-.587,3.361,7.69-2.171,8.59-2.14,3.026-1.828,8.372,3.204,10.9,4.32,3.04,1.568.306-7.974.62-8.83-.791-3.449,5.627-6.981,7.48-9.04Z"/>
          <path d="M350.231,148.672c.31.9-.16,1.88-1.05,2.2-11.99,4.23-23.48,9.88-34.15,16.8-.29.19-.61.28-.93.28-.56,0-1.12-.28-1.44-.79-.52-.79-.29-1.86.5-2.37,10.9-7.07,22.63-12.84,34.87-17.16.9-.32,1.88.15,2.2,1.04Z"/>
          <path d="M348.731,71.612c.752.82-6.001,5.651-6.29,6.19-3.53,2.363.527,9.896-1.06,12.67-.16.1-.58.3-1.06.01-9.201-5.893-8.33-5.803-18.11-1.049-4.033.849,3.012-10.631-.64-12.83-.224-.856-8.053-6.997-4.7-7.51,11.026-.699,10.066-.113,15.28-9.801.27-.489.74-.519.92-.509,1.018-.458,3.523,7.454,3.95,7.9,1.139,4.094,9.597,2.541,11.71,4.93Z" fill="#fed23d"/>
          <path d="M345.011,116.292c.57.32.9.93.87,1.58-.04.65-.44,1.22-1.03,1.48l-14.91,6.5c-.22.1-.45.14-.68.14-.38,0-.76-.12-1.06-.36-.5-.39-.74-1.02-.64-1.64l2.31-13.67c.1-.55.45-1.03.96-1.27s1.1-.22,1.59.06l12.59,7.18ZM331.481,121.432l8.85-3.86-7.48-4.26-1.37,8.12Z"/>
          <path d="M343.961,266.862c4.32,8.29-3.34,16.8-3.67,17.16-.601.657-1.612.747-2.31.2-.677-.781-5.689-3.767-5.58-4.97-.262-1.806,4.159-4.38.95-8.29-5.048-5.348-9.234-5.304-9.581-8.389.319-2.566,15.413-4.087,20.191,4.289ZM338.731,280.462c5.86-7.206,3.203-17.16-8.24-16.3,5.299,3.193,9.928,8.819,5.93,14.51l2.31,1.79Z"/>
          <path d="M340.911,268.442c2.4,4.61-.53,9.72-2.18,12.02l-2.31-1.79c4.001-5.7-.636-11.317-5.93-14.51,3.734-.013,8.556.702,10.42,4.28Z" fill="#4bbd8c"/>
          <polygon points="340.331 117.572 331.481 121.432 332.851 113.312 340.331 117.572" fill="#fd4d71"/>
          <path d="M315.951,105.812c.89.32,1.36,1.3,1.05,2.19-5.46,15.51-14.4,29.93-25.86,41.71-.34.35-.79.52-1.23.52-.43,0-.87-.16-1.2-.48-.68-.67-.7-1.75-.03-2.43,11.11-11.43,19.78-25.42,25.07-40.46.32-.89,1.3-1.36,2.2-1.05Z"/>
          <path d="M308.821,193.422c.37.87-.03,1.88-.91,2.25l-14.72,6.29c-.22.09-.45.14-.67.14-.67,0-1.3-.39-1.58-1.05-.38-.87.03-1.88.9-2.25l14.72-6.29c.88-.37,1.89.03,2.26.91Z"/>
          <path d="M303.726,263.259l-1.04.82c-2.6,1.2-9.03.54-20.33-4.87-12.32-5.9-27.07-15.77-41.52-27.8-16.16-13.45-27.83-26.04-34.99-35.93-6.42-8.87-9.23-15.57-8.44-18.82l.68-1.29c.72-.77,1.97-1.17,3.73-1.17,5.71,0,16.59,4.09,30.57,12.65-.97,3.69-2.21,7.32-3.75,10.84-.38.87.021,1.88.89,2.26.22.1.45.15.68.15.67,0,1.3-.39,1.58-1.03,1.47-3.36,2.67-6.81,3.64-10.31,3.56,2.26,7.29,4.8,11.17,7.62-1.83,4.07-3.77,8.08-5.85,12.01-.44.84-.12,1.87.72,2.32.26.13.53.2.8.2.62,0,1.21-.34,1.52-.92,2-3.77,3.87-7.62,5.64-11.52,3.42,2.56,6.95,5.34,10.56,8.32-2.52,2.48-5.01,5-7.41,7.6-.64.7-.6,1.78.1,2.43.33.3.75.45,1.16.45.47,0,.93-.18,1.27-.55,2.44-2.64,4.96-5.2,7.53-7.71,4.59,3.88,8.95,7.83,13.021,11.75-3.35,1.68-6.65,3.46-9.89,5.35-.82.48-1.1,1.53-.62,2.35.32.55.89.85,1.48.85.3,0,.59-.07.87-.23,3.52-2.06,7.11-3.97,10.77-5.76,2.43,2.42,4.74,4.84,6.92,7.22-4.85.78-9.63,2.03-14.23,3.76-.89.33-1.34,1.32-1.01,2.21.26.69.92,1.12,1.61,1.12.2,0,.41-.04.61-.11,5.08-1.91,10.38-3.21,15.76-3.91,1.41,1.61,2.76,3.21,4.021,4.78,1.33,1.64,2.57,3.26,3.72,4.84,8.36,11.48,9.57,17.92,8.06,20.03Z" fill="#fd4d71"/>
          <path d="M297.761,72.722c2.73,2.19,3.95,5.58,2.91,8.07-.43,1.02-1.92,3.34-6.48,2.79-3.74-.45-7.02-2.45-9.34-5.5-.33.66-.49,1.37-.47,2.11.1,4.89,7.37,10.69,10.16,12.5.69.46.89,1.39.44,2.08-.29.44-.77.68-1.26.68-.28,0-.57-.08-.82-.24-.46-.3-11.36-7.49-11.52-14.96-.04-1.84.54-3.52,1.74-5.02-.41-.84-.75-1.74-1.02-2.68-1.77-6-.22-11.92,4.04-15.44.64-.53,1.58-.44,2.11.2.53.63.44,1.58-.2,2.11-3.96,3.28-4.19,8.5-3.08,12.29.14.44.29.9.48,1.35.01,0,.01-.01.02-.01,4.2-3,8.79-3.12,12.29-.33ZM297.901,79.632c.45-1.06-.2-3.11-2.02-4.56-1.14-.92-4.28-2.71-8.67.42-.11.08-.22.17-.33.25,1.66,2.43,4.19,4.44,7.67,4.86,1.04.13,2.87.17,3.35-.97Z"/>
          <path d="M296.347,269.079l-28.22,22.27h-10.65l-2.56-15.38c-.12-.72-.74-1.25-1.48-1.25h-25.69l-.15-.47-5.53-17.89c-.2-.64-.79-1.1-1.49-1.05l-23.12.88-2.73-21.28c-.1-.75-.73-1.31-1.49-1.31h-15.23l-2.63-15.16,18.34-34.77c4.68,13.59,23.23,34.05,44.08,51.4,1.06.88,2.12,1.75,3.18,2.6,13.71,11.1,27.57,20.21,39.33,25.84,6.38,3.05,11.72,4.9,16.04,5.57Z" fill="#6757dc"/>
          <path d="M282.861,161.412c.71.62.79,1.71.17,2.42l-5.13,5.94c-.34.39-.82.6-1.3.6-.4,0-.8-.14-1.12-.42-.72-.62-.8-1.71-.18-2.43l5.13-5.93c.62-.72,1.71-.8,2.43-.18Z"/>
          <path d="M264.316,294.349l-14.12,11.14h-6.86l-2.56-15.38c-.12-.72-.74-1.25-1.48-1.25h-25.69l-5.67-18.36c-.21-.64-.81-1.1-1.5-1.05l-23.12.88-2.73-21.28c-.1-.75-.73-1.31-1.49-1.31h-15.24l-.97-5.61,10.2-19.35,2.18,12.57c.13.72.75,1.25,1.48,1.25h15.17l2.74,21.33c.1.77.78,1.34,1.55,1.31l23.34-.89,5.66,18.31c.13.43.44.77.84.93.18.09.38.13.59.13h25.53l2.56,15.37c.12.73.75,1.26,1.48,1.26h8.11Z" fill="#fed23d"/>
          <path d="M256.351,126.852c.15.64-.06,1.3-.56,1.72-.31.27-.71.41-1.11.41-.23,0-.45-.04-.67-.13l-14.97-6.34c-.58-.25-.98-.79-1.04-1.42s.23-1.24.75-1.59l11.5-7.73c.47-.32,1.06-.38,1.58-.18.53.2.92.65,1.05,1.19l3.47,14.07ZM252.191,124.352l-2.06-8.36-6.83,4.59,8.89,3.77Z"/>
          <polygon points="250.131 115.992 252.191 124.352 243.301 120.582 250.131 115.992" fill="#6757dc"/>
          <path d="M246.396,308.489l-14.28,11.26c-10,1.04-20.09.4-29.72-1.83-7.37-1.71-14.47-4.35-21.05-7.89-14.7-7.9-27.22-20.54-35.44-35.71l14.69-27.85.52,3.03c.13.71.75,1.24,1.48,1.24h15.18l2.74,21.33c.1.77.78,1.35,1.55,1.31l23.34-.89,5.66,18.31c.19.63.77,1.06,1.43,1.06h25.53l2.56,15.37c.12.73.75,1.26,1.48,1.26h4.33Z" fill="#4bbd8c"/>
          <path d="M228.001,127.212c.31.9-.16,1.88-1.06,2.19-.18.07-.38.1-.56.1-.71,0-1.38-.45-1.63-1.15-2.42-6.94-6.57-13.23-11.97-18.2-.7-.64-.75-1.73-.11-2.43.65-.69,1.73-.74,2.43-.1,5.82,5.35,10.28,12.13,12.9,19.59Z"/>
          <path d="M227.867,323.099l-19.86,15.67c-7.41.47-14.8-.01-21.96-1.4-6.21-1.21-12.24-3.1-17.97-5.66-14.46-6.47-27.21-17.43-36.12-30.95l12.27-23.26c8.5,14.9,21.06,27.3,35.7,35.17,6.41,3.44,13.31,6.08,20.47,7.86,7.26,1.8,14.8,2.72,22.38,2.72,1.69,0,3.39-.05,5.09-.15Z" fill="#fd4d71"/>
          <path d="M224.151,75.252c1.475,3.88-5.349,7.416-7.36,9.67-1.326,3.149,2.823,10.759-1.47,12.959-3.778,2.955-8.978-3.963-12.39-4.07-4.348,2.077-13.736,7.514-13.36-1.76-.064-.613,2.408-8.322,1.55-8.62-1.708-2.475-8.11-6.755-6.2-10.44,1.088-4.01,8.688-2.847,11.64-3.491,2.919-1.777,4.049-10.355,8.8-9.629,4.794-.175,4.959,8.455,7.63,10.58,2.834,1.007,10.549.692,11.16,4.8ZM220.511,77.132c2.431-3.332-10.907-1.677-11.399-5.93-4.353-10.336-3.232-10.368-8.78-.509-1.384,3.252-8.655,2.339-11.36,2.92-3.369.504,4.445,6.64,4.69,7.51,2.679,2.305-.456,8.955-.74,11.7-.576,3.353,7.691-2.17,8.59-2.14,3.024-1.827,8.381,3.205,10.91,4.32,3.023,1.563.297-7.981.61-8.83-.791-3.449,5.627-6.981,7.48-9.04Z"/>
          <path d="M220.821,76.132c.759.817-6.004,5.651-6.29,6.19-3.531,2.364.527,9.895-1.06,12.67-.16.1-.58.3-1.05.01-9.206-5.886-8.337-5.807-18.12-1.049-3.187,1.194.624-7.955.41-8.841,2.101-3.746-9.648-10.211-5.74-11.5,11.016-.695,10.063-.127,15.27-9.801.27-.489.74-.519.92-.509,1.018-.458,3.523,7.454,3.95,7.9,1.141,4.089,9.598,2.544,11.71,4.93Z" fill="#fed23d"/>
          <path d="M210.621,143.092c2.73,2.18,3.95,5.57,2.91,8.07-.43,1.02-1.93,3.34-6.48,2.79-3.74-.46-7.03-2.45-9.35-5.51-.32.67-.48,1.37-.46,2.12.1,4.89,7.37,10.68,10.16,12.5.69.45.89,1.38.44,2.08-.29.44-.77.68-1.26.68-.28,0-.57-.08-.82-.25-.46-.3-11.36-7.49-11.52-14.95-.04-1.84.54-3.52,1.74-5.02-.41-.85-.75-1.74-1.02-2.68-1.77-6-.22-11.92,4.04-15.45.63-.52,1.58-.43,2.11.2.53.64.44,1.59-.2,2.11-3.96,3.29-4.19,8.51-3.08,12.29.13.45.29.91.48,1.36,0,0,.01-.01.02-.01,4.2-3,8.79-3.12,12.29-.33ZM210.761,149.992c.45-1.06-.2-3.1-2.02-4.56-1.14-.91-4.28-2.71-8.67.43-.11.08-.22.16-.33.25,1.65,2.42,4.19,4.44,7.67,4.86,1.04.13,2.87.17,3.35-.98Z"/>
          <path d="M204.016,341.919l-15.75,12.42c-5.79-.02-11.52-.59-17.1-1.69-8.41-1.66-16.49-4.53-23.91-8.52-9.99-5.36-19.1-13.01-26.47-22.19l9.58-18.16c9.16,13.37,22,24.18,36.49,30.67,5.37,2.4,11.01,4.24,16.8,5.49,6.15,1.34,12.479,2.02,18.86,2.02.5,0,1-.03,1.5-.04Z" fill="#6757dc"/>
          <path d="M184.577,357.249l-19.87,15.68c-4.58-.2-9.14-.76-13.61-1.67-5.94-1.21-11.7-3.04-17.11-5.46-9.74-4.35-18.82-10.84-26.42-18.78l11.7-22.2c7.47,9.05,16.6,16.6,26.57,21.95,7.1,3.81,14.76,6.63,22.74,8.39,5.22,1.16,10.58,1.86,16,2.09Z" fill="#fed23d"/>
          <path d="M161.166,375.719l-18.79,14.83c-3.94-.37-7.83-1-11.63-1.9-5.05-1.19-9.95-2.84-14.67-4.94-7.49-3.36-14.47-7.87-20.79-13.41l10.79-20.47c7.73,7.89,16.89,14.33,26.69,18.71,4.94,2.21,10.17,3.94,15.55,5.18,4.22.98,8.52,1.65,12.85,2Z" fill="#4bbd8c"/>
          <path d="M139.016,393.189l-14.82,11.7c-3.7-.5-7.35-1.24-10.91-2.2-4.09-1.11-8.08-2.53-11.94-4.25-5.6-2.51-10.95-5.68-15.93-9.43l8.43-15.98c6.4,5.52,13.45,10.03,21.01,13.42,4.2,1.87,8.54,3.4,12.99,4.56,3.65.97,7.38,1.69,11.17,2.18Z" fill="#6757dc"/>
          <path d="M120.966,407.429l-18.27,14.42c-3.71-.68-7.35-1.59-10.89-2.75-2.74-.88-5.43-1.91-8.04-3.08-3.37-1.51-6.66-3.28-9.82-5.25l10.05-19.07c5.05,3.76,10.46,6.94,16.13,9.48,3.32,1.48,6.73,2.74,10.23,3.79,3.47,1.04,7,1.85,10.61,2.46Z" fill="#fd4d71"/>
          <path d="M99.596,424.289l-19.8,15.62c-.05-.01-.11-.02-.17-.04-1.26-.32-4.31-1.84-8.12-5-.22-.18-.43-.36-.64-.54-3.36-2.91-5.19-5.35-5.72-6.49-.03-.08-.07-.15-.09-.22l7.48-14.19c3.22,2,6.57,3.79,10.01,5.33,2.07.93,4.18,1.77,6.33,2.53,3.48,1.22,7.06,2.23,10.72,3Z" fill="#4bbd8c"/>
          <path d="M81.021,441.982l1.47,1.86c-.66.58-1.47.85-2.39.85-3.74,0-9.09-4.05-11.63-6.16-2.96-2.47-9.2-8.22-8.13-12.06l2.45.34,1.85,1.5c.12-.14.18-.27.23-.4l.28-.07c.56,1.21,2.59,3.89,6.36,7.03,3.81,3.16,6.86,4.68,8.12,5l-.07.27c-.11.07-.23.16-.35.29l1.81,1.55Z"/>
          <path d="M88.876,421.289c3.48,1.22,7.06,2.23,10.72,3l-19.8,15.62c-.05-.01-.11-.02-.17-.04-1.26-.32-4.31-1.84-8.12-5-.22-.18-.43-.36-.64-.54,4.98-3.53,11.11-7.94,18.01-13.04Z" opacity=".2"/>
          <path d="M110.356,404.969c3.47,1.04,7,1.85,10.61,2.46l-18.27,14.42c-3.71-.68-7.35-1.59-10.89-2.75,5.77-4.29,12.02-9.03,18.55-14.13Z" opacity=".2"/>
          <path d="M127.846,391.009c3.65.97,7.38,1.69,11.17,2.18l-14.82,11.7c-3.7-.5-7.35-1.24-10.91-2.2,4.75-3.73,9.63-7.63,14.56-11.68Z" opacity=".2"/>
          <path d="M148.316,373.719c4.22.98,8.52,1.65,12.85,2l-18.79,14.83c-3.94-.37-7.83-1-11.63-1.9,5.84-4.83,11.73-9.82,17.57-14.93Z" opacity=".2"/>
          <path d="M168.577,355.159c5.22,1.16,10.58,1.86,16,2.09l-19.87,15.68c-4.58-.2-9.14-.76-13.61-1.67,5.95-5.27,11.82-10.66,17.48-16.1Z" opacity=".2"/>
          <path d="M202.516,341.959c.5,0,1-.03,1.5-.04l-15.75,12.42c-5.79-.02-11.52-.59-17.1-1.69,4.32-4.23,8.51-8.47,12.49-12.71,6.15,1.34,12.479,2.02,18.86,2.02Z" opacity=".2"/>
          <path d="M222.776,323.249c1.69,0,3.39-.05,5.09-.15l-19.86,15.67c-7.41.47-14.8-.01-21.96-1.4,5.21-5.66,10.04-11.29,14.35-16.84,7.26,1.8,14.8,2.72,22.38,2.72Z" opacity=".2"/>
          <path d="M242.066,308.489h4.33l-14.28,11.26c-10,1.04-20.09.4-29.72-1.83,3.16-4.21,6.02-8.36,8.5-12.43,2.85-4.67,5.47-9.21,7.87-13.63h19.26l2.56,15.37c.12.73.75,1.26,1.48,1.26Z" opacity=".2"/>
          <path d="M256.206,294.349h8.11l-14.12,11.14h-6.86l-2.56-15.38c-.12-.72-.74-1.25-1.48-1.25h-18.92c2.05-3.86,3.94-7.62,5.67-11.27.18.09.38.13.59.13h25.53l2.56,15.37c.12.73.75,1.26,1.48,1.26Z" opacity=".2"/>
          <path d="M296.347,269.079l-28.22,22.27h-10.65l-2.56-15.38c-.12-.72-.74-1.25-1.48-1.25h-25.69l-.15-.47c6.47-14.07,10.67-26.41,13.38-36.58,13.71,11.1,27.57,20.21,39.33,25.84,6.38,3.05,11.72,4.9,16.04,5.57Z" opacity=".2"/>
          <path d="M303.726,263.259l-1.04.82c-2.6,1.2-9.03.54-20.33-4.87-12.32-5.9-27.07-15.77-41.52-27.8-16.16-13.45-27.83-26.04-34.99-35.93,17.28,7.24,37.01,17.74,44.94,30.26,11.25,17.78,29.72,16.33,41.16,12.65,1.33,1.64,2.57,3.26,3.72,4.84,8.36,11.48,9.57,17.92,8.06,20.03Z" opacity=".2"/>
        </g>
        <g>
          <g>
            <path d="M424.67,314.083c12.32,4.36,10.16,22.42,10.06,23.18-.08.69-.67,1.2-1.36,1.2h-6.06c-.48,0-.92-.25-1.17-.66s-.26-.92-.04-1.34c3.9-7.51-9.74-15.41-9.88-15.49-.42-.24-.69-.69-.69-1.17-.01-.49.24-.94.66-1.2l7.32-4.4c.35-.21.78-.25,1.16-.12ZM432.11,335.723c.23-3.79.25-15.44-7.76-18.82l-4.84,2.91c3.78,2.57,11.59,8.86,9.79,15.91h2.81Z"/>
            <path d="M424.35,316.903c8.01,3.38,7.99,15.03,7.76,18.82h-2.81c1.8-7.05-6.01-13.34-9.79-15.91l4.84-2.91Z" fill="#fd4d71"/>
          </g>
          <g>
            <path d="M372.616,300.41c.57.18.95.72.94,1.32s-.4,1.12-.98,1.3c-18.94,5.68-14.77,21.99-14.58,22.69.17.63-.13,1.29-.71,1.58-.2.1-.41.15-.61.15-.42,0-.82-.19-1.09-.53-3.58-4.63-4.99-9.44-4.19-14.29,1.49-9.07,10.18-14.92,10.54-15.17.35-.23.79-.29,1.19-.16l9.49,3.11ZM367.986,301.78l-5.05-1.65c-1.81,1.36-7.74,6.27-8.84,12.96-.38,2.34-.13,4.69.73,7.02.29-5.67,2.72-13.77,13.16-18.33Z"/>
            <path d="M362.936,300.13l5.05,1.65c-10.44,4.56-12.87,12.66-13.16,18.33-.86-2.33-1.11-4.68-.73-7.02,1.1-6.69,7.03-11.6,8.84-12.96Z" fill="#6757dc"/>
          </g>
          <g>
            <path d="M383.796,82.134c4.41,0,8,3.59,8,8.01s-3.59,8-8,8-8-3.59-8-8,3.59-8.01,8-8.01ZM389.056,90.144c0-2.9-2.36-5.26-5.26-5.26s-5.26,2.36-5.26,5.26,2.36,5.25,5.26,5.25,5.26-2.36,5.26-5.25Z"/>
            <path d="M383.796,84.884c2.9,0,5.26,2.36,5.26,5.26s-2.36,5.25-5.26,5.25-5.26-2.36-5.26-5.25,2.36-5.26,5.26-5.26Z" fill="#fed23d"/>
          </g>
          <g>
            <path d="M390.334,384.05c2.312,2.475,14.176,16.501,2.152,31.918-.79,1.075-2.605.353-2.449-.969.018-.129,1.087-13.41-6.557-18.972-18.232,10.178-27.294-5.246-9.092-14.523-.485-.404-1.039-.771-1.674-1.095-3.513,1.961-6.927,3.002-7.8,3.25-2.628,1.429-5.79,2.023-8.818,1.357-3.978-.58-9.756-5.906-8.103-9.708,1.539-4.392,9.82-6.195,14.973-6.904-8.767-4.366-22.743,1.079-22.899,1.137-1.079.48-2.274-.748-1.76-1.821,0,0,6.952-16.102,6.952-16.102.205-.467.655-.788,1.163-.819,2.769-.926,39.693.269,34.563,21.058,2.772,1.224,8.709,4.721,9.348,12.193ZM392.771,410.532c5.237-9.937.337-18.612-2.71-22.59-.686,2.747-2.359,4.857-4.252,6.437,5.218,4.302,6.639,11.433,6.962,16.153ZM379.836,394.815c11.405-4.592,9.248-16.854-.064-20.513-1.154,1.753-2.739,3.237-4.466,4.475,5.346,3.394,5.887,10.993,4.53,16.038ZM376.636,395.955c.655-1.955,2.309-7.98-.387-12.341-3.986,2.154-9.288,6.056-9.101,9.066.525,4.644,4.755,4.392,9.488,3.275ZM378.14,371.619c5.251-16.48-25.595-18.967-30.704-18.12l-5.386,12.474c5.759-1.743,18.386-4.454,25.64,2.415,0,0,.01.002.008.012,3.237,3.067,3.97,6.945,2.14,10.423,3.246-1.607,6.811-3.932,8.302-7.205ZM366.141,379.291c.963-1.027,3.727-4.607.086-8.49-7.134.591-14.661,2.601-15.649,5.414-.46,1.301.843,2.868,2.017,3.956,4.172,3.808,10.09,2.716,13.545-.88Z"/>
            <path d="M390.061,387.942c3.047,3.977,7.947,12.653,2.71,22.59-.323-4.72-1.744-11.852-6.962-16.153,1.894-1.58,3.566-3.69,4.252-6.437Z" fill="#fed23d"/>
            <path d="M387.638,384.716c.284,5.551-4.664,8.681-7.802,10.1,1.357-5.044.815-12.645-4.53-16.038,1.726-1.238,3.312-2.722,4.466-4.475,2.224.919,7.536,3.818,7.866,10.413Z" fill="#fed23d"/>
            <path d="M376.249,383.613c2.696,4.361,1.043,10.387.387,12.341-4.732,1.117-8.964,1.369-9.488-3.275-.187-3.011,5.115-6.913,9.101-9.067Z" fill="#fed23d"/>
            <path d="M377.721,364.216c3.636,6.693-2.234,12.01-7.883,14.608,1.83-3.478,1.096-7.356-2.14-10.423.002-.01-.008-.012-.008-.012-7.254-6.869-19.881-4.159-25.64-2.415l5.386-12.474c4.385-.151,24.885-.249,30.285,10.717Z" fill="#fed23d"/>
            <path d="M366.227,370.801c4.22,4.977.269,8.607-2.38,10.309-3.381,1.963-7.895,2.159-11.251-.939-1.174-1.088-2.478-2.654-2.017-3.956.988-2.814,8.515-4.823,15.649-5.414Z" fill="#fed23d"/>
          </g>
          <g>
            <path d="M321.046,316.769c.13.46.01.96-.31,1.31l-11.51,12.51c-.26.29-.63.45-1.01.45-.13,0-.26-.02-.38-.06-.5-.14-.88-.56-.97-1.07l-2.99-16.35c-.09-.46.07-.93.41-1.25.35-.32.83-.44,1.29-.32l14.5,3.84c.46.12.83.48.97.94ZM309.066,326.709l8.11-8.81-10.22-2.71,2.11,11.52Z"/>
            <polygon points="317.176 317.899 309.066 326.709 306.956 315.189 317.176 317.899" fill="#fed23d"/>
          </g>
          <g>
            <path d="M145.394,148.845c12.32,4.36,10.16,22.41,10.06,23.18-.08.68-.67,1.2-1.36,1.2h-6.06c-.48,0-.92-.25-1.17-.66s-.26-.92-.04-1.35c3.9-7.52-9.74-15.4-9.88-15.48-.42-.24-.69-.69-.69-1.18-.01-.49.24-.94.66-1.19l7.32-4.41c.35-.21.78-.25,1.16-.11ZM152.834,170.475c.23-3.79.25-15.44-7.76-18.82l-4.84,2.92c3.78,2.57,11.59,8.85,9.79,15.9h2.81Z"/>
            <path d="M145.074,151.655c8.01,3.38,7.99,15.03,7.76,18.82h-2.81c1.8-7.05-6.01-13.33-9.79-15.9l4.84-2.92Z" fill="#fd4d71"/>
          </g>
          <g>
            <path d="M302.741,397.735c.63.21,1.01.83.92,1.48-.77,5.8-3.19,10.19-7.2,13.03-4.18,2.96-9.21,3.64-12.93,3.64-2.96,0-5.08-.43-5.27-.47-.41-.08-.76-.35-.95-.73l-4.46-8.92c-.27-.54-.16-1.19.27-1.61.43-.41,1.08-.5,1.61-.21,17.43,9.5,26.03-4.97,26.38-5.59.33-.57,1.01-.83,1.63-.62ZM294.891,409.995c1.93-1.37,3.42-3.2,4.47-5.45-4.23,3.78-11.7,7.75-22.28,3.54l2.37,4.75c2.25.33,9.91,1.09,15.44-2.84Z"/>
            <path d="M299.361,404.545c-1.05,2.25-2.54,4.08-4.47,5.45-5.53,3.93-13.19,3.17-15.44,2.84l-2.37-4.75c10.58,4.21,18.05.24,22.28-3.54Z" fill="#fd4d71"/>
          </g>
          <g>
            <path d="M70.59,206.465c.57.18.95.72.94,1.32s-.4,1.12-.98,1.3c-18.94,5.68-14.76,21.99-14.58,22.69.17.63-.13,1.29-.71,1.58-.2.1-.41.15-.61.15-.42,0-.82-.19-1.09-.53-3.58-4.63-4.99-9.44-4.19-14.29,1.49-9.07,10.18-14.92,10.55-15.17.34-.23.78-.29,1.18-.16l9.49,3.11ZM65.96,207.835l-5.05-1.65c-1.81,1.36-7.74,6.27-8.84,12.96-.38,2.34-.13,4.69.73,7.02.29-5.66,2.72-13.77,13.16-18.33Z"/>
            <path d="M60.91,206.185l5.05,1.65c-10.44,4.56-12.87,12.67-13.16,18.33-.86-2.33-1.11-4.68-.73-7.02,1.1-6.69,7.03-11.6,8.84-12.96Z" fill="#fed23d"/>
          </g>
          <g>
            <path d="M271.887,361.038c.09.38.02.78-.2,1.1l-8.58,12.51c-.24.34-.61.56-1.02.59-.04.01-.08.01-.12.01-.36,0-.72-.15-.98-.42l-8.58-8.78c-.25-.26-.39-.61-.39-.98.01-.37.16-.72.42-.97l8.58-8.23c.43-.41,1.07-.49,1.59-.22l8.58,4.5c.35.18.6.51.7.89ZM261.787,371.718l6.76-9.86-6.34-3.32-6.87,6.58,6.45,6.6Z"/>
            <polygon points="268.547 361.858 261.787 371.718 255.337 365.118 262.207 358.538 268.547 361.858" fill="#6757dc"/>
          </g>
          <g>
            <path d="M138.787,84.138c1.086.742.475,2.605-.88,2.48-.14,0-13.44-.58-18.71,7.27,1.73,2.63,2.51,5.11,2.58,5.34v.01c2.38,6.804,1.543,13.329-5.56,13.85-4.75,0-9.25-6.39-11.2-9.57-.38.5-.72,1.07-1.03,1.71,2.1,3.44,3.26,6.82,3.54,7.68,2.48,4.17,2.82,9.84-.94,14.22-2.29,2.67-4.57,3.68-6.77,3-4.44-1.37-6.56-9.59-7.45-14.71-4.06,8.93,1.92,22.69,1.99,22.84.22.51.12,1.1-.27,1.5-.381.413-.972.533-1.49.34l-16.35-6.35c-.48-.19-.81-.62-.86-1.14-.12-1.09-2.69-26.84,10.93-34.19,3.04-1.63,6-2.01,8.82-1.13,1.12-2.81,4.39-8.88,11.83-9.8,2.39-2.4,15.96-14.78,31.82-3.35ZM117.457,91.618c4.11-5.37,11.18-7.05,15.88-7.55-10.12-4.87-18.6.35-22.47,3.55,2.78.58,4.95,2.17,6.59,4ZM119.457,108.688c1.04-1.64,1-4.59-.08-7.96-1.98-.58-8.06-2-12.32.86,2.974,4.82,8.323,12.041,12.4,7.1ZM104.567,100.048c3.89-3.24,9.42-3.31,13.56-2.47-5.294-11.3-16.952-8.67-20.51.83,1.8,1.08,3.34,2.62,4.64,4.3.57-.91,1.22-1.69,1.94-2.34.1-.13.23-.24.37-.32ZM104.507,125.348c2.88-3.37,2.62-7.74.7-10.98-.07-.09-.14-.19-.19-.3-1.621-2.51-5.794-6.404-10.38-1.99,1.103,8.116,4.137,20.493,9.87,13.27ZM102.517,108.168c-.36-.67-.76-1.35-1.19-2.03-.02-.03-.04-.06-.06-.1-2.942-4.831-8.019-8.521-13.64-5.2-10.76,5.8-9.9,26.29-9.58,30.66l12.66,4.92c-1.95-5.69-5.13-18.21,1.46-25.72v-.01c2.95-3.35,6.8-4.22,10.35-2.52Z"/>
            <path d="M133.337,84.068c-4.7.5-11.77,2.18-15.88,7.55-1.64-1.83-3.81-3.42-6.59-4,3.87-3.2,12.35-8.42,22.47-3.55Z" fill="#6757dc"/>
            <path d="M119.377,100.728c1.331,4.549,1.6,9.065-2.92,9.6-2.99.29-7.1-4.85-9.4-8.74,4.26-2.86,10.34-1.44,12.32-.86Z" fill="#6757dc"/>
            <path d="M118.127,97.578c-4.14-.84-9.67-.77-13.56,2.47-.14.08-.27.19-.37.32-.72.65-1.37,1.43-1.94,2.34-1.3-1.68-2.84-3.22-4.64-4.3,3.577-9.53,15.233-12.104,20.51-.83Z" fill="#6757dc"/>
            <path d="M105.207,114.368c1.92,3.24,2.18,7.61-.7,10.98-1.04,1.21-2.55,2.57-3.88,2.16-2.84-.88-5.13-8.32-5.99-15.43,4.584-4.412,8.756-.525,10.38,1.99.05.11.12.21.19.3Z" fill="#6757dc"/>
            <path d="M101.327,106.138c.43.68.83,1.36,1.19,2.03-3.55-1.7-7.4-.83-10.35,2.52v.01c-6.59,7.51-3.41,20.03-1.46,25.72l-12.66-4.92c-.32-4.37-1.18-24.86,9.58-30.66,5.62-3.32,10.699.369,13.64,5.2.02.04.04.07.06.1Z" fill="#6757dc"/>
          </g>
          <g>
            <path d="M105.027,196.908c.01.04.01.09.01.13,0,3.34-2.72,6.05-6.06,6.05-.04,0-.09,0-.13-.01l.13-2.73c1.83,0,3.31-1.49,3.31-3.31l2.74-.13Z"/>
            <path d="M105.027,196.908l-2.74.13c0-1.83-1.48-3.31-3.31-3.31l.13-2.73c3.24.06,5.86,2.67,5.92,5.91Z"/>
            <path d="M98.977,193.728c1.83,0,3.31,1.48,3.31,3.31,0,1.82-1.48,3.31-3.31,3.31-1.82,0-3.3-1.49-3.3-3.31,0-1.83,1.48-3.31,3.3-3.31Z" fill="#fed23d"/>
            <path d="M99.107,190.998l-.13,2.73c-1.82,0-3.3,1.48-3.3,3.31l-2.74.13c-.01-.04-.01-.09-.01-.13,0-3.34,2.72-6.05,6.05-6.05.04,0,.09,0,.13.01Z"/>
            <path d="M98.977,200.348l-.13,2.73c-3.23-.06-5.85-2.67-5.91-5.91l2.74-.13c0,1.82,1.48,3.31,3.3,3.31Z"/>
          </g>
          <g>
            <path d="M109.221,260.235c.13.46.01.96-.31,1.31l-11.51,12.51c-.26.29-.63.44-1.01.44-.13,0-.25-.01-.38-.05-.5-.15-.88-.56-.97-1.07l-2.99-16.35c-.09-.46.07-.94.41-1.26.35-.32.83-.44,1.29-.32l14.5,3.85c.46.12.83.48.97.94ZM97.241,270.175l8.11-8.81-10.22-2.71,2.11,11.52Z"/>
            <polygon points="105.351 261.365 97.241 270.175 95.131 258.655 105.351 261.365" fill="#fd4d71"/>
          </g>
        </g>
      </g>
    </g>
  </g>
</svg>