<?xml version="1.0" encoding="UTF-8"?>
<svg xmlns="http://www.w3.org/2000/svg" version="1.1" viewBox="0 0 500 500">
  <!-- Generator: Adobe Illustrator 28.7.3, SVG Export Plug-In . SVG Version: 1.2.0 Build 164)  -->
  <g>
    <g id="object">
      <g>
        <path d="M444.821,315.89c.37,1.03,9.12,25.33-2.27,35.74-2.36,2.17-4.93,3.26-7.65,3.26-.21,0-.42-.01-.64-.03-.38,2.96-2.05,9.7-9.07,12.4-1.37,2.31-8.32,12.89-20.63,12.89-2.83,0-5.94-.56-9.34-1.91-.53-.21-.86-.75-.81-1.32.05-.58.47-1.05,1.04-1.16.14-.02,13.27-2.72,16.46-11.7-2.33-2.13-3.71-4.36-3.84-4.56v-.01c-2.63-3.99-3.57-7.73-2.64-10.53.61-1.87,2.04-3.25,4.13-4,4.67-1.68,10.98,3.79,13.69,6.47.27-.63.49-1.31.64-2.07-2.89-2.83-4.85-5.85-5.32-6.61-3.41-3.42-5.12-8.81-2.55-13.94,1.56-3.12,3.5-4.62,5.77-4.52,4.68.26,8.76,7.9,10.84,12.63,1.95-9.72-7.35-21.83-7.46-21.96-.32-.42-.36-.99-.1-1.44.26-.46.77-.71,1.29-.65l17.4,2.18c.48.06.89.38,1.06.84ZM440.801,349.72c9.09-8.31,3.18-28.12,1.83-32.2l-13.69-1.71c3.26,4.96,9.53,16.42,4.94,25.36h-.01c-2.06,4.02-5.65,5.77-9.56,4.88,2.41,2.7,5.79,5.63,9.44,6.16,2.51.36,4.82-.45,7.05-2.49ZM423.871,364.99c6.32-2.2,7.6-8.22,7.86-10.59-2.06-.62-3.97-1.76-5.67-3.11-.34,1.05-.79,1.99-1.34,2.83-.01.02-.03.04-.04.06-2.95,4.37-8.55,5.83-12.88,6,2.22,2.63,6.69,6.67,12.07,4.81ZM431.301,340.48c-2.58-6.73-6.64-13.43-9.65-13.6-1.15-.07-2.25.98-3.31,3.09-2,3.99-.66,8.2,2.01,10.91.09.06.18.15.25.24.73.69,1.54,1.27,2.41,1.7,1.27.65,5.55,2.34,8.29-2.34ZM421.591,368.06c-.2.01-.39.02-.58.02-2.68,0-5.04-1.01-6.98-2.34-2.69,6.36-9.36,9.74-13.81,11.34,11.35,2.48,18.43-4.96,21.37-9.02ZM421.821,353.67c-3.19-3.25-8.49-7.3-11.38-6.27-1.35.49-2.18,1.26-2.55,2.37-.62,1.88.15,4.76,2.04,7.8,2.04.08,8.42,0,11.89-3.9Z"/>
        <path d="M442.631,317.52c1.35,4.08,7.26,23.89-1.83,32.2-2.23,2.04-4.54,2.85-7.05,2.49-3.65-.53-7.03-3.46-9.44-6.16,3.91.89,7.5-.86,9.56-4.88h.01c4.59-8.94-1.68-20.4-4.94-25.36l13.69,1.71Z" fill="#fd4d71"/>
        <path d="M431.731,354.4c-.26,2.37-1.54,8.39-7.86,10.59-5.38,1.86-9.85-2.18-12.07-4.81,4.33-.17,9.93-1.63,12.88-6,.01-.02.03-.04.04-.06.55-.84,1-1.78,1.34-2.83,1.7,1.35,3.61,2.49,5.67,3.11Z" fill="#fd4d71"/>
        <path d="M421.651,326.88c3.01.17,7.07,6.87,9.65,13.6-2.74,4.68-7.02,2.99-8.29,2.34-.87-.43-1.68-1.01-2.41-1.7-.07-.09-.16-.18-.25-.24-2.67-2.71-4.01-6.92-2.01-10.91,1.06-2.11,2.16-3.16,3.31-3.09Z" fill="#fd4d71"/>
        <path d="M421.011,368.08c.19,0,.38-.01.58-.02-2.94,4.06-10.02,11.5-21.37,9.02,4.45-1.6,11.12-4.98,13.81-11.34,1.94,1.33,4.3,2.34,6.98,2.34Z" fill="#fd4d71"/>
        <path d="M415.731,237.29c.09.36.02.74-.19,1.05l-8.58,12.5c-.22.32-.57.53-.96.56-.03.01-.07.01-.11.01-.35,0-.68-.14-.93-.39l-8.58-8.79c-.24-.24-.37-.58-.37-.92.01-.35.15-.68.4-.92l8.58-8.23c.41-.38,1.01-.47,1.51-.21l8.58,4.5c.32.17.56.48.65.84ZM405.721,248.07l6.86-10-6.46-3.39-6.96,6.68,6.56,6.71Z"/>
        <polygon points="412.581 238.07 405.721 248.07 399.161 241.36 406.121 234.68 412.581 238.07" fill="#fff"/>
        <path d="M410.441,347.4c2.89-1.03,8.19,3.02,11.38,6.27-3.47,3.9-9.85,3.98-11.89,3.9-1.89-3.04-2.66-5.92-2.04-7.8.37-1.11,1.2-1.88,2.55-2.37Z" fill="#fd4d71"/>
        <path d="M396.731,149.83c12.27,4.34,10.11,22.34,10.02,23.1-.09.65-.64,1.13-1.29,1.13h-6.06c-.45,0-.87-.23-1.11-.62s-.25-.87-.04-1.27c3.93-7.57-9.77-15.51-9.91-15.59-.4-.23-.65-.65-.65-1.11-.01-.46.23-.89.63-1.13l7.31-4.4c.34-.2.74-.24,1.1-.11ZM404.271,171.47c.23-3.73.3-15.58-7.84-18.98l-4.97,2.99c3.75,2.53,11.73,8.88,9.83,15.99h2.98Z"/>
        <path d="M396.431,152.49c8.14,3.4,8.07,15.25,7.84,18.98h-2.98c1.9-7.11-6.08-13.46-9.83-15.99l4.97-2.99Z" fill="#fed23d"/>
        <path d="M390.731,279.22c.06.82-.57,1.54-1.39,1.6-.04.01-.08.01-.11.01-.78,0-1.44-.61-1.5-1.39-.57-7.96-3.6-15.8-8.53-22.08-.51-.65-.4-1.59.25-2.11.65-.51,1.6-.39,2.11.26,5.29,6.74,8.55,15.16,9.17,23.71Z"/>
        <path d="M389.191,421.78c1.275.492-11.705,13.276-11.8,13.75-.685.789-2.075.378-2.23-.64,0,0-2.99-16.35-2.99-16.35-.194-.907.721-1.749,1.6-1.49.574.441,15.834,3.48,15.42,4.73ZM377.241,431.86l8.29-9.01-10.44-2.77,2.15,11.78Z"/>
        <polygon points="385.531 422.85 377.241 431.86 375.091 420.08 385.531 422.85" fill="#6757dc"/>
        <path d="M381.101,297.2c.03.83-.61,1.53-1.44,1.56h-.06c-.8,0-1.47-.63-1.5-1.43-.88-20.52-9.91-40.42-24.77-54.6-.6-.58-.62-1.53-.05-2.13.57-.59,1.52-.62,2.12-.04,15.42,14.71,24.78,35.35,25.7,56.64Z"/>
        <path d="M366.531,292.76c9.45,36.99-.08,76.15-25.49,104.74-1.74,1.96-3.59,3.86-5.47,5.69l10.91,17.87c.8,1.31,1.19,2.78,1.19,4.23,0,2.25-.94,4.47-2.72,6.06-.96.85-2.13,1.48-3.38,1.8-.68.17-1.36.26-2.04.26-1.83,0-3.6-.62-5.07-1.8l-17.19-13.85c-10.25,6.59-21.52,11.5-33.52,14.57-3.5.9-7.1,1.64-10.71,2.2-.18.03-.37.05-.55.08-.07.03-.12.09-.19.11-3.38,1.22-6.9,2.3-10.45,3.2-9.41,2.41-18.92,3.61-28.43,3.61-5.69,0-11.38-.45-17.05-1.31l-9.98,24.1c-3.137,8.269-16.294,5.35-15.6-3.5l1.29-27.05c-34.58-13.4-60.63-42.71-69.81-78.63-12.47-48.84,8.47-100.03,51.08-126.17-11.59-1.21-17.46-3.8-17.88-7.9-.02-.24.01-.49.1-.71l58.29-140.18c-.78.08-1.57.13-2.35.13-4.39,0-8.71-1.18-12.59-3.48-5.68-3.37-9.71-8.75-11.35-15.16-3.38-13.22,4.63-26.73,17.86-30.1,6.4-1.64,13.06-.68,18.74,2.69,5.69,3.37,9.72,8.76,11.36,15.16,3.3,12.93-4.28,26.11-16.97,29.86l62.28,90.16.09.12,24.17,35c.14.2.22.43.25.68.33,3.12-2.57,6.01-8.81,8.81,34.73,13.37,60.75,42.53,69.99,78.71ZM338.801,395.5c24.75-27.84,34.03-65.97,24.83-102-9.27-36.27-35.85-65.3-71.17-77.77-7.85,2.86-19.16,5.55-32.04,7.79,33.799,1.494,65.874,22.054,81.42,52.07,2.66,5.04,4.89,10.35,6.63,15.83.59,1.83,1.12,3.68,1.59,5.54,2.02,7.92,3.01,15.97,3.01,23.98,0,25.99-10.39,51.45-29.41,70.1-52.643,52.573-145.302,26.432-163.02-45.7-8.8-34.44,1.87-71.02,27.84-95.46,10.583-9.95,23.129-17.357,36.92-21.78-11.82,1.08-23.61,1.7-34.27,1.7h-.19c-37.65,26.54-55.28,74.31-43.87,119.01,14.35,56.18,68.32,91.76,125.51,82.76,3.51-.55,7.02-1.27,10.43-2.14,12.03-3.08,23.32-8.05,33.55-14.76,8.143-5.306,15.745-11.879,22.24-19.17ZM350.061,322.38c.12-7.81-.74-15.68-2.61-23.44l-6.68,1.71c-.13.03-.25.05-.37.05-.67,0-1.28-.45-1.46-1.13-.2-.8.28-1.62,1.09-1.82l6.68-1.71c-1.83-6.63-4.35-13.03-7.53-19.06-17.949-34.888-58.443-55.549-96.99-49.67-2.94.42-5.91.99-8.85,1.7l1.7,6.65c.21.8-.28,1.61-1.08,1.82-.12.03-.25.05-.37.05-.67,0-1.28-.45-1.45-1.13l-1.7-6.65c-1.5.41-2.99.84-4.46,1.32-13.203,4.287-25.317,11.451-35.44,20.99-24.76,23.3-35.16,57.98-27.39,90.88,1.432.086,7.872-3.282,8.38-.59.857,2.594-6.459,2.752-7.65,3.5,13.33,49.38,63.73,79.33,113.46,67.46.068-1.417-3.162-7.531-.51-8.04,2.576-.848,2.689,6.104,3.42,7.3,2.842-.768,5.593-1.654,8.3-2.67,7.541-2.819,14.464-6.459,21.06-11.07h.01c24.773-17.178,40.105-46.451,40.44-76.45ZM342.951,429.11c1.85-1.65,2.25-4.37.97-6.49l-10.56-17.3c-4.204,3.892-8.712,7.496-13.44,10.72l16.42,13.23c1.27,1.02,2.9,1.38,4.48.98.79-.21,1.53-.6,2.13-1.14ZM302.441,205.85l-11.79-17.08c-7.29,5.98-15.52,10.77-24.5,14.22-12,4.61-25.43,6.95-39.6,6.95-7.1,0-14.38-.59-21.77-1.77-11.78-1.89-23.83-5.2-36.78-10.1l-9.56,23c.67,2.06,6.09,4.46,19.52,5.37,4.03.167,8.668.415,13.18.36,34.24,0,80.24-6.41,100.79-14.07.07-.02.15-.02.22-.04,8.8-3.3,10.16-5.81,10.29-6.84ZM289.511,187.12l-10.42-15.09c-5.71,3.91-11.89,7.16-18.38,9.65-12.01,4.61-25.43,6.95-39.6,6.95-7.1,0-14.38-.59-21.77-1.77-7.91-1.26-15.87-3.16-24.28-5.78l-6.29,15.15c12.8,4.83,24.7,8.1,36.33,9.96,21.78,3.48,42.64,1.73,60.33-5.07,8.83-3.39,16.92-8.11,24.08-14ZM277.951,170.39l-8.87-12.83c-4.14,2.41-8.49,4.51-12.95,6.21-11.99,4.61-25.42,6.95-39.6,6.95-7.09,0-14.38-.59-21.76-1.76-4.42-.7-8.86-1.62-13.51-2.77l-5.43,13.04c8.25,2.55,16.06,4.41,23.82,5.66,21.79,3.48,42.65,1.72,60.34-5.08,6.35-2.43,12.38-5.6,17.96-9.42ZM267.941,155.9l-11.1-16.08c-2,.94-4.05,1.84-6.14,2.65-12,4.61-25.43,6.94-39.61,6.94-7.1,0-14.38-.58-21.77-1.76-.11-.02-.22-.04-.33-.05l-6.96,16.72c4.5,1.1,8.79,1.99,13.05,2.66,21.8,3.48,42.67,1.72,60.34-5.07,4.31-1.65,8.51-3.68,12.52-6.01ZM256.141,436.17c-15.42.26-30.7-2.61-44.97-8.42-6.84-2.77-13.45-6.23-19.73-10.34-24.03-15.74-41.18-39.74-48.3-67.6-11.43-44.78,5.46-92.43,42.14-120.08-2.37-.05-4.65-.15-6.82-.29-43.86,24.75-65.77,76.06-53.28,124.96,8.91,34.87,34.15,63.36,67.67,76.47,5.055-6.331,23.013-1.488,24.19,6.44,13.02,1.95,26.14,1.56,39.1-1.14ZM255.681,138.15l-9.42-13.64-.15.06c-12.03,4.62-25.23,6.95-39.36,6.95-3.57,0-7.2-.16-10.89-.45l-6.08,14.63c21.75,3.44,42.56,1.68,60.2-5.1,1.95-.75,3.85-1.58,5.7-2.45ZM245.091,122.81l-11.79-17.07c-9.01,2.66-18.66,4.14-28.74,4.41l-7.89,18.97c17.6,1.34,33.87-.77,48.42-6.31ZM216.951,76.7c11.67-2.98,18.73-14.89,15.75-26.56-1.44-5.65-5-10.4-10.01-13.37-3.42-2.03-7.23-3.07-11.1-3.07-1.81,0-3.64.23-5.44.69-11.67,2.98-18.73,14.9-15.75,26.56,1.44,5.65,5,10.4,10.01,13.38,5.02,2.97,10.89,3.81,16.54,2.37ZM232.101,104.01l-15.6-22.58-11.1,26.69c9.35-.32,18.31-1.7,26.7-4.11ZM214.021,437.88c-.556-5.398-15.828-9.653-18.91-4.83l-1.33,27.92c-.238,3.343,3.145,6.102,6.37,5.2,1.58-.4,2.85-1.5,3.47-3l10.36-25.02c.02-.09.03-.18.04-.27Z"/>
        <path d="M338.797,395.498c-6.494,7.29-14.098,13.865-22.24,19.17-10.23,6.71-21.52,11.68-33.55,14.76-3.41.87-6.92,1.59-10.43,2.14-57.19,9-111.16-26.58-125.51-82.76-8.74-34.26-.43-70.32,20.89-97.24,6.48-8.21,14.19-15.57,22.98-21.77h.19c10.66,0,22.45-.62,34.27-1.7-17.199,5.49-32.737,15.877-44.42,29.68-20.46,24.03-28.24,56.66-20.34,87.56,17.726,72.157,110.403,98.256,163.02,45.7,19.02-18.65,29.41-44.11,29.41-70.1,0-8.01-.99-16.06-3.01-23.98-.47-1.86-1-3.71-1.59-5.54-1.74-5.48-3.97-10.79-6.63-15.83-15.547-30.017-47.621-50.576-81.42-52.07,12.88-2.24,24.19-4.93,32.04-7.79,3.8,1.34,7.51,2.88,11.1,4.6,29.74,14.21,51.8,40.81,60.07,73.17,9.2,36.03-.08,74.16-24.83,102Z" fill="#fed23d"/>
        <path d="M361.871,181.96c1.275.492-11.705,13.276-11.8,13.75-.685.789-2.076.377-2.23-.64,0,0-3-16.35-3-16.35-.196-.904.734-1.749,1.61-1.49.573.442,15.838,3.479,15.42,4.73ZM349.921,192.04l8.29-9.01-10.45-2.77,2.16,11.78Z"/>
        <polygon points="358.211 183.03 349.921 192.04 347.761 180.26 358.211 183.03" fill="#6757dc"/>
        <path d="M247.067,308.638c-2.058-6.005-4.094-12.555-5.14-18.89l-17.7,5.51c9.103,5.62,16.673,10.693,23.88,16.21-.35-.91-.69-1.85-1.04-2.83ZM247.067,308.638c-2.058-6.005-4.094-12.555-5.14-18.89l-17.7,5.51c9.103,5.62,16.673,10.693,23.88,16.21-.35-.91-.69-1.85-1.04-2.83ZM247.067,308.638c-2.058-6.005-4.094-12.555-5.14-18.89l-17.7,5.51c9.103,5.62,16.673,10.693,23.88,16.21-.35-.91-.69-1.85-1.04-2.83ZM247.067,308.638c-2.058-6.005-4.094-12.555-5.14-18.89l-17.7,5.51c9.103,5.62,16.673,10.693,23.88,16.21-.35-.91-.69-1.85-1.04-2.83ZM247.067,308.638c-2.058-6.005-4.094-12.555-5.14-18.89l-17.7,5.51c9.103,5.62,16.673,10.693,23.88,16.21-.35-.91-.69-1.85-1.04-2.83ZM347.447,298.938l-6.68,1.71c-.13.03-.25.05-.37.05-.52,0-1-.27-1.27-.71-.09-.13-.15-.27-.19-.42-.2-.8.28-1.62,1.09-1.82l6.68-1.71c-1.57-5.69-3.65-11.21-6.22-16.47-17.181-36.238-58.666-58.333-98.3-52.26-2.94.42-5.91.99-8.85,1.7l1.7,6.65c.21.8-.28,1.61-1.08,1.82-.12.03-.25.05-.37.05-.67,0-1.28-.45-1.45-1.13l-1.7-6.65c-1.5.41-2.99.84-4.46,1.32-15.092,4.891-28.846,13.626-39.68,25.25-10.14,10.82-17.45,23.68-21.61,37.48-2.09,6.88-3.39,13.99-3.86,21.19-.45,6.7-.18,13.48.83,20.23.39,2.58.88,5.16,1.49,7.72,1.433.086,7.872-3.283,8.38-.59.856,2.594-6.46,2.752-7.65,3.5,12.611,48.482,64.023,79.695,113.46,67.46.068-1.417-3.162-7.531-.511-8.04,2.576-.848,2.689,6.104,3.421,7.3,2.842-.768,5.593-1.654,8.3-2.67,7.54-2.819,14.464-6.459,21.06-11.07h.01c24.744-17.155,40.107-46.437,40.44-76.45.12-7.81-.74-15.68-2.61-23.44ZM272.697,382.998l3.21,12.58c.21.8-.28,1.62-1.08,1.82-.12.04-.25.05-.37.05-.67,0-1.28-.45-1.45-1.13l-3.17-12.43-8.14-31.85-5.88-23c-4.4.446-8.538-3.507-8.39-7.93-4.26-1.66-9.96-4.32-16.21-7.54-13.548-6.694-31.707-17.966-42.01-27.4-4.75-4.11-7.56-6.99-7.81-7.25-.47-.48-.56-1.22-.21-1.81.34-.58,1.04-.85,1.69-.68.46.13,7.57,2.12,17.38,6.3,15.541,6.398,34.656,18.729,47.85,28.74-2.561-6.923-4.926-14.368-6.18-21.72-3.251-25.741.606-27.601,10.3-3.2,2.14,5.927,3.569,12.971,4.61,19.05.48,2.94.83,5.68,1.02,8.04,6.649,1.97,7.233,11.919.87,14.67l5.83,22.84,8.14,31.85ZM247.067,308.638c-2.058-6.005-4.094-12.555-5.14-18.89l-17.7,5.51c9.103,5.62,16.673,10.693,23.88,16.21-.35-.91-.69-1.85-1.04-2.83ZM247.067,308.638c-2.058-6.005-4.094-12.555-5.14-18.89l-17.7,5.51c9.103,5.62,16.673,10.693,23.88,16.21-.35-.91-.69-1.85-1.04-2.83ZM247.067,308.638c-2.058-6.005-4.094-12.555-5.14-18.89l-17.7,5.51c9.103,5.62,16.673,10.693,23.88,16.21-.35-.91-.69-1.85-1.04-2.83ZM247.067,308.638c-2.058-6.005-4.094-12.555-5.14-18.89l-17.7,5.51c9.103,5.62,16.673,10.693,23.88,16.21-.35-.91-.69-1.85-1.04-2.83ZM247.067,308.638c-2.058-6.005-4.094-12.555-5.14-18.89l-17.7,5.51c9.103,5.62,16.673,10.693,23.88,16.21-.35-.91-.69-1.85-1.04-2.83Z" fill="#fff"/>
        <path d="M343.007,429.048l-.06.06c-.6.54-1.34.93-2.13,1.14-1.58.4-3.21.04-4.48-.98l-16.42-13.23c4.728-3.224,9.236-6.827,13.44-10.72l2.19,3.6,8.37,13.7c1.27,2.1.89,4.78-.91,6.43Z" fill="#fed23d"/>
        <path d="M304.081,117.44c1.183.355,1.176,2.154-.03,2.48-19.01,5.7-14.82,22.08-14.63,22.78.395,1.309-1.459,2.263-2.28,1.13-10.163-12.336-.243-25.164,6.34-29.34.33-.22.74-.28,1.12-.15l9.48,3.1ZM299.691,118.73l-5.27-1.72c-4.124,2.748-11.98,11.835-8.04,20.43.21-5.7,2.53-14.08,13.31-18.71Z"/>
        <path d="M302.437,205.848c-.13,1.03-1.49,3.54-10.29,6.84-.07.02-.15.02-.22.04-14.79,5.51-42.76,10.38-70.04,12.68-15.292,1.253-29.496,1.805-43.93,1.03-13.43-.91-18.85-3.31-19.52-5.37l9.56-23c12.02,4.55,23.27,7.73,34.25,9.67.84.15,1.69.3,2.53.43,7.39,1.18,14.67,1.77,21.77,1.77,14.17,0,27.6-2.34,39.6-6.95,8.98-3.45,17.21-8.24,24.5-14.22l11.79,17.08Z" fill="#fd4d71"/>
        <path d="M294.421,117.01l5.27,1.72c-10.78,4.63-13.1,13.01-13.31,18.71-3.947-8.592,3.938-17.704,8.04-20.43Z" fill="#fd4d71"/>
        <path d="M292.581,52.98c4.37,0,7.93,3.56,7.93,7.93s-3.56,7.93-7.93,7.93-7.93-3.56-7.93-7.93,3.56-7.93,7.93-7.93ZM297.911,60.91c0-2.94-2.39-5.33-5.33-5.33s-5.33,2.39-5.33,5.33,2.39,5.33,5.33,5.33,5.33-2.39,5.33-5.33Z"/>
        <circle cx="292.581" cy="60.91" r="5.33" fill="#6757dc"/>
        <path d="M289.507,187.118c-7.16,5.89-15.25,10.61-24.08,14-17.69,6.8-38.55,8.55-60.33,5.07-1.46-.23-2.91-.49-4.38-.76h-.01c-10.24-1.94-20.74-4.98-31.94-9.2l6.29-15.15c7.13,2.22,13.94,3.93,20.67,5.16,1.21.22,2.41.43,3.61.62,7.39,1.18,14.67,1.77,21.77,1.77,14.17,0,27.59-2.34,39.6-6.95,6.49-2.49,12.67-5.74,18.38-9.65l10.42,15.09Z" fill="#6757dc"/>
        <path d="M277.947,170.388c-5.58,3.82-11.61,6.99-17.96,9.42-17.69,6.8-38.55,8.56-60.34,5.08-1.29-.21-2.59-.43-3.89-.68-6.49-1.21-13.06-2.86-19.93-4.98l5.43-13.04c4.65,1.15,9.09,2.07,13.51,2.77.74.12,1.47.23,2.2.33,6.63.95,13.18,1.43,19.56,1.43,14.18,0,27.61-2.34,39.6-6.95,4.46-1.7,8.81-3.8,12.95-6.21l8.87,12.83Z" fill="#fd4d71"/>
        <path d="M275.911,395.58c.21.8-.28,1.62-1.08,1.82-.12.04-.25.05-.37.05-.67,0-1.28-.45-1.45-1.13l-17.19-67.28c-4.401.446-8.538-3.519-8.39-7.93-8.18-3.18-21.67-10.06-34.14-17.46-18.49-10.99-31.35-24.17-31.89-24.73-1.062-1.024.052-2.925,1.48-2.49.74.21,18.41,5.16,36.96,16.17,10.59,6.29,21.21,13.41,28.27,18.87-1.21-3.16-2.42-6.78-3.5-10.5l2.86-.84c1.5,5.1,3.22,9.98,4.84,13.71.799-.33,1.648-.529,2.51-.59-.48-5.38-1.79-12.68-3.54-19.57-1.95-7.65-5.15-14.11-7.36-18.02-.07,3.98.15,10.1,1.55,16.76l-2.93.6c-2.209-12.094-2.955-27.145,1.36-23.09.29.4,6.94,9.89,10.29,23.01,1.85,7.31,3.23,15.1,3.67,20.7,6.675,1.959,7.191,11.986.87,14.67l17.18,67.27ZM256.571,325.92c6.212-1.493,3.719-11.202-2.43-9.54-6.224,1.512-3.735,11.202,2.43,9.54ZM249.121,316.27c.02-.03.04-.07.06-.1-6.66-5.55-18.77-13.8-30.87-20.99-11.86-7.04-23.34-11.55-30.1-13.9,5.31,4.82,14.78,12.76,26.61,19.79,12.09,7.17,25.13,13.86,33.21,17.05.288-.652.637-1.289,1.09-1.85Z"/>
        <path d="M267.937,155.898c-4.01,2.33-8.21,4.36-12.52,6.01-17.09,6.57-37.18,8.43-58.2,5.39-.71-.1-1.43-.21-2.14-.32-4.26-.67-8.55-1.56-13.05-2.66l6.96-16.72c.11.01.22.03.33.05,3.64.58,7.25,1.02,10.82,1.3,3.69.31,7.34.46,10.95.46,14.18,0,27.61-2.33,39.61-6.94,2.09-.81,4.14-1.71,6.14-2.65l11.1,16.08Z" fill="#6757dc"/>
        <path d="M260.121,319.93c1.679,6.176-8.067,8.635-9.54,2.44-1.671-6.137,8.051-8.658,9.54-2.44Z" fill="#fed23d"/>
        <path d="M211.171,427.75c14.27,5.81,29.55,8.68,44.97,8.42-12.96,2.7-26.08,3.09-39.1,1.14-.196-3.307-3.913-5.834-6.87-7.12l1-2.44Z" fill="#fed23d"/>
        <path d="M255.677,138.148c-1.85.87-3.75,1.7-5.7,2.45-14.72,5.66-31.65,7.82-49.48,6.38-3.54-.29-7.12-.71-10.72-1.28l6.08-14.63c2.61.21,5.19.35,7.74.4,1.06.04,2.11.05,3.15.05,14.13,0,27.33-2.33,39.36-6.95l.15-.06,9.42,13.64Z" fill="#fd4d71"/>
        <path d="M254.821,313.25c-.862.061-1.711.26-2.51.59-1.62-3.73-3.34-8.61-4.84-13.71-2.448-7.24-3.891-18.753-3.55-24.47,2.21,3.91,5.41,10.37,7.36,18.02,1.75,6.89,3.06,14.19,3.54,19.57Z" fill="#fd4d71"/>
        <path d="M249.181,316.17c-.452.609-.858,1.254-1.15,1.95-8.08-3.19-21.12-9.88-33.21-17.05-11.83-7.03-21.3-14.97-26.61-19.79,6.76,2.35,18.24,6.86,30.1,13.9,12.1,7.19,24.21,15.44,30.87,20.99Z" fill="#fed23d"/>
        <path d="M247.471,300.13l-2.86.84c-.761-2.617-1.508-5.299-2.07-7.95l2.93-.6c.547,2.577,1.277,5.166,2,7.71Z"/>
        <path d="M245.087,122.808c-12.5,4.76-26.27,6.99-41.06,6.67-2.43-.05-4.88-.17-7.36-.36l7.89-18.97c1.3-.04,2.6-.09,3.89-.17,8.68-.5,17.01-1.92,24.85-4.24l11.79,17.07Z" fill="#6757dc"/>
        <path d="M216.947,76.698c-5.65,1.44-11.52.6-16.54-2.37-5.01-2.98-8.57-7.73-10.01-13.38-2.98-11.66,4.08-23.58,15.75-26.56.02,0,.03-.01.05-.01,1.78-.45,3.6-.68,5.39-.68,3.87,0,7.68,1.04,11.1,3.07,5.01,2.97,8.57,7.72,10.01,13.37,2.98,11.67-4.08,23.58-15.75,26.56Z" fill="#6757dc"/>
        <path d="M232.096,104.008c-7.33,2.1-15.09,3.42-23.16,3.94-1.17.07-2.35.13-3.54.17l8.8-21.16,2.3-5.53,15.6,22.58Z" fill="#fd4d71"/>
        <path d="M214.027,437.728c-.001.141-.024.28-.05.42l-10.36,25.02c-.62,1.5-1.89,2.6-3.47,3-3.218.9-6.611-1.849-6.37-5.2l1.25-26.33c-.391-7.547,18.74-2.186,19,3.09Z" fill="#fed23d"/>
        <path d="M211.167,427.748l-1,2.44c-5.222-2.029-13.094-4.19-17.32.68-11.35-4.44-21.75-10.64-30.88-18.26-17.86-14.87-30.9-35.14-36.79-58.21-8.92-34.91-.3-71.04,21.32-97.87,8.66-10.75,19.41-20.01,31.96-27.09,2.17.14,4.45.24,6.82.29-7.97,6.01-15,12.95-21.01,20.61-21.67,27.6-30.08,64.42-21.13,99.47,6.35,24.86,20.7,46.65,40.79,62.24,2.42,1.88,4.93,3.67,7.51,5.36,6.28,4.11,12.89,7.57,19.73,10.34Z" fill="#fed23d"/>
        <path d="M152.781,58.71c12.26,4.34,10.11,22.34,10.01,23.11-.08.64-.63,1.13-1.28,1.13h-6.06c-.46,0-.88-.24-1.11-.63-.24-.38-.25-.86-.04-1.27,3.93-7.57-9.77-15.5-9.91-15.58-.4-.23-.65-.65-.66-1.11,0-.47.24-.89.63-1.13l7.32-4.41c.33-.2.74-.24,1.1-.11ZM160.321,80.35c.23-3.73.3-15.58-7.85-18.98l-4.97,3c3.75,2.53,11.73,8.88,9.84,15.98h2.98Z"/>
        <path d="M152.471,61.37c8.15,3.4,8.08,15.25,7.85,18.98h-2.98c1.89-7.1-6.09-13.45-9.84-15.98l4.97-3Z" fill="#fed23d"/>
        <path d="M146.781,181.85c.01.04.01.09.01.13,0,3.29-2.68,5.97-5.98,5.97-.04,0-.09,0-.13-.01l.13-2.58c1.87,0,3.39-1.52,3.39-3.38l2.58-.13Z"/>
        <path d="M146.781,181.85l-2.58.13c0-1.87-1.52-3.39-3.39-3.39l.13-2.58c3.2.06,5.78,2.64,5.84,5.84Z"/>
        <path d="M140.811,178.59c1.87,0,3.39,1.52,3.39,3.39,0,1.86-1.52,3.38-3.39,3.38-1.86,0-3.38-1.52-3.38-3.38,0-1.87,1.52-3.39,3.38-3.39Z" fill="#fff"/>
        <path d="M140.941,176.01l-.13,2.58c-1.86,0-3.38,1.52-3.38,3.39l-2.59.13c-.01-.04-.01-.09-.01-.13,0-3.3,2.69-5.98,5.98-5.98.04,0,.09,0,.13.01Z"/>
        <path d="M140.811,185.36l-.13,2.58c-3.19-.06-5.78-2.64-5.84-5.83l2.59-.13c0,1.86,1.52,3.38,3.38,3.38Z"/>
        <path d="M139.311,108.54c1.039.702.423,2.457-.83,2.35-.14,0-13.53-.58-18.81,7.35,10.772,17.611-3.89,27.569-14.07,9.49-.42.54-.8,1.15-1.12,1.85,2.11,3.45,3.27,6.86,3.55,7.71,2.47,4.14,2.81,9.78-.93,14.14-2.27,2.64-4.52,3.64-6.69,2.97-4.48-1.38-6.57-9.79-7.45-14.88-4.26,8.96,1.83,22.96,1.89,23.11.22.48.12,1.05-.24,1.43-.362.379-.93.503-1.41.31,0,0-16.35-6.35-16.35-6.35-1.953-.583-3.253-27.967,10.069-35.19,3.041-1.64,6.011-2,8.831-1.11,1.09-2.77,4.34-8.9,11.82-9.82,2.32-2.34,15.88-14.78,31.74-3.36ZM118.031,116.09c4.16-5.52,11.44-7.17,16.15-7.63-10.41-5.17-19.09.32-22.93,3.55,2.87.55,5.1,2.19,6.78,4.08ZM120.091,133.07c1.06-1.66,1.01-4.65-.08-8.06-1.96-.57-8.17-2.05-12.48.9,3.011,4.895,8.39,12.18,12.56,7.16ZM104.881,124.71c3.93-3.52,9.71-3.57,13.95-2.69-5.131-11.444-17.224-8.889-20.72.77,1.84,1.1,3.41,2.67,4.73,4.39.597-.962,1.269-1.784,2.04-2.47ZM105.131,149.74c3.683-4.353,2.353-10.262-1.39-13.61-1.08-.94-4.82-3.61-8.62.26,1.167,8.148,4.015,20.632,10.01,13.35ZM103.261,132.69c-2.733-5.592-8.455-11.553-15.1-7.57-10.84,5.84-9.93,26.49-9.62,30.78l12.86,4.99c-1.94-5.61-5.24-18.25,1.39-25.79q0-.01.01-.01c2.98-3.39,6.89-4.22,10.46-2.4Z"/>
        <path d="M134.181,108.46c-4.71.46-11.99,2.11-16.15,7.63-1.68-1.89-3.91-3.53-6.78-4.08,3.84-3.23,12.52-8.72,22.93-3.55Z" fill="#6757dc"/>
        <path d="M122.351,431.06c.58.2.94.79.86,1.4-.76,5.78-3.18,10.15-7.17,12.98-4.16,2.95-9.18,3.62-12.88,3.62-2.95,0-5.07-.42-5.26-.46-.39-.08-.72-.34-.9-.69l-4.46-8.93c-.26-.51-.15-1.12.26-1.51.4-.4,1.02-.48,1.52-.21,17.43,9.51,26.12-5,26.48-5.62.31-.53.96-.78,1.55-.58ZM114.551,443.31c2.04-1.44,3.59-3.39,4.65-5.81-4.19,3.85-11.78,8.1-22.66,3.69l2.49,4.97c2.2.33,9.94,1.12,15.52-2.85Z"/>
        <path d="M122.351,265.7c.7.44.9,1.37.45,2.07-15.66,24.31-21.59,54.55-16.27,82.97.15.82-.39,1.6-1.2,1.76-.09.01-.19.02-.28.02-.71,0-1.34-.5-1.47-1.22-5.46-29.17.62-60.21,16.7-85.16.45-.69,1.38-.89,2.07-.44Z"/>
        <path d="M120.011,125.01c1.317,4.754,1.713,9.032-2.97,9.74-3.03.3-7.21-4.92-9.51-8.84,4.31-2.95,10.52-1.47,12.48-.9Z" fill="#6757dc"/>
        <path d="M118.831,122.02c-4.24-.88-10.02-.83-13.95,2.69-.771.686-1.443,1.508-2.04,2.47-1.32-1.72-2.89-3.29-4.73-4.39,3.515-9.69,15.606-12.187,20.72-.77Z" fill="#6757dc"/>
        <path d="M119.201,437.5c-1.06,2.42-2.61,4.37-4.65,5.81-5.58,3.97-13.32,3.18-15.52,2.85l-2.49-4.97c10.88,4.41,18.47.16,22.66-3.69Z" fill="#fd4d71"/>
        <path d="M105.841,138.67c1.93,3.27,2.2,7.68-.71,11.07-1.53,1.79-2.86,2.52-3.96,2.18-2.88-.89-5.19-8.38-6.05-15.53,4.916-4.582,8.947-.496,10.72,2.28Z" fill="#6757dc"/>
        <path d="M95.601,124.42c3.42,1.4,5.98,5.06,7.66,8.27-3.57-1.82-7.48-.99-10.46,2.4q-.01,0-.01.01c-6.63,7.54-3.33,20.18-1.39,25.79l-12.86-4.99c-.938-5.217.059-35.937,17.06-31.48Z" fill="#6757dc"/>
        <path d="M97.501,229.74c.54.18.9.68.89,1.25,0,.57-.38,1.06-.92,1.23-19.02,5.7-14.82,22.08-14.63,22.78.16.59-.12,1.22-.68,1.5-.18.09-.38.14-.58.14-.39,0-.77-.18-1.02-.51-3.57-4.61-4.98-9.4-4.18-14.22,1.49-9.04,10.14-14.88,10.51-15.12.33-.22.75-.27,1.12-.15l9.49,3.1ZM93.111,231.04l-5.28-1.73c-1.78,1.33-7.79,6.27-8.9,13.03-.4,2.47-.11,4.94.87,7.4.21-5.7,2.53-14.08,13.31-18.7Z"/>
        <path d="M94.431,290.92c.76.32,1.13,1.19.82,1.96-3.79,9.32-5.66,19.57-5.42,29.64.02.82-.63,1.51-1.46,1.53h-.04c-.81,0-1.48-.64-1.5-1.46-.25-10.47,1.7-21.14,5.64-30.84.31-.77,1.19-1.14,1.96-.83Z"/>
        <path d="M87.831,229.31l5.28,1.73c-10.78,4.62-13.1,13-13.31,18.7-.98-2.46-1.27-4.93-.87-7.4,1.11-6.76,7.12-11.7,8.9-13.03Z" fill="#fd4d71"/>
        <path d="M71.331,360.24c.09.36.03.74-.18,1.04l-8.59,12.51c-.22.32-.57.53-.95.56-.04,0-.08.01-.12.01-.34,0-.68-.15-.92-.4l-8.58-8.78c-.25-.25-.38-.58-.37-.93,0-.34.15-.67.4-.91l8.58-8.23c.4-.39,1-.47,1.5-.21l8.58,4.5c.33.17.57.48.65.84ZM61.321,371.02l6.86-10-6.46-3.39-6.96,6.67,6.56,6.72Z"/>
        <polygon points="68.181 361.02 61.321 371.02 54.761 364.3 61.721 357.63 68.181 361.02" fill="#fff"/>
        <path d="M195.757,184.208c-6.49-1.21-13.06-2.86-19.93-4.98l5.43-13.04c4.65,1.15,9.09,2.07,13.51,2.77.74.12,1.47.23,2.2.33-.67,5.46-1.1,10.51-1.21,14.92Z" opacity=".2"/>
        <path d="M200.707,205.428c-10.24-1.94-20.74-4.98-31.94-9.2l6.29-15.15c7.13,2.22,13.94,3.93,20.67,5.16,0,3.96.29,7.32.94,9.89.84,3.29,2.24,6.39,4.04,9.3Z" opacity=".2"/>
        <path d="M195.076,166.978c-4.26-.67-8.55-1.56-13.05-2.66l6.96-16.72c.11.01.22.03.33.05,3.64.58,7.25,1.02,10.82,1.3-1.15,6.35-2.16,12.55-2.92,18.35-.71-.1-1.43-.21-2.14-.32Z" opacity=".2"/>
        <path d="M195.856,131.068c2.61.21,5.19.35,7.74.4-1.09,5.14-2.14,10.36-3.1,15.51-3.54-.29-7.12-.71-10.72-1.28l6.08-14.63Z" opacity=".2"/>
        <path d="M204.027,129.478c-2.43-.05-4.88-.17-7.36-.36l7.89-18.97c1.3-.04,2.6-.09,3.89-.17-1.45,6.12-2.97,12.73-4.42,19.5Z" opacity=".2"/>
        <path d="M190.397,60.948c-2.98-11.66,4.08-23.58,15.75-26.56.02,0,.03-.01.05-.01-16.24,35.3,10.75,42.32,10.75,42.32-5.65,1.44-11.52.6-16.54-2.37-5.01-2.98-8.57-7.73-10.01-13.38Z" opacity=".2"/>
        <path d="M208.937,107.948c-1.17.07-2.35.13-3.54.17l8.8-21.16c-1.42,5.45-3.28,12.73-5.26,20.99Z" opacity=".2"/>
        <path d="M221.887,225.408c-15.292,1.253-29.496,1.805-43.93,1.03-13.43-.91-18.85-3.31-19.52-5.37l9.56-23c12.02,4.55,23.27,7.73,34.25,9.67,5.17,7.27,12.7,13.23,19.64,17.67Z" opacity=".2"/>
        <path d="M185.277,229.728c-7.97,6.01-15,12.95-21.01,20.61-4.87,1.68-11.69,4.05-17.77,6.19,8.66-10.75,19.41-20.01,31.96-27.09,2.17.14,4.45.24,6.82.29Z" opacity=".2"/>
        <path d="M180.977,257.778l-13.02-6.21c6.48-8.21,14.19-15.57,22.98-21.77h.19c10.66,0,22.45-.62,34.27-1.7-17.199,5.49-32.737,15.877-44.42,29.68Z" opacity=".2"/>
        <path d="M255.407,226.388c9.01,0,17.9,1.28,26.41,3.78l-95.52,26.15c10.834-11.624,24.588-20.359,39.68-25.25,1.47-.48,2.96-.91,4.46-1.32l1.7,6.65c.17.68.78,1.13,1.45,1.13.12,0,.25-.02.37-.05.8-.21,1.29-1.02,1.08-1.82l-1.7-6.65c2.94-.71,5.91-1.28,8.85-1.7,4.369-.599,8.825-.926,13.22-.92Z" opacity=".2"/>
        <path d="M303.556,220.328c-8.38,4.34-16.41,8.38-16.41,8.38-8.608-2.954-17.636-4.718-26.73-5.19,12.88-2.24,24.19-4.93,32.04-7.79,3.8,1.34,7.51,2.88,11.1,4.6Z" opacity=".2"/>
        <path d="M207.957,300.328l-47.13,14.66c.47-7.2,1.77-14.31,3.86-21.19l24.52-7.63c4.62,4,11.07,9.15,18.75,14.16Z" opacity=".2"/>
        <path d="M241.927,289.748l-17.7,5.51c-7.604-4.826-16.946-9.607-23.97-12.53l41.23-12.83c-.666,1.431-1.187,8.532.44,19.85Z" opacity=".2"/>
        <path d="M329.697,262.428l-77.47,24.12c-4.105-10.612-7.535-16.102-9.07-17.17l71.35-22.21c5.599,4.478,10.734,9.624,15.19,15.26Z" opacity=".2"/>
        <path d="M248.106,311.468c-.93-.72-1.91-1.46-2.96-2.23l1.92-.6c.35.98.69,1.92,1.04,2.83Z" opacity=".2"/>
        <path d="M250.627,327.528l-84.24,26.21c-.95-2.57-1.78-5.2-2.51-7.89,1.213-.76,8.489-.898,7.65-3.5-.488-2.693-6.973.676-8.38.59-.61-2.56-1.1-5.14-1.49-7.72l69.56-21.65c6.25,3.22,11.95,5.88,16.21,7.54-.037,2.493,1.197,4.955,3.2,6.42Z" opacity=".2"/>
        <path d="M346.707,296.038l-6.68,1.71c-.81.2-1.29,1.02-1.09,1.82.04.15.1.29.19.42l-76.3,23.74c1.51-3.954-.885-8.848-4.97-10.09-.19-2.36-.54-5.1-1.02-8.04l83.65-26.03c2.57,5.26,4.65,10.78,6.22,16.47Z" opacity=".2"/>
        <path d="M261.697,352.038l8.14,31.85-61.85,19.25c-11.1-6.4-20.9-15.03-28.68-25.46l82.39-25.64Z" opacity=".2"/>
        <path d="M349.987,324.558c-.493,12.865-3.601,25.612-9.15,37.23l-68.14,21.21-8.14-31.85,85.43-26.59Z" opacity=".2"/>
        <path d="M211.171,427.75l-.002.005-.003-.007c-6.84-2.77-13.45-6.23-19.73-10.34-2.58-1.69-5.09-3.48-7.51-5.36-5.16,1.29-12.91,2.35-21.96.56,9.13,7.62,19.53,13.82,30.88,18.26,4.229-4.87,12.094-2.709,17.32-.68l.007-.004-.002.006c2.956,1.285,6.675,3.814,6.87,7.12,13.02,1.95,26.14,1.56,39.1-1.14-15.42.26-30.7-2.61-44.97-8.42Z" opacity=".2"/>
        <path d="M214.027,437.728c-.001.141-.024.28-.05.42l-10.36,25.02c-.62,1.5-1.89,2.6-3.47,3-.837.22-1.72.216-2.56-.01,2.75-6.97,8.77-23.37,6.32-27.63-1.32-2.29-5.01-3.39-8.88-3.89-.391-7.547,18.74-2.186,19,3.09Z" opacity=".2"/>
        <path d="M343.007,429.048l-.06.06c-.6.54-1.34.93-2.13,1.14-1.58.4-3.21.04-4.48-.98l-16.42-13.23c4.728-3.224,9.236-6.827,13.44-10.72l2.19,3.6c-2.88,1.73-6.8,5.09-5.81,8.09.99,3.04,8.44,8.65,13.27,12.04Z" opacity=".2"/>
      </g>
    </g>
  </g>
</svg>