<?xml version="1.0" encoding="UTF-8"?>
<svg xmlns="http://www.w3.org/2000/svg" version="1.1" viewBox="0 0 500 500">
  <!-- Generator: Adobe Illustrator 28.7.3, SVG Export Plug-In . SVG Version: 1.2.0 Build 164)  -->
  <g>
    <g id="object">
      <g>
        <path d="M419.71,368.034c.37,1.03,9.12,25.33-2.27,35.74-2.36,2.17-4.93,3.26-7.65,3.26-.21,0-.42-.04-.63-.05-.39,2.95-2.04,9.71-9.08,12.42-1.37,2.31-8.32,12.89-20.63,12.89-2.83,0-5.94-.56-9.34-1.91-.53-.21-.86-.75-.81-1.32.05-.58.48-1.05,1.04-1.16.14-.03,13.27-2.73,16.46-11.7-1.16-1.06-2.09-2.16-2.74-3-.66-.86-1.04-1.46-1.1-1.57-2.63-3.99-3.57-7.73-2.64-10.54.61-1.86,2.04-3.24,4.13-3.99,4.67-1.69,10.98,3.79,13.69,6.47.27-.63.49-1.32.64-2.07-2.89-2.84-4.85-5.85-5.32-6.61-3.41-3.42-5.12-8.81-2.55-13.94,1.56-3.12,3.5-4.64,5.77-4.52,4.68.26,8.76,7.9,10.84,12.62,1.95-9.71-7.35-21.82-7.46-21.95-.32-.42-.36-.99-.1-1.44.26-.46.76-.72,1.29-.65l17.4,2.18c.48.06.89.38,1.06.84ZM415.69,401.864c9.09-8.31,3.18-28.12,1.83-32.2l-13.69-1.71c3.26,4.96,9.53,16.42,4.94,25.35,0,.01-.01.01-.01.01-2.06,4.02-5.65,5.77-9.56,4.88,2.41,2.7,5.79,5.63,9.44,6.16,2.51.36,4.82-.45,7.05-2.49ZM398.76,417.124c6.32-2.19,7.6-8.21,7.86-10.58-2.06-.62-3.97-1.77-5.67-3.12-.34,1.06-.79,2-1.34,2.83-.01.03-.03.05-.04.07-2.95,4.37-8.55,5.83-12.87,6,2.21,2.63,6.68,6.67,12.06,4.8ZM406.19,392.614c-2.58-6.72-6.64-13.42-9.65-13.59-1.14-.06-2.25.98-3.31,3.09-2,3.99-.66,8.21,2.02,10.91.09.06.17.14.24.23.72.69,1.54,1.27,2.41,1.71,1.27.65,5.55,2.33,8.29-2.35ZM396.47,420.194c-.19.02-.39.03-.57.03-2.68,0-5.04-1.02-6.98-2.34-2.69,6.36-9.36,9.74-13.81,11.34,11.31,2.45,18.41-4.96,21.36-9.03ZM396.71,405.804c-3.19-3.24-8.5-7.29-11.38-6.26-1.35.49-2.18,1.26-2.55,2.37-.62,1.87.15,4.76,2.04,7.8,2.04.08,8.42,0,11.89-3.91Z"/>
        <path d="M417.52,369.664c1.35,4.08,7.26,23.89-1.83,32.2-2.23,2.04-4.54,2.85-7.05,2.49-3.65-.53-7.03-3.46-9.44-6.16,3.91.89,7.5-.86,9.56-4.88,0,0,.01,0,.01-.01,4.59-8.93-1.68-20.39-4.94-25.35l13.69,1.71Z" fill="#fd4d71"/>
        <path d="M416.3,296.514c.09.36.03.74-.18,1.04l-8.59,12.51c-.21.32-.57.53-.95.56-.04,0-.08.01-.11.01-.35,0-.69-.14-.93-.39l-8.58-8.79c-.24-.25-.38-.58-.37-.93,0-.34.15-.67.4-.91l8.58-8.23c.4-.39,1-.47,1.5-.21l8.58,4.5c.33.17.57.48.65.84ZM406.29,307.294l6.86-10-6.46-3.39-6.96,6.68,6.56,6.71Z"/>
        <polygon points="413.15 297.294 406.29 307.294 399.73 300.584 406.69 293.904 413.15 297.294" fill="#fd4d71"/>
        <path d="M406.62,406.544c-.26,2.37-1.54,8.39-7.86,10.58-5.38,1.87-9.85-2.17-12.06-4.8,4.32-.17,9.92-1.63,12.87-6,.01-.02.03-.04.04-.07.55-.83,1-1.77,1.34-2.83,1.7,1.35,3.61,2.5,5.67,3.12Z" fill="#fd4d71"/>
        <path d="M396.54,379.024c3.01.17,7.07,6.87,9.65,13.59-2.74,4.68-7.02,3-8.29,2.35-.87-.44-1.69-1.02-2.41-1.71-.07-.09-.15-.17-.24-.23-2.68-2.7-4.02-6.92-2.02-10.91,1.06-2.11,2.17-3.15,3.31-3.09Z" fill="#fd4d71"/>
        <path d="M395.9,420.224c.18,0,.38-.01.57-.03-2.95,4.07-10.05,11.48-21.36,9.03,4.45-1.6,11.12-4.98,13.81-11.34,1.94,1.32,4.3,2.34,6.98,2.34Z" fill="#fd4d71"/>
        <path d="M385.33,399.544c2.88-1.03,8.19,3.02,11.38,6.26-3.47,3.91-9.85,3.99-11.89,3.91-1.89-3.04-2.66-5.93-2.04-7.8.37-1.11,1.2-1.88,2.55-2.37Z" fill="#fd4d71"/>
        <path d="M375.39,195.294c12.26,4.34,10.11,22.34,10.01,23.11-.08.64-.64,1.13-1.29,1.13h-6.06c-.45,0-.87-.24-1.11-.63-.23-.38-.25-.86-.04-1.27,3.93-7.57-9.77-15.5-9.91-15.58-.4-.23-.65-.65-.65-1.11-.01-.46.23-.89.63-1.13l7.31-4.41c.34-.2.74-.24,1.11-.11ZM382.92,216.934c.23-3.73.3-15.58-7.84-18.98l-4.97,3c3.75,2.53,11.73,8.88,9.83,15.98h2.98Z"/>
        <path d="M375.08,197.954c8.14,3.4,8.07,15.25,7.84,18.98h-2.98c1.9-7.1-6.08-13.45-9.83-15.98l4.97-3Z" fill="#fff"/>
        <path d="M380.28,314.814c1.05,1.31,1.99,3.61.48,7.1-1.24,2.88-3.38,4.75-6.18,5.4-.77.18-1.58.26-2.4.26-6.61,0-14.71-5.22-19.34-8.66,1.58,37.48-13.83,67.7-27.35,86.72-16.57,23.3-40.21,43.37-63.25,53.68-10.61,4.75-20.26,7.12-28.4,7.12s-14.79-2.38-19.36-7.15c-13.05-13.64-8.13-23.88-4.17-32.12,2.47-5.14,4.6-9.58,2.9-14.39-2.16-6.1-10.5-12.52-25.51-19.63-31.24-14.8-42.11-35.47-45.72-50.21-2.33-9.5-2.04-17.72-1.4-22.94-5.01,4.23-12.84,9.95-18.53,9.95-.68,0-1.32-.08-1.93-.25-1.56-.45-3.59-1.69-4.43-5.06-.68-2.73-.16-5.19,1.52-7.13,4.93-5.71,19.05-5.43,24.56-5.08.54-4.46,2.8-8.74,6.66-12.77l48.62-101.65v-.01l43.25-90.42c.73-1.53,1.93-2.72,3.38-3.45-19.34-10.64-60.46-18.39-60.91-18.47-.58-.11-1.08-.47-1.37-.98s-.34-1.12-.14-1.67c2-5.5,4.63-10.81,7.82-15.79.43-.66,1.2-1.01,1.98-.89,7.53,1.11,17.06,2.84,25.97,5.42-5.28-3.37-12.27-7.2-20.48-10.25-.61-.22-1.08-.74-1.24-1.37-.16-.64,0-1.32.43-1.81,4.1-4.74,8.73-8.89,13.76-12.33.67-.46,1.56-.47,2.23-.02,2.79,1.86,6.09,4.13,9.51,6.66l-5.79-7.67c-.35-.47-.49-1.07-.36-1.64s.5-1.06,1.01-1.33c4.7-2.5,9.72-4.47,14.94-5.86.84-.22,1.72.12,2.19.85l1.78,2.74-.48-2.38c-.11-.52,0-1.06.3-1.51.29-.44.76-.75,1.28-.85,9.12-1.75,18.98-1.87,29.29-.35.54.08,1.03.38,1.34.82.32.45.44,1,.34,1.54l-5.65,29.23,13.59-27.96c.43-.89,1.44-1.33,2.38-1.04,6.47,1.98,12.52,4.94,17.98,8.81.86.61,1.1,1.8.53,2.7l-4.74,7.46,7.91-5.36c.77-.52,1.79-.45,2.47.17,4.45,4.06,8.48,8.86,11.99,14.28.33.51.42,1.14.23,1.72-.19.57-.64,1.03-1.21,1.24-7.46,2.79-13.93,5.42-19.22,7.83,6.87-1.9,14.88-3.86,22.15-4.95.85-.13,1.68.29,2.07,1.04,2.08,3.96,3.94,8.21,5.52,12.62.21.6.13,1.27-.23,1.8s-.95.85-1.59.88l-5.98.2,8.51,2.29c.67.18,1.21.7,1.4,1.37,2.3,7.98,2.92,13.52,2.95,13.76.08.76-.28,1.5-.93,1.91-.32.2-.69.3-1.06.3s-.74-.1-1.06-.3c-22.68-14.16-60.99-4.15-72.05-.79.33.42.63.88.87,1.38l91.87,192.07c3.74,3.93,6.04,8.15,6.64,12.58,6.76-1.11,23.27-3.13,27.86,2.59ZM377.09,320.334c.87-2.02.29-2.74.07-3.02-2.34-2.91-12.96-2.69-21.76-1.49,5.21,3.81,13.36,8.72,18.28,7.59,1.58-.37,2.66-1.34,3.41-3.08ZM338.41,293.514l-19.03-39.8c-29.65.37-59.51,7.19-87.04,19.8,4.85-.27,9.79-.42,14.76-.42,39.46,0,73.21,8.12,91.31,20.42ZM323.52,101.534c-.38-2.06-.98-4.82-1.87-8.03l-20.34-5.45c-.67-.18-1.17-.67-1.37-1.29-.1-.27-.13-.57-.1-.87.11-.99.93-1.74,1.92-1.77l16.59-.58c-1.11-2.85-2.34-5.62-3.68-8.26-16.72,2.74-36.78,9.73-36.99,9.8-.89.32-1.88-.04-2.37-.84-.49-.81-.35-1.85.33-2.5,5.44-5.15,20.55-11.58,33.16-16.36-2.67-3.84-5.62-7.31-8.8-10.36l-14.56,9.89c-.79.53-1.84.44-2.52-.22s-.8-1.71-.29-2.51l8.87-13.97c-4.22-2.79-8.8-5.02-13.64-6.65l-19.47,40.08c-.44.9-1.48,1.34-2.43,1.02s-1.52-1.29-1.33-2.28l8.12-42.08c-8.37-1.06-16.39-.97-23.89.25l2.18,10.68c.19.94-.31,1.89-1.2,2.25-.89.37-1.92.05-2.44-.76l-6.72-10.34c-3.66,1.05-7.22,2.42-10.6,4.06l14.76,19.55c.63.84.51,2.01-.27,2.7-.78.7-1.96.67-2.72-.05-6.52-6.3-14.92-12.37-21.2-16.59-3.56,2.55-6.9,5.49-9.97,8.75,18.11,7.29,29.52,17.6,30.02,18.06.73.66.86,1.76.31,2.58-.54.82-1.61,1.12-2.5.71-10.67-4.97-25.63-7.99-36.75-9.68-2.31,3.73-4.29,7.66-5.9,11.7,8.77,1.75,39.37,8.24,57.31,17.18-2.04-4.64-4.48-8.23-8.83-12.03-.83-.73-.92-1.99-.19-2.83.73-.83,1.99-.91,2.82-.18,5.87,5.13,8.6,9.82,11.15,16.6.29-3.83.27-10.08.02-15.57-.05-1.1.81-2.03,1.91-2.08,1.12-.06,2.04.8,2.09,1.9.14,3.14.45,11.75-.17,17.15,4.82-1.49,14.32-4.11,25.53-5.62,14.64-1.96,32.19-2.03,46.02,4.84ZM348.58,314.574c0-20.31-46.47-37.48-101.48-37.48-8.47,0-16.83.39-24.86,1.16l-.1.01c-44.34,4.23-76.52,19.49-76.52,36.31,0,20.33,46.48,37.49,101.48,37.49s101.48-17.16,101.48-37.49ZM260.6,455.664c35.08-15.69,87.79-64.1,88.36-130.07-11.99,17.76-52.45,30.47-101.86,30.47-50.87,0-92.26-13.48-102.85-32.06-.28,4.78-.08,11.13,1.67,18.17,5,20.12,19.63,36.05,43.49,47.35,16.24,7.7,25,14.66,27.57,21.91,2.26,6.39-.45,12.02-3.07,17.46-3.95,8.22-7.68,15.99,3.46,27.63,7.76,8.1,23.92,7.78,43.23-.86ZM317.48,249.754l-15.99-33.45c-50.07-1.94-100.42,18.47-134.96,54.77l-10.76,22.51c2.72-1.85,5.82-3.62,9.31-5.3,14.29-6.89,34.32-11.84,56.41-13.97,29.95-15.4,63.07-23.85,95.99-24.56ZM299.54,212.244l-17.27-36.11c-28.31.42-57.3,8.94-81.85,24.09l-28.83,60.27c34.35-31.73,81.16-49.49,127.95-48.25ZM280.38,172.174l-16.04-33.52c-13.43,1.76-26.69,5.26-39.46,10.42l-21.36,44.67c23.68-13.47,50.05-20.88,76.86-21.57ZM262.53,134.864l-12.23-25.56c-.6-1.26-1.8-2.02-3.19-2.02-1.4,0-2.6.76-3.2,2.02l-16.5,34.49c11.42-4.28,23.2-7.27,35.12-8.93ZM138.74,316.294c-.55-.01-1.11-.02-1.68-.02-6.69,0-14.31.94-16.82,3.85-.52.59-1.15,1.61-.67,3.54.46,1.84,1.33,2.09,1.65,2.18,3.44.99,11.36-4.3,17.52-9.55Z"/>
        <path d="M362.44,241.184c.13.43.02.91-.29,1.24l-11.51,12.51c-.25.27-.59.42-.95.42-.12,0-.24-.02-.36-.05-.48-.14-.83-.53-.92-1.02l-2.99-16.35c-.08-.43.07-.88.39-1.18.33-.3.79-.42,1.22-.3l14.5,3.84c.44.11.78.45.91.89ZM350.5,251.264l8.29-9.01-10.45-2.77,2.16,11.78Z"/>
        <polygon points="358.79 242.254 350.5 251.264 348.34 239.484 358.79 242.254" fill="#fed23d"/>
        <path d="M354.35,167.584c.54.18.9.68.89,1.25,0,.57-.38,1.07-.92,1.23-19.02,5.71-14.82,22.08-14.63,22.78.16.6-.13,1.23-.68,1.5-.18.09-.38.14-.58.14-.39,0-.77-.18-1.02-.51-3.57-4.61-4.98-9.39-4.18-14.22,1.48-9.04,10.14-14.88,10.51-15.12.33-.22.75-.27,1.12-.15l9.49,3.1ZM349.96,168.884l-5.28-1.73c-1.78,1.33-7.79,6.27-8.9,13.03-.4,2.47-.11,4.94.87,7.4.21-5.7,2.53-14.08,13.31-18.7Z"/>
        <path d="M355.19,440.604c.13.43.02.9-.29,1.24l-11.51,12.51c-.25.27-.6.42-.95.42-.12,0-.24-.02-.36-.05-.48-.14-.83-.53-.92-1.02l-2.99-16.35c-.08-.43.06-.88.39-1.18.33-.31.79-.42,1.21-.31l14.51,3.85c.44.11.78.45.91.89ZM343.24,450.684l8.29-9.02-10.44-2.76,2.15,11.78Z"/>
        <polygon points="351.53 441.664 343.24 450.684 341.09 438.904 351.53 441.664" fill="#fd4d71"/>
        <path d="M344.68,167.154l5.28,1.73c-10.78,4.62-13.1,13-13.31,18.7-.98-2.46-1.27-4.93-.87-7.4,1.11-6.76,7.12-11.7,8.9-13.03Z" fill="#fd4d71"/>
        <path d="M319.38,253.714l19.03,39.8c-18.1-12.3-51.85-20.42-91.31-20.42-4.97,0-9.91.15-14.76.42,27.53-12.61,57.39-19.43,87.04-19.8Z" fill="#fd4d71"/>
        <path d="M321.65,93.504c.89,3.21,1.49,5.97,1.87,8.03-13.83-6.87-31.38-6.8-46.02-4.84l-.29-2.04c.2-.02.41-.08.6-.16,5.59-2.45,11.5-3.9,17.59-4.31,1.1-.08,1.94-1.03,1.86-2.13-.02-.27-.09-.51-.2-.74l2.88-.55c.2.62.7,1.11,1.37,1.29l20.34,5.45Z" fill="#fed23d"/>
        <path d="M348.575,314.571c0,6.77-5.15,13.19-14.06,18.73-17.83,11.12-50.73,18.76-87.42,18.76-16.16,0-31.58-1.48-45.31-4.09-32.99-6.27-56.17-19.04-56.17-33.4,0-16.82,32.18-32.08,76.52-36.31l.1-.01c8.03-.77,16.39-1.16,24.86-1.16,55.01,0,101.48,17.17,101.48,37.48Z" fill="#fff"/>
        <path d="M318.35,83.544l-16.59.58c-.99.03-1.81.78-1.92,1.77-.03.3,0,.6.1.87l-2.88.55c-.34-.71-1.09-1.17-1.93-1.12-6.55.44-12.92,2-18.93,4.64-1.01.44-1.47,1.62-1.03,2.63.33.75,1.07,1.2,1.84,1.2.07,0,.13,0,.2-.01l.29,2.04c-11.21,1.51-20.71,4.13-25.53,5.62.62-5.4.31-14.01.17-17.15-.05-1.1-.97-1.96-2.09-1.9-1.1.05-1.96.98-1.91,2.08.25,5.49.27,11.74-.02,15.57-2.55-6.78-5.28-11.47-11.15-16.6-.83-.73-2.09-.65-2.82.18-.73.84-.64,2.1.19,2.83,4.35,3.8,6.79,7.39,8.83,12.03-17.94-8.94-48.54-15.43-57.31-17.18,1.61-4.04,3.59-7.97,5.9-11.7,11.12,1.69,26.08,4.71,36.75,9.68.89.41,1.96.11,2.5-.71.55-.82.42-1.92-.31-2.58-.5-.46-11.91-10.77-30.02-18.06,3.07-3.26,6.41-6.2,9.97-8.75,6.28,4.22,14.68,10.29,21.2,16.59.76.72,1.94.75,2.72.05.78-.69.9-1.86.27-2.7l-14.76-19.55c3.38-1.64,6.94-3.01,10.6-4.06l6.72,10.34c.52.81,1.55,1.13,2.44.76.89-.36,1.39-1.31,1.2-2.25l-2.18-10.68c7.5-1.22,15.52-1.31,23.89-.25l-8.12,42.08c-.19.99.38,1.96,1.33,2.28s1.99-.12,2.43-1.02l19.47-40.08c4.84,1.63,9.42,3.86,13.64,6.65l-8.87,13.97c-.51.8-.39,1.85.29,2.51s1.73.75,2.52.22l14.56-9.89c3.18,3.05,6.13,6.52,8.8,10.36-12.61,4.78-27.72,11.21-33.16,16.36-.68.65-.82,1.69-.33,2.5.49.8,1.48,1.16,2.37.84.21-.07,20.27-7.06,36.99-9.8,1.34,2.64,2.57,5.41,3.68,8.26ZM280.65,69.684c.87-.68,1.02-1.94.34-2.81s-1.93-1.02-2.8-.34c-5.12,4-9.52,8.78-13.07,14.22-.61.92-.35,2.16.58,2.77.33.22.71.32,1.09.32.65,0,1.29-.32,1.67-.9,3.32-5.07,7.42-9.53,12.19-13.26ZM264.25,88.864c.63-.91.41-2.15-.5-2.78-.9-.64-2.15-.41-2.78.49l-2.08,2.98c-.63.9-.41,2.15.5,2.78.35.24.75.36,1.14.36.63,0,1.25-.3,1.64-.85l2.08-2.98ZM248.26,75.274c1.1-.16,1.85-1.18,1.68-2.27-.86-5.66-2.46-11.18-4.76-16.41-.44-1.01-1.62-1.47-2.63-1.03s-1.47,1.62-1.03,2.63c2.16,4.92,3.66,10.1,4.47,15.41.15.99,1,1.7,1.97,1.7.1,0,.2-.01.3-.03Z" fill="#fed23d"/>
        <path d="M317.475,249.751c-32.92.71-66.04,9.16-95.99,24.56-.27.03-.54.05-.81.08-21.77,2.17-41.49,7.08-55.6,13.89-3.49,1.68-6.59,3.45-9.31,5.3l10.76-22.51c10.96-11.51,23.5-21.43,37.13-29.54,29.32-17.46,63.64-26.55,97.83-25.23l15.99,33.45Z" fill="#fed23d"/>
        <path d="M309.39,137.904c4.37,0,7.93,3.55,7.93,7.92s-3.56,7.93-7.93,7.93-7.92-3.56-7.92-7.93,3.55-7.92,7.92-7.92ZM314.73,145.824c0-2.94-2.4-5.33-5.34-5.33s-5.33,2.39-5.33,5.33,2.39,5.34,5.33,5.34,5.34-2.4,5.34-5.34Z"/>
        <path d="M309.39,140.494c2.94,0,5.34,2.39,5.34,5.33s-2.4,5.34-5.34,5.34-5.33-2.4-5.33-5.34,2.39-5.33,5.33-5.33Z" fill="#fff"/>
        <path d="M299.535,212.241c-33.27-.88-66.54,7.84-95.34,24.36-11.71,6.72-22.68,14.72-32.61,23.89l28.83-60.27c4.86-3,9.9-5.74,15.08-8.21,20.94-10,44.07-15.54,66.77-15.88l17.27,36.11Z" fill="#fd4d71"/>
        <path d="M297.26,88.054c.08,1.1-.76,2.05-1.86,2.13-6.09.41-12,1.86-17.59,4.31-.19.08-.4.14-.6.16-.07.01-.13.01-.2.01-.77,0-1.51-.45-1.84-1.2-.44-1.01.02-2.19,1.03-2.63,6.01-2.64,12.38-4.2,18.93-4.64.84-.05,1.59.41,1.93,1.12.11.23.18.47.2.74Z"/>
        <path d="M280.99,66.874c.68.87.53,2.13-.34,2.81-4.77,3.73-8.87,8.19-12.19,13.26-.38.58-1.02.9-1.67.9-.38,0-.76-.1-1.09-.32-.93-.61-1.19-1.85-.58-2.77,3.55-5.44,7.95-10.22,13.07-14.22.87-.68,2.12-.53,2.8.34Z"/>
        <path d="M280.375,172.171c-21.77.56-43.25,5.55-63.23,14.62-4.63,2.1-9.18,4.42-13.63,6.95l21.36-44.67c1.97-.8,3.96-1.55,5.95-2.27,10.92-3.93,22.15-6.66,33.51-8.15l16.04,33.52Z" fill="#fed23d"/>
        <path d="M263.75,86.084c.91.63,1.13,1.87.5,2.78l-2.08,2.98c-.39.55-1.01.85-1.64.85-.39,0-.79-.12-1.14-.36-.91-.63-1.13-1.88-.5-2.78l2.08-2.98c.63-.9,1.88-1.13,2.78-.49Z"/>
        <path d="M262.525,134.861c-10.13,1.41-20.16,3.78-29.95,7.1-1.73.57-3.46,1.19-5.17,1.83l16.5-34.49c.35-.73.89-1.28,1.56-1.62.49-.26,1.05-.4,1.64-.4,1.39,0,2.59.76,3.19,2.02l12.23,25.56Z" fill="#fd4d71"/>
        <path d="M249.94,73.004c.17,1.09-.58,2.11-1.68,2.27-.1.02-.2.03-.3.03-.97,0-1.82-.71-1.97-1.7-.81-5.31-2.31-10.49-4.47-15.41-.44-1.01.02-2.19,1.03-2.63s2.19.02,2.63,1.03c2.3,5.23,3.9,10.75,4.76,16.41Z"/>
        <path d="M160.67,113.534c12.26,4.34,10.11,22.33,10.01,23.1-.08.65-.63,1.13-1.28,1.13h-6.06c-.46,0-.88-.23-1.11-.62-.24-.39-.25-.87-.04-1.27,3.94-7.59-9.77-15.51-9.91-15.59-.4-.23-.65-.65-.66-1.11,0-.46.24-.89.63-1.13l7.32-4.4c.33-.2.74-.24,1.1-.11ZM168.21,135.174c.23-3.74.3-15.58-7.84-18.98l-4.98,2.99c3.75,2.53,11.74,8.88,9.84,15.99h2.98Z"/>
        <path d="M160.37,116.194c8.14,3.4,8.07,15.24,7.84,18.98h-2.98c1.9-7.11-6.09-13.46-9.84-15.99l4.98-2.99Z" fill="#fed23d"/>
        <path d="M164.27,424.164c.58.2.95.78.87,1.4-.77,5.78-3.18,10.14-7.18,12.98-4.16,2.95-9.18,3.62-12.88,3.62-2.95,0-5.07-.43-5.26-.47-.39-.08-.72-.33-.89-.69l-4.47-8.92c-.25-.51-.15-1.12.26-1.52.41-.39,1.02-.47,1.52-.2,17.44,9.5,26.12-5,26.49-5.62.31-.54.95-.78,1.54-.58ZM156.47,436.414c2.04-1.45,3.59-3.39,4.65-5.81-4.19,3.85-11.78,8.1-22.65,3.69l2.48,4.96c2.2.33,9.94,1.13,15.52-2.84Z"/>
        <path d="M162.01,170.784c.46.34.65.94.46,1.48-.19.55-.72.89-1.29.87-.14-.01-13.52-.58-18.8,7.34,1.74,2.64,2.53,5.13,2.6,5.36v.01c1.58,4.51,1.58,8.37,0,10.86-1.05,1.66-2.78,2.65-4.99,2.87-.17.02-.34.03-.51.03-4.75,0-9.27-6.49-11.18-9.63-.42.53-.8,1.15-1.12,1.84,2.1,3.46,3.27,6.86,3.55,7.71,2.47,4.15,2.81,9.79-.93,14.14-2.27,2.65-4.53,3.65-6.69,2.98-4.48-1.39-6.57-9.8-7.45-14.88-4.25,8.95,1.83,22.96,1.89,23.11.22.48.12,1.04-.24,1.42-.25.26-.6.4-.94.4-.16,0-.32-.03-.47-.08l-16.35-6.35c-.46-.18-.77-.59-.82-1.07-.12-1.09-2.69-26.79,10.89-34.12,3.04-1.64,6-2,8.82-1.11,1.1-2.77,4.35-8.91,11.83-9.82,2.32-2.34,15.88-14.79,31.74-3.36ZM140.73,178.324c4.16-5.51,11.44-7.16,16.15-7.63-10.38-5.14-19.07.33-22.92,3.56,2.87.55,5.1,2.19,6.77,4.07ZM142.79,195.314c1.06-1.67,1.01-4.65-.08-8.06-1.96-.58-8.17-2.05-12.48.89,2.3,3.93,6.48,9.15,9.51,8.85,1.42-.14,2.42-.69,3.05-1.68ZM127.58,186.954c3.92-3.52,9.71-3.58,13.95-2.69-1.52-3.09-4.85-8.09-10.53-7.59-6.62.58-9.36,6.13-10.19,8.36,1.84,1.09,3.41,2.67,4.73,4.39.58-.94,1.24-1.75,1.98-2.42.02-.02.04-.03.06-.05ZM127.83,211.974c2.91-3.39,2.64-7.8.71-11.07-.08-.09-.14-.18-.18-.29-.54-.84-1.19-1.6-1.92-2.24-1.09-.94-4.82-3.61-8.62.26.86,7.14,3.17,14.64,6.05,15.53,1.1.34,2.43-.4,3.96-2.19ZM125.95,194.924c-1.67-3.2-4.23-6.86-7.65-8.27-2.34-.96-4.78-.73-7.44.7-10.84,5.85-9.93,26.5-9.62,30.78l12.86,5c-1.95-5.61-5.24-18.25,1.39-25.8l.01-.01c2.98-3.38,6.89-4.22,10.45-2.4Z"/>
        <path d="M161.12,430.604c-1.06,2.42-2.61,4.36-4.65,5.81-5.58,3.97-13.32,3.17-15.52,2.84l-2.48-4.96c10.87,4.41,18.46.16,22.65-3.69Z" fill="#fd4d71"/>
        <path d="M156.88,170.694c-4.71.47-11.99,2.12-16.15,7.63-1.67-1.88-3.9-3.52-6.77-4.07,3.85-3.23,12.54-8.7,22.92-3.56Z" fill="#fed23d"/>
        <path d="M147.35,241.064c.01.04.01.09.01.13,0,3.3-2.68,5.98-5.97,5.98-.04,0-.09,0-.13-.01l.13-2.58c1.86,0,3.38-1.52,3.38-3.39l2.58-.13Z"/>
        <path d="M147.35,241.064l-2.58.13c0-1.86-1.52-3.38-3.38-3.38l.13-2.58c3.19.06,5.77,2.64,5.83,5.83Z"/>
        <path d="M141.39,237.814c1.86,0,3.38,1.52,3.38,3.38,0,1.87-1.52,3.39-3.38,3.39-1.87,0-3.39-1.52-3.39-3.39,0-1.86,1.52-3.38,3.39-3.38Z" fill="#fd4d71"/>
        <path d="M142.71,187.254c1.09,3.41,1.14,6.39.08,8.06-.63.99-1.63,1.54-3.05,1.68-3.03.3-7.21-4.92-9.51-8.85,4.31-2.94,10.52-1.47,12.48-.89Z" fill="#fed23d"/>
        <path d="M141.52,235.234l-.13,2.58c-1.87,0-3.39,1.52-3.39,3.38l-2.58.13c-.01-.04-.01-.09-.01-.13,0-3.29,2.68-5.97,5.98-5.97.04,0,.09,0,.13.01Z"/>
        <path d="M141.39,244.584l-.13,2.58c-3.2-.06-5.78-2.64-5.84-5.84l2.58-.13c0,1.87,1.52,3.39,3.39,3.39Z"/>
        <path d="M141.53,184.264c-4.24-.89-10.03-.83-13.95,2.69-.02.02-.04.03-.06.05-.74.67-1.4,1.48-1.98,2.42-1.32-1.72-2.89-3.3-4.73-4.39.83-2.23,3.57-7.78,10.19-8.36,5.68-.5,9.01,4.5,10.53,7.59Z" fill="#fed23d"/>
        <path d="M128.54,200.904c1.93,3.27,2.2,7.68-.71,11.07-1.53,1.79-2.86,2.53-3.96,2.19-2.88-.89-5.19-8.39-6.05-15.53,3.8-3.87,7.53-1.2,8.62-.26.73.64,1.38,1.4,1.92,2.24.04.11.1.2.18.29Z" fill="#fed23d"/>
        <path d="M118.3,186.654c3.42,1.41,5.98,5.07,7.65,8.27-3.56-1.82-7.47-.98-10.45,2.4l-.01.01c-6.63,7.55-3.34,20.19-1.39,25.8l-12.86-5c-.31-4.28-1.22-24.93,9.62-30.78,2.66-1.43,5.1-1.66,7.44-.7Z" fill="#fed23d"/>
        <path d="M98.07,288.964c.54.18.9.68.9,1.25-.01.56-.39,1.06-.93,1.22-19.08,5.73-14.82,22.09-14.63,22.78.16.6-.12,1.23-.67,1.51-.19.09-.39.13-.58.13-.39,0-.78-.17-1.03-.5-3.57-4.61-4.98-9.4-4.18-14.23,1.49-9.04,10.15-14.87,10.52-15.11.33-.22.74-.28,1.12-.15l9.48,3.1ZM93.68,290.254l-5.28-1.72c-1.78,1.33-7.79,6.27-8.89,13.03-.41,2.46-.12,4.94.86,7.39.21-5.69,2.53-14.07,13.31-18.7Z"/>
        <path d="M97.69,375.924c.09.36.02.74-.19,1.04l-8.58,12.51c-.22.32-.57.53-.96.56-.04,0-.07.01-.11.01-.35,0-.68-.14-.93-.39l-8.58-8.79c-.24-.25-.37-.58-.37-.93.01-.34.15-.67.4-.91l8.58-8.23c.4-.39,1.01-.47,1.5-.21l8.58,4.5c.33.17.57.48.66.84ZM87.67,386.704l6.86-10-6.46-3.39-6.96,6.68,6.56,6.71Z"/>
        <polygon points="94.53 376.704 87.67 386.704 81.11 379.994 88.07 373.314 94.53 376.704" fill="#fed23d"/>
        <path d="M88.4,288.534l5.28,1.72c-10.78,4.63-13.1,13.01-13.31,18.7-.98-2.45-1.27-4.93-.86-7.39,1.1-6.76,7.11-11.7,8.89-13.03Z" fill="#fff"/>
        <path d="M220.675,274.391c-21.77,2.17-41.49,7.08-55.6,13.89-3.49,1.68-6.59,3.45-9.31,5.3l10.76-22.51c10.96-11.51,23.5-21.43,37.13-29.54-.09,1.08-.13,2.1-.14,3.05-.09,13.85,7.95,23.41,17.16,29.81Z" opacity=".2"/>
        <path d="M204.195,236.601c-11.71,6.72-22.68,14.72-32.61,23.89l28.83-60.27c4.86-3,9.9-5.74,15.08-8.21-5.35,17.13-9.68,33.21-11.3,44.59Z" opacity=".2"/>
        <path d="M224.875,149.071c1.97-.8,3.96-1.55,5.95-2.27-4.54,12.59-9.37,26.49-13.68,39.99-4.63,2.1-9.18,4.42-13.63,6.95l21.36-44.67Z" opacity=".2"/>
        <path d="M245.465,107.681c-2.81,7.23-7.57,19.65-12.89,34.28-1.73.57-3.46,1.19-5.17,1.83l16.5-34.49c.35-.73.89-1.28,1.56-1.62Z" opacity=".2"/>
        <path d="M348.575,314.571c0,6.77-5.15,13.19-14.06,18.73-13.52-13.24-42.46-35-78.37-32.47-35.87,2.53-51.45,26.84-54.36,47.14-32.99-6.27-56.17-19.04-56.17-33.4,0-16.82,32.18-32.08,76.52-36.31l.1-.01c8.03-.77,16.39-1.16,24.86-1.16,55.01,0,101.48,17.17,101.48,37.48Z" opacity=".2"/>
      </g>
    </g>
  </g>
</svg>