<?xml version="1.0" encoding="UTF-8"?>
<svg xmlns="http://www.w3.org/2000/svg" version="1.1" viewBox="0 0 500 500">
  <!-- Generator: Adobe Illustrator 28.7.3, SVG Export Plug-In . SVG Version: 1.2.0 Build 164)  -->
  <g>
    <g id="object">
      <g>
        <path d="M442.889,43.863c.59.51.82,1.31.59,2.05l-31.22,102.81c-.092.261-.246.495-.39.72l-152.92,175.84c-.22.25-.5.43-.82.54-1.09,1.07-2.64,1.56-4.55,1.56-8.61,0-24.44-9.89-38.22-21.87-.61-.53-1.21-1.06-1.81-1.59-9.4,8.31-22.87,23.25-17.18,36.72,5.52,13.08,5.64,27.71.31,39.15-4.74,10.18-13.37,17.45-24.97,21.04-.21.06-.43.1-.65.1-.94,0-1.81-.61-2.1-1.55-.36-1.16.29-2.4,1.45-2.75,10.38-3.21,18.08-9.68,22.28-18.7,4.81-10.33,4.67-23.63-.37-35.58-6.72-15.91,7.72-32.35,17.95-41.45-2.4-2.26-4.67-4.54-6.77-6.79l-133.28,153.25c-.38.44-.92.71-1.5.75h-.15c-.53,0-1.05-.19-1.45-.53l-9.93-8.64c-.44-.39-.71-.93-.75-1.51-.04-.59.15-1.16.54-1.6l135.78-155.16c-4.782-7.596-5.617-11.846-3.03-15.59l152.91-175.84c2.476-.465,97.576-47.6,100.25-45.38ZM409.659,143.803l28.79-94.83-89.91,41.68c11.95,6.517,23.221,14.268,33.5,23.19,10.255,8.934,19.507,19.037,27.62,29.96ZM400.209,156.863l7.67-8.81c-16.438-22.957-38.279-41.962-63.3-55.05l-20.39,23.45c5.17,7.11,13.16,11.43,20.76,11.09,2.84-.13,5.6-.84,8.53-1.6,2.49-.64,5.06-1.3,7.72-1.59,15.14-1.6,28.21,9.52,34.45,21.25,1.83,3.43,3.33,7.14,4.56,11.26ZM381.069,178.873l16.52-19c-1.27-4.74-2.87-8.91-4.89-12.7-5.72-10.74-17.57-20.92-31.15-19.49-2.41.26-4.75.86-7.24,1.5-2.96.76-6.02,1.55-9.2,1.7-8.45.38-17.32-4.22-23.16-11.86l-14.55,16.73c.85,1.94,1.88,3.78,3.11,5.49,5.8,8.02,15.57,12.91,25.46,12.74,2.91-.04,5.93-.51,8.84-.96,4.92-.76,9.99-1.55,15.06-.47,8.5,1.81,15.9,8.94,19.32,18.62.85,2.42,1.46,4.98,1.88,7.7ZM356.759,206.823l21.36-24.56c-.33-3.64-1.01-6.93-2.08-9.98-3.04-8.58-9.5-14.89-16.87-16.46-4.46-.95-9.02-.25-13.85.5-3.02.47-6.15.95-9.29,1-10.97.18-21.8-5.23-28.23-14.12-1.06-1.48-1.99-3.05-2.8-4.69l-24.27,27.9c5.18,7.12,13.18,11.44,20.77,11.09,2.84-.12,5.59-.84,8.52-1.59,2.49-.64,5.07-1.3,7.72-1.58,15.13-1.62,28.22,9.5,34.46,21.23,1.82,3.43,3.33,7.15,4.56,11.26ZM337.619,228.833l16.52-18.99c-1.27-4.74-2.87-8.91-4.89-12.71-5.72-10.74-17.56-20.92-31.16-19.48-2.41.26-4.75.86-7.24,1.5-2.96.76-6.02,1.55-9.2,1.69-8.5.39-17.32-4.21-23.16-11.85l-14.54,16.72c.84,1.94,1.88,3.79,3.11,5.49,5.71,7.9,15.24,12.75,24.98,12.75h.48c2.91-.05,5.93-.52,8.84-.97,4.91-.76,9.99-1.54,15.06-.46,8.49,1.8,15.9,8.94,19.32,18.61.85,2.43,1.46,4.98,1.88,7.7ZM313.309,256.793l21.36-24.57c-.33-3.63-1.01-6.92-2.08-9.97-3.04-8.59-9.5-14.9-16.87-16.46-4.46-.96-9.02-.25-13.85.5-3.02.47-6.15.95-9.29,1-11,.15-21.8-5.23-28.23-14.13-1.07-1.48-1.99-3.05-2.8-4.69l-24.27,27.91c5.18,7.12,13.16,11.45,20.77,11.09,2.83-.13,5.59-.84,8.52-1.59,2.49-.64,5.07-1.31,7.72-1.59,15.12-1.61,28.2,9.51,34.45,21.24,1.83,3.43,3.33,7.14,4.57,11.26ZM294.169,278.803l16.52-19c-1.27-4.74-2.88-8.91-4.9-12.7-5.72-10.74-17.56-20.93-31.15-19.48-2.41.25-4.76.85-7.24,1.49-2.96.77-6.02,1.55-9.2,1.7-8.49.39-17.32-4.21-23.16-11.86l-14.54,16.73c.84,1.94,1.88,3.78,3.11,5.49,5.8,8.02,15.53,12.9,25.46,12.75,2.9-.05,5.91-.52,8.82-.97,4.92-.76,10-1.55,15.07-.47,8.5,1.81,15.91,8.94,19.33,18.62.85,2.42,1.46,4.98,1.88,7.7ZM269.859,306.753l21.36-24.56c-.34-3.64-1.01-6.93-2.09-9.98-3.03-8.58-9.49-14.89-16.86-16.46-4.47-.95-9.03-.25-13.86.5-3.03.47-6.15.96-9.29,1.01-11.01.18-21.79-5.24-28.22-14.14-1.07-1.47-1.99-3.04-2.8-4.68l-21.93,25.21c8.3,1.12,20.36,9.29,25.04,12.66.67-.16,1.34-.32,2-.49,2.46-.63,5.01-1.28,7.63-1.56,15.13-1.62,28.2,9.5,34.45,21.23,1.83,3.43,3.33,7.15,4.57,11.26ZM259.409,318.773l7.83-9c-1.27-4.74-2.88-8.91-4.9-12.71-5.72-10.73-17.58-20.92-31.15-19.48-2.16.23-4.29.75-6.5,1.31,2.7,2.07,5.41,4.28,8.07,6.6,12.72,11.06,24.21,24.49,26.65,33.28ZM255.749,322.953c2.01-3.37-6.74-18.13-25.56-34.5-3.59-3.12-7.24-6.03-10.85-8.65-15.45-11.23-24.44-13.32-26.71-11.98-.248.154-.389.281-.65.37-.75,1.45.06,5.35,4.71,12.13,3.88,5.66,9.53,12.03,16.22,18.31,3.42-2.85,5.96-4.6,6.34-4.86,1-.68,2.37-.43,3.05.58.69,1,.43,2.37-.58,3.05-.08.06-2.34,1.62-5.51,4.24.47.42.94.84,1.42,1.25,18.86,16.4,34.64,22.96,37.91,20.61.04-.19.11-.37.21-.55ZM68.349,442.813l132.18-151.98c-1.92-2.2-3.65-4.35-5.19-6.43L61.739,437.063l6.61,5.75Z"/>
        <path d="M432.699,202.173c12.26,4.34,10.11,22.34,10.01,23.11-.08.64-.63,1.13-1.29,1.13h-6.06c-.45,0-.87-.24-1.11-.62-.23-.39-.25-.87-.04-1.28,3.94-7.57-9.76-15.5-9.9-15.58-.4-.23-.65-.65-.66-1.11,0-.46.24-.89.63-1.13l7.32-4.4c.33-.2.73-.25,1.1-.12ZM440.229,223.823c.24-3.74.31-15.58-7.84-18.98l-4.97,2.99c3.75,2.53,11.73,8.88,9.84,15.99h2.97Z"/>
        <path d="M432.389,204.843c8.15,3.4,8.08,15.24,7.84,18.98h-2.97c1.89-7.11-6.09-13.46-9.84-15.99l4.97-2.99Z" fill="#6757dc"/>
        <path d="M438.444,48.97s-.01.03-.03.1l-5.63,18.53-23.13,76.2c-8.113-10.923-17.364-21.025-27.62-29.96-10.279-8.922-21.55-16.673-33.5-23.19l89.91-41.68Z" fill="#fd4d71"/>
        <path d="M407.874,148.05l-7.67,8.81c-1.23-4.12-2.73-7.83-4.56-11.26-2.38-4.47-5.76-8.86-9.86-12.48-6.65-5.88-15.22-9.76-24.59-8.77-2.66.29-5.23.95-7.72,1.59-2.93.76-5.69,1.47-8.53,1.6-7.6.34-15.59-3.98-20.76-11.09l20.39-23.45c25.021,13.088,46.862,32.093,63.3,55.05Z" fill="#fed23d"/>
        <path d="M403.239,304.563c.27.41.29.93.05,1.35-.52.92-12.36,21.52-26.82,21.52-.63,0-1.26-.04-1.9-.12-3.43-.43-6.05-1.86-7.82-4.23-1.65,1.07-4.93,2.79-8.87,2.79-2.02,0-4.22-.46-6.46-1.69-.81.14-2.53.38-4.79.38-6.8,0-18.29-2.2-22.98-16.11-.18-.55.02-1.15.49-1.48s1.1-.31,1.55.05c.11.08,10.67,8.35,19.57,4.97.12-3.16.93-5.65,1-5.87,0-.01.01-.01.01-.01,1.33-4.59,3.58-7.73,6.32-8.83,1.82-.74,3.79-.54,5.72.57,4.3,2.47,4.21,10.82,3.93,14.61.65-.19,1.31-.47,1.98-.85.3-4.03,1.33-7.48,1.6-8.33.4-4.81,3.41-9.6,8.98-10.96,3.39-.83,5.8-.34,7.18,1.47,2.83,3.73-.36,11.79-2.61,16.44,8.67-4.8,11.88-19.73,11.91-19.9.11-.51.52-.91,1.03-1.01.52-.1,1.04.12,1.33.56l9.6,14.68ZM400.629,305.303l-7.56-11.54c-1.67,5.69-6.36,17.89-16.14,20.17-4.4,1.02-8.06-.58-9.91-4.13-.5,3.57-.55,8.05,1.41,11.17,1.35,2.16,3.46,3.39,6.47,3.77,12.25,1.55,23.49-15.77,25.73-19.44ZM375.789,311.513c3.46-6.31,5.94-13.75,4.12-16.15-.69-.91-2.2-1.08-4.49-.52-4.34,1.06-6.69,4.8-7.02,8.59.01.11,0,.23-.02.34-.05,1,.03,2,.26,2.94.33,1.4,1.81,5.75,7.15,4.8ZM365.449,320.853c-.86-1.97-1.22-4.17-1.29-6.34-1.12.47-2.22.76-3.3.85-.03.01-.06.02-.09.02-.04,0-.08,0-.12-.01-5.07.37-9.64-2.86-12.49-5.97-.57,3.4-.76,9.42,4.14,12.31,5.76,3.41,11.18.48,13.15-.86ZM359.599,312.823c.42-4.53.07-11.2-2.58-12.72-1.25-.72-2.38-.86-3.46-.42-1.83.74-3.53,3.2-4.62,6.61,1.25,1.6,5.44,6.42,10.66,6.53ZM327.779,311.503c5.44,10.22,15.69,10.83,20.69,10.45-2-2.12-2.86-4.75-3.13-7.25-6.58,2.06-13.47-.84-17.56-3.2Z"/>
        <path d="M393.069,293.763l7.56,11.54c-2.24,3.67-13.48,20.99-25.73,19.44-3.01-.38-5.12-1.61-6.47-3.77-1.96-3.12-1.91-7.6-1.41-11.17,1.85,3.55,5.51,5.15,9.91,4.13,9.78-2.28,14.47-14.48,16.14-20.17Z" fill="#fed23d"/>
        <path d="M397.584,159.87l-16.52,19c-.42-2.72-1.03-5.28-1.88-7.7-2.09-5.91-5.66-10.87-10.07-14.25-2.8-2.16-5.94-3.67-9.25-4.37-5.07-1.08-10.14-.29-15.06.47-2.91.45-5.93.92-8.84.96-9.89.17-19.66-4.72-25.46-12.74-1.23-1.71-2.26-3.55-3.11-5.49l14.55-16.73c5.84,7.64,14.71,12.24,23.16,11.86,3.18-.15,6.24-.94,9.2-1.7,2.49-.64,4.83-1.24,7.24-1.5,8.42-.89,16.17,2.69,22.21,8.09,3.7,3.32,6.76,7.32,8.94,11.4,2.02,3.79,3.62,7.96,4.89,12.7Z" fill="#fd4d71"/>
        <path d="M379.909,295.363c1.82,2.4-.66,9.84-4.12,16.15-5.34.95-6.82-3.4-7.15-4.8-.23-.94-.31-1.94-.26-2.94.02-.11.03-.23.02-.34.33-3.79,2.68-7.53,7.02-8.59,2.29-.56,3.8-.39,4.49.52Z" fill="#fed23d"/>
        <path d="M378.114,182.26l-21.36,24.56c-1.23-4.11-2.74-7.83-4.56-11.26-1.14-2.14-2.51-4.27-4.08-6.29-7.01-9.08-18.01-16.26-30.38-14.94-2.65.28-5.23.94-7.72,1.58-2.93.75-5.68,1.47-8.52,1.59-7.59.35-15.59-3.97-20.77-11.09l24.27-27.9c.81,1.64,1.74,3.21,2.8,4.69,6.43,8.89,17.26,14.3,28.23,14.12,3.14-.05,6.27-.53,9.29-1,4.83-.75,9.39-1.45,13.85-.5,2.89.62,5.65,1.96,8.11,3.89,3.81,2.99,6.91,7.36,8.76,12.57,1.07,3.05,1.75,6.34,2.08,9.98Z" fill="#6757dc"/>
        <path d="M374.619,240.273c.09.36.02.74-.19,1.04l-8.58,12.51c-.22.32-.57.53-.96.56-.04,0-.08.01-.11.01-.35,0-.69-.14-.93-.4l-8.58-8.78c-.24-.25-.38-.58-.37-.93,0-.34.15-.67.4-.91l8.58-8.23c.4-.39,1.01-.47,1.5-.21l8.58,4.5c.33.17.57.48.66.84ZM364.599,251.053l6.86-10-6.46-3.39-6.96,6.67,6.56,6.72Z"/>
        <polygon points="371.459 241.053 364.599 251.053 358.039 244.333 364.999 237.663 371.459 241.053" fill="#fd4d71"/>
        <path d="M364.159,314.513c.07,2.17.43,4.37,1.29,6.34-1.97,1.34-7.39,4.27-13.15.86-4.9-2.89-4.71-8.91-4.14-12.31,2.85,3.11,7.42,6.34,12.49,5.97.04.01.08.01.12.01.03,0,.06-.01.09-.02,1.08-.09,2.18-.38,3.3-.85Z" fill="#fed23d"/>
        <path d="M357.019,300.103c2.65,1.52,3,8.19,2.58,12.72-5.22-.11-9.41-4.93-10.66-6.53,1.09-3.41,2.79-5.87,4.62-6.61,1.08-.44,2.21-.3,3.46.42Z" fill="#fed23d"/>
        <path d="M354.134,209.84l-16.52,18.99c-.42-2.72-1.03-5.27-1.88-7.7-.99-2.79-2.31-5.37-3.89-7.67-3.89-5.67-9.39-9.66-15.43-10.94-5.07-1.08-10.15-.3-15.06.46-2.91.45-5.93.92-8.84.97h-.479c-9.74,0-19.271-4.85-24.98-12.75-1.229-1.7-2.27-3.55-3.11-5.49l14.54-16.72c5.84,7.64,14.66,12.24,23.16,11.85,3.18-.14,6.24-.93,9.2-1.69,2.49-.64,4.83-1.24,7.24-1.5,11.5-1.22,21.74,5.87,28.08,14.59,1.17,1.59,2.2,3.23,3.08,4.89,2.02,3.8,3.62,7.97,4.89,12.71Z" fill="#fd4d71"/>
        <path d="M348.469,321.953c-5,.38-15.25-.23-20.69-10.45,4.09,2.36,10.98,5.26,17.56,3.2.27,2.5,1.13,5.13,3.13,7.25Z" fill="#fed23d"/>
        <path d="M334.664,232.22l-21.36,24.57c-1.24-4.12-2.74-7.83-4.57-11.26-.21-.39-.42-.78-.64-1.17-6.48-11.28-19.19-21.63-33.81-20.07-2.65.28-5.23.95-7.72,1.59-2.93.75-5.69,1.46-8.52,1.59-7.61.36-15.59-3.97-20.77-11.09l24.27-27.91c.81,1.64,1.73,3.21,2.8,4.69,6.43,8.9,17.23,14.28,28.23,14.13,3.14-.05,6.27-.53,9.29-1,4.83-.75,9.39-1.46,13.85-.5,5.57,1.18,10.62,5.07,14.07,10.61,1.11,1.79,2.06,3.75,2.8,5.85,1.07,3.05,1.75,6.34,2.08,9.97Z" fill="#fed23d"/>
        <path d="M310.684,259.8l-16.52,19c-.42-2.72-1.03-5.28-1.88-7.7-1-2.82-2.33-5.42-3.93-7.73-3.89-5.65-9.37-9.61-15.4-10.89-5.07-1.08-10.15-.29-15.07.47-2.91.45-5.92.92-8.82.97-9.93.15-19.66-4.73-25.46-12.75-1.23-1.71-2.27-3.55-3.11-5.49l14.54-16.73c5.84,7.65,14.67,12.25,23.16,11.86,3.18-.15,6.24-.93,9.2-1.7,2.48-.64,4.83-1.24,7.24-1.49,13.55-1.45,25.36,8.68,31.1,19.39.02.03.03.06.05.09,2.02,3.79,3.63,7.96,4.9,12.7Z" fill="#6757dc"/>
        <path d="M303.219,82.513c.53.18.9.68.89,1.25s-.38,1.06-.92,1.23c-19.02,5.7-14.82,22.08-14.64,22.78.16.59-.12,1.22-.67,1.5-.19.09-.38.13-.58.13-.39,0-.77-.17-1.02-.5-3.57-4.61-4.98-9.4-4.19-14.23,1.49-9.03,10.15-14.87,10.52-15.11.33-.22.74-.28,1.12-.15l9.49,3.1ZM298.829,83.803l-5.28-1.72c-1.78,1.33-7.79,6.27-8.9,13.03-.4,2.47-.11,4.94.87,7.39.2-5.69,2.52-14.07,13.31-18.7Z"/>
        <path d="M301.489,359.183c.13.44.02.91-.29,1.24l-11.51,12.51c-.25.27-.59.42-.95.42-.12,0-.24-.02-.36-.05-.47-.14-.83-.53-.92-1.01l-2.99-16.35c-.08-.44.07-.89.39-1.19.33-.3.79-.42,1.22-.3l14.5,3.84c.44.12.78.45.91.89ZM289.549,369.263l8.29-9.01-10.45-2.77,2.16,11.78Z"/>
        <path d="M293.549,82.083l5.28,1.72c-10.79,4.63-13.11,13.01-13.31,18.7-.98-2.45-1.27-4.92-.87-7.39,1.11-6.76,7.12-11.7,8.9-13.03Z" fill="#fff"/>
        <polygon points="297.839 360.253 289.549 369.263 287.389 357.483 297.839 360.253" fill="#6757dc"/>
        <path d="M291.214,282.19l-21.36,24.56c-1.24-4.11-2.74-7.83-4.57-11.26-2.68-5.03-6.61-9.94-11.42-13.78-6.41-5.14-14.39-8.38-23.03-7.45-2.62.28-5.17.93-7.63,1.56-.66.17-1.33.33-2,.49-4.68-3.37-16.74-11.54-25.04-12.66l21.93-25.21c.81,1.64,1.73,3.21,2.8,4.68,6.43,8.9,17.21,14.32,28.22,14.14,3.14-.05,6.26-.54,9.29-1.01,4.83-.75,9.39-1.45,13.86-.5,5.21,1.11,9.97,4.59,13.37,9.57,1.42,2.06,2.6,4.38,3.49,6.89,1.08,3.05,1.75,6.34,2.09,9.98Z" fill="#fed23d"/>
        <path d="M283.049,414.573c.58.2.95.78.87,1.39-.77,5.78-3.19,10.15-7.18,12.98-4.16,2.95-9.18,3.62-12.88,3.62-2.95,0-5.07-.42-5.26-.46-.39-.08-.72-.34-.89-.69l-4.47-8.93c-.25-.5-.15-1.12.26-1.51s1.02-.48,1.52-.21c17.43,9.51,26.12-5,26.49-5.62.31-.53.95-.77,1.54-.57ZM275.249,426.823c2.04-1.45,3.59-3.4,4.65-5.82-4.19,3.86-11.78,8.11-22.65,3.69l2.48,4.97c2.2.33,9.94,1.13,15.52-2.84Z"/>
        <path d="M279.899,421.003c-1.06,2.42-2.61,4.37-4.65,5.82-5.58,3.97-13.32,3.17-15.52,2.84l-2.48-4.97c10.87,4.42,18.46.17,22.65-3.69Z" fill="#fff"/>
        <path d="M267.234,309.77l-7.83,9c-2.19-7.91-11.71-19.57-22.86-29.88h-.01c-1.24-1.16-2.51-2.29-3.78-3.4-2.66-2.32-5.37-4.53-8.07-6.6,2.21-.56,4.34-1.08,6.5-1.31,7.08-.75,13.69,1.66,19.21,5.67,5.06,3.67,9.21,8.68,11.94,13.81,2.02,3.8,3.63,7.97,4.9,12.71Z" fill="#6757dc"/>
        <path d="M255.744,322.95c-.1.18-.17.36-.21.55-3.271,2.35-19.05-4.21-37.91-20.61-.48-.41-.95-.83-1.42-1.25,3.17-2.62,5.43-4.18,5.51-4.24,1.01-.68,1.27-2.05.58-3.05-.68-1.01-2.05-1.26-3.05-.58-.38.26-2.92,2.01-6.34,4.86-1.77-1.66-3.47-3.33-5.08-4.99-4.48-4.61-8.29-9.16-11.14-13.32-4.65-6.78-5.46-10.68-4.71-12.13.262-.089.401-.216.65-.37,2.27-1.34,11.26.75,26.71,11.98,3.61,2.62,7.26,5.53,10.85,8.65.86.74,1.69,1.49,2.5,2.23,17.09,15.46,24.98,29.05,23.06,32.27Z" fill="#fd4d71"/>
        <path d="M228.929,156.683c4.38,0,7.93,3.55,7.93,7.92s-3.55,7.93-7.93,7.93-7.92-3.55-7.92-7.93,3.55-7.92,7.92-7.92ZM234.269,164.603c0-2.94-2.39-5.33-5.34-5.33s-5.33,2.39-5.33,5.33,2.39,5.34,5.33,5.34,5.34-2.39,5.34-5.34Z"/>
        <path d="M228.929,159.273c2.95,0,5.34,2.39,5.34,5.33s-2.39,5.34-5.34,5.34-5.33-2.39-5.33-5.34,2.39-5.33,5.33-5.33Z" fill="#fed23d"/>
        <path d="M217.089,417.173c.8.21,1.28,1.03,1.07,1.83-.18.68-.78,1.12-1.45,1.12-.13,0-.25-.01-.38-.04l-7.06-1.84c-.8-.21-1.28-1.02-1.07-1.83.21-.8,1.03-1.28,1.83-1.07l7.06,1.83Z"/>
        <path d="M199.849,70.463c12.26,4.34,10.11,22.33,10.01,23.1-.08.65-.63,1.13-1.29,1.13h-6.06c-.45,0-.87-.24-1.1-.62-.24-.39-.26-.87-.05-1.27,3.94-7.59-9.76-15.51-9.9-15.59-.4-.23-.65-.65-.66-1.11,0-.46.24-.89.63-1.13l7.32-4.4c.33-.2.73-.24,1.1-.11ZM207.379,92.103c.24-3.74.31-15.58-7.84-18.98l-4.97,2.99c3.75,2.53,11.73,8.88,9.84,15.99h2.97Z"/>
        <path d="M199.539,73.123c8.15,3.4,8.08,15.24,7.84,18.98h-2.97c1.89-7.11-6.09-13.46-9.84-15.99l4.97-2.99Z" fill="#6757dc"/>
        <path d="M200.839,412.743c.79.27,1.21,1.12.95,1.9-.21.63-.8,1.03-1.42,1.03-.16,0-.32-.03-.48-.08l-22.28-7.43c-.79-.26-1.21-1.11-.95-1.9.26-.78,1.11-1.21,1.9-.94l22.28,7.42Z"/>
        <path d="M200.529,290.833l-132.18,151.98-6.61-5.75,133.6-152.66c1.54,2.08,3.27,4.23,5.19,6.43Z" fill="#fff"/>
        <path d="M194.919,422.303c.68.48.84,1.42.36,2.09-.3.42-.76.64-1.23.64-.3,0-.6-.09-.87-.28l-9.48-6.74c-.68-.48-.83-1.41-.35-2.09.48-.67,1.41-.83,2.09-.35l9.48,6.73Z"/>
        <path d="M185.879,432.843c.4.72.15,1.64-.58,2.04-.23.13-.48.2-.73.2-.52,0-1.03-.28-1.31-.77l-11.52-20.47c-.41-.72-.15-1.63.57-2.04s1.64-.15,2.04.57l11.53,20.47Z"/>
        <path d="M168.079,367.143c.82.02,1.48.71,1.45,1.54l-.64,23.48c-.03.81-.69,1.46-1.5,1.46h-.04c-.83-.02-1.49-.71-1.46-1.54l.65-23.48c.02-.83.76-1.48,1.54-1.46Z"/>
        <path d="M165.369,412.983c.81.18,1.32.99,1.13,1.8l-5.21,22.9c-.16.7-.78,1.17-1.46,1.17-.11,0-.22-.01-.33-.04-.81-.18-1.32-.99-1.13-1.8l5.21-22.9c.18-.81.98-1.32,1.79-1.13Z"/>
        <path d="M160.929,394.013c.54.63.47,1.58-.16,2.12-.28.24-.63.36-.97.36-.43,0-.85-.18-1.14-.52l-15.3-17.84c-.53-.62-.46-1.57.17-2.11s1.57-.47,2.11.16l15.29,17.83Z"/>
        <path d="M159.439,409.193c.47.68.31,1.62-.37,2.09l-19.24,13.47c-.27.19-.57.28-.86.28-.48,0-.94-.23-1.23-.64-.48-.68-.31-1.62.37-2.09l19.24-13.47c.68-.48,1.61-.31,2.09.36Z"/>
        <path d="M158.229,446.033c.82.14,1.38.91,1.25,1.72l-1.17,7.2c-.11.74-.75,1.26-1.47,1.26-.08,0-.16,0-.25-.02-.81-.13-1.37-.9-1.24-1.72l1.16-7.19c.14-.82.91-1.38,1.72-1.25Z"/>
        <path d="M158.119,243.263c.01.04.01.09.01.13,0,3.3-2.68,5.98-5.98,5.98-.04,0-.09,0-.13-.01l.13-2.58c1.86,0,3.38-1.52,3.38-3.39l2.59-.13Z"/>
        <path d="M158.119,243.263l-2.59.13c0-1.86-1.52-3.38-3.38-3.38l.13-2.58c3.2.06,5.78,2.64,5.84,5.83Z"/>
        <path d="M157.589,162.603c1.053.696.425,2.447-.82,2.34-.14,0-13.53-.58-18.81,7.34,4.295,6.443,6.733,18.514-2.89,19.13-4.75,0-9.28-6.49-11.19-9.63-.42.54-.79,1.15-1.12,1.85,2.11,3.45,3.28,6.85,3.55,7.7,2.48,4.15,2.82,9.79-.92,14.15-2.27,2.64-4.53,3.65-6.7,2.97-4.47-1.38-6.57-9.79-7.44-14.88-4.26,8.95,1.82,22.96,1.89,23.12.21.48.11,1.04-.25,1.42-.362.379-.93.503-1.41.31,0,0-16.35-6.35-16.35-6.35-1.963-.476-3.209-28.072,10.079-35.19,3.041-1.64,6.001-2,8.821-1.11,1.09-2.77,4.34-8.9,11.83-9.82,2.31-2.34,15.88-14.78,31.73-3.35ZM136.319,170.133c4.15-5.51,11.44-7.16,16.14-7.62-10.38-5.14-19.06.32-22.91,3.55,2.86.56,5.09,2.19,6.77,4.07ZM138.379,187.123c1.05-1.66,1.01-4.65-.09-8.06-1.96-.57-8.17-2.05-12.48.9,2.996,4.892,8.377,12.182,12.57,7.16ZM123.169,178.753c3.93-3.51,9.71-3.56,13.94-2.67-5.088-11.452-17.278-8.908-20.73.76,1.85,1.09,3.42,2.67,4.74,4.4.58-.94,1.25-1.75,1.99-2.42.02-.03.04-.04.06-.07ZM123.419,203.793c3.681-4.352,2.352-10.261-1.4-13.61-1.08-.94-4.81-3.61-8.61.26,1.171,8.15,4.006,20.625,10.01,13.35ZM121.539,186.743c-2.735-5.6-8.458-11.553-15.1-7.57-10.84,5.84-9.93,26.49-9.61,30.78l12.86,4.99c-1.08-3.09-2.56-8.33-2.56-13.67-.561-7.708,5.688-18.86,14.41-14.53Z"/>
        <path d="M156.279,400.733c.83.1,1.41.85,1.3,1.67-.09.76-.74,1.32-1.48,1.32-.06,0-.13-.01-.19-.02l-23.31-2.94c-.82-.1-1.4-.85-1.3-1.67.11-.83.85-1.41,1.68-1.3l23.3,2.94Z"/>
        <path d="M156.379,421.243c.72.42.97,1.34.55,2.05l-5.81,10.08c-.28.48-.78.75-1.3.75-.25,0-.51-.06-.75-.2-.72-.42-.96-1.33-.55-2.05l5.82-10.08c.41-.71,1.33-.96,2.04-.55Z"/>
        <path d="M152.149,240.013c1.86,0,3.38,1.52,3.38,3.38,0,1.87-1.52,3.39-3.38,3.39-1.87,0-3.39-1.52-3.39-3.39,0-1.86,1.52-3.38,3.39-3.38Z" fill="#fff"/>
        <path d="M152.279,237.433l-.13,2.58c-1.87,0-3.39,1.52-3.39,3.38l-2.58.13c-.01-.04-.01-.09-.01-.13,0-3.29,2.68-5.97,5.98-5.97.04,0,.09,0,.13.01Z"/>
        <path d="M152.149,246.783l-.13,2.58c-3.2-.06-5.78-2.64-5.84-5.84l2.58-.13c0,1.87,1.52,3.39,3.39,3.39Z"/>
        <path d="M147.809,392.923c.75.34,1.08,1.23.74,1.98-.25.55-.8.88-1.37.88-.21,0-.42-.04-.62-.14l-10.58-4.84c-.75-.34-1.08-1.23-.74-1.98.35-.76,1.23-1.09,1.99-.74l10.58,4.84Z"/>
        <path d="M152.459,162.513c-4.7.46-11.99,2.11-16.14,7.62-1.68-1.88-3.91-3.51-6.77-4.07,3.85-3.23,12.53-8.69,22.91-3.55Z" fill="#fd4d71"/>
        <path d="M138.289,179.063c1.327,4.758,1.719,9.038-2.97,9.74-3.07.29-7.21-4.92-9.51-8.84,4.31-2.95,10.52-1.47,12.48-.9Z" fill="#fd4d71"/>
        <path d="M137.909,410.163c.08.82-.51,1.56-1.34,1.65l-7.25.75c-.05.01-.11.01-.16.01-.76,0-1.41-.57-1.49-1.35-.08-.82.52-1.56,1.34-1.64l7.25-.76c.83-.08,1.56.52,1.65,1.34Z"/>
        <path d="M137.109,176.083c-4.23-.89-10.01-.84-13.94,2.67-.02.03-.04.04-.06.07-.74.67-1.41,1.48-1.99,2.42-1.32-1.73-2.89-3.31-4.74-4.4,3.471-9.699,15.658-12.185,20.73-.76Z" fill="#fd4d71"/>
        <path d="M124.119,192.723c1.94,3.27,2.21,7.68-.7,11.07-1.54,1.79-2.87,2.52-3.96,2.18-2.88-.89-5.19-8.38-6.05-15.53,4.837-4.581,9.004-.473,10.71,2.28Z" fill="#fd4d71"/>
        <path d="M122.269,282.543c.54.18.9.68.9,1.25-.01.57-.38,1.06-.93,1.23-19.08,5.72-14.82,22.08-14.63,22.78.16.59-.12,1.22-.67,1.5-.19.09-.38.14-.58.14-.39,0-.77-.18-1.03-.51-3.57-4.61-4.97-9.39-4.18-14.22,1.49-9.04,10.15-14.88,10.52-15.12.33-.22.74-.27,1.12-.15l9.48,3.1ZM117.879,283.843l-5.27-1.73c-1.78,1.33-7.79,6.27-8.9,13.03-.4,2.47-.11,4.94.86,7.4.21-5.7,2.53-14.08,13.31-18.7Z"/>
        <path d="M113.889,178.473c3.41,1.4,5.97,5.06,7.65,8.27-8.644-4.359-15.022,6.873-14.41,14.53,0,5.34,1.48,10.58,2.56,13.67l-12.86-4.99c-.32-4.29-1.23-24.94,9.61-30.78,2.66-1.44,5.1-1.67,7.45-.7Z" fill="#fd4d71"/>
        <path d="M112.609,282.113l5.27,1.73c-10.78,4.62-13.1,13-13.31,18.7-.97-2.46-1.26-4.93-.86-7.4,1.11-6.76,7.12-11.7,8.9-13.03Z" fill="#fed23d"/>
        <path d="M81.199,364.323c.09.36.02.74-.19,1.05l-8.58,12.51c-.22.32-.57.52-.96.56h-.11c-.35,0-.68-.14-.93-.39l-8.58-8.78c-.24-.25-.37-.58-.37-.93.01-.35.15-.68.4-.92l8.58-8.22c.41-.39,1.01-.48,1.5-.22l8.58,4.51c.33.17.57.47.66.83ZM71.179,375.113l6.86-10-6.46-3.39-6.96,6.67,6.56,6.72Z"/>
        <polygon points="78.039 365.113 71.179 375.113 64.619 368.393 71.579 361.723 78.039 365.113" fill="#fd4d71"/>
        <path d="M262.334,297.06c2.02,3.8,3.63,7.97,4.9,12.71l-7.83,9c-2.19-7.91-11.71-19.57-22.86-29.88,3.87-1.43,8.46-3.27,13.85-5.64,5.06,3.67,9.21,8.68,11.94,13.81Z" opacity=".2"/>
        <path d="M289.124,272.21c1.08,3.05,1.75,6.34,2.09,9.98l-21.36,24.56c-1.24-4.11-2.74-7.83-4.57-11.26-2.68-5.03-6.61-9.94-11.42-13.78,7.3-3.3,15.92-7.52,26.03-12.88,1.9-1.01,3.81-2.18,5.74-3.51,1.42,2.06,2.6,4.38,3.49,6.89Z" opacity=".2"/>
        <path d="M305.784,247.1c2.02,3.79,3.63,7.96,4.9,12.7l-16.52,19c-.42-2.72-1.03-5.28-1.88-7.7-1-2.82-2.33-5.42-3.93-7.73,5.73-4.33,11.55-9.92,17.38-16.36.02.03.03.06.05.09Z" opacity=".2"/>
        <path d="M332.584,222.25c1.07,3.05,1.75,6.34,2.08,9.97l-21.36,24.57c-1.24-4.12-2.74-7.83-4.57-11.26-.21-.39-.42-.78-.64-1.17,7.27-8.31,14.54-17.88,21.69-27.96,1.11,1.79,2.06,3.75,2.8,5.85Z" opacity=".2"/>
        <path d="M349.244,197.13c2.02,3.8,3.62,7.97,4.89,12.71l-16.52,18.99c-.42-2.72-1.03-5.27-1.88-7.7-.99-2.79-2.31-5.37-3.89-7.67,4.86-6.95,9.65-14.11,14.32-21.22,1.17,1.59,2.2,3.23,3.08,4.89Z" opacity=".2"/>
        <path d="M376.034,172.28c1.07,3.05,1.75,6.34,2.08,9.98l-21.36,24.56c-1.23-4.11-2.74-7.83-4.56-11.26-1.14-2.14-2.51-4.27-4.08-6.29,6.7-10.25,13.13-20.34,19.16-29.56,3.81,2.99,6.91,7.36,8.76,12.57Z" opacity=".2"/>
        <path d="M392.694,147.17c2.02,3.79,3.62,7.96,4.89,12.7l-16.52,19c-.42-2.72-1.03-5.28-1.88-7.7-2.09-5.91-5.66-10.87-10.07-14.25,5.24-7.96,10.15-15.18,14.64-21.15,3.7,3.32,6.76,7.32,8.94,11.4Z" opacity=".2"/>
        <path d="M406.644,146.37c.41.56.82,1.11,1.23,1.68l-7.67,8.81c-1.23-4.12-2.73-7.83-4.56-11.26-2.38-4.47-5.76-8.86-9.86-12.48,1.67-2.12,3.26-4.06,4.79-5.77,5.766,5.973,11.164,12.318,16.07,19.02Z" opacity=".2"/>
        <path d="M432.784,67.6l-23.13,76.2c-5.054-6.774-10.492-13.254-16.39-19.31,2.72-2.73,5.19-4.61,7.36-5.47,14.28-5.65,25.74-32.64,32.16-51.42Z" opacity=".2"/>
        <path d="M255.744,322.95c-.1.18-.17.36-.21.55-3.271,2.35-19.05-4.21-37.91-20.61-.48-.41-.95-.83-1.42-1.25,3.17-2.62,5.43-4.18,5.51-4.24,1.01-.68,1.27-2.05.58-3.05-.68-1.01-2.05-1.26-3.05-.58-.38.26-2.92,2.01-6.34,4.86-1.77-1.66-3.47-3.33-5.08-4.99-1.82-4.44-2.03-7.96-.26-9.91,3.44-3.79,13.41-.72,25.12,6.95,17.09,15.46,24.98,29.05,23.06,32.27Z" opacity=".2"/>
      </g>
    </g>
  </g>
</svg>