<?xml version="1.0" encoding="UTF-8"?>
<svg xmlns="http://www.w3.org/2000/svg" version="1.1" viewBox="0 0 500 500">
  <!-- Generator: Adobe Illustrator 28.7.3, SVG Export Plug-In . SVG Version: 1.2.0 Build 164)  -->
  <g>
    <g id="object">
      <g>
        <path d="M475.594,417.604c.87.61,1.07,1.81.46,2.68-.38.53-.97.81-1.57.81-.39,0-.77-.12-1.11-.35-5.15-3.64-16.77-1.55-21.49-.26-.7.82-1.5,1.73-2.39,2.72,2.74,2.26,8.34,6.83,14.89,8.02,1.04.18,1.74,1.18,1.55,2.23-.17.93-.98,1.58-1.89,1.58-.12,0-.23-.01-.35-.03-7.59-1.37-13.99-6.65-16.73-8.9-.02-.02-.05-.05-.08-.07-1.02,1.08-2.11,2.2-3.28,3.36,4.23,2.24,12.31,7.1,14.28,12.37.38,1-.13,2.1-1.12,2.48-.22.08-.45.12-.68.12-.77,0-1.51-.48-1.8-1.25-1.53-4.1-9.49-8.82-13.62-10.91-1.6,1.49-3.31,3.01-5.1,4.5.91,2.01,3.73,6.44,11.58,9.82.97.42,1.42,1.56,1,2.53-.31.73-1.02,1.16-1.76,1.16-.26,0-.52-.05-.76-.16-7.98-3.44-11.57-8.04-13.12-10.9-1.18.91-2.39,1.8-3.63,2.67,4.48,3.21,13.92,10.63,16.07,17.66.31,1.01-.26,2.09-1.28,2.4-.19.05-.37.08-.56.08-.82,0-1.58-.53-1.84-1.36-1.91-6.25-12.2-14.1-16.47-16.93-3.97-.44-28.84-4.1-41.85-27.18-7.9-14.02-18.72-16.91-32.41-20.56-8.82-2.36-18.82-5.02-29.76-11.12-13.26-7.39-18.44-14.14-23.45-20.68-5.66-7.37-11.01-14.34-28.06-22.2-8.48-3.91-16.2-7.12-23.66-10.22-20.66-8.59-37-15.38-49.39-29.39l-113.06-59.46c-.01,0-.02,0-.02-.01l-14.24-7.48c-9.89-5.21-13.71-17.49-8.51-27.38l2.73-5.19c2.07-3.93,6.95-5.45,10.89-3.38l76.07,40c.02.01.04.02.07.03l20.62,10.85c.03.01.06.03.09.04l15.23,8.01c3.6,1.9,6.65,4.69,8.82,8.07,4.97,7.74,15.51,22.17,30.37,31.86,7.93,5.17,20.71,10.06,34.24,15.23,22.59,8.65,45.96,17.59,54.28,30.23,12.08,18.34,29.01,27.46,53.28,28.69,16.13.82,24.05,9.32,31.72,17.53,3.87,4.14,7.87,8.43,12.9,11.61,14.59,9.22,41.9,11.69,42.17,11.71.7.06,1.31.5,1.59,1.14.19.42.2.89.07,1.32,5.75-1.05,14.81-1.86,20.07,1.86ZM424.984,439.824c11.41-7.57,20.91-18.18,25.01-23.09-8.09-1-28.05-4.14-40.36-11.91-5.44-3.45-9.62-7.92-13.65-12.24-7.47-8-14.53-15.57-29.11-16.31-25.25-1.28-43.66-11.23-56.29-30.42-7.64-11.61-31.45-20.71-52.45-28.75-13.72-5.25-26.68-10.21-34.96-15.6-15.46-10.08-26.37-25.01-31.5-33.01-.42-.65-.88-1.27-1.38-1.87-3,1.56-5.33,4.38-6.22,7.65-1.01,3.72-.14,7.89,2.27,10.88.52.65.42,1.59-.22,2.11-.28.23-.61.34-.94.34-.44,0-.88-.19-1.17-.56-3.01-3.74-4.1-8.93-2.84-13.56,1.04-3.78,3.62-7.06,6.97-9.07-1.17-1.02-2.46-1.92-3.85-2.66l-13.83-7.27c-2.88,3.93-4.86,8.44-5.75,13.13-.87,4.6-.71,9.44.46,14.04l33.15,17.43c.21.11.39.26.55.44,11.82,13.51,27.88,20.19,48.21,28.64,7.49,3.11,15.24,6.33,23.79,10.27,17.92,8.27,23.8,15.94,29.5,23.36,4.99,6.51,9.71,12.66,22.27,19.66,10.53,5.87,20.28,8.47,28.88,10.76,13.99,3.74,26.07,6.96,34.77,22.4,11.72,20.79,34.59,24.68,38.69,25.21ZM167.024,252.674l-17.07-8.97c-2.74,5-4.23,10.56-4.3,16.19-.04,4.27.77,8.65,2.33,12.72l12.78,6.72c-.65-4.13-.6-8.36.17-12.43.96-5.07,3.05-9.95,6.09-14.23ZM146.544,241.914l-17.08-8.99c-1.85,4.78-2.87,9.75-3.03,14.82-.16,4.92.5,9.82,1.94,14.56l14.75,7.76c-.89-3.35-1.34-6.81-1.31-10.21.07-6.24,1.71-12.4,4.73-17.94ZM126.044,231.134l-18.56-9.76c-1.71,5.69-2.36,11.7-1.87,17.53.37,4.44,1.4,8.82,3.05,13.04l15.09,7.93c-.91-4.02-1.3-8.13-1.17-12.25.19-5.65,1.36-11.19,3.46-16.49ZM104.034,219.554l-16.73-8.79c-2.34,6.29-3.42,13.05-3.1,19.68.16,3.17.64,6.32,1.41,9.38l18.09,9.51c-.99-3.31-1.64-6.69-1.92-10.1-.56-6.56.23-13.32,2.25-19.68ZM83.874,208.964l-11.66-6.14c-.63-.33-1.3-.48-1.96-.48-1.52,0-2.98.82-3.74,2.25l-2.73,5.19c-4.21,8.02-1.12,17.97,6.9,22.18l10.5,5.52c-.42-2.26-.7-4.55-.82-6.85-.35-7.31.87-14.76,3.51-21.67Z"/>
        <path d="M449.99,416.731c-4.1,4.91-13.6,15.52-25.01,23.09-1.75-.22-6.89-1.06-13.14-3.55-3.88-1.55-8.19-3.74-12.36-6.82-4.87-3.6-9.56-8.41-13.19-14.84-1.15-2.05-2.37-3.88-3.65-5.53-8.29-10.77-18.99-13.63-31.12-16.87-5.15-1.37-10.71-2.85-16.61-5.09-3.94-1.49-8.04-3.32-12.27-5.67-12.56-7-17.28-13.15-22.27-19.66-1.21-1.57-2.43-3.16-3.76-4.76-2.39-2.85-5.16-5.75-8.96-8.71-2.38-1.86-5.17-3.75-8.52-5.66-2.44-1.4-5.17-2.81-8.26-4.23-7.42-3.42-14.23-6.29-20.8-9.03-1-.41-2-.83-2.99-1.24-6.28-2.6-12.14-5.04-17.6-7.57-12.24-5.65-22.44-11.73-30.61-21.07-.16-.18-.34-.33-.55-.44l-33.15-17.43c-.83-3.25-1.15-6.63-.95-9.95.07-1.38.23-2.74.49-4.09.89-4.69,2.87-9.2,5.75-13.13l13.83,7.27c1.39.74,2.68,1.64,3.85,2.66-3.19,1.92-5.69,4.99-6.81,8.55-.06.17-.11.34-.16.52-1.26,4.63-.17,9.82,2.84,13.56.29.37.73.56,1.17.56.33,0,.66-.11.94-.34.64-.52.74-1.46.22-2.11-2.41-2.99-3.28-7.16-2.27-10.88.89-3.27,3.22-6.09,6.22-7.65.5.6.96,1.22,1.38,1.87,5.13,8,16.04,22.93,31.5,33.01.2.13.4.26.61.39,4.68,2.95,10.74,5.78,17.54,8.6,5.26,2.19,10.97,4.38,16.81,6.61,1.6.61,3.22,1.23,4.85,1.86,12.23,4.71,24.91,9.81,34.45,15.56,3.44,2.08,6.48,4.23,8.93,6.49,1.7,1.57,3.13,3.18,4.22,4.84.89,1.36,1.82,2.67,2.77,3.93,11.85,15.76,28.25,24.38,49.92,26.24,1.18.11,2.38.19,3.6.25,12.36.63,19.31,6.16,25.7,12.71,1.15,1.17,2.27,2.38,3.41,3.6,4.03,4.32,8.21,8.79,13.65,12.24.87.55,1.77,1.07,2.71,1.57,3.19,1.71,6.74,3.17,10.39,4.4,10.46,3.54,21.68,5.25,27.26,5.94Z" fill="#fed23d"/>
        <path d="M404.424,284.994c4.37,0,7.93,3.56,7.93,7.93s-3.56,7.93-7.93,7.93-7.92-3.56-7.92-7.93,3.55-7.93,7.92-7.93ZM409.764,292.924c0-2.94-2.4-5.33-5.34-5.33s-5.33,2.39-5.33,5.33,2.39,5.33,5.33,5.33,5.34-2.39,5.34-5.33Z"/>
        <path d="M404.424,287.594c2.94,0,5.34,2.39,5.34,5.33s-2.4,5.33-5.34,5.33-5.33-2.39-5.33-5.33,2.39-5.33,5.33-5.33Z" fill="#6757dc"/>
        <path d="M350.274,434.494c.13.43.02.9-.29,1.24l-11.51,12.51c-.25.27-.6.42-.95.42-.12,0-.24-.02-.36-.05-.48-.14-.83-.53-.92-1.02l-2.99-16.35c-.09-.43.06-.88.39-1.18.33-.31.79-.42,1.21-.31l14.51,3.85c.44.11.78.45.91.89ZM338.324,444.574l8.29-9.02-10.44-2.76,2.15,11.78Z"/>
        <polygon points="346.614 435.554 338.324 444.574 336.174 432.794 346.614 435.554" fill="#4bbd8c"/>
        <path d="M336.704,298.524c1.274.491-11.695,13.275-11.79,13.75-.682.785-2.079.384-2.24-.64,0,0-2.99-16.35-2.99-16.35-.192-.913.72-1.749,1.61-1.49.572.443,15.829,3.479,15.41,4.73ZM324.764,308.604l8.29-9.01-10.45-2.77,2.16,11.78Z"/>
        <polygon points="333.054 299.594 324.764 308.604 322.604 296.824 333.054 299.594" fill="#fed23d"/>
        <path d="M296.624,168.244c.54.18.9.68.9,1.25-.01.57-.38,1.06-.93,1.23-19.08,5.72-14.82,22.08-14.63,22.77.16.6-.12,1.23-.67,1.51-.19.09-.38.14-.58.14-.39,0-.77-.18-1.03-.51-3.57-4.61-4.97-9.4-4.18-14.22,1.49-9.04,10.15-14.88,10.52-15.12.33-.22.74-.27,1.12-.15l9.48,3.1ZM292.234,169.544l-5.27-1.73c-1.78,1.33-7.79,6.27-8.9,13.03-.4,2.47-.11,4.94.86,7.4.21-5.7,2.53-14.08,13.31-18.7Z"/>
        <path d="M286.964,167.814l5.27,1.73c-10.78,4.62-13.1,13-13.31,18.7-.97-2.46-1.26-4.93-.86-7.4,1.11-6.76,7.12-11.7,8.9-13.03Z" fill="#fed23d"/>
        <path d="M278.414,406.144c.41.32.6.86.46,1.37l-4.55,16.94c-.12.47-.5.83-.97.93-.5.11-6.17,1.31-12.98,1.31-7.93,0-17.41-1.62-22.12-8.46-1.96-2.84-2.64-5.75-2.05-8.65-2.87-.79-9.33-3.35-11.04-10.69-2.58-2.06-16.42-14.2-6.77-31.19.29-.5.86-.76,1.43-.63.56.13.96.62,1,1.19,0,.14.88,13.52,9.32,17.91,1.22-1.01,2.43-1.78,3.36-2.3.94-.53,1.59-.82,1.7-.87,4.31-2.06,8.15-2.48,10.8-1.17,1.76.86,2.93,2.47,3.39,4.64,1.02,4.86-5.26,10.35-8.29,12.67.58.36,1.24.67,1.96.91,3.21-2.47,6.47-3.99,7.28-4.36,3.86-2.91,9.43-3.85,14.16-.6,2.88,1.97,4.12,4.1,3.68,6.33-.89,4.6-9.03,7.59-13.99,9,9.35,3.27,22.63-4.28,22.78-4.37.45-.26,1.02-.23,1.44.09ZM272.034,423.004l3.57-13.33c-5.36,2.54-17.57,7.18-25.79,1.41l-.01-.01c-3.69-2.6-4.94-6.39-3.52-10.14-3,2.01-6.36,4.96-7.39,8.5-.71,2.44-.22,4.84,1.5,7.33,6.99,10.16,27.42,7.01,31.64,6.24ZM265.634,400.934c.22-1.13-.65-2.37-2.6-3.71-3.68-2.52-8.03-1.78-11.08.5-.08.08-.17.15-.27.21-.78.63-1.47,1.35-2.02,2.15-.82,1.18-3.07,5.18,1.19,8.54,7.01-1.63,14.21-4.74,14.78-7.69ZM239.084,397.424c3.66-2.72,8.4-7.42,7.77-10.41-.3-1.41-.95-2.34-2-2.86-1.77-.87-4.73-.5-8,.96-.36,2-1.16,8.34,2.23,12.31ZM240.864,401.944c-1.02-.48-1.91-1.07-2.67-1.75-.09-.07-.18-.15-.26-.24-3.7-3.54-4.34-9.13-3.92-13.35-2.91,1.84-7.53,5.71-6.42,11.29,1.3,6.57,7.09,8.66,9.41,9.24.89-1.95,2.29-3.69,3.86-5.19ZM224.864,395.204c.25-2.9,1.63-5.3,3.32-7.17-5.92-3.53-8.35-10.6-9.32-15.22-3.99,10.87,2.38,18.92,6,22.39Z"/>
        <path d="M275.604,409.674l-3.57,13.33c-4.22.77-24.65,3.92-31.64-6.24-1.72-2.49-2.21-4.89-1.5-7.33,1.03-3.54,4.39-6.49,7.39-8.5-1.42,3.75-.17,7.54,3.52,10.14l.01.01c8.22,5.77,20.43,1.13,25.79-1.41Z" fill="#6757dc"/>
        <path d="M262.654,42.994c12.26,4.34,10.11,22.34,10.01,23.1-.02,2.12-6.243.769-7.35,1.13-.939.032-1.612-1.068-1.15-1.89,4.101-8.734-11.105-15.191-10.56-16.7-.01-.46.23-.89.63-1.13.695-.217,7.723-5.2,8.42-4.51ZM270.184,64.634c.23-3.73.3-15.58-7.84-18.98l-4.97,2.99c3.75,2.53,11.73,8.88,9.84,15.99h2.97Z"/>
        <path d="M262.344,45.654c8.14,3.4,8.07,15.25,7.84,18.98h-2.97c1.89-7.11-6.09-13.46-9.84-15.99l4.97-2.99Z" fill="#6757dc"/>
        <path d="M263.034,397.224c1.95,1.34,2.82,2.58,2.6,3.71-.57,2.95-7.77,6.06-14.78,7.69-4.26-3.36-2.01-7.36-1.19-8.54.55-.8,1.24-1.52,2.02-2.15.1-.06.19-.13.27-.21,3.05-2.28,7.4-3.02,11.08-.5Z" fill="#6757dc"/>
        <path d="M249.284,256.764c12.26,4.34,10.11,22.34,10.01,23.1-.08.65-.63,1.13-1.29,1.13h-6.05c-.46,0-.88-.23-1.11-.62-.24-.39-.26-.87-.05-1.27,3.94-7.59-9.76-15.51-9.9-15.58-.4-.23-.65-.66-.66-1.12,0-.46.24-.89.63-1.12l7.32-4.41c.33-.2.73-.24,1.1-.11ZM256.814,278.404c.24-3.73.31-15.58-7.84-18.98l-4.97,2.99c3.75,2.54,11.73,8.89,9.84,15.99h2.97Z"/>
        <path d="M248.974,259.424c8.15,3.4,8.08,15.25,7.84,18.98h-2.97c1.89-7.1-6.09-13.45-9.84-15.99l4.97-2.99Z" fill="#4bbd8c"/>
        <path d="M246.854,387.014c.63,2.99-4.11,7.69-7.77,10.41-3.39-3.97-2.59-10.31-2.23-12.31,3.27-1.46,6.23-1.83,8-.96,1.05.52,1.7,1.45,2,2.86Z" fill="#6757dc"/>
        <path d="M238.194,400.194c.76.68,1.65,1.27,2.67,1.75-1.57,1.5-2.97,3.24-3.86,5.19-2.32-.58-8.11-2.67-9.41-9.24-1.11-5.58,3.51-9.45,6.42-11.29-.42,4.22.22,9.81,3.92,13.35.08.09.17.17.26.24Z" fill="#6757dc"/>
        <path d="M237.514,88.244c7.97,12.73,6.25,29.98-4.84,48.59-15.84,26.58-41.42,30.95-42.5,31.12h-.04c-.01,0-.01.01-.02.01l-143.09,17.92c-.86.11-1.72.16-2.56.16-4.48,0-8.81-1.47-12.41-4.27-4.27-3.32-7-8.11-7.67-13.48l-.73-5.82c-.26-2.13.32-4.25,1.64-5.95s3.22-2.78,5.36-3.05l85.22-10.68c.03,0,.06,0,.08-.01l23.19-2.9c.02,0,.05-.01.07-.01l20.54-2.57c-3.24-8.87-2.26-20.36,2.94-30.43,2.32-4.49,5.3-7.87,8.65-10.33.13-.31.35-.59.64-.8l29.18-20.74c1.92-1.37,4.27-1.99,6.62-1.75l5.96.6c9.87,1,18.76,6.38,23.77,14.39ZM229.374,134.864c10.31-17.3,12.05-33.14,4.88-44.58-4.39-7.01-12.2-11.72-20.89-12.6l-5.96-.61c-1.42-.14-2.85.24-4.02,1.07l-18.43,13.1c4.19-.53,8.39-.25,12.2.59,13.09,2.9,27.47,13.51,28.13,29.96.49,12.34-3.4,21.61-8.74,28.49,4.54-3.96,9-9,12.83-15.42ZM221.464,124.554c.01-.86.01-1.72-.03-2.61-.35-8.95-5.76-16.27-12.81-21.03-.06.06-.12.11-.19.16l-15.98,10.59c1.21.34,2.44.88,3.65,1.61,3.11,1.89,5.29,4.77,6.38,8.22.05.12.09.24.11.36.86,2.93.94,6.26.17,9.73-1.06,4.77-3.77,9.73-8,13.49,1.71-.82,3.51-1.81,5.42-3.03,17.3-10.97,20.15-16.43,20.17-16.48.23-.5.64-.84,1.11-1.01ZM220.914,130.984c-2.85,2.99-8.32,7.74-18.67,14.31-8.71,5.52-15.74,7.05-20.85,7.05-5.38,0-8.64-1.68-9.51-2.2-3.71-1.31-6.89-3.78-9.3-7.3-.42-.6-.8-1.23-1.16-1.88l-20.14,2.53c-.12,4.87.83,9.7,2.79,14.05,1.91,4.28,4.81,8.15,8.39,11.26l37.03-4.64c2.1-.58,27.33-8.06,31.42-33.18ZM183.694,112.864l21.28-14.11c-2.79-1.45-5.73-2.52-8.65-3.17-13.2-2.92-24.49,1.96-30.21,13.05-5.74,11.12-5.88,24-.36,32.04,2.4,3.49,6.92,7.47,14.87,6.61,10.42-1.13,16.74-9.12,18.39-16.53.41-1.87.54-3.65.38-5.31l-19.08,12.95c-.46.31-1.03.41-1.57.26-.53-.14-.98-.51-1.23-1.01-3.51-7.12-1.48-18.04,4.35-23.38.57-.52,1.17-.97,1.78-1.36.02-.01.03-.03.05-.04ZM180.174,133.844l18.23-12.37c-.9-2.04-2.35-3.73-4.3-4.91-1.67-1.02-3.26-1.52-4.77-1.52-1.75,0-3.38.68-4.87,2.05-3.99,3.66-5.79,11.21-4.29,16.75ZM133.204,171.214l14.32-1.79c-2.89-3.02-5.27-6.52-6.96-10.3-2.12-4.71-3.19-9.9-3.14-15.15l-19.14,2.4c.61,5.67,2.57,11.08,5.74,15.73,2.4,3.53,5.57,6.67,9.18,9.11ZM111.214,173.974l16.54-2.08c-2.65-2.23-5-4.81-6.91-7.62-3.51-5.16-5.69-11.15-6.38-17.42l-19.15,2.39c1.21,4.98,3.22,9.64,5.98,13.89,2.69,4.13,6.03,7.77,9.92,10.84ZM89.144,176.734l16.89-2.11c-3.04-2.79-5.71-5.93-7.96-9.39-3.08-4.74-5.29-9.95-6.59-15.51l-20.81,2.61c1.85,5.65,4.75,10.96,8.49,15.46,2.85,3.43,6.21,6.43,9.98,8.94ZM63.284,179.974l20.31-2.54c-2.71-2.15-5.2-4.54-7.39-7.19-4.2-5.06-7.42-11.06-9.4-17.42l-18.76,2.34c1.68,6.51,4.67,12.67,8.72,17.92,1.94,2.51,4.14,4.82,6.52,6.89ZM46.544,182.074l11.77-1.48c-1.64-1.61-3.18-3.33-4.59-5.16-4.47-5.79-7.73-12.6-9.51-19.78l-13.08,1.63c-1.12.14-2.12.71-2.81,1.6s-.99,2-.85,3.11l.73,5.82c.54,4.35,2.75,8.23,6.21,10.93,3.47,2.69,7.77,3.87,12.13,3.33Z"/>
        <path d="M234.254,90.284c7.17,11.44,5.43,27.28-4.88,44.58-3.83,6.42-8.29,11.46-12.83,15.42,5.34-6.88,9.23-16.15,8.74-28.49-.66-16.45-15.04-27.06-28.13-29.96-3.81-.84-8.01-1.12-12.2-.59l18.43-13.1c1.17-.83,2.6-1.21,4.02-1.07l5.96.61c8.69.88,16.5,5.59,20.89,12.6Z" fill="#fed23d"/>
        <path d="M228.184,388.034c-1.69,1.87-3.07,4.27-3.32,7.17-3.62-3.47-9.99-11.52-6-22.39.97,4.62,3.4,11.69,9.32,15.22Z" fill="#6757dc"/>
        <path d="M221.434,121.944c.04.89.04,1.75.03,2.61-.47.17-.88.51-1.11,1.01-.02.05-2.87,5.51-20.17,16.48-1.91,1.22-3.71,2.21-5.42,3.03,4.23-3.76,6.94-8.72,8-13.49.77-3.47.69-6.8-.17-9.73-.02-.12-.06-.24-.11-.36-1.09-3.45-3.27-6.33-6.38-8.22-1.21-.73-2.44-1.27-3.65-1.61l15.98-10.59c.07-.05.13-.1.19-.16,7.05,4.76,12.46,12.08,12.81,21.03Z" fill="#fed23d"/>
        <path d="M220.91,130.981c-4.09,25.12-29.32,32.6-31.42,33.18l-37.03,4.64c-2.72-2.36-5.05-5.16-6.84-8.25-.57-.98-1.09-1.98-1.55-3.01-1.96-4.35-2.91-9.18-2.79-14.05l11.27-1.42,8.87-1.11c.36.65.74,1.28,1.16,1.88,2.41,3.52,5.59,5.99,9.3,7.3.87.52,4.13,2.2,9.51,2.2,5.11,0,12.14-1.53,20.85-7.05,10.35-6.57,15.82-11.32,18.67-14.31Z" fill="#fed23d"/>
        <path d="M199.39,125.441c.16,1.66.03,3.44-.38,5.31-1.19,5.33-4.79,10.96-10.61,14.13-2.26,1.23-4.86,2.09-7.78,2.4-7.95.86-12.47-3.12-14.87-6.61-5.52-8.04-5.38-20.92.36-32.04,2.51-4.86,6.08-8.52,10.41-10.86,5.56-3.01,12.38-3.83,19.8-2.19,2.92.65,5.86,1.72,8.65,3.17l-21.28,14.11c-.02.01-.03.03-.05.04-.61.39-1.21.84-1.78,1.36-5.83,5.34-7.86,16.26-4.35,23.38.25.5.7.87,1.23,1.01.54.15,1.11.05,1.57-.26l19.08-12.95Z" fill="#fed23d"/>
        <path d="M203.384,201.134c.01.04.01.09.01.13,0,3.3-2.68,5.98-5.98,5.98-.04,0-.09,0-.13-.01l.13-2.58c1.87,0,3.38-1.52,3.38-3.39l2.59-.13Z"/>
        <path d="M203.384,201.134l-2.59.13c0-1.86-1.51-3.38-3.38-3.38l.13-2.58c3.2.06,5.78,2.64,5.84,5.83Z"/>
        <path d="M197.414,197.884c1.87,0,3.38,1.52,3.38,3.38,0,1.87-1.51,3.39-3.38,3.39s-3.38-1.52-3.38-3.39c0-1.86,1.51-3.38,3.38-3.38Z" fill="#fd4d71"/>
        <path d="M198.404,121.474l-18.23,12.37c-1.5-5.54.3-13.09,4.29-16.75,1.49-1.37,3.12-2.05,4.87-2.05,1.51,0,3.1.5,4.77,1.52,1.95,1.18,3.4,2.87,4.3,4.91Z" fill="#fed23d"/>
        <path d="M197.544,195.304l-.13,2.58c-1.87,0-3.38,1.52-3.38,3.38l-2.59.13c-.01-.04-.01-.09-.01-.13,0-3.29,2.68-5.97,5.98-5.97.04,0,.09,0,.13.01Z"/>
        <path d="M197.414,204.654l-.13,2.58c-3.2-.06-5.78-2.64-5.84-5.84l2.59-.13c0,1.87,1.51,3.39,3.38,3.39Z"/>
        <path d="M175.914,43.524c.09.36.02.74-.18,1.05l-8.59,12.51c-.21.32-.57.52-.95.55-.04.01-.08.01-.11.01-.35,0-.69-.14-.93-.39l-8.58-8.79c-.24-.24-.38-.58-.37-.92,0-.35.15-.68.4-.92l8.58-8.23c.4-.38,1-.47,1.5-.21l8.58,4.5c.33.18.57.48.65.84ZM165.904,54.304l6.86-10-6.46-3.39-6.96,6.68,6.56,6.71Z"/>
        <polygon points="172.764 44.304 165.904 54.304 159.344 47.594 166.304 40.914 172.764 44.304" fill="#fed23d"/>
        <path d="M160.48,270.161c-.3,3.04-.2,6.13.28,9.17l-12.78-6.72c-1.28-3.35-2.06-6.92-2.26-10.47-.06-.75-.08-1.5-.07-2.25.07-5.63,1.56-11.19,4.3-16.19l17.07,8.97c-3.04,4.28-5.13,9.16-6.09,14.23-.2,1.08-.35,2.16-.45,3.26Z" fill="#6757dc"/>
        <path d="M159.354,418.054c.58.2.95.78.87,1.4-.77,5.78-3.18,10.14-7.18,12.98-4.16,2.95-9.18,3.62-12.88,3.62-2.95,0-5.07-.43-5.26-.47-.39-.08-.72-.33-.9-.69l-4.46-8.92c-.25-.51-.15-1.12.26-1.52.41-.39,1.02-.47,1.52-.2,17.44,9.5,26.12-5,26.49-5.62.31-.54.95-.78,1.54-.58ZM151.554,430.304c2.04-1.45,3.59-3.39,4.65-5.81-4.19,3.85-11.78,8.1-22.65,3.69l2.48,4.96c2.2.33,9.94,1.13,15.52-2.84Z"/>
        <path d="M156.314,351.254c.09.36.02.74-.19,1.05l-8.58,12.51c-.22.32-.57.52-.96.56h-.11c-.35,0-.68-.14-.93-.39l-8.58-8.78c-.24-.25-.37-.58-.37-.93.01-.35.15-.68.4-.92l8.58-8.22c.4-.39,1.01-.48,1.5-.22l8.58,4.51c.33.17.57.47.66.83ZM146.294,362.044l6.86-10-6.46-3.4-6.96,6.68,6.56,6.72Z"/>
        <polygon points="153.154 352.044 146.294 362.044 139.734 355.324 146.694 348.644 153.154 352.044" fill="#fd4d71"/>
        <path d="M156.204,424.494c-1.06,2.42-2.61,4.36-4.65,5.81-5.58,3.97-13.32,3.17-15.52,2.84l-2.48-4.96c10.87,4.41,18.46.16,22.65-3.69Z" fill="#fed23d"/>
        <path d="M147.52,169.421l-14.32,1.79c-3.61-2.44-6.78-5.58-9.18-9.11-.12-.17-.23-.34-.34-.52-2.97-4.53-4.81-9.75-5.4-15.21l19.14-2.4c-.05,5.25,1.02,10.44,3.14,15.15.24.54.5,1.07.77,1.6,1.61,3.17,3.71,6.11,6.19,8.7Z" fill="#4bbd8c"/>
        <path d="M141.81,259.851c-.03,3.4.42,6.86,1.31,10.21l-14.75-7.76c-1.16-3.82-1.81-7.74-1.93-11.7-.04-.95-.04-1.9-.01-2.86.16-5.07,1.18-10.04,3.03-14.82l17.08,8.99c-3.02,5.54-4.66,11.7-4.73,17.94Z" fill="#fd4d71"/>
        <path d="M127.75,171.891l-16.54,2.08c-3.89-3.07-7.23-6.71-9.92-10.84-.06-.09-.12-.18-.17-.27-2.67-4.18-4.63-8.74-5.81-13.62l19.15-2.39c.58,5.3,2.23,10.4,4.86,14.97.47.84.98,1.65,1.52,2.45,1.91,2.81,4.26,5.39,6.91,7.62Z" fill="#fd4d71"/>
        <path d="M122.569,248.241c-.08,3.91.32,7.81,1.18,11.63l-15.09-7.93c-1.65-4.22-2.68-8.6-3.05-13.04-.03-.39-.06-.79-.08-1.19-.32-5.45.36-11.04,1.95-16.34l18.56,9.76c-2.1,5.3-3.27,10.84-3.46,16.49-.01.21-.01.42-.01.62Z" fill="#6757dc"/>
        <path d="M120.134,58.554c.47.33.66.94.47,1.48s-.73.88-1.29.86c-.14,0-13.53-.58-18.81,7.35.87,1.31,1.5,2.6,1.93,3.58.42.98.63,1.67.67,1.78,1.59,4.52,1.59,8.37.01,10.87-1.06,1.65-2.78,2.64-4.99,2.87-.17.01-.34.02-.51.02-4.75,0-9.28-6.49-11.19-9.63-.42.54-.79,1.15-1.12,1.85,2.11,3.45,3.28,6.86,3.55,7.71,2.48,4.14,2.81,9.78-.92,14.14-2.28,2.65-4.53,3.65-6.7,2.97-4.47-1.38-6.57-9.79-7.44-14.88-4.27,8.96,1.82,22.96,1.89,23.12.482,1.012-.629,2.176-1.66,1.73-.424-.487-18.038-6.199-17.17-7.42-.12-1.09-2.68-26.79,10.9-34.12,3.04-1.64,6-2,8.82-1.11,1.09-2.77,4.34-8.9,11.83-9.82,2.32-2.34,15.88-14.78,31.73-3.35ZM98.864,66.094c4.15-5.52,11.44-7.17,16.14-7.63-10.4-5.17-19.08.32-22.92,3.55,2.87.55,5.1,2.19,6.78,4.08ZM100.914,83.084c1.06-1.67,1.02-4.66-.08-8.07-1.95-.57-8.17-2.05-12.48.9,2.3,3.92,6.47,9.14,9.51,8.84,1.43-.14,2.43-.69,3.05-1.67ZM85.714,74.714c3.92-3.52,9.71-3.57,13.94-2.68-1.51-3.09-4.86-8.1-10.53-7.6-6.67.59-9.37,6.12-10.2,8.36,1.85,1.09,3.42,2.67,4.74,4.4.58-.94,1.25-1.75,1.99-2.42.02-.03.04-.04.06-.06ZM85.964,99.744c2.91-3.39,2.64-7.8.7-11.07-.07-.09-.13-.19-.18-.29-.53-.85-1.18-1.61-1.92-2.25-1.08-.94-4.82-3.61-8.61.26.86,7.15,3.17,14.64,6.05,15.53,1.09.34,2.42-.39,3.96-2.18ZM84.084,82.694c-1.68-3.21-4.24-6.87-7.65-8.27-2.35-.97-4.79-.74-7.45.7-10.84,5.84-9.93,26.49-9.61,30.78l12.86,4.99c-1.95-5.6-5.24-18.25,1.38-25.79l.01-.01c2.98-3.39,6.89-4.22,10.46-2.4Z"/>
        <path d="M115.004,58.464c-4.7.46-11.99,2.11-16.14,7.63-1.68-1.89-3.91-3.53-6.78-4.08,3.84-3.23,12.52-8.72,22.92-3.55Z" fill="#fd4d71"/>
        <path d="M106.03,174.621l-16.89,2.11c-3.77-2.51-7.13-5.51-9.98-8.94-.91-1.09-1.77-2.24-2.57-3.42-2.52-3.68-4.52-7.76-5.92-12.04l20.81-2.61c1.11,4.75,2.89,9.25,5.3,13.41.41.71.84,1.41,1.29,2.1,2.25,3.46,4.92,6.6,7.96,9.39Z" fill="#4bbd8c"/>
        <path d="M101.78,239.231c.28,3.41.93,6.79,1.92,10.1l-18.09-9.51c-.77-3.06-1.25-6.21-1.41-9.38-.1-2-.07-4.02.08-6.03.37-4.64,1.39-9.26,3.02-13.65l16.73,8.79c-1.61,5.08-2.44,10.42-2.43,15.71.01,1.32.06,2.66.18,3.97Z" fill="#fd4d71"/>
        <path d="M100.834,75.014c1.1,3.41,1.14,6.4.08,8.07-.62.98-1.62,1.53-3.05,1.67-3.04.3-7.21-4.92-9.51-8.84,4.31-2.95,10.53-1.47,12.48-.9Z" fill="#fd4d71"/>
        <path d="M99.654,72.034c-4.23-.89-10.02-.84-13.94,2.68-.02.02-.04.03-.06.06-.74.67-1.41,1.48-1.99,2.42-1.32-1.73-2.89-3.31-4.74-4.4.83-2.24,3.53-7.77,10.2-8.36,5.67-.5,9.02,4.51,10.53,7.6Z" fill="#fd4d71"/>
        <path d="M93.154,282.854c.54.18.9.68.9,1.25-.01.56-.39,1.06-.93,1.22-19.02,5.71-14.82,22.09-14.63,22.79.16.59-.12,1.22-.68,1.5-.18.09-.38.13-.57.13-.39,0-.78-.17-1.03-.5-3.57-4.61-4.98-9.4-4.18-14.23,1.49-9.04,10.15-14.87,10.51-15.11.34-.22.75-.28,1.12-.15l9.49,3.1ZM88.764,284.144l-5.28-1.72c-1.78,1.33-7.79,6.27-8.89,13.03-.41,2.46-.12,4.94.86,7.39.21-5.69,2.53-14.07,13.31-18.7Z"/>
        <path d="M83.484,282.424l5.28,1.72c-10.78,4.63-13.1,13.01-13.31,18.7-.98-2.45-1.27-4.93-.86-7.39,1.1-6.76,7.11-11.7,8.89-13.03Z" fill="#4bbd8c"/>
        <path d="M86.664,88.674c1.94,3.27,2.21,7.68-.7,11.07-1.54,1.79-2.87,2.52-3.96,2.18-2.88-.89-5.19-8.38-6.05-15.53,3.79-3.87,7.53-1.2,8.61-.26.74.64,1.39,1.4,1.92,2.25.05.1.11.2.18.29Z" fill="#fd4d71"/>
        <path d="M80.359,230.631c.12,2.3.4,4.59.82,6.85l-10.5-5.52c-7.6-3.99-10.77-13.14-7.49-20.91.17-.43.37-.85.59-1.27l2.73-5.19c.76-1.43,2.22-2.25,3.74-2.25.66,0,1.33.15,1.96.48l11.66,6.14c-1.61,4.24-2.7,8.67-3.22,13.16-.33,2.83-.43,5.68-.29,8.51Z" fill="#6757dc"/>
        <path d="M83.589,177.431l-20.31,2.54c-2.38-2.07-4.58-4.38-6.52-6.89-1.73-2.23-3.26-4.63-4.57-7.15-1.79-3.4-3.18-7.03-4.15-10.77l18.76-2.34c1.29,4.15,3.11,8.15,5.4,11.83,1.2,1.96,2.54,3.83,4,5.59,2.19,2.65,4.68,5.04,7.39,7.19Z" fill="#fd4d71"/>
        <path d="M76.434,74.424c3.41,1.4,5.97,5.06,7.65,8.27-3.57-1.82-7.48-.99-10.46,2.4l-.01.01c-6.62,7.54-3.33,20.19-1.38,25.79l-12.86-4.99c-.32-4.29-1.23-24.94,9.61-30.78,2.66-1.44,5.1-1.67,7.45-.7Z" fill="#fd4d71"/>
        <path d="M58.31,180.592l-11.77,1.48c-4.36.54-8.66-.64-12.13-3.33-3.46-2.7-5.67-6.58-6.21-10.93l-.04-.3-.69-5.52c-.14-1.11.16-2.22.85-3.11.69-.89,1.69-1.46,2.81-1.6l13.08-1.63c.9,3.64,2.19,7.19,3.82,10.55,1.57,3.27,3.49,6.38,5.69,9.23,1.41,1.83,2.95,3.55,4.59,5.16Z" fill="#4bbd8c"/>
        <path d="M40.754,226.064c4.37,0,7.92,3.56,7.92,7.93s-3.55,7.93-7.92,7.93-7.93-3.56-7.93-7.93,3.55-7.93,7.93-7.93ZM46.084,233.994c0-2.94-2.39-5.33-5.33-5.33s-5.34,2.39-5.34,5.33,2.4,5.33,5.34,5.33,5.33-2.39,5.33-5.33Z"/>
        <path d="M40.754,228.664c2.94,0,5.33,2.39,5.33,5.33s-2.39,5.33-5.33,5.33-5.34-2.39-5.34-5.33,2.4-5.33,5.34-5.33Z" fill="#6757dc"/>
        <path d="M80.359,230.631c.12,2.3.4,4.59.82,6.85l-10.5-5.52c-7.6-3.99-10.77-13.14-7.49-20.91,5.01,3.19,10.97,6.97,17.46,11.07-.33,2.83-.43,5.68-.29,8.51Z" opacity=".2"/>
        <path d="M101.78,239.231c.28,3.41.93,6.79,1.92,10.1l-18.09-9.51c-.77-3.06-1.25-6.21-1.41-9.38-.1-2-.07-4.02.08-6.03,5.55,3.49,11.41,7.17,17.32,10.85.01,1.32.06,2.66.18,3.97Z" opacity=".2"/>
        <path d="M122.569,248.241c-.08,3.91.32,7.81,1.18,11.63l-15.09-7.93c-1.65-4.22-2.68-8.6-3.05-13.04-.03-.39-.06-.79-.08-1.19,5.76,3.58,11.51,7.14,17.04,10.53Z" opacity=".2"/>
        <path d="M141.81,259.851c-.03,3.4.42,6.86,1.31,10.21l-14.75-7.76c-1.16-3.82-1.81-7.74-1.93-11.7,5.5,3.36,10.71,6.49,15.37,9.25Z" opacity=".2"/>
        <path d="M160.759,279.332l-12.78-6.72c-1.28-3.35-2.06-6.92-2.26-10.47,6.48,3.78,11.6,6.6,14.521,7.92.08.04.16.07.24.1-.3,3.04-.2,6.13.28,9.17Z" opacity=".2"/>
        <path d="M241.319,310.491l-11.84,10.1c-12.24-5.65-22.44-11.73-30.61-21.07-.16-.18-.34-.33-.55-.44l-33.15-17.43c-.83-3.25-1.15-6.63-.95-9.95,11.21,4.14,12.92.09,17.11,1.26.8.21,1.68.62,2.74,1.31,7.24,4.72,13.99,24.29,27.71,28.44,4.62,1.4,8.67.71,12-.82,4.68,2.95,10.74,5.78,17.54,8.6Z" opacity=".2"/>
        <path d="M297.429,334.522l-18.3,8.14c-2.44-1.4-5.17-2.81-8.26-4.23-7.42-3.42-14.23-6.29-20.8-9.03l12.91-10.44c12.23,4.71,24.91,9.81,34.45,15.56Z" opacity=".2"/>
        <path d="M313.35,349.782l-16.74,7.25c-2.39-2.85-5.16-5.75-8.96-8.71l18.71-7.31c1.7,1.57,3.13,3.18,4.22,4.84.89,1.36,1.82,2.67,2.77,3.93Z" opacity=".2"/>
        <path d="M392.569,388.981c-3.44,5.72-7.45,13.11-9.93,20.1-8.29-10.77-18.99-13.63-31.12-16.87-5.15-1.37-10.71-2.85-16.61-5.09,10.97-1.88,21.41-7.03,28.36-11.1,1.18.11,2.38.19,3.6.25,12.36.63,19.31,6.16,25.7,12.71Z" opacity=".2"/>
        <path d="M422.73,410.791l-10.89,25.48c-3.88-1.55-8.19-3.74-12.36-6.82l12.86-23.06c3.19,1.71,6.74,3.17,10.39,4.4Z" opacity=".2"/>
        <path d="M53.72,175.431c1.41,1.83,2.95,3.55,4.59,5.16l-11.77,1.48c-4.36.54-8.66-.64-12.13-3.33-3.46-2.7-5.67-6.58-6.21-10.93l-.04-.3c5.75-.38,12.52-.83,19.87-1.31,1.57,3.27,3.49,6.38,5.69,9.23Z" opacity=".2"/>
        <path d="M83.589,177.431l-20.31,2.54c-2.38-2.07-4.58-4.38-6.52-6.89-1.73-2.23-3.26-4.63-4.57-7.15,6.38-.42,13.14-.85,20.01-1.28,1.2,1.96,2.54,3.83,4,5.59,2.19,2.65,4.68,5.04,7.39,7.19Z" opacity=".2"/>
        <path d="M106.03,174.621l-16.89,2.11c-3.77-2.51-7.13-5.51-9.98-8.94-.91-1.09-1.77-2.24-2.57-3.42,6.75-.42,13.55-.85,20.19-1.24.41.71.84,1.41,1.29,2.1,2.25,3.46,4.92,6.6,7.96,9.39Z" opacity=".2"/>
        <path d="M127.75,171.891l-16.54,2.08c-3.89-3.07-7.23-6.71-9.92-10.84-.06-.09-.12-.18-.17-.27,6.34-.37,12.48-.73,18.2-1.04.47.84.98,1.65,1.52,2.45,1.91,2.81,4.26,5.39,6.91,7.62Z" opacity=".2"/>
        <path d="M141.33,160.721c1.61,3.17,3.71,6.11,6.19,8.7l-14.32,1.79c-3.61-2.44-6.78-5.58-9.18-9.11-.12-.17-.23-.34-.34-.52,6.71-.36,12.72-.66,17.65-.86Z" opacity=".2"/>
        <path d="M220.91,130.981c-4.09,25.12-29.32,32.6-31.42,33.18l-37.03,4.64c-2.72-2.36-5.05-5.16-6.84-8.25,3.37-.11,5.97-.17,7.62-.14,11.11.18,5.18-10.47-.69-18.34l8.87-1.11c.36.65.74,1.28,1.16,1.88,2.41,3.52,5.59,5.99,9.3,7.3.87.52,4.13,2.2,9.51,2.2,5.11,0,12.14-1.53,20.85-7.05,10.35-6.57,15.82-11.32,18.67-14.31Z" opacity=".2"/>
        <path d="M199.39,125.441c.16,1.66.03,3.44-.38,5.31-1.19,5.33-4.79,10.96-10.61,14.13-4.93-.81-11.79-3.4-17.08-11.04-6.22-8.98.23-25.86,5.2-36.07,5.56-3.01,12.38-3.83,19.8-2.19,2.92.65,5.86,1.72,8.65,3.17l-21.28,14.11c-.02.01-.03.03-.05.04-.61.39-1.21.84-1.78,1.36-5.83,5.34-7.86,16.26-4.35,23.38.25.5.7.87,1.23,1.01.54.15,1.11.05,1.57-.26l19.08-12.95Z" opacity=".2"/>
      </g>
    </g>
  </g>
</svg>