<?xml version="1.0" encoding="utf-8"?>
<!-- Generator: Adobe Illustrator 27.1.1, SVG Export Plug-In . SVG Version: 6.00 Build 0)  -->
<svg version="1.1" id="Layer_1" xmlns="http://www.w3.org/2000/svg" xmlns:xlink="http://www.w3.org/1999/xlink" x="0px" y="0px"
	 viewBox="0 0 2680 2753.67" style="enable-background:new 0 0 2680 2753.67;" xml:space="preserve">
<style type="text/css">
	.st0{fill:#55E7FF;}
	.st1{fill:#FE3190;}
	.st2{opacity:0.5;}
	.st3{fill:#FFFFFF;}
	.st4{opacity:0.25;}
	.st5{fill:#000072;}
	.st6{fill:#FEC0EF;}
	.st7{opacity:0.6;}
	.st8{fill:#FF719A;}
	.st9{opacity:0.3;}
</style>
<g>
	<g>
		<g>
			<circle class="st0" cx="1340" cy="1340" r="1340"/>
		</g>
		<g>
			<g>
				<path class="st1" d="M1239.4,2003.9c0,0-130.46,195.98-316.79,134.55c-212.86-70.17-434.15,22.86-478.94,217.8
					c-33.45,145.59,139.4,41.5,331.33,94.07c350.28,95.94,452.9,65.44,544.44-222.21L1239.4,2003.9z"/>
			</g>
			<g class="st2">
				<path class="st3" d="M1232.59,2043.32c0,0-130.47,195.96-316.8,134.55c-208.91-68.85-425.85,19.46-476.2,206.99
					c0.24-8.23,1.56-17.74,4.08-28.61c44.8-194.93,266.09-287.95,478.96-217.78c186.29,61.42,316.76-134.55,316.76-134.55
					L1232.59,2043.32z"/>
			</g>
			<g class="st4">
				<path class="st5" d="M1319.43,2228.13c-91.55,287.63-194.17,318.12-544.42,222.18c-191.93-52.55-364.8,51.55-331.35-94.07
					c2.68-11.71,6.03-23.1,9.95-34.05c56.94,13.87,174.07-18.58,299.38,15.74c339.26,92.91,446.19,67.21,535.74-195.8
					L1319.43,2228.13z"/>
			</g>
			<g>
				<path class="st5" d="M1045.39,2515.41c-74.45,0-164.7-19.56-274.62-49.67c-73.84-20.22-145.51-16.45-203.1-13.4
					c-62.36,3.29-107.42,5.67-130.78-22.12c-14.27-16.98-17.07-41.62-8.81-77.55c19.86-86.44,74.79-158.84,154.68-203.86
					c99.04-55.83,224.74-65.14,344.84-25.54c172.76,56.95,297.25-126.37,298.48-128.23c4.9-7.34,14.8-9.34,22.16-4.45
					c7.35,4.89,9.34,14.81,4.45,22.16c-1.4,2.09-34.83,51.82-92.33,94.31c-77.5,57.28-161.45,73.37-242.77,46.57
					c-111.58-36.78-227.9-28.39-319.14,23.03c-71.95,40.55-121.39,105.61-139.22,183.17c-5.66,24.64-4.94,41.4,2.14,49.82
					c13.1,15.59,55.5,13.35,104.61,10.76c59.89-3.16,134.41-7.1,213.23,14.49c350.13,95.9,438.44,60.3,525-211.65
					c2.68-8.41,11.68-13.05,20.08-10.38c8.41,2.68,13.06,11.67,10.38,20.08c-49.79,156.45-103.28,233.23-184.61,264.99
					C1119.16,2510.02,1084.45,2515.41,1045.39,2515.41z"/>
			</g>
			<g>
				<path class="st6" d="M1207.99,2101.83c0,0-71.65,135.92-229.68,118.98c-155.12-16.62-281.93-37.83-348.01,64.53
					c-44.49,68.92,32.8,42.79,255.68,117.61c239.65,80.46,314.01,55.15,377.73-145.07L1207.99,2101.83z"/>
			</g>
			<g class="st2">
				<path class="st3" d="M1263.72,2257.9c-3.8,11.87-7.59,23.14-11.51,33.81l-53.39-149.57c0,0-71.65,135.9-229.69,119
					c-154.65-16.58-281.16-37.72-347.41,63.58c-6.67-8.63-3.64-20.42,8.59-39.36c66.05-102.38,192.89-81.16,348.01-64.54
					c158,16.94,229.65-119,229.65-119L1263.72,2257.9z"/>
			</g>
			<g class="st4">
				<path class="st5" d="M1263.72,2257.9c-63.74,200.2-138.1,225.53-377.74,145.06c-181.9-61.06-266.85-54.87-267.69-87.99
					c39.24-2.28,128.95-17.86,267.21,16.94c257.46,64.9,355.01,10.11,349.81-145.3l-29.13-81.6c1.2-2.04,1.8-3.2,1.8-3.2
					L1263.72,2257.9z"/>
			</g>
			<g>
				<path class="st5" d="M1079.82,2461.51c-55.34,0-121.66-17.45-198.94-43.39c-78.59-26.39-138.5-40-182.23-49.95
					c-56.62-12.87-85.04-19.33-94.01-41.32c-6.88-16.88,2.32-34.83,12.22-50.17c67.35-104.33,191.25-90.67,334.72-74.86
					c9.37,1.03,18.84,2.08,28.43,3.1c145.49,15.57,213.17-109.28,213.83-110.54c4.12-7.81,13.78-10.81,21.59-6.69
					c7.81,4.12,10.81,13.78,6.69,21.59c-0.77,1.46-78.6,145.28-245.52,127.42c-9.62-1.03-19.13-2.08-28.52-3.12
					c-138.41-15.25-247.72-27.3-304.36,60.42c-10.48,16.24-9.51,20.61-9.46,20.79c3.3,6.69,39.52,14.92,71.48,22.19
					c44.4,10.09,105.21,23.91,185.32,50.81c134.47,45.15,206.15,52.95,255.62,27.85c41.82-21.21,72.26-69.84,101.79-162.61
					c2.68-8.42,11.67-13.05,20.08-10.39c8.41,2.68,13.06,11.67,10.38,20.08c-32.37,101.72-67.59,155.97-117.78,181.43
					C1137.38,2456.23,1110.26,2461.51,1079.82,2461.51z"/>
			</g>
			<g>
				<path class="st6" d="M1929.6,2493.72c25.18,44.8,55.23,113.53,20.98,139.94c-29.29,22.58-59.1-10.71-71.77-28.09
					c-1.08-1.44-3.32-0.32-2.88,1.4c4.88,17.9,10.35,53.07-16.7,65.45c-32.49,14.87-52.35-28.81-57.86-43.12
					c-0.56-1.44-2.56-1.36-3.04,0.04c-4.96,14.7-22.34,60.82-46.55,61.42c-46.75,1.2-65.49-133.71-47.15-211.79
					c24.5-104.18-1.44-147.05-1.44-147.05l127.63-138.98l182.02-59.38c0,0,16.1,238.2-108.81,318.96c0,0,0.56,0.8,1.56,2.28
					C1909.3,2460.24,1919.05,2474.86,1929.6,2493.72z"/>
			</g>
			<g class="st4">
				<path class="st5" d="M1929.6,2493.72c-30.01,11.27-64.97,13.71-92.59,7.55c-43.81-9.78-59.71-29.72-47.48-29.02
					c69.03,3.97,99.46-9.58,116.05-17.46C1909.3,2460.24,1919.05,2474.86,1929.6,2493.72z"/>
			</g>
			<g>
				<path class="st5" d="M1885.07,2479.02c-6.02,0-11.78-3.42-14.5-9.23c-3.73-8-0.27-17.51,7.73-21.24
					c134.01-62.52,118.75-311.38,118.58-313.89c-0.6-8.81,6.06-16.43,14.87-17.03c8.82-0.61,16.43,6.06,17.03,14.87
					c0.75,11.13,16.69,273.33-136.96,345.02C1889.63,2478.54,1887.33,2479.02,1885.07,2479.02z"/>
			</g>
			<g>
				<path class="st5" d="M1751.18,2706.77c-9.45,0-22.96-3.4-35.54-18.86c-33.43-41.13-41.74-148.05-26.57-212.59
					c22.28-94.8,0.55-134.9,0.32-135.3c-4.29-7.6-1.74-17.35,5.8-21.76c7.53-4.41,17.15-2.06,21.67,5.41
					c3,4.96,28.58,51.51,3.33,158.96c-14.47,61.55-4.24,154.97,20.25,185.11c3.87,4.77,7.63,7.19,10.92,7.06
					c7.19-0.18,21.41-19.56,31.84-50.54c2.37-7.02,8.92-11.82,16.3-11.98c7.39-0.22,14.12,4.37,16.78,11.26
					c6.84,17.78,16.8,31.52,25.39,35.02c2.33,0.95,5.68,1.73,10.93-0.67c16.55-7.56,11.06-35.21,7.93-46.75
					c-2.22-8.18,1.71-16.79,9.35-20.46s16.83-1.36,21.83,5.5c12.17,16.67,25.51,27.49,35.69,28.94c2.94,0.41,7.52,0.45,13.43-4.1
					c30.55-23.56-20.4-117.48-49.86-159.27c-5.08-7.21-3.36-17.19,3.85-22.27c7.22-5.08,17.19-3.37,22.27,3.84
					c11.06,15.67,106.22,154.46,43.26,203.01c-11.29,8.71-24.25,12.32-37.46,10.43c-10.01-1.43-19.29-5.81-27.6-11.66
					c-2.61,19.62-12.59,34.19-29.41,41.87c-12.09,5.53-24.65,5.94-36.29,1.19c-11.77-4.8-21.08-14.23-28.19-24.41
					c-10.97,21.64-27.2,42.45-49.22,43C1751.84,2706.76,1751.51,2706.77,1751.18,2706.77z"/>
			</g>
			<g>
				<path class="st6" d="M1341.29,2511.97c0,0-87.95,147.85-32.34,184.21c30.97,20.25,58.12-15.29,69.39-33.59
					c0.94-1.51,3.28-0.6,2.96,1.16c-3.46,18.22-6.19,53.73,21.76,63.95c33.54,12.29,49.96-32.77,54.34-47.49
					c0.44-1.44,2.43-1.55,3.01-0.16c6.08,14.27,27.03,58.86,51.22,57.59c46.68-2.45,54.87-138.4,30.51-214.8
					c-32.49-101.99-9.98-146.72-9.98-146.72l-138.07-128.66l-186.08-45.03C1208.01,2202.44,1210.48,2441.18,1341.29,2511.97z"/>
			</g>
			<g>
				<path class="st5" d="M1361.02,2536.96c-1.87,0-3.76-0.33-5.61-1.02c-158.76-59.52-163.26-322.18-163.37-333.33
					c-0.09-8.83,6.99-16.05,15.81-16.14c0.06,0,0.12,0,0.18,0c8.75,0,15.88,7.05,15.98,15.81c0.03,2.51,4.38,251.89,142.63,303.73
					c8.27,3.1,12.46,12.31,9.36,20.58C1373.58,2533,1367.49,2536.96,1361.02,2536.96z"/>
			</g>
			<g>
				<path class="st5" d="M1510.6,2753.67c-21.13,0-38.28-18.96-50.55-39.09c-6.29,10.69-14.84,20.81-26.2,26.52
					c-11.25,5.64-23.79,6.22-36.28,1.64c-17.36-6.35-28.45-20.1-32.58-39.46c-7.83,6.48-16.73,11.57-26.61,13.77
					c-13.03,2.91-26.23,0.31-38.16-7.49c-66.53-43.51,17.54-189.28,27.34-205.76c4.51-7.58,14.32-10.08,21.9-5.56
					c7.58,4.51,10.08,14.32,5.57,21.9c-26.12,43.96-69.61,141.55-37.32,162.66c6.23,4.07,10.79,3.69,13.71,3.04
					c10.03-2.24,22.5-14.06,33.33-31.63c4.48-7.24,13.45-10.23,21.35-7.17c7.89,3.07,12.48,11.34,10.91,19.66
					c-2.23,11.75-5.56,39.75,11.54,46c5.41,1.98,8.7,0.94,10.95-0.19c8.29-4.16,17.15-18.64,22.57-36.87
					c2.14-7.12,8.52-12.14,15.88-12.55c7.28-0.47,14.25,3.87,17.15,10.66c12.69,29.79,28.18,47.93,35.46,47.93c0.07,0,0.15,0,0.22,0
					c3.36-0.18,6.84-2.83,10.34-7.89c22.08-31.95,25-125.88,5.8-186.12c-33.53-105.16-11.65-153.56-9.04-158.73
					c3.97-7.89,13.57-11.06,21.47-7.08c7.82,3.94,11,13.42,7.18,21.27c-0.52,1.16-18.47,42.9,10.85,134.84
					c20.14,63.16,20.18,170.41-9.96,214.01c-11.74,16.98-25.49,21.14-34.96,21.63C1511.84,2753.66,1511.22,2753.67,1510.6,2753.67z"
					/>
			</g>
			<g>
				<path class="st6" d="M1964.14,2262.14c-5.43,9.07-10.59,18.58-17.58,26.89c-56.82,67.61-190.65,124.68-308.45,139.1
					c-117.36,14.35-248.63,6.83-328.03-50.23c-58.62-42.16-107.45-106.25-133.23-187.73c-10.15-32.13-16.74-66.93-18.9-104.14
					c-3.6-61.58,8.87-128.31-12.31-243.2c-2.24-12.19-4.84-24.9-7.91-38.24c-10.19-44.32-25.17-95.23-47.23-154.61l680.12-191.89
					c0,0,33.21,39.72,75.41,104.26C1948.96,1719.88,2105.52,2025.21,1964.14,2262.14z"/>
			</g>
			<g class="st4">
				<path class="st5" d="M1964.14,2262.14c-5.43,9.07-10.59,18.58-17.58,26.89c-56.82,67.61-190.65,124.68-308.45,139.1
					c-117.36,14.35-248.63,6.83-328.03-50.23c-58.62-42.16-107.45-106.25-133.23-187.73c-10.15-32.13-16.74-66.93-18.9-104.14
					c-0.12-1.84-0.2-3.72-0.28-5.55c2.76,12.67,6.03,25.02,9.83,37c25.77,81.48,74.6,145.57,133.23,187.73
					c79.4,57.06,210.67,64.58,328.03,50.23c117.8-14.43,251.63-71.49,308.45-139.1c6.99-8.31,12.15-17.82,17.58-26.89
					c46.71-78.24,60.9-164,55.22-249.35C2030.48,2048.75,2024.12,2161.6,1964.14,2262.14z"/>
			</g>
			<g>
				<path class="st5" d="M1334.87,2401.31c-18.88-2.44-34.99-10.88-49.16-21.58c-3.64-2.58-7.05-5.43-10.59-8.15
					c-3.46-2.8-6.6-5.98-9.88-8.99c-3.15-3.15-6.48-6.12-9.47-9.44l-8.88-9.99c-11.76-13.38-22.82-27.31-33.23-41.75
					c-4.93-7.4-9.84-14.83-14.51-22.4c-4.27-7.8-9.01-15.36-12.87-23.37c-16.1-31.73-27.75-65.6-35.04-100.23l-2.7-13
					c-0.79-4.35-1.33-8.74-2-13.1l-1.91-13.12c-0.57-4.38-0.83-8.78-1.25-13.17c-1.9-17.5-2.16-35.4-2.07-52.71
					c0.48-34.59,1.93-68.08,0.34-101.45c-1.5-33.34-5.04-66.54-11.13-99.45c-1.32-8.25-3.27-16.42-4.87-24.63l-2.52-12.3
					l-2.99-12.22c-2.02-8.14-3.91-16.31-6.04-24.44l-6.85-24.27c-4.27-16.25-9.89-32.2-15.98-47.9
					c-5.53-15.94-10.96-31.78-5.77-51.8l0.01-0.05c0.89-3.45,4.42-5.53,7.87-4.63c0.77,0.2,1.49,0.54,2.1,0.98
					c8.47,5.98,13.83,13.21,18.2,20.8c4.18,7.66,7.59,15.61,9.96,23.92c2.31,8.33,4.23,16.78,6.87,25l3.92,12.34l3.54,12.47
					l7.04,24.96c2.19,8.37,4.15,16.82,6.23,25.22l3.08,12.62l2.62,12.75c1.67,8.52,3.67,16.96,5.05,25.55
					c6.32,34.17,10.05,68.95,11.6,103.74c1.65,34.79,0.14,69.53-0.31,103.12c-0.07,16.78,0.14,33.03,1.94,49.46
					c0.4,4.09,0.62,8.22,1.16,12.29l1.79,12.19c0.63,4.06,1.12,8.14,1.85,12.18l2.51,12.04c6.76,32.08,17.49,63.23,32.25,92.34
					c14.81,29.02,33.28,56.4,56.31,79.54l8.71,8.58c2.95,2.8,6.04,5.46,9.04,8.21c5.84,5.67,11.98,11.01,17.94,16.61
					c2.9,2.89,5.94,5.63,8.99,8.39c3.01,2.8,5.94,5.74,8.73,8.91c5.61,6.31,11.37,12.55,16.04,20.92l0.21,0.38
					c1.57,2.82,0.56,6.39-2.26,7.96C1337.33,2401.25,1336.07,2401.47,1334.87,2401.31z"/>
			</g>
			<g>
				<path class="st5" d="M1773.63,2395.73c-16.95,19.07-38.95,29.47-61.57,36.35c-5.72,1.53-11.47,2.96-17.27,4.17
					c-5.83,1.06-11.69,1.93-17.52,2.89c-5.87,0.75-11.73,1.5-17.56,2.4c-5.87,0.66-11.71,1.46-17.56,2.31
					c-23.39,2.85-47.04,5.81-70.72,4.5c-23.49-1.62-47.59-4.26-68.24-21.25c-1.31-1.08-1.5-3.02-0.42-4.33
					c0.34-0.42,0.77-0.72,1.25-0.91l0.04-0.01c24.48-9.55,46.01-7.92,68.23-8.41c22.03-0.18,44.18,0.77,66.22-1.55
					c5.49-0.64,10.98-1.32,16.45-2.15c5.44-0.98,10.85-2.12,16.26-3.25c5.37-1.32,10.71-2.74,16.08-3.96
					c5.31-1.47,10.67-2.73,16.07-3.88c21.64-4.63,43.07-8.95,68.18-7.82c1.63,0.06,2.89,1.43,2.83,3.06
					C1774.34,2394.59,1774.06,2395.25,1773.63,2395.73z"/>
			</g>
			<g>
				<path class="st5" d="M1774.69,1454.7c18.55,9.68,31.88,23.71,43.86,38.67c12.21,14.81,22.64,30.9,32.77,47.13
					c10.08,16.26,20.51,32.29,30.51,48.59c10,16.3,19.7,32.79,29.06,49.48c37.29,66.8,69.56,136.82,92.6,210.42
					c22.91,73.41,36.83,151,32.06,229.27c-1.12,19.52-3.47,39.02-7.23,58.3c-3.76,19.26-8.53,38.39-14.99,56.99
					c-1.48,4.69-3.38,9.25-5.06,13.87c-1.65,4.64-3.55,9.18-5.51,13.7c-3.72,9.12-7.49,18.23-11.5,27.27
					c-4.48,8.79-9.37,17.42-15.88,24.97c-6.29,7.67-14.24,14.24-24.45,18.74c-3.13,1.38-6.78-0.04-8.16-3.17
					c-0.38-0.86-0.55-1.75-0.53-2.63l0.01-0.38c0.29-11.23,3.4-20.03,6.61-28.73c3.66-8.41,7.45-16.6,12.06-24.4
					c4.23-7.98,9-15.76,12.39-24.18c1.87-4.13,3.58-8.33,5.11-12.6c1.54-4.27,3.31-8.45,4.66-12.78
					c5.96-17.14,10.36-34.82,13.85-52.67c3.5-17.85,5.68-36,6.73-54.24c4.49-73.11-8.56-147.06-30.66-217.8
					c-22.18-70.9-53.54-139.09-89.98-204.34c-9.14-16.31-18.62-32.43-28.4-48.38c-9.8-15.93-19.77-31.78-30.73-46.96
					c-10.93-15.19-22.08-30.18-32.15-45.95c-10.3-15.61-19.78-31.78-25.2-51.38l-0.05-0.18c-0.85-3.07,0.95-6.25,4.02-7.09
					C1771.95,1453.85,1773.44,1454.06,1774.69,1454.7z"/>
			</g>
			<g>
				<path class="st6" d="M1366.66,2131.47c-16.62,39.88-77.4-8.99-91.11,7.63c-6.95,8.47,50.39,36.8,22.18,77.52
					c-10.67,15.39-67.13,7.83-120.88-26.45c-79.68-50.75-153.49-160.24-63.98-340.7c7.19-14.51,15.46-29.45,24.86-44.88
					c3.4-5.55,6.91-11.19,10.59-16.86l25.09,48.87l13.83,27.01c11.91,61.74,210.11,118.28,220.94,157.8
					c9.43,34.33-58.18,38.64-69.81,41.68C1312.47,2069.89,1383.24,2091.63,1366.66,2131.47z"/>
			</g>
			<g class="st2">
				<path class="st3" d="M1392.91,2049.11c-29.23-53.92-254.51-92.86-211.23-196.36l5.55,10.87
					c11.91,61.74,210.11,118.28,220.94,157.8C1411.74,2034.44,1404.26,2043.12,1392.91,2049.11z"/>
			</g>
			<g class="st4">
				<path class="st5" d="M1297.73,2216.62c-10.67,15.39-67.13,7.83-120.88-26.45c-61.66-39.28-119.76-113.69-101.46-228.93
					c6.03,81.84,53.95,137.22,104.22,169.23c45.11,28.77,92.15,38.72,112.41,32.05C1303.16,2176.1,1313.03,2194.56,1297.73,2216.62z
					"/>
			</g>
			<g>
				<path class="st5" d="M1274.07,2240.26c-31.86,0-75.92-16.43-111.12-40.04c-38.82-26.04-88.18-73.47-102.87-151.59
					c-14.92-79.3,10.25-170,74.8-269.6c4.8-7.41,14.7-9.52,22.1-4.72c7.41,4.8,9.52,14.7,4.72,22.11
					c-124.93,192.75-62.94,301.73-14.87,349.53c54.14,53.83,125.37,67.94,138.23,60.83c9.46-14.25,3.56-24.81-13.01-42.77
					c-7.46-8.08-19.95-21.61-8.83-35.1c12.31-14.92,32.69-8.77,50.67-3.34c28.58,8.64,34.79,7.43,37.99-0.24
					c4.38-10.5-2.6-19.09-18.87-33.27c-9.26-8.06-18.83-16.4-15.9-28.91c1.25-5.35,5.26-12.39,17.21-15.52
					c2.54-0.67,5.83-1.19,10.39-1.92c10.31-1.65,41.67-6.67,47.83-16.23c0.38-0.58,0.89-1.38,0.21-3.84
					c-3.93-11.02-51.32-34.96-82.68-50.8c-64.09-32.37-130.37-65.85-138.53-108.21c-1.67-8.67,4-17.05,12.67-18.72
					c8.63-1.66,17.05,4,18.72,12.67c5.2,26.95,72.45,60.92,121.56,85.73c59.05,29.83,92.77,47.83,99.1,70.89
					c2.91,10.61,1.47,20.85-4.17,29.6c-10.89,16.91-34.11,23.98-57.4,28.37c13.86,13.22,30.96,34.67,19.38,62.46
					c-14.67,35.21-51.39,26.1-73.39,19.56c11.83,16.42,22.09,40.78,2.83,68.54C1303.82,2235.85,1290.58,2240.26,1274.07,2240.26z
					 M1285.47,2206.54L1285.47,2206.54L1285.47,2206.54z"/>
			</g>
			<g>
				<path class="st1" d="M1982.56,426.09c-35.4,200.08-242.56,221.34-242.56,221.34l-166.43-58.42c0,0-14.91-61.94,21.66-139.58
					c19.1-40.52,52.23-85.27,108.77-127.79c128.27-96.34,147.33-159.2,202.44-159.32c49.63-0.12,74.97,50.43,82.6,117.56
					C1994.11,324.63,1991.28,376.74,1982.56,426.09z"/>
			</g>
			<g class="st4">
				<path class="st5" d="M1982.56,426.09c-35.4,200.08-242.56,221.34-242.56,221.34l-166.43-58.42c0,0-14.91-61.94,21.66-139.58
					c5.79-2.12,11.95-3.92,18.42-5.35c49.59-10.95,98.74-9.23,142.02-2.2c109.57,17.9,212.35-54.91,233.37-162
					C1994.11,324.63,1991.28,376.74,1982.56,426.09z"/>
			</g>
			<g class="st2">
				<path class="st3" d="M1990.8,354.28c-4.56-77.12-29.77-138.34-84.36-138.22c-55.1,0.12-74.17,62.98-202.44,159.36
					c-97.38,73.17-125.24,153.09-131.71,206.31c-4.4-30.65-11.27-152.69,131.71-260.1c128.27-96.34,147.33-159.2,202.44-159.32
					C1973.29,162.16,1996.07,253.94,1990.8,354.28z"/>
			</g>
			<g>
				<path class="st5" d="M1739.99,663.4c-8.1,0-15.04-6.13-15.88-14.36c-0.9-8.78,5.49-16.63,14.27-17.53
					c7.95-0.84,195.62-22.72,228.45-208.19c17.48-98.74,8.36-189.9-22.68-226.83c-10.29-12.24-22.57-18.2-37.55-18.2
					c-0.04,0-0.08,0-0.13,0c-23.36,0.05-38.4,14.39-73.18,49.7c-26.4,26.8-62.54,63.51-119.67,106.43
					c-153.86,115.6-125.74,245.41-124.47,250.88c2,8.57-3.31,17.18-11.88,19.21c-8.59,2.02-17.16-3.23-19.22-11.78
					c-1.51-6.27-35.01-155.1,136.37-283.85c55.22-41.49,90.41-77.22,116.09-103.31c35.08-35.62,58.25-59.15,95.88-59.24
					c0.07,0,0.14,0,0.2,0c24.31,0,45.75,10.23,62.03,29.59c45.35,53.95,45.07,166.05,29.68,252.97
					c-37.08,209.52-254.47,234.2-256.66,234.42C1741.08,663.37,1740.54,663.4,1739.99,663.4z"/>
			</g>
			<g>
				<path class="st1" d="M2346.16,562.88c-8.83,12.99-18.22,25.77-26.45,37.6c-58.66,84.52-67.57,130.59-117.16,186.93
					c-90.43,102.62-313.21,91.55-313.21,91.55l-34.33-66.61c0,0-31.37-102.54,71.65-209.79c21.54-22.42,48.95-45.04,83.76-66.97
					c150.85-95.11,315.44-117.08,356.64-71.29C2389.92,489.67,2370.34,527.19,2346.16,562.88z"/>
			</g>
			<g class="st4">
				<path class="st5" d="M2346.16,562.88c-8.83,12.99-18.22,25.77-26.45,37.6c-58.66,84.52-67.57,130.59-117.16,186.93
					c-90.43,102.62-313.21,91.55-313.21,91.55l-34.33-66.61c0,0-31.37-102.54,71.65-209.79l23.58-0.56c0,0,76.39,27.7,132.61,71.26
					c44.18,34.23,107.58,27.93,144.34-14.18c0.52-0.6,1.05-1.21,1.57-1.82C2257.89,623.42,2309.08,590.89,2346.16,562.88z"/>
			</g>
			<g class="st2">
				<path class="st3" d="M2375.77,503.61c-46.35-41.16-206.23-17.86-353.13,74.73c-149.21,93.99-162.6,200.68-159.56,249.63
					l-8.07-15.62c0,0-45.87-149.93,155.4-276.76c150.85-95.11,315.44-117.08,356.64-71.29
					C2377.09,475.44,2378.97,488.95,2375.77,503.61z"/>
			</g>
			<g>
				<path class="st5" d="M1909.96,895.34c-12.14,0-19.81-0.35-21.41-0.42c-8.81-0.44-15.6-7.94-15.17-16.75
					c0.44-8.82,8.03-15.61,16.75-15.18c2.12,0.11,216.19,9.46,300.4-86.16c25.96-29.48,39.95-55.46,57.67-88.35
					c14.68-27.26,31.32-58.16,58.36-97.12c3.44-4.96,7.09-10.09,10.83-15.32c25.36-35.55,56.92-79.79,37.78-101.06
					c-31.85-35.41-187.08-19.87-336.23,74.12c-187.59,118.23-150.3,252.96-148.62,258.64c2.5,8.44-2.29,17.34-10.71,19.88
					c-8.42,2.52-17.3-2.18-19.88-10.59c-2.02-6.6-47.07-163.11,162.17-294.97c149.12-93.97,325.3-125.96,377.04-68.46
					c36.29,40.34-3.53,96.16-35.53,141.01c-3.65,5.11-7.22,10.12-10.59,14.98c-26.01,37.48-42.19,67.54-56.47,94.06
					c-17.94,33.32-33.44,62.1-61.82,94.33C2136.1,887.01,1969.52,895.34,1909.96,895.34z"/>
			</g>
			<g>
				<path class="st1" d="M2505.16,1011.99c-5,67.17-150.49,122.6-264.58,152.09c-223.46,57.78-351.57-33.41-351.57-33.41
					l8.71-146.17c0,0,66.81-68.01,239.8-99.26c7.63-1.36,15.5-2.68,23.58-3.92c66.09-10.07,169.99,29.17,229.81,45.04
					c63.86,16.98,85.87,25.37,102.46,48.51C2502.48,987.57,2506.08,999.96,2505.16,1011.99z"/>
			</g>
			<g class="st4">
				<path class="st5" d="M2505.16,1011.99c-5,67.17-150.49,122.6-264.58,152.09c-223.46,57.78-351.57-33.41-351.57-33.41
					l8.71-146.17c0,0,66.81-68.01,239.8-99.26l33.85,10.87c0,0,22.95,19.07,39.06,65.17c37.24,106.59,167.05,150.17,259.64,85.54
					C2484.26,1036.9,2496.32,1025.38,2505.16,1011.99z"/>
			</g>
			<g class="st2">
				<path class="st3" d="M2504.92,1014.26c-16.46-22.42-38.76-30.85-101.78-47.59c-59.86-15.86-163.72-55.11-229.81-45.04
					c-190.53,29.01-263.38,103.18-263.38,103.18l-6.83,114.37c-9.31-5.11-14.11-8.51-14.11-8.51l8.71-146.17
					c0,0,72.85-74.17,263.38-103.18c66.09-10.07,169.99,29.17,229.81,45.04c63.86,16.98,85.87,25.37,102.46,48.51
					C2503.04,988.37,2506.52,1001.56,2504.92,1014.26z"/>
			</g>
			<g>
				<path class="st5" d="M2095.61,1199.38c-135.56,0-211.69-52.72-215.84-55.67c-7.19-5.12-8.87-15.1-3.75-22.29
					c5.11-7.19,15.08-8.88,22.29-3.76c1.2,0.84,125.53,85.94,338.3,30.95c138.85-35.89,234.84-85,250.51-128.18
					c4.41-12.16,2.27-23.69-6.74-36.27c-12.71-17.75-29.32-25.27-93.56-42.33c-12.79-3.4-27.55-7.84-43.18-12.54
					c-55.47-16.7-131.46-39.54-180.12-32.15c-181.82,27.69-253.72,97.92-254.42,98.62c-6.21,6.23-16.32,6.29-22.58,0.09
					c-6.25-6.19-6.35-16.25-0.18-22.53c3.12-3.18,78.82-78.3,272.36-107.77c55.82-8.5,132.51,14.59,194.15,33.13
					c15.37,4.63,29.89,8.99,42.18,12.26c63.39,16.84,91.21,26.5,111.35,54.62c15.05,21.03,18.79,43.78,10.8,65.79
					c-28.12,77.47-199.98,129.47-272.56,148.23C2189.07,1193.91,2139.25,1199.38,2095.61,1199.38z"/>
			</g>
			<g>
				<path class="st1" d="M655.05,1035.72l-43.4,170.95c0,0-6.95,8.47-19.94,20.54c-43.56,40.48-155.08,121.64-298.62,59.1
					c-48.43-21.1-95.78-49.39-130.87-80.24c-48.15-42.32-73.33-89.35-46.75-129.15c30.57-45.79,93.47-26.93,244.72-80.44
					C554.67,927.63,655.05,1035.72,655.05,1035.72z"/>
			</g>
			<g class="st4">
				<path class="st5" d="M591.71,1227.21c-43.56,40.48-155.08,121.64-298.62,59.1c-48.43-21.1-95.78-49.39-130.87-80.24
					c15.66,7.63,40.44,18.62,70.01,27.57c67.81,20.46,139.1-17.86,160.96-85.19c15.34-47.27,40.6-100.22,80.92-129.55
					C526.9,980.42,568.22,1118.64,591.71,1227.21z"/>
			</g>
			<g class="st2">
				<path class="st3" d="M655.05,1035.72l-0.96,3.72c-47.43-24.7-130.55-47.59-247.91-6.03c-151.25,53.55-214.15,34.65-244.72,80.48
					c-24.78,37.08-4.56,80.52,37.32,120.52c-70.37-48.55-116-108.53-83.32-157.48c30.57-45.79,93.47-26.93,244.72-80.44
					C554.67,927.63,655.05,1035.72,655.05,1035.72z"/>
			</g>
			<g>
				<path class="st5" d="M397.72,1325.01c-34.32,0-71.54-6.86-111-24.06c-80.92-35.27-174.45-97.05-194.31-164.68
					c-7.15-24.34-3.77-47.92,9.77-68.2c20.89-31.3,53.32-37.59,102.4-47.11c35.95-6.97,85.18-16.52,150.29-39.56
					c202.05-71.52,307.51,38.72,311.9,43.44c6.01,6.47,5.63,16.58-0.84,22.59c-6.46,5.99-16.54,5.63-22.54-0.79l0,0
					c-3.85-4.09-96.4-99.32-277.85-35.1c-67.35,23.84-117.93,33.65-154.87,40.81c-48.66,9.44-68.92,14.04-81.89,33.47
					c-8.34,12.5-10.21,26.06-5.69,41.45c13.59,46.29,84.49,104.31,176.42,144.38c172.64,75.26,294.71-68.96,299.82-75.14
					c5.63-6.8,15.69-7.75,22.5-2.15c6.8,5.61,7.78,15.66,2.18,22.48C622.87,1218.19,533.02,1325,397.72,1325.01z"/>
			</g>
			<g>
				<path class="st1" d="M721.91,1459.18c0,0-50.35,84.68-123.88,146.89c-37.12,31.41-80.16,57.14-125.63,63.34
					c-74.37,10.15-117.68-7.91-220.54-5.83c-7.95,0.16-16.3,0.48-24.86,0.76c-49.55,1.6-104.9,1.88-114.81-36.64
					c-15.34-59.62,94.03-184.54,256.66-257.62c217.06-97.5,316.56,23.66,316.56,23.66L721.91,1459.18z"/>
			</g>
			<g class="st4">
				<path class="st5" d="M598.03,1606.07c-37.12,31.41-80.16,57.14-125.63,63.34c-74.37,10.15-117.68-7.91-220.54-5.83
					c-7.95,0.16-16.3,0.48-24.86,0.76l-2.44-4.04c0,0,36.49-13.92,86.57-25.6c66.29-15.45,113.04-75.62,109.72-143.61
					c-1.3-26.5-0.14-57.37,5.03-92.85C442.7,1282.72,546.44,1492.19,598.03,1606.07z"/>
			</g>
			<g class="st2">
				<path class="st3" d="M721.91,1459.18c0,0-2.52,4.24-7.23,11.47l-19.74-35.4c0,0-99.46-121.16-316.52-23.66
					c-142.9,64.22-244.68,168.43-256.86,233.25c-4.36-4.64-7.59-10.27-9.35-17.14c-15.34-59.62,94.03-184.54,256.66-257.62
					c217.06-97.5,316.56,23.66,316.56,23.66L721.91,1459.18z"/>
			</g>
			<g>
				<path class="st5" d="M426.41,1688.53c-21.84,0-42.34-1.9-64.64-3.96c-30-2.77-64.01-5.93-109.58-4.99
					c-5.91,0.12-12.06,0.32-18.34,0.54c-55.04,1.85-123.59,4.14-137.12-48.42c-19.28-74.91,104.83-203.98,265.61-276.21
					c225.61-101.35,331.05,22.76,335.43,28.09c5.6,6.82,4.61,16.89-2.21,22.5c-6.8,5.59-16.83,4.62-22.45-2.15l0,0
					c-3.8-4.54-95.42-110.14-297.68-19.28c-160.83,72.25-259.62,192.96-247.75,239.08c7.13,27.72,61.46,25.9,105.09,24.44
					c6.43-0.21,12.71-0.42,18.75-0.55c47.43-0.97,82.35,2.27,113.18,5.12c37.2,3.44,66.59,6.16,105.51,0.84
					c126.43-17.28,236.86-200.72,237.96-202.57c4.52-7.59,14.34-10.08,21.91-5.57c7.59,4.51,10.08,14.32,5.57,21.91
					c-4.82,8.1-119.58,198.57-261.11,217.91C457.17,1687.62,441.47,1688.53,426.41,1688.53z"/>
			</g>
			<g>
				<path class="st1" d="M765.1,1909.53c-102.62,92.15-258.54,200.4-296.62,107.97c-0.28-0.68-0.56-1.4-0.84-2.12
					c-10.11-26.57-4.92-49.59,16.3-112.17c19.86-58.62,44.68-166.87,89.59-216.34c129.59-142.66,231.69-162.32,231.69-162.32
					l125.23,72.85l1.32,0.76C931.78,1598.16,936.85,1755.32,765.1,1909.53z"/>
			</g>
			<g class="st4">
				<path class="st5" d="M765.1,1909.53c-102.62,92.15-258.54,200.4-296.62,107.97c18.26,5.99,43.24,6.91,77.4-2.32
					c27.89-7.51,55.27-23.34,80.44-42.52c65.69-50.11,72.65-147.25,13.55-205c-29.89-29.17-45.75-54.87-45.75-54.87l336.34-115.4
					l1.32,0.76C931.78,1598.16,936.85,1755.32,765.1,1909.53z"/>
			</g>
			<g class="st2">
				<path class="st3" d="M927.18,1669.69l-116.96-68.05c0,0-102.1,19.66-231.69,162.32c-44.92,49.47-69.73,157.72-89.59,216.34
					c-6.07,17.86-10.83,32.49-14.27,44.92c-0.72-1.56-1.4-3.16-2.04-4.83c-10.11-26.57-4.92-49.59,16.3-112.17
					c19.86-58.62,44.68-166.87,89.59-216.34c129.59-142.66,231.69-162.32,231.69-162.32l126.55,73.61
					C936.78,1603.16,937.61,1628.85,927.18,1669.69z"/>
			</g>
			<g>
				<path class="st5" d="M521,2068.66c-6.8,0-13.3-0.7-19.47-2.2c-22.76-5.52-39.65-21.22-48.83-45.39
					c-12.29-32.33-4.94-60.85,16.1-122.98c4.08-12.04,8.47-26.56,13.12-41.92c18.64-61.6,41.85-138.27,79.8-180.06
					c131.63-144.93,236.07-166.42,240.46-167.27c8.63-1.65,17.05,4,18.72,12.67c1.67,8.65-3.98,17.01-12.62,18.71
					c-1.43,0.29-99.53,21.55-222.9,157.38c-33.11,36.45-56.08,112.38-72.87,167.82c-4.73,15.62-9.19,30.38-13.44,42.92
					c-21.32,62.96-24.25,80.96-16.5,101.36c5.5,14.47,13.92,22.63,26.49,25.68c44.64,10.84,138.66-41.96,245.37-137.77
					c164.29-147.51,161.42-297.44,161.37-298.93c-0.28-8.82,6.64-16.21,15.46-16.49c8.72-0.25,16.21,6.64,16.49,15.46
					c0.21,6.72,3.28,166.39-171.97,323.75C724.31,1967.64,602.44,2068.65,521,2068.66z"/>
			</g>
			<g class="st4">
				<path class="st5" d="M1814.96,1539.54c-62.04,81.04-190.28,142.97-319.95,194.04c-110.81,43.68-219.06,79.2-321.6,103.02
					c-9.31,2.2-18.58,4.28-27.77,6.23c-10.99,2.36-21.94,4.6-32.77,6.63c7.19-14.51,15.46-29.45,24.86-44.88
					c-10.19-44.32-25.17-95.23-47.23-154.61l680.12-191.89C1770.62,1458.1,1772.76,1475.01,1814.96,1539.54z"/>
			</g>
			<g>
				<path class="st6" d="M2150.72,870.78c143.01,363.01-191.02,619.8-655.72,802.87s-884.13,223.1-1027.13-139.91
					s88.49-880.06,553.2-1063.13S2007.71,507.77,2150.72,870.78z"/>
			</g>
			<g class="st4">
				<path class="st5" d="M1495.01,1673.65c-464.74,183.1-884.16,223.1-1027.13-139.9c-11.19-28.37-20.06-57.7-26.73-87.71
					c2,5.55,4.08,11.11,6.23,16.58c143.02,363,562.44,323,1027.13,139.9c428.73-168.87,746.25-400.52,680.48-720.48
					C2286.78,1239.12,1954.87,1492.51,1495.01,1673.65z"/>
			</g>
			<g class="st7">
				<path class="st3" d="M2140.72,860.77c-143.02-363-664.94-583.22-1129.67-400.16c-37.54,14.79-73.53,31.79-107.95,50.68
					c-137.15,75.28-248.95,181.06-330.7,301.09c-151.71,222.75-199.95,494.53-114.52,711.37c6.43,16.38,13.47,31.93,21.06,46.71
					c-75.6-231.9-6.96-518.18,171.54-740.31c48.35-7.66,107.69-38.26,161.31-87.17c47.88-43.68,81.64-93.24,96.91-137.14
					c42.49-25.18,87.53-47.43,135.05-66.15c443.88-174.83,939.9,18.22,1108.13,352.17C2148.55,881.59,2144.83,871.2,2140.72,860.77z
					"/>
			</g>
			<g>
				<path class="st5" d="M911.8,1826.17c-17.87,0-35.22-0.58-52.1-1.75c-200.88-13.87-337.71-109.7-406.7-284.82
					c-71.59-181.73-53.64-404.8,49.26-612.01c107.4-216.28,289.57-383.85,512.95-471.85c223.37-88.01,470.89-89.7,696.95-4.79
					c216.58,81.35,381.85,232.24,453.45,413.96c127.11,322.66-96.54,599.76-664.74,823.6
					C1268.7,1779.98,1070.89,1826.17,911.8,1826.17z M1368.93,420.32c-112,0-227.85,20.19-342.02,65.17
					c-216,85.1-392.16,247.16-496.04,456.33c-98.89,199.13-116.44,412.74-48.15,586.07c64.98,164.95,189,251.52,379.16,264.65
					c162.51,11.23,373.49-33.78,627.25-133.75c253.76-99.97,438.78-211,549.94-330c130.11-139.29,161.76-287.19,96.78-452.14
					C2034.72,619.94,1721.02,420.32,1368.93,420.32z"/>
			</g>
			<g>
				<g>
					<path class="st5" d="M901.2,1321.37c-9.28-13.07-15.16-27.3-19.22-42.86c-3.79-15.49-4.97-32.43-1.43-49.54
						c3.49-16.98,12.02-34.01,24.65-46.66c3.02-3.32,6.4-6.13,9.76-8.99c3.52-2.54,6.96-5.32,10.65-7.46
						c7.18-4.7,15.1-8.34,23.15-11.33c8.08-2.92,16.54-4.96,25.02-5.98c8.47-1.2,17.28-1.37,26.08-0.39
						c17.64,1.71,34.93,9,48.41,19.63c13.63,10.59,23.69,24.05,30.93,38.12c3.57,7.09,6.71,14.26,9,21.69
						c2.4,7.44,4.16,14.73,5.17,22.78c0.46,3.68-2.15,7.05-5.83,7.51c-2.85,0.36-5.5-1.12-6.77-3.51l-0.26-0.49
						c-12.86-24.26-30.28-47.15-51.01-58.89c-10.35-5.84-21.21-9.07-32.57-9.25c-2.81-0.23-5.71,0.08-8.57,0.15
						c-2.91,0.45-5.78,0.57-8.72,1.24c-5.91,0.88-11.54,2.67-17.08,4.7c-5.52,2.11-10.8,4.71-15.79,7.93
						c-2.64,1.42-4.83,3.26-7.26,4.87c-2.12,1.88-4.49,3.52-6.43,5.51c-8.18,7.64-14.2,16.91-18.1,27.94
						c-8.01,22.02-6.56,50.36-1.7,77.59l0.11,0.6c0.66,3.67-1.79,7.19-5.46,7.84C905.24,1324.58,902.67,1323.43,901.2,1321.37z"/>
				</g>
				<g>
					<path class="st5" d="M1547.61,1082.55c-9.28-13.07-15.16-27.3-19.22-42.86c-3.79-15.49-4.97-32.43-1.43-49.54
						c3.49-16.98,12.02-34.01,24.65-46.65c3.02-3.33,6.4-6.13,9.77-8.99c3.52-2.54,6.96-5.32,10.65-7.47
						c7.18-4.7,15.1-8.34,23.14-11.32c8.08-2.92,16.54-4.96,25.02-5.98c8.46-1.2,17.27-1.37,26.08-0.39
						c17.64,1.71,34.93,9,48.41,19.63c13.63,10.59,23.69,24.05,30.93,38.12c3.57,7.09,6.71,14.26,9,21.68
						c2.4,7.44,4.17,14.73,5.18,22.78c0.46,3.68-2.15,7.05-5.83,7.51c-2.84,0.36-5.5-1.12-6.77-3.51l-0.26-0.49
						c-12.86-24.26-30.28-47.15-51.02-58.89c-10.35-5.84-21.21-9.07-32.57-9.25c-2.81-0.23-5.71,0.08-8.57,0.15
						c-2.91,0.45-5.78,0.57-8.72,1.24c-5.91,0.88-11.54,2.67-17.08,4.7c-5.52,2.11-10.8,4.72-15.79,7.93
						c-2.65,1.42-4.83,3.27-7.26,4.87c-2.12,1.88-4.5,3.52-6.44,5.51c-8.18,7.64-14.2,16.91-18.1,27.94
						c-8.01,22.02-6.57,50.36-1.7,77.59l0.1,0.59c0.66,3.67-1.79,7.19-5.46,7.84C1551.66,1085.77,1549.08,1084.61,1547.61,1082.55z"
						/>
				</g>
			</g>
			<g>
				
					<ellipse transform="matrix(0.9258 -0.3781 0.3781 0.9258 -278.464 780.9082)" class="st8" cx="1849.56" cy="1099.64" rx="103.23" ry="61.39"/>
			</g>
			<g>
				
					<ellipse transform="matrix(0.9258 -0.3781 0.3781 0.9258 -496.826 442.8681)" class="st8" cx="879.47" cy="1486.73" rx="103.23" ry="61.39"/>
			</g>
			<g>
				<path class="st6" d="M1793.13,1558.86c157.36-129.87,158.08-320.87,215.62-319.25c25.07,0.7,33.57,33.05,36.45,54.85
					c0.99,7.48,9.94,10.82,15.5,5.72c17.99-16.5,48.88-40.48,65.86-28.71c15.66,10.85,16.72,41.08,15.33,62.07
					c-0.52,7.87,8.26,12.8,14.7,8.25c20.69-14.61,54.54-33.42,69.81-13.31c22.81,30.02-88.78,330.86-311.92,410.61L1793.13,1558.86z
					"/>
			</g>
			<g class="st2">
				<path class="st3" d="M2142.28,1318.16c-1.76-2.6-3.88-4.83-6.39-6.59c-16.98-11.75-47.87,12.23-65.85,28.73
					c-5.59,5.07-14.51,1.76-15.5-5.71c-2.88-21.82-11.39-54.15-36.44-54.87c-50.96-1.45-36.92,123.6-143.26,243.49
					c-20.64,23.27-50.61,36.1-81.71,35.67l0,0c157.36-129.87,158.08-320.88,215.62-319.28c25.1,0.72,33.57,33.05,36.44,54.86
					c1,7.47,9.95,10.83,15.5,5.71c17.98-16.5,48.91-40.48,65.89-28.69C2138.69,1279.88,2142.04,1299.82,2142.28,1318.16z"/>
			</g>
			<g class="st2">
				<path class="st3" d="M2227.08,1361.76c-17.14-7.35-43.8,7.87-61.18,20.14c-6.43,4.56-15.18-0.4-14.67-8.23
					c0.6-9.11,0.72-19.94-0.6-30.17c2,0.12,4.08-0.4,5.95-1.72c20.7-14.59,54.55-33.41,69.81-13.31
					C2230.04,1333.27,2230.28,1345.05,2227.08,1361.76z"/>
			</g>
			<g class="st9">
				<path class="st3" d="M2150.64,1343.49c-4.8-0.28-9.11-4.36-8.75-9.95c0.32-4.76,0.52-9.99,0.4-15.38
					C2146.92,1324.79,2149.44,1333.9,2150.64,1343.49z"/>
				<path class="st5" d="M2153.49,1346.16l-3-0.18c-3.12-0.18-6.11-1.64-8.19-3.99c-2.08-2.35-3.12-5.41-2.91-8.61
					c0.37-5.51,0.5-10.47,0.4-15.17l-0.19-8.27l4.74,6.78c4.42,6.33,7.38,15.23,8.78,26.46L2153.49,1346.16z M2144.67,1328.41
					c-0.07,1.72-0.17,3.48-0.29,5.31c-0.15,2.38,0.82,4.02,1.66,4.97c0.46,0.51,0.99,0.95,1.56,1.31
					C2146.88,1335.68,2145.9,1331.82,2144.67,1328.41z"/>
			</g>
			<g class="st4">
				<path class="st5" d="M1914.47,1739.1L1914.47,1739.1c-20.47-30.42-10.28-71.7,21.82-89.42
					c147.4-81.39,280.27-181.26,286.53-309.17c6.71,0.32-0.82-17.83,3.58-12.03C2249.22,1358.52,2137.65,1659.34,1914.47,1739.1z"/>
			</g>
			<g>
				<path class="st5" d="M1914.49,1755.08c-6.56,0-12.71-4.07-15.05-10.61c-2.97-8.31,1.36-17.46,9.67-20.43
					c119.13-42.57,198.65-149.72,235.44-209.79c53.71-87.69,72.04-162.24,68.53-176.75c-5.82-5.4-24.9,1.56-47.27,17.35
					c-8.06,5.69-18.4,6.24-26.99,1.43c-8.59-4.81-13.53-13.93-12.88-23.78c1.96-29.65-3.34-44.33-8.48-47.89
					c-2.47-1.72-17.92,1.63-45.96,27.35c-6.96,6.39-16.8,8.35-25.67,5.13c-8.92-3.24-15.24-11.1-16.48-20.52
					c-2.59-19.6-9.48-40.65-21.05-40.98c-0.07,0-0.14,0-0.21,0c-13.53,0-28.31,35.94-43.94,73.98
					c-28.59,69.54-67.74,164.79-160.84,241.62c-6.81,5.62-16.88,4.66-22.5-2.15c-5.62-6.81-4.65-16.88,2.15-22.5
					c86.92-71.74,124.32-162.71,151.62-229.13c22.34-54.34,38.56-93.79,73.31-93.79c0.44,0,0.87,0,1.31,0.02
					c14.87,0.42,40.08,8.65,49.85,56.72c32.52-27.32,58.27-34.73,76.62-22.02c15.23,10.55,22.83,31.76,22.66,63.12
					c48.65-30.24,71.35-15.08,80.81-2.63c3.67,4.83,13.41,17.66-3.01,72.92c-33.34,112.16-145.09,301.24-316.25,362.4
					C1918.09,1754.78,1916.28,1755.08,1914.49,1755.08z M2212.88,1336.8L2212.88,1336.8L2212.88,1336.8z"/>
			</g>
			<g class="st4">
				<path class="st5" d="M1320.83,2554.99c30.83,8.78,65.87,8.36,92.89-0.03c42.87-13.32,57.08-34.5,44.95-32.8
					c-68.48,9.59-99.92-1.43-117.09-7.92C1338.33,2519.96,1329.81,2535.33,1320.83,2554.99z"/>
			</g>
			<g>
				<path class="st5" d="M1285.81,1287.07c-34.23,0-61.36-27.73-62.81-29.24c-5.74-5.97-5.55-15.47,0.43-21.21
					c5.98-5.73,15.46-5.55,21.21,0.43c0.26,0.27,30.28,30.59,57.34,15.69c18.93-10.42,21.91-32.12,22-44.13
					c0.06-7.21,4.33-13.77,10.88-16.72c6.54-2.95,14.3-1.82,19.72,2.91c9.06,7.87,27.34,19.98,47.65,12.68
					c29.06-10.44,26.17-53.02,26.14-53.44c-0.63-8.24,5.53-15.46,13.76-16.12c8.25-0.68,15.45,5.45,16.13,13.68
					c0.22,2.68,4.88,65.87-45.89,84.11c-19.6,7.04-40.91,4.67-60.61-6.34c-4.76,22.04-17.08,39.6-35.32,49.65
					C1305.95,1284.8,1295.58,1287.07,1285.81,1287.07z M1334.91,1217.44c0,0,0.01,0.01,0.01,0.01
					C1334.92,1217.45,1334.92,1217.45,1334.91,1217.44z"/>
			</g>
		</g>
	</g>
</g>
</svg>
